<svg width="81" height="49" viewBox="0 0 81 49" fill="none" xmlns="http://www.w3.org/2000/svg">
<rect x="0.5" y="0.5" width="80" height="48" rx="9.5" fill="white" stroke="#E2E8F0"/>
<path fill-rule="evenodd" clip-rule="evenodd" d="M51.54 24.7613C51.54 23.9459 51.4668 23.1618 51.3309 22.4091H40.5V26.8575H46.6891C46.4225 28.295 45.6123 29.5129 44.3943 30.3284V33.2138H48.1109C50.2855 31.2118 51.54 28.2636 51.54 24.7613Z" fill="#4285F4"/>
<path fill-rule="evenodd" clip-rule="evenodd" d="M40.4995 35.9998C43.6045 35.9998 46.2077 34.97 48.1104 33.2137L44.3938 30.3282C43.364 31.0182 42.0467 31.4259 40.4995 31.4259C37.5042 31.4259 34.969 29.403 34.0647 26.6848H30.2227V29.6644C32.1149 33.4228 36.004 35.9998 40.4995 35.9998Z" fill="#34A853"/>
<path fill-rule="evenodd" clip-rule="evenodd" d="M34.0652 26.6851C33.8352 25.9951 33.7045 25.2581 33.7045 24.5001C33.7045 23.7422 33.8352 23.0051 34.0652 22.3151V19.3356H30.2232C29.4443 20.8881 29 22.6444 29 24.5001C29 26.3558 29.4443 28.1122 30.2232 29.6647L34.0652 26.6851Z" fill="#FBBC05"/>
<path fill-rule="evenodd" clip-rule="evenodd" d="M40.4995 17.5739C42.1879 17.5739 43.7038 18.1541 44.8956 19.2936L48.194 15.9952C46.2024 14.1395 43.5992 13 40.4995 13C36.004 13 32.1149 15.577 30.2227 19.3355L34.0647 22.315C34.969 19.5968 37.5042 17.5739 40.4995 17.5739Z" fill="#EA4335"/>
</svg>
