<svg width="341" height="17" viewBox="0 0 341 17" fill="none" xmlns="http://www.w3.org/2000/svg">
<path d="M121.28 10.02H117.617L116.88 12H116.341L119.179 4.454H119.729L122.556 12H122.017L121.28 10.02ZM121.126 9.602L119.454 5.103L117.771 9.602H121.126ZM124.535 6.456V10.405C124.535 10.845 124.616 11.1493 124.777 11.318C124.939 11.4793 125.225 11.56 125.635 11.56H126.306V12H125.558C125.038 12 124.653 11.879 124.403 11.637C124.161 11.3877 124.04 10.977 124.04 10.405V6.456H123.138V6.027H124.04V4.509H124.535V6.027H126.306V6.456H124.535ZM127.304 9.008C127.304 8.392 127.425 7.853 127.667 7.391C127.916 6.929 128.257 6.57333 128.69 6.324C129.13 6.07467 129.629 5.95 130.186 5.95C130.817 5.95 131.352 6.104 131.792 6.412C132.232 6.72 132.54 7.11233 132.716 7.589V6.027H133.211V12H132.716V10.427C132.54 10.911 132.228 11.3107 131.781 11.626C131.341 11.934 130.809 12.088 130.186 12.088C129.629 12.088 129.13 11.9633 128.69 11.714C128.257 11.4573 127.916 11.098 127.667 10.636C127.425 10.1667 127.304 9.624 127.304 9.008ZM132.716 9.008C132.716 8.48733 132.606 8.029 132.386 7.633C132.173 7.22967 131.88 6.92167 131.506 6.709C131.132 6.489 130.714 6.379 130.252 6.379C129.768 6.379 129.343 6.48533 128.976 6.698C128.609 6.90333 128.323 7.204 128.118 7.6C127.913 7.996 127.81 8.46533 127.81 9.008C127.81 9.55067 127.913 10.02 128.118 10.416C128.323 10.812 128.609 11.1163 128.976 11.329C129.35 11.5417 129.775 11.648 130.252 11.648C130.714 11.648 131.132 11.5417 131.506 11.329C131.887 11.109 132.184 10.801 132.397 10.405C132.61 10.0017 132.716 9.536 132.716 9.008ZM140.062 6.027V12H139.567V10.702C139.399 11.1567 139.116 11.505 138.72 11.747C138.332 11.9817 137.884 12.099 137.378 12.099C136.667 12.099 136.084 11.8827 135.629 11.45C135.182 11.01 134.958 10.361 134.958 9.503V6.027H135.442V9.47C135.442 10.1813 135.622 10.7277 135.981 11.109C136.341 11.483 136.828 11.67 137.444 11.67C138.09 11.67 138.603 11.4647 138.984 11.054C139.373 10.6433 139.567 10.0347 139.567 9.228V6.027H140.062ZM152.033 5.906C152.715 5.906 153.273 6.126 153.705 6.566C154.138 6.99867 154.354 7.644 154.354 8.502V12H153.87V8.535C153.87 7.82367 153.698 7.281 153.353 6.907C153.016 6.52567 152.55 6.335 151.956 6.335C151.34 6.335 150.845 6.54767 150.471 6.973C150.097 7.39833 149.91 8.01433 149.91 8.821V12H149.426V8.535C149.426 7.82367 149.254 7.281 148.909 6.907C148.572 6.52567 148.106 6.335 147.512 6.335C146.896 6.335 146.401 6.54767 146.027 6.973C145.653 7.39833 145.466 8.01433 145.466 8.821V12H144.971V6.027H145.466V7.325C145.635 6.85567 145.906 6.50367 146.28 6.269C146.662 6.027 147.098 5.906 147.589 5.906C148.132 5.906 148.598 6.049 148.986 6.335C149.382 6.61367 149.654 7.028 149.8 7.578C149.94 7.028 150.211 6.61367 150.614 6.335C151.018 6.049 151.491 5.906 152.033 5.906ZM155.803 9.008C155.803 8.392 155.924 7.853 156.166 7.391C156.415 6.929 156.756 6.57333 157.189 6.324C157.629 6.07467 158.128 5.95 158.685 5.95C159.316 5.95 159.851 6.104 160.291 6.412C160.731 6.72 161.039 7.11233 161.215 7.589V6.027H161.71V12H161.215V10.427C161.039 10.911 160.727 11.3107 160.28 11.626C159.84 11.934 159.308 12.088 158.685 12.088C158.128 12.088 157.629 11.9633 157.189 11.714C156.756 11.4573 156.415 11.098 156.166 10.636C155.924 10.1667 155.803 9.624 155.803 9.008ZM161.215 9.008C161.215 8.48733 161.105 8.029 160.885 7.633C160.672 7.22967 160.379 6.92167 160.005 6.709C159.631 6.489 159.213 6.379 158.751 6.379C158.267 6.379 157.842 6.48533 157.475 6.698C157.108 6.90333 156.822 7.204 156.617 7.6C156.412 7.996 156.309 8.46533 156.309 9.008C156.309 9.55067 156.412 10.02 156.617 10.416C156.822 10.812 157.108 11.1163 157.475 11.329C157.849 11.5417 158.274 11.648 158.751 11.648C159.213 11.648 159.631 11.5417 160.005 11.329C160.386 11.109 160.683 10.801 160.896 10.405C161.109 10.0017 161.215 9.536 161.215 9.008ZM165.503 12.088C164.836 12.088 164.29 11.9413 163.864 11.648C163.446 11.3547 163.212 10.9367 163.16 10.394H163.666C163.703 10.7827 163.879 11.0907 164.194 11.318C164.517 11.5453 164.953 11.659 165.503 11.659C165.958 11.659 166.317 11.5453 166.581 11.318C166.853 11.0833 166.988 10.7973 166.988 10.46C166.988 10.2253 166.915 10.0347 166.768 9.888C166.629 9.734 166.453 9.61667 166.24 9.536C166.028 9.45533 165.738 9.36733 165.371 9.272C164.931 9.15467 164.576 9.041 164.304 8.931C164.033 8.81367 163.802 8.64133 163.611 8.414C163.421 8.18667 163.325 7.88233 163.325 7.501C163.325 7.22233 163.41 6.96567 163.578 6.731C163.747 6.489 163.982 6.29833 164.282 6.159C164.583 6.01967 164.924 5.95 165.305 5.95C165.929 5.95 166.431 6.10767 166.812 6.423C167.201 6.731 167.41 7.16 167.439 7.71H166.944C166.922 7.314 166.768 6.99133 166.482 6.742C166.196 6.49267 165.8 6.368 165.294 6.368C164.869 6.368 164.517 6.478 164.238 6.698C163.96 6.918 163.82 7.18567 163.82 7.501C163.82 7.77967 163.897 8.007 164.051 8.183C164.213 8.35167 164.407 8.48367 164.634 8.579C164.869 8.667 165.177 8.76233 165.558 8.865C165.976 8.975 166.31 9.085 166.559 9.195C166.816 9.29767 167.032 9.45167 167.208 9.657C167.384 9.855 167.472 10.1227 167.472 10.46C167.472 10.768 167.388 11.0467 167.219 11.296C167.051 11.5453 166.816 11.7397 166.515 11.879C166.215 12.0183 165.877 12.088 165.503 12.088ZM174.029 6.027V12H173.534V10.702C173.365 11.1567 173.083 11.505 172.687 11.747C172.298 11.9817 171.851 12.099 171.345 12.099C170.634 12.099 170.051 11.8827 169.596 11.45C169.149 11.01 168.925 10.361 168.925 9.503V6.027H169.409V9.47C169.409 10.1813 169.589 10.7277 169.948 11.109C170.307 11.483 170.795 11.67 171.411 11.67C172.056 11.67 172.57 11.4647 172.951 11.054C173.34 10.6433 173.534 10.0347 173.534 9.228V6.027H174.029ZM178.936 12L176.329 9.261V12H175.834V3.86H176.329V8.733L178.892 6.027H179.585L176.692 8.997L179.618 12H178.936ZM183.432 9.008C183.432 8.392 183.553 7.853 183.795 7.391C184.044 6.929 184.385 6.57333 184.818 6.324C185.258 6.07467 185.757 5.95 186.314 5.95C186.923 5.95 187.451 6.104 187.898 6.412C188.345 6.71267 188.661 7.105 188.844 7.589V3.86H189.339V12H188.844V10.416C188.668 10.9073 188.36 11.3107 187.92 11.626C187.48 11.934 186.945 12.088 186.314 12.088C185.757 12.088 185.258 11.9633 184.818 11.714C184.385 11.4573 184.044 11.098 183.795 10.636C183.553 10.1667 183.432 9.624 183.432 9.008ZM188.844 9.008C188.844 8.48733 188.734 8.029 188.514 7.633C188.301 7.22967 188.008 6.92167 187.634 6.709C187.26 6.489 186.842 6.379 186.38 6.379C185.896 6.379 185.471 6.48533 185.104 6.698C184.737 6.90333 184.451 7.204 184.246 7.6C184.041 7.996 183.938 8.46533 183.938 9.008C183.938 9.55067 184.041 10.02 184.246 10.416C184.451 10.812 184.737 11.1163 185.104 11.329C185.478 11.5417 185.903 11.648 186.38 11.648C186.842 11.648 187.26 11.5417 187.634 11.329C188.015 11.109 188.312 10.801 188.525 10.405C188.738 10.0017 188.844 9.536 188.844 9.008ZM196.52 8.612C196.52 8.876 196.513 9.074 196.498 9.206H191.339C191.354 9.74133 191.471 10.1923 191.691 10.559C191.911 10.9257 192.201 11.2007 192.56 11.384C192.92 11.5673 193.312 11.659 193.737 11.659C194.324 11.659 194.815 11.516 195.211 11.23C195.607 10.9367 195.857 10.5407 195.959 10.042H196.476C196.359 10.6507 196.058 11.1457 195.574 11.527C195.09 11.901 194.478 12.088 193.737 12.088C193.18 12.088 192.681 11.9633 192.241 11.714C191.801 11.4647 191.457 11.109 191.207 10.647C190.958 10.1777 190.833 9.63133 190.833 9.008C190.833 8.38467 190.954 7.842 191.196 7.38C191.446 6.918 191.79 6.566 192.23 6.324C192.67 6.07467 193.173 5.95 193.737 5.95C194.309 5.95 194.804 6.07467 195.222 6.324C195.648 6.566 195.97 6.89233 196.19 7.303C196.41 7.70633 196.52 8.14267 196.52 8.612ZM196.025 8.799C196.047 8.271 195.952 7.82367 195.739 7.457C195.534 7.09033 195.252 6.819 194.892 6.643C194.533 6.45967 194.144 6.368 193.726 6.368C193.308 6.368 192.92 6.45967 192.56 6.643C192.208 6.819 191.919 7.09033 191.691 7.457C191.471 7.82367 191.354 8.271 191.339 8.799H196.025ZM200.711 5.906C201.423 5.906 202.002 6.126 202.449 6.566C202.897 6.99867 203.12 7.644 203.12 8.502V12H202.636V8.535C202.636 7.82367 202.457 7.281 202.097 6.907C201.738 6.52567 201.25 6.335 200.634 6.335C199.989 6.335 199.472 6.54033 199.083 6.951C198.702 7.36167 198.511 7.97033 198.511 8.777V12H198.016V6.027H198.511V7.292C198.68 6.84467 198.959 6.50367 199.347 6.269C199.743 6.027 200.198 5.906 200.711 5.906ZM207.444 5.95C208.074 5.95 208.61 6.104 209.05 6.412C209.49 6.71267 209.798 7.10133 209.974 7.578V6.027H210.469V12.187C210.469 12.737 210.348 13.2173 210.106 13.628C209.864 14.046 209.537 14.365 209.127 14.585C208.716 14.8123 208.258 14.926 207.752 14.926C207.004 14.926 206.384 14.7463 205.893 14.387C205.401 14.0277 205.079 13.5437 204.925 12.935H205.42C205.566 13.4117 205.841 13.7893 206.245 14.068C206.648 14.354 207.15 14.497 207.752 14.497C208.17 14.497 208.547 14.4017 208.885 14.211C209.222 14.0277 209.486 13.76 209.677 13.408C209.875 13.0633 209.974 12.6563 209.974 12.187V10.438C209.798 10.9147 209.486 11.3107 209.039 11.626C208.599 11.934 208.067 12.088 207.444 12.088C206.886 12.088 206.388 11.9633 205.948 11.714C205.515 11.4573 205.174 11.098 204.925 10.636C204.683 10.1667 204.562 9.624 204.562 9.008C204.562 8.392 204.683 7.853 204.925 7.391C205.174 6.929 205.515 6.57333 205.948 6.324C206.388 6.07467 206.886 5.95 207.444 5.95ZM209.974 9.008C209.974 8.48733 209.864 8.029 209.644 7.633C209.431 7.22967 209.138 6.92167 208.764 6.709C208.39 6.489 207.972 6.379 207.51 6.379C207.026 6.379 206.6 6.48533 206.234 6.698C205.867 6.90333 205.581 7.204 205.376 7.6C205.17 7.996 205.068 8.46533 205.068 9.008C205.068 9.55067 205.17 10.02 205.376 10.416C205.581 10.812 205.867 11.1163 206.234 11.329C206.608 11.5417 207.033 11.648 207.51 11.648C207.972 11.648 208.39 11.5417 208.764 11.329C209.145 11.109 209.442 10.801 209.655 10.405C209.867 10.0017 209.974 9.536 209.974 9.008ZM211.963 9.008C211.963 8.392 212.084 7.853 212.326 7.391C212.575 6.929 212.916 6.57333 213.349 6.324C213.789 6.07467 214.288 5.95 214.845 5.95C215.476 5.95 216.011 6.104 216.451 6.412C216.891 6.72 217.199 7.11233 217.375 7.589V6.027H217.87V12H217.375V10.427C217.199 10.911 216.887 11.3107 216.44 11.626C216 11.934 215.468 12.088 214.845 12.088C214.288 12.088 213.789 11.9633 213.349 11.714C212.916 11.4573 212.575 11.098 212.326 10.636C212.084 10.1667 211.963 9.624 211.963 9.008ZM217.375 9.008C217.375 8.48733 217.265 8.029 217.045 7.633C216.832 7.22967 216.539 6.92167 216.165 6.709C215.791 6.489 215.373 6.379 214.911 6.379C214.427 6.379 214.002 6.48533 213.635 6.698C213.268 6.90333 212.982 7.204 212.777 7.6C212.572 7.996 212.469 8.46533 212.469 9.008C212.469 9.55067 212.572 10.02 212.777 10.416C212.982 10.812 213.268 11.1163 213.635 11.329C214.009 11.5417 214.434 11.648 214.911 11.648C215.373 11.648 215.791 11.5417 216.165 11.329C216.546 11.109 216.843 10.801 217.056 10.405C217.269 10.0017 217.375 9.536 217.375 9.008ZM222.368 5.906C223.079 5.906 223.658 6.126 224.106 6.566C224.553 6.99867 224.777 7.644 224.777 8.502V12H224.293V8.535C224.293 7.82367 224.113 7.281 223.754 6.907C223.394 6.52567 222.907 6.335 222.291 6.335C221.645 6.335 221.128 6.54033 220.74 6.951C220.358 7.36167 220.168 7.97033 220.168 8.777V12H219.673V6.027H220.168V7.292C220.336 6.84467 220.615 6.50367 221.004 6.269C221.4 6.027 221.854 5.906 222.368 5.906Z" fill="black"/>
<rect y="8" width="105" height="1" fill="#D9D9D9"/>
<rect x="341" y="10" width="105" height="1" transform="rotate(-180 341 10)" fill="#D9D9D9"/>
</svg>
