<svg width="20" height="22" viewBox="0 0 20 22" fill="none" xmlns="http://www.w3.org/2000/svg" xmlns:xlink="http://www.w3.org/1999/xlink">
<mask id="mask_0_i_294_10206;234_4075;234_3820;164_1458" style="mask-type:alpha" maskUnits="userSpaceOnUse" x="-0.055054" y="0.574951" width="9.583335" height="9.583335">
<path d="M10.778,1.825C10.778,1.135 10.219,0.575 9.528,0.575C8.838,0.575 8.278,1.135 8.278,1.825L8.278,8.908L1.195,8.908C0.505,8.908 -0.055,9.468 -0.055,10.158C-0.055,10.849 0.505,11.408 1.195,11.408L8.278,11.408L8.278,18.492C8.278,19.182 8.838,19.742 9.528,19.742C10.219,19.742 10.778,19.182 10.778,18.492L10.778,11.408L17.862,11.408C18.552,11.408 19.112,10.849 19.112,10.158C19.112,9.468 18.552,8.908 17.862,8.908L10.778,8.908L10.778,1.825Z" fill="#006FFD"/>
</mask>
<rect  x="-0.472" y="0.158" width="20" height="20" fill="#006FFD"/>
</svg>
