<svg width="32" height="32" viewBox="0 0 32 32" fill="none" xmlns="http://www.w3.org/2000/svg" xmlns:xlink="http://www.w3.org/1999/xlink">
<mask id="mask_0_i_216_4184;164_1458" style="mask-type:alpha" maskUnits="userSpaceOnUse" x="-0.123047" y="0.666626" width="15.333335" height="15.333335">
<path d="M17.21,2.667C17.21,1.562 16.315,0.667 15.21,0.667C14.106,0.667 13.21,1.562 13.21,2.667L13.21,14L1.877,14C0.772,14 -0.123,14.895 -0.123,16C-0.123,17.105 0.772,18 1.877,18L13.21,18L13.21,29.333C13.21,30.438 14.106,31.333 15.21,31.333C16.315,31.333 17.21,30.438 17.21,29.333L17.21,18L28.544,18C29.648,18 30.544,17.105 30.544,16C30.544,14.895 29.648,14 28.544,14L17.21,14L17.21,2.667Z" fill="#006FFD"/>
</mask>
<rect  x="-0.789" y="0" width="32" height="32" fill="#006FFD"/>
</svg>
