<svg width="20" height="20" viewBox="0 0 20 20" fill="none" xmlns="http://www.w3.org/2000/svg" xmlns:xlink="http://www.w3.org/1999/xlink">
<mask id="mask_0_i_263_4260;263_4270;164_1458" style="mask-type:alpha" maskUnits="userSpaceOnUse" x="0.259521" y="0.416626" width="9.583335" height="9.583335">
<path d="M11.093,1.667C11.093,0.976 10.533,0.417 9.843,0.417C9.153,0.417 8.593,0.976 8.593,1.667L8.593,8.75L1.51,8.75C0.819,8.75 0.26,9.31 0.26,10C0.26,10.69 0.819,11.25 1.51,11.25L8.593,11.25L8.593,18.333C8.593,19.024 9.153,19.583 9.843,19.583C10.533,19.583 11.093,19.024 11.093,18.333L11.093,11.25L18.176,11.25C18.867,11.25 19.426,10.69 19.426,10C19.426,9.31 18.867,8.75 18.176,8.75L11.093,8.75L11.093,1.667Z" fill="#006FFD"/>
</mask>
<rect  x="-0.157" y="0" width="20" height="20" fill="#006FFD"/>
</svg>
