<svg width="32" height="34" viewBox="0 0 32 34" fill="none" xmlns="http://www.w3.org/2000/svg" xmlns:xlink="http://www.w3.org/1999/xlink">
<mask id="mask_0_i_258_5216;216_4107;164_1458" style="mask-type:alpha" maskUnits="userSpaceOnUse" x="-0.123047" y="1.122803" width="15.333335" height="15.333335">
<path d="M17.21,3.123C17.21,2.018 16.315,1.123 15.21,1.123C14.106,1.123 13.21,2.018 13.21,3.123L13.21,14.456L1.877,14.456C0.772,14.456 -0.123,15.352 -0.123,16.456C-0.123,17.561 0.772,18.456 1.877,18.456L13.21,18.456L13.21,29.789C13.21,30.894 14.106,31.789 15.21,31.789C16.315,31.789 17.21,30.894 17.21,29.789L17.21,18.456L28.544,18.456C29.648,18.456 30.544,17.561 30.544,16.456C30.544,15.352 29.648,14.456 28.544,14.456L17.21,14.456L17.21,3.123Z" fill="#006FFD"/>
</mask>
<rect  x="-0.789" y="0.456" width="32" height="32" fill="#006FFD"/>
</svg>
