<svg width="32" height="34" viewBox="0 0 32 34" fill="none" xmlns="http://www.w3.org/2000/svg" xmlns:xlink="http://www.w3.org/1999/xlink">
<mask id="mask_0_i_240_6053;216_4107;164_1458" style="mask-type:alpha" maskUnits="userSpaceOnUse" x="0.666656" y="0.896652" width="15.333335" height="15.333335">
<path d="M18,2.897C18,1.792 17.105,0.897 16,0.897C14.895,0.897 14,1.792 14,2.897L14,14.23L2.667,14.23C1.562,14.23 0.667,15.125 0.667,16.23C0.667,17.335 1.562,18.23 2.667,18.23L14,18.23L14,29.563C14,30.668 14.895,31.563 16,31.563C17.105,31.563 18,30.668 18,29.563L18,18.23L29.333,18.23C30.438,18.23 31.333,17.335 31.333,16.23C31.333,15.125 30.438,14.23 29.333,14.23L18,14.23L18,2.897Z" fill="#006FFD"/>
</mask>
<rect  x="0" y="0.23" width="32" height="32" fill="#006FFD"/>
</svg>
