<svg width="22" height="20" viewBox="0 0 22 20" fill="none" xmlns="http://www.w3.org/2000/svg" xmlns:xlink="http://www.w3.org/1999/xlink">
<mask id="mask_0_i_234_4075;234_3820;164_1458" style="mask-type:alpha" maskUnits="userSpaceOnUse" x="1.310547" y="0.416626" width="9.583335" height="9.583335">
<path d="M12.144,1.667C12.144,0.976 11.584,0.417 10.894,0.417C10.204,0.417 9.644,0.976 9.644,1.667L9.644,8.75L2.561,8.75C1.87,8.75 1.311,9.31 1.311,10C1.311,10.69 1.87,11.25 2.561,11.25L9.644,11.25L9.644,18.333C9.644,19.024 10.204,19.583 10.894,19.583C11.584,19.583 12.144,19.024 12.144,18.333L12.144,11.25L19.227,11.25C19.918,11.25 20.477,10.69 20.477,10C20.477,9.31 19.918,8.75 19.227,8.75L12.144,8.75L12.144,1.667Z" fill="#006FFD"/>
</mask>
<rect  x="0.895" y="0" width="20" height="20" fill="#006FFD"/>
</svg>
