<svg width="48" height="48" viewBox="0 0 48 48" fill="none" xmlns="http://www.w3.org/2000/svg" xmlns:xlink="http://www.w3.org/1999/xlink">
<mask id="mask_0_164_1458" style="mask-type:alpha" maskUnits="userSpaceOnUse" x="0.279297" y="0.998352" width="23.000002" height="23.000002">
<path d="M26.279,3.998C26.279,2.341 24.936,0.998 23.279,0.998C21.622,0.998 20.279,2.341 20.279,3.998L20.279,20.998L3.279,20.998C1.622,20.998 0.279,22.342 0.279,23.998C0.279,25.655 1.622,26.998 3.279,26.998L20.279,26.998L20.279,43.998C20.279,45.655 21.622,46.998 23.279,46.998C24.936,46.998 26.279,45.655 26.279,43.998L26.279,26.998L43.279,26.998C44.936,26.998 46.279,25.655 46.279,23.998C46.279,22.342 44.936,20.998 43.279,20.998L26.279,20.998L26.279,3.998Z" fill="#006FFD"/>
</mask>
<rect  x="-0.721" y="-0.002" width="48" height="48" fill="#006FFD"/>
</svg>
