<svg width="20" height="22" viewBox="0 0 20 22" fill="none" xmlns="http://www.w3.org/2000/svg" xmlns:xlink="http://www.w3.org/1999/xlink">
<mask id="mask_0_i_240_6233;234_4075;234_3820;164_1458" style="mask-type:alpha" maskUnits="userSpaceOnUse" x="0.416687" y="0.646729" width="9.583335" height="9.583335">
<path d="M11.25,1.897C11.25,1.206 10.69,0.647 10,0.647C9.31,0.647 8.75,1.206 8.75,1.897L8.75,8.98L1.667,8.98C0.976,8.98 0.417,9.54 0.417,10.23C0.417,10.92 0.976,11.48 1.667,11.48L8.75,11.48L8.75,18.563C8.75,19.254 9.31,19.813 10,19.813C10.69,19.813 11.25,19.254 11.25,18.563L11.25,11.48L18.333,11.48C19.024,11.48 19.583,10.92 19.583,10.23C19.583,9.54 19.024,8.98 18.333,8.98L11.25,8.98L11.25,1.897Z" fill="#006FFD"/>
</mask>
<rect  x="0" y="0.23" width="20" height="20" fill="#006FFD"/>
</svg>
