<svg width="32" height="34" viewBox="0 0 32 34" fill="none" xmlns="http://www.w3.org/2000/svg" xmlns:xlink="http://www.w3.org/1999/xlink">
<mask id="mask_0_i_294_10139;216_4107;164_1458" style="mask-type:alpha" maskUnits="userSpaceOnUse" x="0.195007" y="0.938904" width="15.333335" height="15.333335">
<path d="M17.528,2.939C17.528,1.834 16.633,0.939 15.528,0.939C14.424,0.939 13.528,1.834 13.528,2.939L13.528,14.272L2.195,14.272C1.09,14.272 0.195,15.168 0.195,16.272C0.195,17.377 1.09,18.272 2.195,18.272L13.528,18.272L13.528,29.606C13.528,30.71 14.424,31.606 15.528,31.606C16.633,31.606 17.528,30.71 17.528,29.606L17.528,18.272L28.862,18.272C29.966,18.272 30.862,17.377 30.862,16.272C30.862,15.168 29.966,14.272 28.862,14.272L17.528,14.272L17.528,2.939Z" fill="#006FFD"/>
</mask>
<rect  x="-0.472" y="0.272" width="32" height="32" fill="#006FFD"/>
</svg>
