<svg width="22" height="20" viewBox="0 0 22 20" fill="none" xmlns="http://www.w3.org/2000/svg" xmlns:xlink="http://www.w3.org/1999/xlink">
<mask id="mask_0_i_258_5737;234_4075;234_3820;164_1458" style="mask-type:alpha" maskUnits="userSpaceOnUse" x="1.310547" y="0.305176" width="9.583335" height="9.583335">
<path d="M12.144,1.555C12.144,0.865 11.584,0.305 10.894,0.305C10.204,0.305 9.644,0.865 9.644,1.555L9.644,8.639L2.561,8.639C1.87,8.639 1.311,9.198 1.311,9.889C1.311,10.579 1.87,11.139 2.561,11.139L9.644,11.139L9.644,18.222C9.644,18.912 10.204,19.472 10.894,19.472C11.584,19.472 12.144,18.912 12.144,18.222L12.144,11.139L19.227,11.139C19.918,11.139 20.477,10.579 20.477,9.889C20.477,9.198 19.918,8.639 19.227,8.639L12.144,8.639L12.144,1.555Z" fill="#006FFD"/>
</mask>
<rect  x="0.895" y="-0.111" width="20" height="20" fill="#006FFD"/>
</svg>
