<svg width="32" height="32" viewBox="0 0 32 32" fill="none" xmlns="http://www.w3.org/2000/svg" xmlns:xlink="http://www.w3.org/1999/xlink">
<mask id="mask_0_i_290_7308;216_4107;164_1458" style="mask-type:alpha" maskUnits="userSpaceOnUse" x="0.666687" y="0.166748" width="15.333335" height="15.333335">
<path d="M18,2.167C18,1.062 17.105,0.167 16,0.167C14.895,0.167 14,1.062 14,2.167L14,13.5L2.667,13.5C1.562,13.5 0.667,14.396 0.667,15.5C0.667,16.605 1.562,17.5 2.667,17.5L14,17.5L14,28.833C14,29.938 14.895,30.833 16,30.833C17.105,30.833 18,29.938 18,28.833L18,17.5L29.333,17.5C30.438,17.5 31.333,16.605 31.333,15.5C31.333,14.396 30.438,13.5 29.333,13.5L18,13.5L18,2.167Z" fill="#006FFD"/>
</mask>
<rect  x="0" y="-0.5" width="32" height="32" fill="#006FFD"/>
</svg>
