<svg width="20" height="20" viewBox="0 0 20 20" fill="none" xmlns="http://www.w3.org/2000/svg" xmlns:xlink="http://www.w3.org/1999/xlink">
<mask id="mask_0_i_263_4244;263_4260;263_4270;164_1458" style="mask-type:alpha" maskUnits="userSpaceOnUse" x="0.259521" y="-0.018799" width="9.583335" height="9.583335">
<path d="M11.093,1.231C11.093,0.541 10.533,-0.019 9.843,-0.019C9.153,-0.019 8.593,0.541 8.593,1.231L8.593,8.315L1.51,8.315C0.819,8.315 0.26,8.874 0.26,9.565C0.26,10.255 0.819,10.815 1.51,10.815L8.593,10.815L8.593,17.898C8.593,18.588 9.153,19.148 9.843,19.148C10.533,19.148 11.093,18.588 11.093,17.898L11.093,10.815L18.176,10.815C18.867,10.815 19.426,10.255 19.426,9.565C19.426,8.874 18.867,8.315 18.176,8.315L11.093,8.315L11.093,1.231Z" fill="#006FFD"/>
</mask>
<rect  x="-0.157" y="-0.436" width="20" height="20" fill="#006FFD"/>
</svg>
