<svg width="32" height="34" viewBox="0 0 32 34" fill="none" xmlns="http://www.w3.org/2000/svg" xmlns:xlink="http://www.w3.org/1999/xlink">
<mask id="mask_0_i_258_5215;216_4184;164_1458" style="mask-type:alpha" maskUnits="userSpaceOnUse" x="-0.123047" y="0.894653" width="15.333335" height="15.333335">
<path d="M17.21,2.895C17.21,1.79 16.315,0.895 15.21,0.895C14.106,0.895 13.21,1.79 13.21,2.895L13.21,14.228L1.877,14.228C0.772,14.228 -0.123,15.123 -0.123,16.228C-0.123,17.333 0.772,18.228 1.877,18.228L13.21,18.228L13.21,29.561C13.21,30.666 14.106,31.561 15.21,31.561C16.315,31.561 17.21,30.666 17.21,29.561L17.21,18.228L28.544,18.228C29.648,18.228 30.544,17.333 30.544,16.228C30.544,15.123 29.648,14.228 28.544,14.228L17.21,14.228L17.21,2.895Z" fill="#006FFD"/>
</mask>
<rect  x="-0.789" y="0.228" width="32" height="32" fill="#006FFD"/>
</svg>
