<svg width="48" height="48" viewBox="0 0 48 48" fill="none" xmlns="http://www.w3.org/2000/svg" xmlns:xlink="http://www.w3.org/1999/xlink">
<mask id="mask_0_267_5339" style="mask-type:alpha" maskUnits="userSpaceOnUse" x="3.771484" y="-0.001221" width="19.499952" height="24.000122">
<path d="M32.817,0.023C32.715,-0.091 29.04,0.068 25.842,3.539C22.644,7.007 23.136,10.985 23.208,11.087C23.28,11.189 27.768,11.348 30.633,7.313C33.498,3.278 32.919,0.14 32.817,0.023ZM42.759,35.222C42.615,34.934 35.784,31.52 36.42,24.956C37.056,18.389 41.445,16.589 41.514,16.394C41.583,16.199 39.723,14.024 37.752,12.923C36.305,12.147 34.703,11.702 33.063,11.621C32.739,11.612 31.614,11.336 29.301,11.969C27.777,12.386 24.342,13.736 23.397,13.79C22.449,13.844 19.629,12.224 16.596,11.795C14.655,11.42 12.597,12.188 11.124,12.779C9.654,13.367 6.858,15.041 4.902,19.49C2.946,23.936 3.969,30.98 4.701,33.17C5.433,35.357 6.576,38.942 8.52,41.558C10.248,44.51 12.54,46.559 13.497,47.255C14.454,47.951 17.154,48.413 19.026,47.456C20.532,46.532 23.25,46.001 24.324,46.04C25.395,46.079 27.507,46.502 29.67,47.657C31.383,48.248 33.003,48.002 34.626,47.342C36.249,46.679 38.598,44.165 41.34,39.068C42.381,36.698 42.855,35.417 42.759,35.222Z" fill="#006FFD"/>
<path d="M32.817,0.023C32.715,-0.091 29.04,0.068 25.842,3.539C22.644,7.007 23.136,10.985 23.208,11.087C23.28,11.189 27.768,11.348 30.633,7.313C33.498,3.278 32.919,0.14 32.817,0.023ZM42.759,35.222C42.615,34.934 35.784,31.52 36.42,24.956C37.056,18.389 41.445,16.589 41.514,16.394C41.583,16.199 39.723,14.024 37.752,12.923C36.305,12.147 34.703,11.702 33.063,11.621C32.739,11.612 31.614,11.336 29.301,11.969C27.777,12.386 24.342,13.736 23.397,13.79C22.449,13.844 19.629,12.224 16.596,11.795C14.655,11.42 12.597,12.188 11.124,12.779C9.654,13.367 6.858,15.041 4.902,19.49C2.946,23.936 3.969,30.98 4.701,33.17C5.433,35.357 6.576,38.942 8.52,41.558C10.248,44.51 12.54,46.559 13.497,47.255C14.454,47.951 17.154,48.413 19.026,47.456C20.532,46.532 23.25,46.001 24.324,46.04C25.395,46.079 27.507,46.502 29.67,47.657C31.383,48.248 33.003,48.002 34.626,47.342C36.249,46.679 38.598,44.165 41.34,39.068C42.381,36.698 42.855,35.417 42.759,35.222Z" fill="#006FFD"/>
</mask>
<rect  x="-0.725" y="-0.001" width="48" height="48" fill="#006FFD"/>
</svg>
