<svg width="164" height="220" viewBox="0 0 164 220" fill="none" xmlns="http://www.w3.org/2000/svg" xmlns:xlink="http://www.w3.org/1999/xlink">
<mask id="mask_0_i_281_5702;269_8040" style="mask-type:alpha" maskUnits="userSpaceOnUse" x="131.166504" y="132.125977" width="8.333334" height="8.333333">
<path d="M136.284,147.633L144.618,139.3L140.66,135.341L132.326,143.675C132.211,143.79 132.13,143.934 132.09,144.091L131.167,148.793L135.867,147.869C136.025,147.83 136.169,147.748 136.284,147.633ZM147.308,136.609C147.644,136.273 147.833,135.817 147.833,135.341C147.833,134.866 147.644,134.41 147.308,134.073L145.886,132.651C145.549,132.315 145.093,132.126 144.618,132.126C144.142,132.126 143.686,132.315 143.35,132.651L141.928,134.073L145.886,138.032L147.308,136.609Z" fill="#006FFD"/>
</mask>
<rect  x="0.5" y="0.459" width="160" height="160" rx="64" fill="#EAF2FF"/>
<path d="M20.5,131.984C20.5,114.311 34.827,99.984 52.5,99.984L108.5,99.984C126.173,99.984 140.5,114.311 140.5,131.984L140.5,187.984C140.5,205.657 126.173,219.984 108.5,219.984L52.5,219.984C34.827,219.984 20.5,205.657 20.5,187.984L20.5,131.984Z" fill="#B4DBFF"/>
<circle cx="80.5" cy="56.459" r="32" fill="#B4DBFF"/>
<rect  x="115.5" y="116.459" width="48" height="48" rx="80" fill="#006FFD"/>
<rect  x="129.5" y="130.459" width="20" height="20" fill="#FFFFFF"/>
</svg>
