<svg width="164" height="220" viewBox="0 0 164 220" fill="none" xmlns="http://www.w3.org/2000/svg" xmlns:xlink="http://www.w3.org/1999/xlink">
<mask id="mask_0_i_272_9625;269_8040" style="mask-type:alpha" maskUnits="userSpaceOnUse" x="131.166504" y="131.896729" width="8.333334" height="8.333333">
<path d="M136.284,147.404L144.618,139.07L140.66,135.112L132.326,143.446C132.211,143.56 132.13,143.704 132.09,143.862L131.167,148.563L135.867,147.64C136.025,147.6 136.169,147.519 136.284,147.404ZM147.308,136.38C147.644,136.044 147.833,135.588 147.833,135.112C147.833,134.637 147.644,134.18 147.308,133.844L145.886,132.422C145.549,132.086 145.093,131.897 144.618,131.897C144.142,131.897 143.686,132.086 143.35,132.422L141.928,133.844L145.886,137.802L147.308,136.38Z" fill="#006FFD"/>
</mask>
<rect  x="0.5" y="0.23" width="160" height="160" rx="64" fill="#EAF2FF"/>
<path d="M20.5,131.755C20.5,114.082 34.827,99.755 52.5,99.755L108.5,99.755C126.173,99.755 140.5,114.082 140.5,131.755L140.5,187.755C140.5,205.428 126.173,219.755 108.5,219.755L52.5,219.755C34.827,219.755 20.5,205.428 20.5,187.755L20.5,131.755Z" fill="#B4DBFF"/>
<circle cx="80.5" cy="56.23" r="32" fill="#B4DBFF"/>
<rect  x="115.5" y="116.23" width="48" height="48" rx="80" fill="#006FFD"/>
<rect  x="129.5" y="130.23" width="20" height="20" fill="#FFFFFF"/>
</svg>
