<svg width="654" height="160" viewBox="0 0 654 160" fill="none" xmlns="http://www.w3.org/2000/svg" xmlns:xlink="http://www.w3.org/1999/xlink">
<path d="M377.014,40.239C391.258,25.743 408.27,8.43 452,0L606,0C632.51,0 654,21.49 654,48L654,112C654,138.51 632.51,160 606,160L48,160C21.49,160 0,138.51 0,112L0,48C0,21.49 21.49,0 48,0L204,0C245.588,7.465 264.31,25.164 280.068,40.061C293.864,53.104 305.388,64 328,64C353.666,64 364.224,53.256 377.014,40.239Z" clip-rule="evenodd" fill-rule="evenodd" fill="#FFFFFF" stroke="#F1F5F9" stroke-width="1" stroke-miterlimit="3.999327"/>
</svg>
