<svg width="56" height="56" viewBox="0 0 56 56" fill="none" xmlns="http://www.w3.org/2000/svg" xmlns:xlink="http://www.w3.org/1999/xlink">
<path d="M44.893,13.02L43.96,13.02L36.073,5.134C35.443,4.504 34.417,4.504 33.763,5.134C33.133,5.764 33.133,6.79 33.763,7.444L39.34,13.02L16.66,13.02L22.237,7.444C22.867,6.814 22.867,5.787 22.237,5.134C21.607,4.504 20.58,4.504 19.927,5.134L12.063,13.02L11.13,13.02C9.03,13.02 4.667,13.02 4.667,18.994C4.667,21.257 5.133,22.75 6.113,23.73C6.673,24.314 7.35,24.617 8.073,24.78C8.75,24.944 9.473,24.967 10.173,24.967L45.827,24.967C46.55,24.967 47.227,24.92 47.88,24.78C49.84,24.314 51.333,22.914 51.333,18.994C51.333,13.02 46.97,13.02 44.893,13.02Z" transform="rotate(0 28 14.814)" fill="#7B61FF"/>
<path d="M44.543,28L11.457,28C10.01,28 8.913,29.283 9.147,30.707L11.107,42.7C11.76,46.713 13.51,51.333 21.28,51.333L34.37,51.333C42.233,51.333 43.633,47.39 44.473,42.98L46.83,30.777C47.11,29.33 46.013,28 44.543,28ZM34.72,37.45L27.137,44.45C26.81,44.753 26.39,44.917 25.947,44.917C25.503,44.917 25.06,44.753 24.71,44.403L21.21,40.903C20.533,40.227 20.533,39.107 21.21,38.43C21.91,37.753 23.007,37.753 23.707,38.43L26.017,40.74L32.363,34.883C33.063,34.23 34.183,34.277 34.837,34.977C35.49,35.7 35.443,36.797 34.72,37.45Z" transform="rotate(0 27.995 39.667)" fill="#7B61FF"/>
</svg>
