<svg width="10" height="8" viewBox="0 0 10 8" fill="none" xmlns="http://www.w3.org/2000/svg" xmlns:xlink="http://www.w3.org/1999/xlink">
<path d="M4.982,6.619C5.081,6.626 5.18,6.611 5.273,6.577C5.365,6.542 5.45,6.489 5.52,6.419C5.672,6.281 9.058,2.877 9.826,2.199C9.923,2.051 9.982,1.881 9.998,1.705C9.973,1.51 9.878,1.332 9.73,1.203C8.354,0.169 6.68,-0.39 4.959,-0.39C3.238,-0.39 1.564,0.169 0.188,1.203C0.078,1.35 0.009,1.523 -0.012,1.705C-0.025,1.797 -0.013,1.892 0.022,1.979C0.057,2.065 0.114,2.141 0.188,2.199C0.37,2.399 4.356,6.257 4.546,6.419C4.736,6.581 4.74,6.619 4.982,6.619Z" fill="#FFFFFF"/>
</svg>
