<svg width="48" height="50" viewBox="0 0 48 50" fill="none" xmlns="http://www.w3.org/2000/svg" xmlns:xlink="http://www.w3.org/1999/xlink">
<mask id="mask_0_216_3991" style="mask-type:alpha" maskUnits="userSpaceOnUse" x="-0.728516" y="1.706421" width="24" height="21.600002">
<path d="M23.271,18.206C19.206,18.206 15.771,21.641 15.771,25.706C15.771,29.771 19.206,33.206 23.271,33.206C27.336,33.206 30.771,29.771 30.771,25.706C30.771,21.641 27.336,18.206 23.271,18.206Z" fill="#006FFD"/>
<path d="M42.471,8.906L36.265,8.906L29.768,2.41C29.546,2.186 29.281,2.009 28.99,1.889C28.699,1.768 28.387,1.706 28.071,1.706L18.471,1.706C18.156,1.706 17.844,1.768 17.553,1.889C17.262,2.009 16.997,2.186 16.775,2.41L10.278,8.906L4.071,8.906C1.424,8.906 -0.729,11.059 -0.729,13.706L-0.729,40.106C-0.729,42.754 1.424,44.906 4.071,44.906L42.471,44.906C45.119,44.906 47.271,42.754 47.271,40.106L47.271,13.706C47.271,11.059 45.119,8.906 42.471,8.906ZM23.271,37.706C16.767,37.706 11.271,32.21 11.271,25.706C11.271,19.202 16.767,13.706 23.271,13.706C29.775,13.706 35.271,19.202 35.271,25.706C35.271,32.21 29.775,37.706 23.271,37.706Z" fill="#006FFD"/>
</mask>
<rect  x="-0.729" y="0.493" width="48" height="48" fill="#006FFD"/>
</svg>
