<svg width="48" height="48" viewBox="0 0 48 48" fill="none" xmlns="http://www.w3.org/2000/svg" xmlns:xlink="http://www.w3.org/1999/xlink">
<mask id="mask_0_267_7080" style="mask-type:alpha" maskUnits="userSpaceOnUse" x="3.273438" y="3.997498" width="20" height="20.000002">
<path d="M4.94,20.662C4.498,20.662 4.074,20.487 3.762,20.174C3.449,19.861 3.273,19.437 3.273,18.995L3.273,5.664C3.273,5.222 3.449,4.798 3.762,4.486C4.074,4.173 4.498,3.997 4.94,3.997L18.275,3.997C18.717,3.997 19.141,4.173 19.453,4.486C19.766,4.798 19.941,5.222 19.941,5.664L19.941,18.995C19.941,19.437 19.766,19.861 19.453,20.174C19.141,20.487 18.717,20.662 18.275,20.662L4.94,20.662ZM28.275,20.662C27.833,20.662 27.409,20.487 27.097,20.174C26.784,19.861 26.609,19.437 26.609,18.995L26.609,5.664C26.609,5.222 26.784,4.798 27.097,4.486C27.409,4.173 27.833,3.997 28.275,3.997L41.607,3.997C42.049,3.997 42.473,4.173 42.785,4.486C43.098,4.798 43.273,5.222 43.273,5.664L43.273,18.995C43.273,19.437 43.098,19.861 42.785,20.174C42.473,20.487 42.049,20.662 41.607,20.662L28.275,20.662ZM4.94,43.997C4.498,43.997 4.074,43.822 3.762,43.509C3.449,43.197 3.273,42.773 3.273,42.331L3.273,28.996C3.273,28.554 3.449,28.13 3.762,27.818C4.074,27.505 4.498,27.329 4.94,27.329L18.275,27.329C18.717,27.329 19.141,27.505 19.453,27.818C19.766,28.13 19.941,28.554 19.941,28.996L19.941,42.331C19.941,42.773 19.766,43.197 19.453,43.509C19.141,43.822 18.717,43.997 18.275,43.997L4.94,43.997ZM28.275,43.997C27.833,43.997 27.409,43.822 27.097,43.509C26.784,43.197 26.609,42.773 26.609,42.331L26.609,28.996C26.609,28.554 26.784,28.13 27.097,27.818C27.409,27.505 27.833,27.329 28.275,27.329L41.607,27.329C42.049,27.329 42.473,27.505 42.785,27.818C43.098,28.13 43.273,28.554 43.273,28.996L43.273,42.331C43.273,42.773 43.098,43.197 42.785,43.509C42.473,43.822 42.049,43.997 41.607,43.997L28.275,43.997Z" fill="#000000"/>
</mask>
<rect  x="-0.727" y="-0.005" width="48" height="48" fill="#006FFD"/>
</svg>
