<svg width="48" height="48" viewBox="0 0 48 48" fill="none" xmlns="http://www.w3.org/2000/svg" xmlns:xlink="http://www.w3.org/1999/xlink">
<path d="M18,45.5L30,45.5L30,42.5L18,42.5L18,45.5ZM30,45.5C35.148,45.5 39.142,44.48 41.811,41.811C44.48,39.142 45.5,35.148 45.5,30L42.5,30C42.5,34.852 41.52,37.858 39.689,39.689C37.858,41.52 34.852,42.5 30,42.5L30,45.5ZM45.5,30L45.5,18L42.5,18L42.5,30L45.5,30ZM45.5,18C45.5,12.852 44.48,8.858 41.811,6.189C39.142,3.52 35.148,2.5 30,2.5L30,5.5C34.852,5.5 37.858,6.48 39.689,8.311C41.52,10.142 42.5,13.148 42.5,18L45.5,18ZM30,2.5L18,2.5L18,5.5L30,5.5L30,2.5ZM18,2.5C12.852,2.5 8.858,3.52 6.189,6.189C3.52,8.858 2.5,12.852 2.5,18L5.5,18C5.5,13.148 6.48,10.142 8.311,8.311C10.142,6.48 13.148,5.5 18,5.5L18,2.5ZM2.5,18L2.5,30L5.5,30L5.5,18L2.5,18ZM2.5,30C2.5,35.148 3.52,39.142 6.189,41.811C8.858,44.48 12.852,45.5 18,45.5L18,42.5C13.148,42.5 10.142,41.52 8.311,39.689C6.48,37.858 5.5,34.852 5.5,30L2.5,30Z" fill="#424242"/>
<path d="M31,38.5C34.028,38.5 36.5,36.028 36.5,33L33.5,33C33.5,34.372 32.372,35.5 31,35.5L31,38.5ZM36.5,33L36.5,15L33.5,15L33.5,33L36.5,33ZM36.5,15C36.5,11.972 34.028,9.5 31,9.5L31,12.5C32.372,12.5 33.5,13.628 33.5,15L36.5,15ZM31,9.5C27.972,9.5 25.5,11.972 25.5,15L28.5,15C28.5,13.628 29.628,12.5 31,12.5L31,9.5ZM25.5,15L25.5,33L28.5,33L28.5,15L25.5,15ZM25.5,33C25.5,36.024 27.947,38.5 31,38.5L31,35.5C29.613,35.5 28.5,34.376 28.5,33L25.5,33Z" fill="#424242"/>
<path d="M17,38.5C20.028,38.5 22.5,36.028 22.5,33L19.5,33C19.5,34.372 18.372,35.5 17,35.5L17,38.5ZM22.5,33L22.5,26L19.5,26L19.5,33L22.5,33ZM22.5,26C22.5,22.972 20.028,20.5 17,20.5L17,23.5C18.372,23.5 19.5,24.628 19.5,26L22.5,26ZM17,20.5C13.972,20.5 11.5,22.972 11.5,26L14.5,26C14.5,24.628 15.628,23.5 17,23.5L17,20.5ZM11.5,26L11.5,33L14.5,33L14.5,26L11.5,26ZM11.5,33C11.5,36.024 13.947,38.5 17,38.5L17,35.5C15.613,35.5 14.5,34.376 14.5,33L11.5,33Z" fill="#424242"/>
</svg>
