<svg width="48" height="48" viewBox="0 0 48 48" fill="none" xmlns="http://www.w3.org/2000/svg" xmlns:xlink="http://www.w3.org/1999/xlink">
<mask id="mask_0_269_8081" style="mask-type:alpha" maskUnits="userSpaceOnUse" x="1.273438" y="1.999146" width="21.997326" height="22">
<path d="M23.271,1.999C35.42,1.999 45.268,11.847 45.268,23.997C45.268,36.146 35.42,45.994 23.271,45.994C19.712,45.999 16.206,45.136 13.055,43.482L3.618,45.939C3.303,46.021 2.972,46.019 2.657,45.934C2.343,45.849 2.056,45.682 1.826,45.452C1.595,45.222 1.429,44.935 1.343,44.621C1.257,44.307 1.255,43.975 1.337,43.66L3.792,34.225C2.133,31.071 1.269,27.56 1.273,23.997C1.273,11.847 11.122,1.999 23.271,1.999Z" fill="#006FFD"/>
</mask>
<rect  x="-0.729" y="-0.001" width="48" height="48" fill="#006FFD"/>
</svg>
