<svg width="80" height="80" viewBox="0 0 80 80" fill="none" xmlns="http://www.w3.org/2000/svg" xmlns:xlink="http://www.w3.org/1999/xlink">
<mask id="mask_0_i_291_6688;269_8081" style="mask-type:alpha" maskUnits="userSpaceOnUse" x="3.338135" y="3.331055" width="36.662209" height="36.666664">
<path d="M40,3.331C60.249,3.331 76.663,19.745 76.663,39.993C76.663,60.242 60.249,76.655 40,76.655C34.069,76.663 28.226,75.226 22.974,72.469L7.246,76.564C6.721,76.701 6.169,76.698 5.645,76.555C5.12,76.413 4.643,76.136 4.258,75.753C3.874,75.369 3.597,74.891 3.454,74.367C3.311,73.843 3.308,73.291 3.444,72.766L7.536,57.041C4.771,51.784 3.33,45.933 3.338,39.993C3.338,19.745 19.752,3.331 40,3.331Z" fill="#006FFD"/>
</mask>
<rect  x="0" y="-0.002" width="80" height="80" fill="#1F2024"/>
</svg>
