<svg width="24" height="26" viewBox="0 0 24 26" fill="none" xmlns="http://www.w3.org/2000/svg" xmlns:xlink="http://www.w3.org/1999/xlink">
<mask id="mask_0_i_243_3016;156_1590;109_2004" style="mask-type:alpha" maskUnits="userSpaceOnUse" x="0.917969" y="2.227295" width="10.5" height="10.499834">
<path d="M1.357,2.667C1.943,2.081 2.893,2.081 3.479,2.667L21.479,20.666C22.064,21.252 22.064,22.202 21.479,22.788C20.893,23.373 19.943,23.373 19.357,22.788L1.357,4.788C0.772,4.202 0.772,3.252 1.357,2.667Z" clip-rule="evenodd" fill-rule="evenodd" fill="#006FFD"/>
<path d="M21.479,2.667C20.893,2.081 19.943,2.081 19.357,2.667L1.357,20.666C0.772,21.252 0.772,22.202 1.357,22.788C1.943,23.373 2.893,23.373 3.479,22.788L21.479,4.788C22.064,4.202 22.064,3.252 21.479,2.667Z" clip-rule="evenodd" fill-rule="evenodd" fill="#006FFD"/>
</mask>
<rect  x="-0.582" y="0.727" width="24" height="24" fill="#71727A"/>
</svg>
