<svg width="40" height="42" viewBox="0 0 40 42" fill="none" xmlns="http://www.w3.org/2000/svg" xmlns:xlink="http://www.w3.org/1999/xlink">
<mask id="mask_0_i_240_6372;109_2004" style="mask-type:alpha" maskUnits="userSpaceOnUse" x="2.5" y="2.72998" width="17.5" height="17.500002">
<path d="M3.232,3.462C4.209,2.486 5.791,2.486 6.768,3.462L36.768,33.462C37.744,34.439 37.744,36.021 36.768,36.998C35.791,37.974 34.209,37.974 33.232,36.998L3.232,6.998C2.256,6.021 2.256,4.439 3.232,3.462Z" clip-rule="evenodd" fill-rule="evenodd" fill="#006FFD"/>
<path d="M36.768,3.462C35.791,2.486 34.209,2.486 33.232,3.462L3.232,33.462C2.256,34.439 2.256,36.021 3.232,36.998C4.209,37.974 5.791,37.974 6.768,36.998L36.768,6.998C37.744,6.021 37.744,4.439 36.768,3.462Z" clip-rule="evenodd" fill-rule="evenodd" fill="#006FFD"/>
</mask>
<rect  x="0" y="0.23" width="40" height="40" fill="#2F3036"/>
</svg>
