<svg width="34" height="32" viewBox="0 0 34 32" fill="none" xmlns="http://www.w3.org/2000/svg" xmlns:xlink="http://www.w3.org/1999/xlink">
<mask id="mask_0_i_256_4681;38_1834" style="mask-type:alpha" maskUnits="userSpaceOnUse" x="0.68457" y="-1.000122" width="16.000017" height="16.000092">
<path d="M15.473,-0.498C16.142,-1.167 17.227,-1.167 17.896,-0.498L22.651,4.256C23.32,4.925 23.32,6.01 22.651,6.68L17.896,11.434C17.227,12.103 16.142,12.103 15.473,11.434L10.719,6.68C10.049,6.01 10.049,4.925 10.719,4.256L15.473,-0.498Z" fill="#1F2024"/>
<path d="M32.183,13.788C32.852,14.457 32.852,15.543 32.183,16.212L27.429,20.966C26.759,21.635 25.674,21.635 25.005,20.966L20.251,16.212C19.581,15.543 19.581,14.457 20.251,13.788L25.005,9.034C25.674,8.365 26.759,8.365 27.429,9.034L32.183,13.788Z" fill="#1F2024"/>
<path d="M15.473,18.566C16.142,17.897 17.227,17.897 17.896,18.566L22.651,23.32C23.32,23.989 23.32,25.075 22.651,25.744L17.896,30.498C17.227,31.167 16.142,31.167 15.473,30.498L10.719,25.744C10.049,25.075 10.049,23.989 10.719,23.32L15.473,18.566Z" fill="#1F2024"/>
<path d="M13.118,13.788C13.788,14.457 13.788,15.543 13.118,16.212L8.364,20.966C7.695,21.635 6.61,21.635 5.941,20.966L1.187,16.212C0.517,15.543 0.517,14.457 1.187,13.788L5.941,9.034C6.61,8.365 7.695,8.365 8.364,9.034L13.118,13.788Z" fill="#1F2024"/>
</mask>
<rect  x="0.685" y="-1" width="32" height="32" fill="#1F2024"/>
</svg>
