<svg width="34" height="32" viewBox="0 0 34 32" fill="none" xmlns="http://www.w3.org/2000/svg" xmlns:xlink="http://www.w3.org/1999/xlink">
<mask id="mask_0_i_259_6120;38_1843;38_1834" style="mask-type:alpha" maskUnits="userSpaceOnUse" x="0.526367" y="-0.509766" width="16.000017" height="16.000092">
<path d="M15.315,-0.008C15.984,-0.677 17.069,-0.677 17.738,-0.008L22.492,4.746C23.162,5.416 23.162,6.501 22.492,7.17L17.738,11.924C17.069,12.593 15.984,12.593 15.315,11.924L10.56,7.17C9.891,6.501 9.891,5.416 10.56,4.746L15.315,-0.008Z" fill="#1F2024"/>
<path d="M32.024,14.278C32.694,14.948 32.694,16.033 32.024,16.702L27.27,21.456C26.601,22.126 25.516,22.126 24.847,21.456L20.093,16.702C19.423,16.033 19.423,14.948 20.093,14.278L24.847,9.524C25.516,8.855 26.601,8.855 27.27,9.524L32.024,14.278Z" fill="#1F2024"/>
<path d="M15.315,19.057C15.984,18.387 17.069,18.387 17.738,19.057L22.492,23.811C23.162,24.48 23.162,25.565 22.492,26.234L17.738,30.988C17.069,31.658 15.984,31.658 15.315,30.988L10.56,26.234C9.891,25.565 9.891,24.48 10.56,23.811L15.315,19.057Z" fill="#1F2024"/>
<path d="M12.96,14.278C13.63,14.948 13.63,16.033 12.96,16.702L8.206,21.456C7.537,22.126 6.452,22.126 5.782,21.456L1.028,16.702C0.359,16.033 0.359,14.948 1.028,14.278L5.782,9.524C6.452,8.855 7.537,8.855 8.206,9.524L12.96,14.278Z" fill="#1F2024"/>
</mask>
<rect  x="0.526" y="-0.51" width="32" height="32" fill="#8F9098"/>
</svg>
