<svg width="34" height="32" viewBox="0 0 34 32" fill="none" xmlns="http://www.w3.org/2000/svg" xmlns:xlink="http://www.w3.org/1999/xlink">
<mask id="mask_0_i_248_4317;38_1843;38_1834" style="mask-type:alpha" maskUnits="userSpaceOnUse" x="0.842773" y="-0.000122" width="16.000017" height="16.000092">
<path d="M15.631,0.502C16.3,-0.167 17.385,-0.167 18.055,0.502L22.809,5.256C23.478,5.925 23.478,7.01 22.809,7.68L18.055,12.434C17.385,13.103 16.3,13.103 15.631,12.434L10.877,7.68C10.208,7.01 10.208,5.925 10.877,5.256L15.631,0.502Z" fill="#1F2024"/>
<path d="M32.341,14.788C33.01,15.457 33.01,16.543 32.341,17.212L27.587,21.966C26.917,22.635 25.832,22.635 25.163,21.966L20.409,17.212C19.74,16.543 19.74,15.457 20.409,14.788L25.163,10.034C25.832,9.365 26.917,9.365 27.587,10.034L32.341,14.788Z" fill="#1F2024"/>
<path d="M15.631,19.566C16.3,18.897 17.385,18.897 18.055,19.566L22.809,24.32C23.478,24.989 23.478,26.075 22.809,26.744L18.055,31.498C17.385,32.167 16.3,32.167 15.631,31.498L10.877,26.744C10.208,26.075 10.208,24.989 10.877,24.32L15.631,19.566Z" fill="#1F2024"/>
<path d="M13.277,14.788C13.946,15.457 13.946,16.543 13.277,17.212L8.523,21.966C7.853,22.635 6.768,22.635 6.099,21.966L1.345,17.212C0.675,16.543 0.675,15.457 1.345,14.788L6.099,10.034C6.768,9.365 7.853,9.365 8.523,10.034L13.277,14.788Z" fill="#1F2024"/>
</mask>
<rect  x="0.843" y="0" width="32" height="32" fill="#8F9098"/>
</svg>
