<svg width="32" height="32" viewBox="0 0 32 32" fill="none" xmlns="http://www.w3.org/2000/svg" xmlns:xlink="http://www.w3.org/1999/xlink">
<mask id="mask_0_i_263_4236;38_1843;38_1834" style="mask-type:alpha" maskUnits="userSpaceOnUse" x="-0.157227" y="0" width="16.000017" height="16.000092">
<path d="M14.631,0.502C15.3,-0.167 16.385,-0.167 17.055,0.502L21.809,5.256C22.478,5.925 22.478,7.01 21.809,7.68L17.055,12.434C16.385,13.103 15.3,13.103 14.631,12.434L9.877,7.68C9.208,7.01 9.208,5.925 9.877,5.256L14.631,0.502Z" fill="#1F2024"/>
<path d="M31.341,14.788C32.01,15.458 32.01,16.543 31.341,17.212L26.587,21.966C25.917,22.635 24.832,22.635 24.163,21.966L19.409,17.212C18.74,16.543 18.74,15.458 19.409,14.788L24.163,10.034C24.832,9.365 25.917,9.365 26.587,10.034L31.341,14.788Z" fill="#1F2024"/>
<path d="M14.631,19.566C15.3,18.897 16.385,18.897 17.055,19.566L21.809,24.32C22.478,24.99 22.478,26.075 21.809,26.744L17.055,31.498C16.385,32.168 15.3,32.168 14.631,31.498L9.877,26.744C9.208,26.075 9.208,24.99 9.877,24.32L14.631,19.566Z" fill="#1F2024"/>
<path d="M12.277,14.788C12.946,15.458 12.946,16.543 12.277,17.212L7.523,21.966C6.853,22.635 5.768,22.635 5.099,21.966L0.345,17.212C-0.325,16.543 -0.325,15.458 0.345,14.788L5.099,10.034C5.768,9.365 6.853,9.365 7.523,10.034L12.277,14.788Z" fill="#1F2024"/>
</mask>
<rect  x="-0.157" y="0" width="32" height="32" fill="#8F9098"/>
</svg>
