<svg width="32" height="32" viewBox="0 0 32 32" fill="none" xmlns="http://www.w3.org/2000/svg" xmlns:xlink="http://www.w3.org/1999/xlink">
<mask id="mask_0_i_263_4387;38_1834" style="mask-type:alpha" maskUnits="userSpaceOnUse" x="-0.841797" y="-1.000122" width="16.000017" height="16.000092">
<path d="M13.946,-0.498C14.616,-1.167 15.701,-1.167 16.37,-0.498L21.124,4.256C21.793,4.925 21.793,6.01 21.124,6.68L16.37,11.434C15.701,12.103 14.616,12.103 13.946,11.434L9.192,6.68C8.523,6.01 8.523,4.925 9.192,4.256L13.946,-0.498Z" fill="#1F2024"/>
<path d="M30.656,13.788C31.326,14.457 31.326,15.543 30.656,16.212L25.902,20.966C25.233,21.635 24.148,21.635 23.478,20.966L18.724,16.212C18.055,15.543 18.055,14.457 18.724,13.788L23.478,9.034C24.148,8.365 25.233,8.365 25.902,9.034L30.656,13.788Z" fill="#1F2024"/>
<path d="M13.946,18.566C14.616,17.897 15.701,17.897 16.37,18.566L21.124,23.32C21.793,23.989 21.793,25.075 21.124,25.744L16.37,30.498C15.701,31.167 14.616,31.167 13.946,30.498L9.192,25.744C8.523,25.075 8.523,23.989 9.192,23.32L13.946,18.566Z" fill="#1F2024"/>
<path d="M11.592,13.788C12.261,14.457 12.261,15.543 11.592,16.212L6.838,20.966C6.169,21.635 5.084,21.635 4.414,20.966L-0.34,16.212C-1.009,15.543 -1.009,14.457 -0.34,13.788L4.414,9.034C5.084,8.365 6.169,8.365 6.838,9.034L11.592,13.788Z" fill="#1F2024"/>
</mask>
<rect  x="-0.842" y="-1" width="32" height="32" fill="#1F2024"/>
</svg>
