<svg width="34" height="32" viewBox="0 0 34 32" fill="none" xmlns="http://www.w3.org/2000/svg" xmlns:xlink="http://www.w3.org/1999/xlink">
<mask id="mask_0_i_261_6877;38_1843;38_1834" style="mask-type:alpha" maskUnits="userSpaceOnUse" x="0.935547" y="-0.000122" width="16.000017" height="16.000092">
<path d="M15.724,0.502C16.393,-0.167 17.478,-0.167 18.147,0.502L22.902,5.256C23.571,5.925 23.571,7.01 22.902,7.68L18.147,12.434C17.478,13.103 16.393,13.103 15.724,12.434L10.97,7.68C10.3,7.01 10.3,5.925 10.97,5.256L15.724,0.502Z" fill="#1F2024"/>
<path d="M32.434,14.788C33.103,15.457 33.103,16.543 32.434,17.212L27.68,21.966C27.01,22.635 25.925,22.635 25.256,21.966L20.502,17.212C19.832,16.543 19.832,15.457 20.502,14.788L25.256,10.034C25.925,9.365 27.01,9.365 27.68,10.034L32.434,14.788Z" fill="#1F2024"/>
<path d="M15.724,19.566C16.393,18.897 17.478,18.897 18.147,19.566L22.902,24.32C23.571,24.989 23.571,26.075 22.902,26.744L18.147,31.498C17.478,32.167 16.393,32.167 15.724,31.498L10.97,26.744C10.3,26.075 10.3,24.989 10.97,24.32L15.724,19.566Z" fill="#1F2024"/>
<path d="M13.369,14.788C14.039,15.457 14.039,16.543 13.369,17.212L8.615,21.966C7.946,22.635 6.861,22.635 6.192,21.966L1.438,17.212C0.768,16.543 0.768,15.457 1.438,14.788L6.192,10.034C6.861,9.365 7.946,9.365 8.615,10.034L13.369,14.788Z" fill="#1F2024"/>
</mask>
<rect  x="0.936" y="0" width="32" height="32" fill="#8F9098"/>
</svg>
