<svg width="32" height="32" viewBox="0 0 32 32" fill="none" xmlns="http://www.w3.org/2000/svg" xmlns:xlink="http://www.w3.org/1999/xlink">
<mask id="mask_0_i_252_6432;38_1843;38_1834" style="mask-type:alpha" maskUnits="userSpaceOnUse" x="-0.447754" y="-0.231445" width="16.000017" height="16.000092">
<path d="M14.34,0.271C15.01,-0.399 16.095,-0.399 16.764,0.271L21.518,5.025C22.187,5.694 22.187,6.779 21.518,7.448L16.764,12.202C16.095,12.872 15.01,12.872 14.34,12.202L9.586,7.448C8.917,6.779 8.917,5.694 9.586,5.025L14.34,0.271Z" fill="#1F2024"/>
<path d="M31.05,14.557C31.72,15.226 31.72,16.311 31.05,16.981L26.296,21.735C25.627,22.404 24.542,22.404 23.872,21.735L19.118,16.981C18.449,16.311 18.449,15.226 19.118,14.557L23.872,9.803C24.542,9.133 25.627,9.133 26.296,9.803L31.05,14.557Z" fill="#1F2024"/>
<path d="M14.34,19.335C15.01,18.666 16.095,18.666 16.764,19.335L21.518,24.089C22.187,24.758 22.187,25.843 21.518,26.513L16.764,31.267C16.095,31.936 15.01,31.936 14.34,31.267L9.586,26.513C8.917,25.843 8.917,24.758 9.586,24.089L14.34,19.335Z" fill="#1F2024"/>
<path d="M11.986,14.557C12.655,15.226 12.655,16.311 11.986,16.981L7.232,21.735C6.563,22.404 5.478,22.404 4.808,21.735L0.054,16.981C-0.615,16.311 -0.615,15.226 0.054,14.557L4.808,9.803C5.478,9.133 6.563,9.133 7.232,9.803L11.986,14.557Z" fill="#1F2024"/>
</mask>
<rect  x="-0.448" y="-0.231" width="32" height="32" fill="#8F9098"/>
</svg>
