<svg width="32" height="34" viewBox="0 0 32 34" fill="none" xmlns="http://www.w3.org/2000/svg" xmlns:xlink="http://www.w3.org/1999/xlink">
<mask id="mask_0_i_250_5479;38_1843;38_1834" style="mask-type:alpha" maskUnits="userSpaceOnUse" x="-0.662354" y="0.058105" width="16.000017" height="16.000092">
<path d="M14.126,0.56C14.795,-0.109 15.88,-0.109 16.55,0.56L21.304,5.314C21.973,5.983 21.973,7.069 21.304,7.738L16.55,12.492C15.88,13.161 14.795,13.161 14.126,12.492L9.372,7.738C8.702,7.069 8.702,5.983 9.372,5.314L14.126,0.56Z" fill="#1F2024"/>
<path d="M30.836,14.846C31.505,15.516 31.505,16.601 30.836,17.27L26.082,22.024C25.412,22.694 24.327,22.694 23.658,22.024L18.904,17.27C18.235,16.601 18.235,15.516 18.904,14.846L23.658,10.092C24.327,9.423 25.412,9.423 26.082,10.092L30.836,14.846Z" fill="#1F2024"/>
<path d="M14.126,19.624C14.795,18.955 15.88,18.955 16.55,19.624L21.304,24.379C21.973,25.048 21.973,26.133 21.304,26.802L16.55,31.556C15.88,32.226 14.795,32.226 14.126,31.556L9.372,26.802C8.702,26.133 8.702,25.048 9.372,24.379L14.126,19.624Z" fill="#1F2024"/>
<path d="M11.772,14.846C12.441,15.516 12.441,16.601 11.772,17.27L7.017,22.024C6.348,22.694 5.263,22.694 4.594,22.024L-0.16,17.27C-0.83,16.601 -0.83,15.516 -0.16,14.846L4.594,10.092C5.263,9.423 6.348,9.423 7.017,10.092L11.772,14.846Z" fill="#1F2024"/>
</mask>
<rect  x="-0.662" y="0.058" width="32" height="32" fill="#8F9098"/>
</svg>
