<svg width="32" height="32" viewBox="0 0 32 32" fill="none" xmlns="http://www.w3.org/2000/svg" xmlns:xlink="http://www.w3.org/1999/xlink">
<mask id="mask_0_i_261_7023;38_1834" style="mask-type:alpha" maskUnits="userSpaceOnUse" x="-0.263672" y="-1.000122" width="16.000017" height="16.000092">
<path d="M14.524,-0.498C15.194,-1.167 16.279,-1.167 16.948,-0.498L21.702,4.256C22.372,4.925 22.372,6.01 21.702,6.68L16.948,11.434C16.279,12.103 15.194,12.103 14.524,11.434L9.77,6.68C9.101,6.01 9.101,4.925 9.77,4.256L14.524,-0.498Z" fill="#1F2024"/>
<path d="M31.234,13.788C31.904,14.457 31.904,15.543 31.234,16.212L26.48,20.966C25.811,21.635 24.726,21.635 24.057,20.966L19.302,16.212C18.633,15.543 18.633,14.457 19.302,13.788L24.057,9.034C24.726,8.365 25.811,8.365 26.48,9.034L31.234,13.788Z" fill="#1F2024"/>
<path d="M14.524,18.566C15.194,17.897 16.279,17.897 16.948,18.566L21.702,23.32C22.372,23.989 22.372,25.075 21.702,25.744L16.948,30.498C16.279,31.167 15.194,31.167 14.524,30.498L9.77,25.744C9.101,25.075 9.101,23.989 9.77,23.32L14.524,18.566Z" fill="#1F2024"/>
<path d="M12.17,13.788C12.84,14.457 12.84,15.543 12.17,16.212L7.416,20.966C6.747,21.635 5.662,21.635 4.992,20.966L0.238,16.212C-0.431,15.543 -0.431,14.457 0.238,13.788L4.992,9.034C5.662,8.365 6.747,8.365 7.416,9.034L12.17,13.788Z" fill="#1F2024"/>
</mask>
<rect  x="-0.264" y="-1" width="32" height="32" fill="#1F2024"/>
</svg>
