<svg width="32" height="32" viewBox="0 0 32 32" fill="none" xmlns="http://www.w3.org/2000/svg" xmlns:xlink="http://www.w3.org/1999/xlink">
<mask id="mask_0_i_248_3799;38_1843;38_1834" style="mask-type:alpha" maskUnits="userSpaceOnUse" x="-0.15625" y="-0.000122" width="16.000017" height="16.000092">
<path d="M14.632,0.502C15.301,-0.167 16.386,-0.167 17.056,0.502L21.81,5.256C22.479,5.925 22.479,7.01 21.81,7.68L17.056,12.434C16.386,13.103 15.301,13.103 14.632,12.434L9.878,7.68C9.209,7.01 9.209,5.925 9.878,5.256L14.632,0.502Z" fill="#1F2024"/>
<path d="M31.342,14.788C32.011,15.457 32.011,16.543 31.342,17.212L26.588,21.966C25.918,22.635 24.833,22.635 24.164,21.966L19.41,17.212C18.741,16.543 18.741,15.457 19.41,14.788L24.164,10.034C24.833,9.365 25.918,9.365 26.588,10.034L31.342,14.788Z" fill="#1F2024"/>
<path d="M14.632,19.566C15.301,18.897 16.386,18.897 17.056,19.566L21.81,24.32C22.479,24.989 22.479,26.075 21.81,26.744L17.056,31.498C16.386,32.167 15.301,32.167 14.632,31.498L9.878,26.744C9.209,26.075 9.209,24.989 9.878,24.32L14.632,19.566Z" fill="#1F2024"/>
<path d="M12.278,14.788C12.947,15.457 12.947,16.543 12.278,17.212L7.524,21.966C6.854,22.635 5.769,22.635 5.1,21.966L0.346,17.212C-0.324,16.543 -0.324,15.457 0.346,14.788L5.1,10.034C5.769,9.365 6.854,9.365 7.524,10.034L12.278,14.788Z" fill="#1F2024"/>
</mask>
<rect  x="-0.156" y="0" width="32" height="32" fill="#8F9098"/>
</svg>
