<svg width="34" height="32" viewBox="0 0 34 32" fill="none" xmlns="http://www.w3.org/2000/svg" xmlns:xlink="http://www.w3.org/1999/xlink">
<mask id="mask_0_i_256_5079;38_1843;38_1834" style="mask-type:alpha" maskUnits="userSpaceOnUse" x="0.118164" y="0" width="16.000017" height="16.000092">
<path d="M14.906,0.502C15.576,-0.167 16.661,-0.167 17.33,0.502L22.084,5.256C22.753,5.925 22.753,7.01 22.084,7.68L17.33,12.434C16.661,13.103 15.576,13.103 14.906,12.434L10.152,7.68C9.483,7.01 9.483,5.925 10.152,5.256L14.906,0.502Z" fill="#1F2024"/>
<path d="M31.616,14.788C32.286,15.458 32.286,16.543 31.616,17.212L26.862,21.966C26.193,22.635 25.108,22.635 24.438,21.966L19.684,17.212C19.015,16.543 19.015,15.458 19.684,14.788L24.438,10.034C25.108,9.365 26.193,9.365 26.862,10.034L31.616,14.788Z" fill="#1F2024"/>
<path d="M14.906,19.566C15.576,18.897 16.661,18.897 17.33,19.566L22.084,24.32C22.753,24.99 22.753,26.075 22.084,26.744L17.33,31.498C16.661,32.168 15.576,32.168 14.906,31.498L10.152,26.744C9.483,26.075 9.483,24.99 10.152,24.32L14.906,19.566Z" fill="#1F2024"/>
<path d="M12.552,14.788C13.221,15.458 13.221,16.543 12.552,17.212L7.798,21.966C7.129,22.635 6.044,22.635 5.374,21.966L0.62,17.212C-0.049,16.543 -0.049,15.458 0.62,14.788L5.374,10.034C6.044,9.365 7.129,9.365 7.798,10.034L12.552,14.788Z" fill="#1F2024"/>
</mask>
<rect  x="0.118" y="0" width="32" height="32" fill="#8F9098"/>
</svg>
