<svg width="34" height="32" viewBox="0 0 34 32" fill="none" xmlns="http://www.w3.org/2000/svg" xmlns:xlink="http://www.w3.org/1999/xlink">
<mask id="mask_0_i_248_4448;38_1843;38_1834" style="mask-type:alpha" maskUnits="userSpaceOnUse" x="0.842773" y="-0.964966" width="16.000017" height="16.000092">
<path d="M15.631,-0.463C16.3,-1.132 17.385,-1.132 18.055,-0.463L22.809,4.291C23.478,4.96 23.478,6.046 22.809,6.715L18.055,11.469C17.385,12.138 16.3,12.138 15.631,11.469L10.877,6.715C10.208,6.046 10.208,4.96 10.877,4.291L15.631,-0.463Z" fill="#1F2024"/>
<path d="M32.341,13.823C33.01,14.493 33.01,15.578 32.341,16.247L27.587,21.001C26.917,21.67 25.832,21.67 25.163,21.001L20.409,16.247C19.74,15.578 19.74,14.493 20.409,13.823L25.163,9.069C25.832,8.4 26.917,8.4 27.587,9.069L32.341,13.823Z" fill="#1F2024"/>
<path d="M15.631,18.601C16.3,17.932 17.385,17.932 18.055,18.601L22.809,23.355C23.478,24.025 23.478,25.11 22.809,25.779L18.055,30.533C17.385,31.203 16.3,31.203 15.631,30.533L10.877,25.779C10.208,25.11 10.208,24.025 10.877,23.355L15.631,18.601Z" fill="#1F2024"/>
<path d="M13.277,13.823C13.946,14.493 13.946,15.578 13.277,16.247L8.523,21.001C7.853,21.67 6.768,21.67 6.099,21.001L1.345,16.247C0.675,15.578 0.675,14.493 1.345,13.823L6.099,9.069C6.768,8.4 7.853,8.4 8.523,9.069L13.277,13.823Z" fill="#1F2024"/>
</mask>
<rect  x="0.843" y="-0.965" width="32" height="32" fill="#8F9098"/>
</svg>
