<svg width="34" height="34" viewBox="0 0 34 34" fill="none" xmlns="http://www.w3.org/2000/svg" xmlns:xlink="http://www.w3.org/1999/xlink">
<mask id="mask_0_i_258_5347;38_1843;38_1834" style="mask-type:alpha" maskUnits="userSpaceOnUse" x="0.634766" y="0.227905" width="16.000017" height="16.000092">
<path d="M15.423,0.73C16.092,0.061 17.177,0.061 17.847,0.73L22.601,5.484C23.27,6.153 23.27,7.238 22.601,7.908L17.847,12.662C17.177,13.331 16.092,13.331 15.423,12.662L10.669,7.908C10,7.238 10,6.153 10.669,5.484L15.423,0.73Z" fill="#1F2024"/>
<path d="M32.133,15.016C32.802,15.685 32.802,16.771 32.133,17.44L27.379,22.194C26.709,22.863 25.624,22.863 24.955,22.194L20.201,17.44C19.532,16.771 19.532,15.685 20.201,15.016L24.955,10.262C25.624,9.593 26.709,9.593 27.379,10.262L32.133,15.016Z" fill="#1F2024"/>
<path d="M15.423,19.794C16.092,19.125 17.177,19.125 17.847,19.794L22.601,24.548C23.27,25.218 23.27,26.303 22.601,26.972L17.847,31.726C17.177,32.396 16.092,32.396 15.423,31.726L10.669,26.972C10,26.303 10,25.218 10.669,24.548L15.423,19.794Z" fill="#1F2024"/>
<path d="M13.069,15.016C13.738,15.685 13.738,16.771 13.069,17.44L8.315,22.194C7.645,22.863 6.56,22.863 5.891,22.194L1.137,17.44C0.467,16.771 0.467,15.685 1.137,15.016L5.891,10.262C6.56,9.593 7.645,9.593 8.315,10.262L13.069,15.016Z" fill="#1F2024"/>
</mask>
<rect  x="0.635" y="0.228" width="32" height="32" fill="#8F9098"/>
</svg>
