<svg width="32" height="32" viewBox="0 0 32 32" fill="none" xmlns="http://www.w3.org/2000/svg" xmlns:xlink="http://www.w3.org/1999/xlink">
<mask id="mask_0_i_256_5233;38_1843;38_1834" style="mask-type:alpha" maskUnits="userSpaceOnUse" x="-0.176758" y="0" width="16.000017" height="16.000092">
<path d="M14.611,0.502C15.281,-0.167 16.366,-0.167 17.035,0.502L21.789,5.256C22.458,5.925 22.458,7.01 21.789,7.68L17.035,12.434C16.366,13.103 15.281,13.103 14.611,12.434L9.857,7.68C9.188,7.01 9.188,5.925 9.857,5.256L14.611,0.502Z" fill="#1F2024"/>
<path d="M31.321,14.788C31.991,15.458 31.991,16.543 31.321,17.212L26.567,21.966C25.898,22.635 24.813,22.635 24.143,21.966L19.389,17.212C18.72,16.543 18.72,15.458 19.389,14.788L24.143,10.034C24.813,9.365 25.898,9.365 26.567,10.034L31.321,14.788Z" fill="#1F2024"/>
<path d="M14.611,19.566C15.281,18.897 16.366,18.897 17.035,19.566L21.789,24.32C22.458,24.99 22.458,26.075 21.789,26.744L17.035,31.498C16.366,32.168 15.281,32.168 14.611,31.498L9.857,26.744C9.188,26.075 9.188,24.99 9.857,24.32L14.611,19.566Z" fill="#1F2024"/>
<path d="M12.257,14.788C12.926,15.458 12.926,16.543 12.257,17.212L7.503,21.966C6.834,22.635 5.749,22.635 5.079,21.966L0.325,17.212C-0.344,16.543 -0.344,15.458 0.325,14.788L5.079,10.034C5.749,9.365 6.834,9.365 7.503,10.034L12.257,14.788Z" fill="#1F2024"/>
</mask>
<rect  x="-0.177" y="0" width="32" height="32" fill="#8F9098"/>
</svg>
