<svg width="32" height="32" viewBox="0 0 32 32" fill="none" xmlns="http://www.w3.org/2000/svg" xmlns:xlink="http://www.w3.org/1999/xlink">
<mask id="mask_0_i_256_5086;38_1843;38_1834" style="mask-type:alpha" maskUnits="userSpaceOnUse" x="-0.280273" y="-0.574219" width="16.000017" height="16.000092">
<path d="M14.508,-0.072C15.177,-0.742 16.262,-0.742 16.932,-0.072L21.686,4.682C22.355,5.351 22.355,6.436 21.686,7.106L16.932,11.86C16.262,12.529 15.177,12.529 14.508,11.86L9.754,7.106C9.084,6.436 9.084,5.351 9.754,4.682L14.508,-0.072Z" fill="#1F2024"/>
<path d="M31.218,14.214C31.887,14.883 31.887,15.968 31.218,16.638L26.464,21.392C25.794,22.061 24.709,22.061 24.04,21.392L19.286,16.638C18.617,15.968 18.617,14.883 19.286,14.214L24.04,9.46C24.709,8.791 25.794,8.791 26.464,9.46L31.218,14.214Z" fill="#1F2024"/>
<path d="M14.508,18.992C15.177,18.323 16.262,18.323 16.932,18.992L21.686,23.746C22.355,24.415 22.355,25.501 21.686,26.17L16.932,30.924C16.262,31.593 15.177,31.593 14.508,30.924L9.754,26.17C9.084,25.501 9.084,24.415 9.754,23.746L14.508,18.992Z" fill="#1F2024"/>
<path d="M12.154,14.214C12.823,14.883 12.823,15.968 12.154,16.638L7.4,21.392C6.73,22.061 5.645,22.061 4.976,21.392L0.222,16.638C-0.448,15.968 -0.448,14.883 0.222,14.214L4.976,9.46C5.645,8.791 6.73,8.791 7.4,9.46L12.154,14.214Z" fill="#1F2024"/>
</mask>
<rect  x="-0.28" y="-0.574" width="32" height="32" fill="#8F9098"/>
</svg>
