<svg width="32" height="32" viewBox="0 0 32 32" fill="none" xmlns="http://www.w3.org/2000/svg" xmlns:xlink="http://www.w3.org/1999/xlink">
<mask id="mask_0_i_251_6261;38_1843;38_1834" style="mask-type:alpha" maskUnits="userSpaceOnUse" x="-0.417969" y="-0.874512" width="16.000017" height="16.000092">
<path d="M14.37,-0.373C15.039,-1.042 16.125,-1.042 16.794,-0.373L21.548,4.382C22.217,5.051 22.217,6.136 21.548,6.805L16.794,11.559C16.125,12.229 15.039,12.229 14.37,11.559L9.616,6.805C8.947,6.136 8.947,5.051 9.616,4.382L14.37,-0.373Z" fill="#1F2024"/>
<path d="M31.08,13.914C31.749,14.583 31.749,15.668 31.08,16.337L26.326,21.091C25.657,21.761 24.572,21.761 23.902,21.091L19.148,16.337C18.479,15.668 18.479,14.583 19.148,13.914L23.902,9.16C24.572,8.49 25.657,8.49 26.326,9.16L31.08,13.914Z" fill="#1F2024"/>
<path d="M14.37,18.692C15.039,18.022 16.125,18.022 16.794,18.692L21.548,23.446C22.217,24.115 22.217,25.2 21.548,25.87L16.794,30.624C16.125,31.293 15.039,31.293 14.37,30.624L9.616,25.87C8.947,25.2 8.947,24.115 9.616,23.446L14.37,18.692Z" fill="#1F2024"/>
<path d="M12.016,13.914C12.685,14.583 12.685,15.668 12.016,16.337L7.262,21.091C6.593,21.761 5.507,21.761 4.838,21.091L0.084,16.337C-0.585,15.668 -0.585,14.583 0.084,13.914L4.838,9.16C5.507,8.49 6.593,8.49 7.262,9.16L12.016,13.914Z" fill="#1F2024"/>
</mask>
<rect  x="-0.418" y="-0.874" width="32" height="32" fill="#8F9098"/>
</svg>
