<svg width="34" height="32" viewBox="0 0 34 32" fill="none" xmlns="http://www.w3.org/2000/svg" xmlns:xlink="http://www.w3.org/1999/xlink">
<mask id="mask_0_i_256_4956;38_1834" style="mask-type:alpha" maskUnits="userSpaceOnUse" x="0.368164" y="-1.000122" width="16.000017" height="16.000092">
<path d="M15.156,-0.498C15.826,-1.167 16.911,-1.167 17.58,-0.498L22.334,4.256C23.003,4.925 23.003,6.01 22.334,6.68L17.58,11.434C16.911,12.103 15.826,12.103 15.156,11.434L10.402,6.68C9.733,6.01 9.733,4.925 10.402,4.256L15.156,-0.498Z" fill="#1F2024"/>
<path d="M31.866,13.788C32.536,14.457 32.536,15.543 31.866,16.212L27.112,20.966C26.443,21.635 25.358,21.635 24.688,20.966L19.934,16.212C19.265,15.543 19.265,14.457 19.934,13.788L24.688,9.034C25.358,8.365 26.443,8.365 27.112,9.034L31.866,13.788Z" fill="#1F2024"/>
<path d="M15.156,18.566C15.826,17.897 16.911,17.897 17.58,18.566L22.334,23.32C23.003,23.989 23.003,25.075 22.334,25.744L17.58,30.498C16.911,31.167 15.826,31.167 15.156,30.498L10.402,25.744C9.733,25.075 9.733,23.989 10.402,23.32L15.156,18.566Z" fill="#1F2024"/>
<path d="M12.802,13.788C13.471,14.457 13.471,15.543 12.802,16.212L8.048,20.966C7.379,21.635 6.294,21.635 5.624,20.966L0.87,16.212C0.201,15.543 0.201,14.457 0.87,13.788L5.624,9.034C6.294,8.365 7.379,8.365 8.048,9.034L12.802,13.788Z" fill="#1F2024"/>
</mask>
<rect  x="0.368" y="-1" width="32" height="32" fill="#1F2024"/>
</svg>
