<svg width="32" height="34" viewBox="0 0 32 34" fill="none" xmlns="http://www.w3.org/2000/svg" xmlns:xlink="http://www.w3.org/1999/xlink">
<mask id="mask_0_i_249_4967;38_1843;38_1834" style="mask-type:alpha" maskUnits="userSpaceOnUse" x="-0.157227" y="0.721924" width="16.000017" height="16.000092">
<path d="M14.631,1.224C15.3,0.555 16.385,0.555 17.055,1.224L21.809,5.978C22.478,6.647 22.478,7.732 21.809,8.402L17.055,13.156C16.385,13.825 15.3,13.825 14.631,13.156L9.877,8.402C9.208,7.732 9.208,6.647 9.877,5.978L14.631,1.224Z" fill="#1F2024"/>
<path d="M31.341,15.51C32.01,16.179 32.01,17.265 31.341,17.934L26.587,22.688C25.917,23.357 24.832,23.357 24.163,22.688L19.409,17.934C18.74,17.265 18.74,16.179 19.409,15.51L24.163,10.756C24.832,10.087 25.917,10.087 26.587,10.756L31.341,15.51Z" fill="#1F2024"/>
<path d="M14.631,20.288C15.3,19.619 16.385,19.619 17.055,20.288L21.809,25.042C22.478,25.712 22.478,26.797 21.809,27.466L17.055,32.22C16.385,32.89 15.3,32.89 14.631,32.22L9.877,27.466C9.208,26.797 9.208,25.712 9.877,25.042L14.631,20.288Z" fill="#1F2024"/>
<path d="M12.277,15.51C12.946,16.179 12.946,17.265 12.277,17.934L7.523,22.688C6.853,23.357 5.768,23.357 5.099,22.688L0.345,17.934C-0.325,17.265 -0.325,16.179 0.345,15.51L5.099,10.756C5.768,10.087 6.853,10.087 7.523,10.756L12.277,15.51Z" fill="#1F2024"/>
</mask>
<rect  x="-0.157" y="0.722" width="32" height="32" fill="#8F9098"/>
</svg>
