<svg width="32" height="32" viewBox="0 0 32 32" fill="none" xmlns="http://www.w3.org/2000/svg" xmlns:xlink="http://www.w3.org/1999/xlink">
<mask id="mask_0_i_256_4825;38_1834" style="mask-type:alpha" maskUnits="userSpaceOnUse" x="-0.316406" y="-1.000122" width="16.000017" height="16.000092">
<path d="M14.472,-0.498C15.141,-1.167 16.226,-1.167 16.895,-0.498L21.65,4.256C22.319,4.925 22.319,6.01 21.65,6.68L16.895,11.434C16.226,12.103 15.141,12.103 14.472,11.434L9.718,6.68C9.048,6.01 9.048,4.925 9.718,4.256L14.472,-0.498Z" fill="#1F2024"/>
<path d="M31.182,13.788C31.851,14.457 31.851,15.543 31.182,16.212L26.428,20.966C25.758,21.635 24.673,21.635 24.004,20.966L19.25,16.212C18.58,15.543 18.58,14.457 19.25,13.788L24.004,9.034C24.673,8.365 25.758,8.365 26.428,9.034L31.182,13.788Z" fill="#1F2024"/>
<path d="M14.472,18.566C15.141,17.897 16.226,17.897 16.895,18.566L21.65,23.32C22.319,23.989 22.319,25.075 21.65,25.744L16.895,30.498C16.226,31.167 15.141,31.167 14.472,30.498L9.718,25.744C9.048,25.075 9.048,23.989 9.718,23.32L14.472,18.566Z" fill="#1F2024"/>
<path d="M12.117,13.788C12.787,14.457 12.787,15.543 12.117,16.212L7.363,20.966C6.694,21.635 5.609,21.635 4.94,20.966L0.186,16.212C-0.484,15.543 -0.484,14.457 0.186,13.788L4.94,9.034C5.609,8.365 6.694,8.365 7.363,9.034L12.117,13.788Z" fill="#1F2024"/>
</mask>
<rect  x="-0.316" y="-1" width="32" height="32" fill="#1F2024"/>
</svg>
