<svg width="32" height="32" viewBox="0 0 32 32" fill="none" xmlns="http://www.w3.org/2000/svg" xmlns:xlink="http://www.w3.org/1999/xlink">
<mask id="mask_0_i_256_4729;38_1834" style="mask-type:alpha" maskUnits="userSpaceOnUse" x="-0.473633" y="-1.000122" width="16.000017" height="16.000092">
<path d="M14.315,-0.498C14.984,-1.167 16.069,-1.167 16.738,-0.498L21.492,4.256C22.162,4.925 22.162,6.01 21.492,6.68L16.738,11.434C16.069,12.103 14.984,12.103 14.315,11.434L9.56,6.68C8.891,6.01 8.891,4.925 9.56,4.256L14.315,-0.498Z" fill="#1F2024"/>
<path d="M31.024,13.788C31.694,14.457 31.694,15.543 31.024,16.212L26.27,20.966C25.601,21.635 24.516,21.635 23.847,20.966L19.093,16.212C18.423,15.543 18.423,14.457 19.093,13.788L23.847,9.034C24.516,8.365 25.601,8.365 26.27,9.034L31.024,13.788Z" fill="#1F2024"/>
<path d="M14.315,18.566C14.984,17.897 16.069,17.897 16.738,18.566L21.492,23.32C22.162,23.989 22.162,25.075 21.492,25.744L16.738,30.498C16.069,31.167 14.984,31.167 14.315,30.498L9.56,25.744C8.891,25.075 8.891,23.989 9.56,23.32L14.315,18.566Z" fill="#1F2024"/>
<path d="M11.96,13.788C12.63,14.457 12.63,15.543 11.96,16.212L7.206,20.966C6.537,21.635 5.452,21.635 4.782,20.966L0.028,16.212C-0.641,15.543 -0.641,14.457 0.028,13.788L4.782,9.034C5.452,8.365 6.537,8.365 7.206,9.034L11.96,13.788Z" fill="#1F2024"/>
</mask>
<rect  x="-0.474" y="-1" width="32" height="32" fill="#1F2024"/>
</svg>
