<svg width="34" height="32" viewBox="0 0 34 32" fill="none" xmlns="http://www.w3.org/2000/svg" xmlns:xlink="http://www.w3.org/1999/xlink">
<mask id="mask_0_i_252_7810;38_1843;38_1834" style="mask-type:alpha" maskUnits="userSpaceOnUse" x="1" y="-0.512207" width="16.000017" height="16.000092">
<path d="M15.788,-0.01C16.457,-0.68 17.543,-0.68 18.212,-0.01L22.966,4.744C23.635,5.413 23.635,6.498 22.966,7.168L18.212,11.922C17.543,12.591 16.457,12.591 15.788,11.922L11.034,7.168C10.365,6.498 10.365,5.413 11.034,4.744L15.788,-0.01Z" fill="#1F2024"/>
<path d="M32.498,14.276C33.167,14.945 33.167,16.03 32.498,16.7L27.744,21.454C27.075,22.123 25.99,22.123 25.32,21.454L20.566,16.7C19.897,16.03 19.897,14.945 20.566,14.276L25.32,9.522C25.99,8.853 27.075,8.853 27.744,9.522L32.498,14.276Z" fill="#1F2024"/>
<path d="M15.788,19.054C16.457,18.385 17.543,18.385 18.212,19.054L22.966,23.808C23.635,24.477 23.635,25.563 22.966,26.232L18.212,30.986C17.543,31.655 16.457,31.655 15.788,30.986L11.034,26.232C10.365,25.563 10.365,24.477 11.034,23.808L15.788,19.054Z" fill="#1F2024"/>
<path d="M13.434,14.276C14.103,14.945 14.103,16.03 13.434,16.7L8.68,21.454C8.011,22.123 6.925,22.123 6.256,21.454L1.502,16.7C0.833,16.03 0.833,14.945 1.502,14.276L6.256,9.522C6.925,8.853 8.011,8.853 8.68,9.522L13.434,14.276Z" fill="#1F2024"/>
</mask>
<rect  x="1" y="-0.512" width="32" height="32" fill="#8F9098"/>
</svg>
