<svg width="32" height="32" viewBox="0 0 32 32" fill="none" xmlns="http://www.w3.org/2000/svg" xmlns:xlink="http://www.w3.org/1999/xlink">
<mask id="mask_0_i_252_7211;38_1843;38_1834" style="mask-type:alpha" maskUnits="userSpaceOnUse" x="-0.157471" y="-0.005371" width="16.000017" height="16.000092">
<path d="M14.631,0.497C15.3,-0.173 16.385,-0.173 17.054,0.497L21.809,5.251C22.478,5.92 22.478,7.005 21.809,7.674L17.054,12.429C16.385,13.098 15.3,13.098 14.631,12.429L9.877,7.674C9.207,7.005 9.207,5.92 9.877,5.251L14.631,0.497Z" fill="#1F2024"/>
<path d="M31.341,14.783C32.01,15.452 32.01,16.537 31.341,17.207L26.587,21.961C25.917,22.63 24.832,22.63 24.163,21.961L19.409,17.207C18.739,16.537 18.739,15.452 19.409,14.783L24.163,10.029C24.832,9.359 25.917,9.359 26.587,10.029L31.341,14.783Z" fill="#1F2024"/>
<path d="M14.631,19.561C15.3,18.892 16.385,18.892 17.054,19.561L21.809,24.315C22.478,24.984 22.478,26.069 21.809,26.739L17.054,31.493C16.385,32.162 15.3,32.162 14.631,31.493L9.877,26.739C9.207,26.069 9.207,24.984 9.877,24.315L14.631,19.561Z" fill="#1F2024"/>
<path d="M12.276,14.783C12.946,15.452 12.946,16.537 12.276,17.207L7.522,21.961C6.853,22.63 5.768,22.63 5.099,21.961L0.345,17.207C-0.325,16.537 -0.325,15.452 0.345,14.783L5.099,10.029C5.768,9.359 6.853,9.359 7.522,10.029L12.276,14.783Z" fill="#1F2024"/>
</mask>
<rect  x="-0.157" y="-0.005" width="32" height="32" fill="#8F9098"/>
</svg>
