<svg width="32" height="32" viewBox="0 0 32 32" fill="none" xmlns="http://www.w3.org/2000/svg" xmlns:xlink="http://www.w3.org/1999/xlink">
<mask id="mask_0_i_257_4726;38_1843;38_1834" style="mask-type:alpha" maskUnits="userSpaceOnUse" x="-0.980469" y="-0.830688" width="16.000017" height="16.000092">
<path d="M13.808,-0.329C14.477,-0.998 15.562,-0.998 16.231,-0.329L20.986,4.425C21.655,5.095 21.655,6.18 20.986,6.849L16.231,11.603C15.562,12.272 14.477,12.272 13.808,11.603L9.054,6.849C8.384,6.18 8.384,5.095 9.054,4.425L13.808,-0.329Z" fill="#1F2024"/>
<path d="M30.518,13.958C31.187,14.627 31.187,15.712 30.518,16.381L25.764,21.135C25.094,21.805 24.009,21.805 23.34,21.135L18.586,16.381C17.916,15.712 17.916,14.627 18.586,13.958L23.34,9.203C24.009,8.534 25.094,8.534 25.764,9.203L30.518,13.958Z" fill="#1F2024"/>
<path d="M13.808,18.736C14.477,18.066 15.562,18.066 16.231,18.736L20.986,23.49C21.655,24.159 21.655,25.244 20.986,25.914L16.231,30.668C15.562,31.337 14.477,31.337 13.808,30.668L9.054,25.914C8.384,25.244 8.384,24.159 9.054,23.49L13.808,18.736Z" fill="#1F2024"/>
<path d="M11.453,13.958C12.123,14.627 12.123,15.712 11.453,16.381L6.699,21.135C6.03,21.805 4.945,21.805 4.276,21.135L-0.478,16.381C-1.148,15.712 -1.148,14.627 -0.478,13.958L4.276,9.203C4.945,8.534 6.03,8.534 6.699,9.203L11.453,13.958Z" fill="#1F2024"/>
</mask>
<rect  x="-0.98" y="-0.831" width="32" height="32" fill="#8F9098"/>
</svg>
