<svg width="32" height="34" viewBox="0 0 32 34" fill="none" xmlns="http://www.w3.org/2000/svg" xmlns:xlink="http://www.w3.org/1999/xlink">
<mask id="mask_0_i_252_7527;38_1843;38_1834" style="mask-type:alpha" maskUnits="userSpaceOnUse" x="-0.157471" y="0.072754" width="16.000017" height="16.000092">
<path d="M14.631,0.575C15.3,-0.095 16.385,-0.095 17.054,0.575L21.809,5.329C22.478,5.998 22.478,7.083 21.809,7.753L17.054,12.507C16.385,13.176 15.3,13.176 14.631,12.507L9.877,7.753C9.207,7.083 9.207,5.998 9.877,5.329L14.631,0.575Z" fill="#1F2024"/>
<path d="M31.341,14.861C32.01,15.53 32.01,16.615 31.341,17.285L26.587,22.039C25.917,22.708 24.832,22.708 24.163,22.039L19.409,17.285C18.739,16.615 18.739,15.53 19.409,14.861L24.163,10.107C24.832,9.438 25.917,9.438 26.587,10.107L31.341,14.861Z" fill="#1F2024"/>
<path d="M14.631,19.639C15.3,18.97 16.385,18.97 17.054,19.639L21.809,24.393C22.478,25.062 22.478,26.148 21.809,26.817L17.054,31.571C16.385,32.24 15.3,32.24 14.631,31.571L9.877,26.817C9.207,26.148 9.207,25.062 9.877,24.393L14.631,19.639Z" fill="#1F2024"/>
<path d="M12.276,14.861C12.946,15.53 12.946,16.615 12.276,17.285L7.522,22.039C6.853,22.708 5.768,22.708 5.099,22.039L0.345,17.285C-0.325,16.615 -0.325,15.53 0.345,14.861L5.099,10.107C5.768,9.438 6.853,9.438 7.522,10.107L12.276,14.861Z" fill="#1F2024"/>
</mask>
<rect  x="-0.157" y="0.073" width="32" height="32" fill="#8F9098"/>
</svg>
