<svg width="32" height="32" viewBox="0 0 32 32" fill="none" xmlns="http://www.w3.org/2000/svg" xmlns:xlink="http://www.w3.org/1999/xlink">
<mask id="mask_0_i_257_4791;38_1834" style="mask-type:alpha" maskUnits="userSpaceOnUse" x="-0.582031" y="-1.000122" width="16.000017" height="16.000092">
<path d="M14.206,-0.498C14.875,-1.167 15.961,-1.167 16.63,-0.498L21.384,4.256C22.053,4.925 22.053,6.01 21.384,6.68L16.63,11.434C15.961,12.103 14.875,12.103 14.206,11.434L9.452,6.68C8.783,6.01 8.783,4.925 9.452,4.256L14.206,-0.498Z" fill="#1F2024"/>
<path d="M30.916,13.788C31.585,14.457 31.585,15.543 30.916,16.212L26.162,20.966C25.493,21.635 24.408,21.635 23.738,20.966L18.984,16.212C18.315,15.543 18.315,14.457 18.984,13.788L23.738,9.034C24.408,8.365 25.493,8.365 26.162,9.034L30.916,13.788Z" fill="#1F2024"/>
<path d="M14.206,18.566C14.875,17.897 15.961,17.897 16.63,18.566L21.384,23.32C22.053,23.989 22.053,25.075 21.384,25.744L16.63,30.498C15.961,31.167 14.875,31.167 14.206,30.498L9.452,25.744C8.783,25.075 8.783,23.989 9.452,23.32L14.206,18.566Z" fill="#1F2024"/>
<path d="M11.852,13.788C12.521,14.457 12.521,15.543 11.852,16.212L7.098,20.966C6.428,21.635 5.343,21.635 4.674,20.966L-0.08,16.212C-0.749,15.543 -0.749,14.457 -0.08,13.788L4.674,9.034C5.343,8.365 6.428,8.365 7.098,9.034L11.852,13.788Z" fill="#1F2024"/>
</mask>
<rect  x="-0.582" y="-1" width="32" height="32" fill="#1F2024"/>
</svg>
