<svg width="32" height="32" viewBox="0 0 32 32" fill="none" xmlns="http://www.w3.org/2000/svg" xmlns:xlink="http://www.w3.org/1999/xlink">
<mask id="mask_0_i_256_4747;38_1834" style="mask-type:alpha" maskUnits="userSpaceOnUse" x="-0.157471" y="-1.000122" width="16.000017" height="16.000092">
<path d="M14.631,-0.498C15.3,-1.167 16.385,-1.167 17.054,-0.498L21.809,4.256C22.478,4.925 22.478,6.01 21.809,6.68L17.054,11.434C16.385,12.103 15.3,12.103 14.631,11.434L9.877,6.68C9.207,6.01 9.207,4.925 9.877,4.256L14.631,-0.498Z" fill="#1F2024"/>
<path d="M31.341,13.788C32.01,14.457 32.01,15.543 31.341,16.212L26.587,20.966C25.917,21.635 24.832,21.635 24.163,20.966L19.409,16.212C18.739,15.543 18.739,14.457 19.409,13.788L24.163,9.034C24.832,8.365 25.917,8.365 26.587,9.034L31.341,13.788Z" fill="#1F2024"/>
<path d="M14.631,18.566C15.3,17.897 16.385,17.897 17.054,18.566L21.809,23.32C22.478,23.989 22.478,25.075 21.809,25.744L17.054,30.498C16.385,31.167 15.3,31.167 14.631,30.498L9.877,25.744C9.207,25.075 9.207,23.989 9.877,23.32L14.631,18.566Z" fill="#1F2024"/>
<path d="M12.276,13.788C12.946,14.457 12.946,15.543 12.276,16.212L7.522,20.966C6.853,21.635 5.768,21.635 5.099,20.966L0.345,16.212C-0.325,15.543 -0.325,14.457 0.345,13.788L5.099,9.034C5.768,8.365 6.853,8.365 7.522,9.034L12.276,13.788Z" fill="#1F2024"/>
</mask>
<rect  x="-0.157" y="-1" width="32" height="32" fill="#1F2024"/>
</svg>
