<svg width="32" height="34" viewBox="0 0 32 34" fill="none" xmlns="http://www.w3.org/2000/svg" xmlns:xlink="http://www.w3.org/1999/xlink">
<mask id="mask_0_i_256_5221;38_1843;38_1834" style="mask-type:alpha" maskUnits="userSpaceOnUse" x="-0.261719" y="0.115967" width="16.000017" height="16.000092">
<path d="M14.526,0.618C15.196,-0.051 16.281,-0.051 16.95,0.618L21.704,5.372C22.373,6.041 22.373,7.126 21.704,7.796L16.95,12.55C16.281,13.219 15.196,13.219 14.526,12.55L9.772,7.796C9.103,7.126 9.103,6.041 9.772,5.372L14.526,0.618Z" fill="#1F2024"/>
<path d="M31.236,14.904C31.906,15.573 31.906,16.659 31.236,17.328L26.482,22.082C25.813,22.751 24.728,22.751 24.058,22.082L19.304,17.328C18.635,16.659 18.635,15.573 19.304,14.904L24.058,10.15C24.728,9.481 25.813,9.481 26.482,10.15L31.236,14.904Z" fill="#1F2024"/>
<path d="M14.526,19.682C15.196,19.013 16.281,19.013 16.95,19.682L21.704,24.436C22.373,25.106 22.373,26.191 21.704,26.86L16.95,31.614C16.281,32.284 15.196,32.284 14.526,31.614L9.772,26.86C9.103,26.191 9.103,25.106 9.772,24.436L14.526,19.682Z" fill="#1F2024"/>
<path d="M12.172,14.904C12.841,15.573 12.841,16.659 12.172,17.328L7.418,22.082C6.749,22.751 5.664,22.751 4.994,22.082L0.24,17.328C-0.429,16.659 -0.429,15.573 0.24,14.904L4.994,10.15C5.664,9.481 6.749,9.481 7.418,10.15L12.172,14.904Z" fill="#1F2024"/>
</mask>
<rect  x="-0.262" y="0.116" width="32" height="32" fill="#8F9098"/>
</svg>
