<svg width="34" height="32" viewBox="0 0 34 32" fill="none" xmlns="http://www.w3.org/2000/svg" xmlns:xlink="http://www.w3.org/1999/xlink">
<mask id="mask_0_i_249_4777;38_1843;38_1834" style="mask-type:alpha" maskUnits="userSpaceOnUse" x="0.602539" y="-0.20874" width="16.000017" height="16.000092">
<path d="M15.391,0.293C16.06,-0.376 17.145,-0.376 17.814,0.293L22.569,5.047C23.238,5.717 23.238,6.802 22.569,7.471L17.814,12.225C17.145,12.894 16.06,12.894 15.391,12.225L10.637,7.471C9.967,6.802 9.967,5.717 10.637,5.047L15.391,0.293Z" fill="#1F2024"/>
<path d="M32.101,14.579C32.77,15.249 32.77,16.334 32.101,17.003L27.347,21.757C26.677,22.427 25.592,22.427 24.923,21.757L20.169,17.003C19.499,16.334 19.499,15.249 20.169,14.579L24.923,9.825C25.592,9.156 26.677,9.156 27.347,9.825L32.101,14.579Z" fill="#1F2024"/>
<path d="M15.391,19.358C16.06,18.688 17.145,18.688 17.814,19.358L22.569,24.112C23.238,24.781 23.238,25.866 22.569,26.535L17.814,31.289C17.145,31.959 16.06,31.959 15.391,31.289L10.637,26.535C9.967,25.866 9.967,24.781 10.637,24.112L15.391,19.358Z" fill="#1F2024"/>
<path d="M13.036,14.579C13.706,15.249 13.706,16.334 13.036,17.003L8.282,21.757C7.613,22.427 6.528,22.427 5.859,21.757L1.105,17.003C0.435,16.334 0.435,15.249 1.105,14.579L5.859,9.825C6.528,9.156 7.613,9.156 8.282,9.825L13.036,14.579Z" fill="#1F2024"/>
</mask>
<rect  x="0.603" y="-0.209" width="32" height="32" fill="#8F9098"/>
</svg>
