<svg width="34" height="34" viewBox="0 0 34 34" fill="none" xmlns="http://www.w3.org/2000/svg" xmlns:xlink="http://www.w3.org/1999/xlink">
<mask id="mask_0_i_256_4894;38_1843;38_1834" style="mask-type:alpha" maskUnits="userSpaceOnUse" x="0.842773" y="0.038086" width="16.000017" height="16.000092">
<path d="M15.631,0.54C16.3,-0.129 17.385,-0.129 18.055,0.54L22.809,5.294C23.478,5.963 23.478,7.049 22.809,7.718L18.055,12.472C17.385,13.141 16.3,13.141 15.631,12.472L10.877,7.718C10.208,7.049 10.208,5.963 10.877,5.294L15.631,0.54Z" fill="#1F2024"/>
<path d="M32.341,14.826C33.01,15.496 33.01,16.581 32.341,17.25L27.587,22.004C26.917,22.673 25.832,22.673 25.163,22.004L20.409,17.25C19.74,16.581 19.74,15.496 20.409,14.826L25.163,10.072C25.832,9.403 26.917,9.403 27.587,10.072L32.341,14.826Z" fill="#1F2024"/>
<path d="M15.631,19.604C16.3,18.935 17.385,18.935 18.055,19.604L22.809,24.358C23.478,25.028 23.478,26.113 22.809,26.782L18.055,31.536C17.385,32.206 16.3,32.206 15.631,31.536L10.877,26.782C10.208,26.113 10.208,25.028 10.877,24.358L15.631,19.604Z" fill="#1F2024"/>
<path d="M13.277,14.826C13.946,15.496 13.946,16.581 13.277,17.25L8.523,22.004C7.853,22.673 6.768,22.673 6.099,22.004L1.345,17.25C0.675,16.581 0.675,15.496 1.345,14.826L6.099,10.072C6.768,9.403 7.853,9.403 8.523,10.072L13.277,14.826Z" fill="#1F2024"/>
</mask>
<rect  x="0.843" y="0.038" width="32" height="32" fill="#8F9098"/>
</svg>
