<svg width="34" height="32" viewBox="0 0 34 32" fill="none" xmlns="http://www.w3.org/2000/svg" xmlns:xlink="http://www.w3.org/1999/xlink">
<mask id="mask_0_i_251_5616;38_1843;38_1834" style="mask-type:alpha" maskUnits="userSpaceOnUse" x="0.12793" y="-0.787109" width="16.000017" height="16.000092">
<path d="M14.916,-0.285C15.585,-0.954 16.671,-0.954 17.34,-0.285L22.094,4.469C22.763,5.138 22.763,6.223 22.094,6.893L17.34,11.647C16.671,12.316 15.585,12.316 14.916,11.647L10.162,6.893C9.493,6.223 9.493,5.138 10.162,4.469L14.916,-0.285Z" fill="#1F2024"/>
<path d="M31.626,14.001C32.295,14.67 32.295,15.756 31.626,16.425L26.872,21.179C26.203,21.848 25.118,21.848 24.448,21.179L19.694,16.425C19.025,15.756 19.025,14.67 19.694,14.001L24.448,9.247C25.118,8.578 26.203,8.578 26.872,9.247L31.626,14.001Z" fill="#1F2024"/>
<path d="M14.916,18.779C15.585,18.11 16.671,18.11 17.34,18.779L22.094,23.533C22.763,24.202 22.763,25.288 22.094,25.957L17.34,30.711C16.671,31.38 15.585,31.38 14.916,30.711L10.162,25.957C9.493,25.288 9.493,24.202 10.162,23.533L14.916,18.779Z" fill="#1F2024"/>
<path d="M12.562,14.001C13.231,14.67 13.231,15.756 12.562,16.425L7.808,21.179C7.138,21.848 6.053,21.848 5.384,21.179L0.63,16.425C-0.039,15.756 -0.039,14.67 0.63,14.001L5.384,9.247C6.053,8.578 7.138,8.578 7.808,9.247L12.562,14.001Z" fill="#1F2024"/>
</mask>
<rect  x="0.128" y="-0.787" width="32" height="32" fill="#8F9098"/>
</svg>
