<svg width="32" height="32" viewBox="0 0 32 32" fill="none" xmlns="http://www.w3.org/2000/svg" xmlns:xlink="http://www.w3.org/1999/xlink">
<mask id="mask_0_i_257_4922;38_1834" style="mask-type:alpha" maskUnits="userSpaceOnUse" x="-0.789063" y="-1.000122" width="16.000017" height="16.000092">
<path d="M13.999,-0.498C14.668,-1.167 15.754,-1.167 16.423,-0.498L21.177,4.256C21.846,4.925 21.846,6.01 21.177,6.68L16.423,11.434C15.754,12.103 14.668,12.103 13.999,11.434L9.245,6.68C8.576,6.01 8.576,4.925 9.245,4.256L13.999,-0.498Z" fill="#1F2024"/>
<path d="M30.709,13.788C31.378,14.457 31.378,15.543 30.709,16.212L25.955,20.966C25.286,21.635 24.201,21.635 23.531,20.966L18.777,16.212C18.108,15.543 18.108,14.457 18.777,13.788L23.531,9.034C24.201,8.365 25.286,8.365 25.955,9.034L30.709,13.788Z" fill="#1F2024"/>
<path d="M13.999,18.566C14.668,17.897 15.754,17.897 16.423,18.566L21.177,23.32C21.846,23.989 21.846,25.075 21.177,25.744L16.423,30.498C15.754,31.167 14.668,31.167 13.999,30.498L9.245,25.744C8.576,25.075 8.576,23.989 9.245,23.32L13.999,18.566Z" fill="#1F2024"/>
<path d="M11.645,13.788C12.314,14.457 12.314,15.543 11.645,16.212L6.891,20.966C6.221,21.635 5.136,21.635 4.467,20.966L-0.287,16.212C-0.956,15.543 -0.956,14.457 -0.287,13.788L4.467,9.034C5.136,8.365 6.221,8.365 6.891,9.034L11.645,13.788Z" fill="#1F2024"/>
</mask>
<rect  x="-0.789" y="-1" width="32" height="32" fill="#1F2024"/>
</svg>
