<svg width="32" height="32" viewBox="0 0 32 32" fill="none" xmlns="http://www.w3.org/2000/svg" xmlns:xlink="http://www.w3.org/1999/xlink">
<mask id="mask_0_i_258_5149;38_1843;38_1834" style="mask-type:alpha" maskUnits="userSpaceOnUse" x="-0.103516" y="-0.397949" width="16.000017" height="16.000092">
<path d="M14.685,0.104C15.354,-0.565 16.439,-0.565 17.108,0.104L21.862,4.858C22.532,5.527 22.532,6.613 21.862,7.282L17.108,12.036C16.439,12.705 15.354,12.705 14.685,12.036L9.931,7.282C9.261,6.613 9.261,5.527 9.931,4.858L14.685,0.104Z" fill="#1F2024"/>
<path d="M31.394,14.39C32.064,15.06 32.064,16.145 31.394,16.814L26.64,21.568C25.971,22.237 24.886,22.237 24.217,21.568L19.463,16.814C18.793,16.145 18.793,15.06 19.463,14.39L24.217,9.636C24.886,8.967 25.971,8.967 26.64,9.636L31.394,14.39Z" fill="#1F2024"/>
<path d="M14.685,19.168C15.354,18.499 16.439,18.499 17.108,19.168L21.862,23.922C22.532,24.592 22.532,25.677 21.862,26.346L17.108,31.1C16.439,31.77 15.354,31.77 14.685,31.1L9.931,26.346C9.261,25.677 9.261,24.592 9.931,23.922L14.685,19.168Z" fill="#1F2024"/>
<path d="M12.33,14.39C13,15.06 13,16.145 12.33,16.814L7.576,21.568C6.907,22.237 5.822,22.237 5.153,21.568L0.398,16.814C-0.271,16.145 -0.271,15.06 0.398,14.39L5.153,9.636C5.822,8.967 6.907,8.967 7.576,9.636L12.33,14.39Z" fill="#1F2024"/>
</mask>
<rect  x="-0.104" y="-0.398" width="32" height="32" fill="#8F9098"/>
</svg>
