<svg width="32" height="34" viewBox="0 0 32 34" fill="none" xmlns="http://www.w3.org/2000/svg" xmlns:xlink="http://www.w3.org/1999/xlink">
<mask id="mask_0_i_259_6107;38_1843;38_1834" style="mask-type:alpha" maskUnits="userSpaceOnUse" x="-0.420898" y="0.617188" width="16.000017" height="16.000092">
<path d="M14.367,1.119C15.037,0.45 16.122,0.45 16.791,1.119L21.545,5.873C22.214,6.543 22.214,7.628 21.545,8.297L16.791,13.051C16.122,13.72 15.037,13.72 14.367,13.051L9.613,8.297C8.944,7.628 8.944,6.543 9.613,5.873L14.367,1.119Z" fill="#1F2024"/>
<path d="M31.077,15.405C31.747,16.075 31.747,17.16 31.077,17.829L26.323,22.583C25.654,23.253 24.569,23.253 23.899,22.583L19.145,17.829C18.476,17.16 18.476,16.075 19.145,15.405L23.899,10.651C24.569,9.982 25.654,9.982 26.323,10.651L31.077,15.405Z" fill="#1F2024"/>
<path d="M14.367,20.183C15.037,19.514 16.122,19.514 16.791,20.183L21.545,24.938C22.214,25.607 22.214,26.692 21.545,27.361L16.791,32.115C16.122,32.785 15.037,32.785 14.367,32.115L9.613,27.361C8.944,26.692 8.944,25.607 9.613,24.938L14.367,20.183Z" fill="#1F2024"/>
<path d="M12.013,15.405C12.682,16.075 12.682,17.16 12.013,17.829L7.259,22.583C6.59,23.253 5.504,23.253 4.835,22.583L0.081,17.829C-0.588,17.16 -0.588,16.075 0.081,15.405L4.835,10.651C5.504,9.982 6.59,9.982 7.259,10.651L12.013,15.405Z" fill="#1F2024"/>
</mask>
<rect  x="-0.421" y="0.617" width="32" height="32" fill="#8F9098"/>
</svg>
