<svg width="34" height="32" viewBox="0 0 34 32" fill="none" xmlns="http://www.w3.org/2000/svg" xmlns:xlink="http://www.w3.org/1999/xlink">
<mask id="mask_0_i_251_5846;38_1843;38_1834" style="mask-type:alpha" maskUnits="userSpaceOnUse" x="0.178711" y="-0.000122" width="16.000017" height="16.000092">
<path d="M14.967,0.502C15.636,-0.167 16.721,-0.167 17.391,0.502L22.145,5.256C22.814,5.925 22.814,7.01 22.145,7.68L17.391,12.434C16.721,13.103 15.636,13.103 14.967,12.434L10.213,7.68C9.543,7.01 9.543,5.925 10.213,5.256L14.967,0.502Z" fill="#1F2024"/>
<path d="M31.677,14.788C32.346,15.457 32.346,16.543 31.677,17.212L26.923,21.966C26.253,22.635 25.168,22.635 24.499,21.966L19.745,17.212C19.076,16.543 19.076,15.457 19.745,14.788L24.499,10.034C25.168,9.365 26.253,9.365 26.923,10.034L31.677,14.788Z" fill="#1F2024"/>
<path d="M14.967,19.566C15.636,18.897 16.721,18.897 17.391,19.566L22.145,24.32C22.814,24.989 22.814,26.075 22.145,26.744L17.391,31.498C16.721,32.167 15.636,32.167 14.967,31.498L10.213,26.744C9.543,26.075 9.543,24.989 10.213,24.32L14.967,19.566Z" fill="#1F2024"/>
<path d="M12.613,14.788C13.282,15.457 13.282,16.543 12.613,17.212L7.859,21.966C7.189,22.635 6.104,22.635 5.435,21.966L0.681,17.212C0.011,16.543 0.011,15.457 0.681,14.788L5.435,10.034C6.104,9.365 7.189,9.365 7.859,10.034L12.613,14.788Z" fill="#1F2024"/>
</mask>
<rect  x="0.179" y="0" width="32" height="32" fill="#8F9098"/>
</svg>
