<svg width="34" height="32" viewBox="0 0 34 32" fill="none" xmlns="http://www.w3.org/2000/svg" xmlns:xlink="http://www.w3.org/1999/xlink">
<mask id="mask_0_i_258_5486;38_1834" style="mask-type:alpha" maskUnits="userSpaceOnUse" x="0.050781" y="-1.000122" width="16.000017" height="16.000092">
<path d="M14.839,-0.498C15.508,-1.167 16.593,-1.167 17.263,-0.498L22.017,4.256C22.686,4.925 22.686,6.01 22.017,6.68L17.263,11.434C16.593,12.103 15.508,12.103 14.839,11.434L10.085,6.68C9.416,6.01 9.416,4.925 10.085,4.256L14.839,-0.498Z" fill="#1F2024"/>
<path d="M31.549,13.788C32.218,14.457 32.218,15.543 31.549,16.212L26.795,20.966C26.125,21.635 25.04,21.635 24.371,20.966L19.617,16.212C18.948,15.543 18.948,14.457 19.617,13.788L24.371,9.034C25.04,8.365 26.125,8.365 26.795,9.034L31.549,13.788Z" fill="#1F2024"/>
<path d="M14.839,18.566C15.508,17.897 16.593,17.897 17.263,18.566L22.017,23.32C22.686,23.989 22.686,25.075 22.017,25.744L17.263,30.498C16.593,31.167 15.508,31.167 14.839,30.498L10.085,25.744C9.416,25.075 9.416,23.989 10.085,23.32L14.839,18.566Z" fill="#1F2024"/>
<path d="M12.485,13.788C13.154,14.457 13.154,15.543 12.485,16.212L7.731,20.966C7.061,21.635 5.976,21.635 5.307,20.966L0.553,16.212C-0.117,15.543 -0.117,14.457 0.553,13.788L5.307,9.034C5.976,8.365 7.061,8.365 7.731,9.034L12.485,13.788Z" fill="#1F2024"/>
</mask>
<rect  x="0.051" y="-1" width="32" height="32" fill="#1F2024"/>
</svg>
