<svg width="32" height="32" viewBox="0 0 32 32" fill="none" xmlns="http://www.w3.org/2000/svg" xmlns:xlink="http://www.w3.org/1999/xlink">
<mask id="mask_0_i_252_6364;38_1843;38_1834" style="mask-type:alpha" maskUnits="userSpaceOnUse" x="-0.445801" y="-0.231445" width="16.000017" height="16.000092">
<path d="M14.342,0.271C15.012,-0.399 16.097,-0.399 16.766,0.271L21.52,5.025C22.189,5.694 22.189,6.779 21.52,7.448L16.766,12.202C16.097,12.872 15.012,12.872 14.342,12.202L9.588,7.448C8.919,6.779 8.919,5.694 9.588,5.025L14.342,0.271Z" fill="#1F2024"/>
<path d="M31.052,14.557C31.722,15.226 31.722,16.311 31.052,16.981L26.298,21.735C25.629,22.404 24.544,22.404 23.874,21.735L19.12,16.981C18.451,16.311 18.451,15.226 19.12,14.557L23.874,9.803C24.544,9.133 25.629,9.133 26.298,9.803L31.052,14.557Z" fill="#1F2024"/>
<path d="M14.342,19.335C15.012,18.666 16.097,18.666 16.766,19.335L21.52,24.089C22.189,24.758 22.189,25.843 21.52,26.513L16.766,31.267C16.097,31.936 15.012,31.936 14.342,31.267L9.588,26.513C8.919,25.843 8.919,24.758 9.588,24.089L14.342,19.335Z" fill="#1F2024"/>
<path d="M11.988,14.557C12.657,15.226 12.657,16.311 11.988,16.981L7.234,21.735C6.565,22.404 5.48,22.404 4.81,21.735L0.056,16.981C-0.613,16.311 -0.613,15.226 0.056,14.557L4.81,9.803C5.48,9.133 6.565,9.133 7.234,9.803L11.988,14.557Z" fill="#1F2024"/>
</mask>
<rect  x="-0.446" y="-0.231" width="32" height="32" fill="#8F9098"/>
</svg>
