<svg width="32" height="32" viewBox="0 0 32 32" fill="none" xmlns="http://www.w3.org/2000/svg" xmlns:xlink="http://www.w3.org/1999/xlink">
<mask id="mask_0_i_256_4705;38_1834" style="mask-type:alpha" maskUnits="userSpaceOnUse" x="0" y="-1.000122" width="16.000017" height="16.000092">
<path d="M14.788,-0.498C15.457,-1.167 16.543,-1.167 17.212,-0.498L21.966,4.256C22.635,4.925 22.635,6.01 21.966,6.68L17.212,11.434C16.543,12.103 15.457,12.103 14.788,11.434L10.034,6.68C9.365,6.01 9.365,4.925 10.034,4.256L14.788,-0.498Z" fill="#1F2024"/>
<path d="M31.498,13.788C32.167,14.457 32.167,15.543 31.498,16.212L26.744,20.966C26.075,21.635 24.99,21.635 24.32,20.966L19.566,16.212C18.897,15.543 18.897,14.457 19.566,13.788L24.32,9.034C24.99,8.365 26.075,8.365 26.744,9.034L31.498,13.788Z" fill="#1F2024"/>
<path d="M14.788,18.566C15.457,17.897 16.543,17.897 17.212,18.566L21.966,23.32C22.635,23.989 22.635,25.075 21.966,25.744L17.212,30.498C16.543,31.167 15.457,31.167 14.788,30.498L10.034,25.744C9.365,25.075 9.365,23.989 10.034,23.32L14.788,18.566Z" fill="#1F2024"/>
<path d="M12.434,13.788C13.103,14.457 13.103,15.543 12.434,16.212L7.68,20.966C7.011,21.635 5.925,21.635 5.256,20.966L0.502,16.212C-0.167,15.543 -0.167,14.457 0.502,13.788L5.256,9.034C5.925,8.365 7.011,8.365 7.68,9.034L12.434,13.788Z" fill="#1F2024"/>
</mask>
<rect  x="0" y="-1" width="32" height="32" fill="#1F2024"/>
</svg>
