<svg width="34" height="32" viewBox="0 0 34 32" fill="none" xmlns="http://www.w3.org/2000/svg" xmlns:xlink="http://www.w3.org/1999/xlink">
<mask id="mask_0_i_259_6048;38_1843;38_1834" style="mask-type:alpha" maskUnits="userSpaceOnUse" x="0.553711" y="-0.368164" width="16.000017" height="16.000092">
<path d="M15.342,0.134C16.011,-0.535 17.096,-0.535 17.766,0.134L22.52,4.888C23.189,5.557 23.189,6.642 22.52,7.312L17.766,12.066C17.096,12.735 16.011,12.735 15.342,12.066L10.588,7.312C9.918,6.642 9.918,5.557 10.588,4.888L15.342,0.134Z" fill="#1F2024"/>
<path d="M32.052,14.42C32.721,15.089 32.721,16.174 32.052,16.844L27.298,21.598C26.628,22.267 25.543,22.267 24.874,21.598L20.12,16.844C19.451,16.174 19.451,15.089 20.12,14.42L24.874,9.666C25.543,8.997 26.628,8.997 27.298,9.666L32.052,14.42Z" fill="#1F2024"/>
<path d="M15.342,19.198C16.011,18.529 17.096,18.529 17.766,19.198L22.52,23.952C23.189,24.621 23.189,25.707 22.52,26.376L17.766,31.13C17.096,31.799 16.011,31.799 15.342,31.13L10.588,26.376C9.918,25.707 9.918,24.621 10.588,23.952L15.342,19.198Z" fill="#1F2024"/>
<path d="M12.988,14.42C13.657,15.089 13.657,16.174 12.988,16.844L8.234,21.598C7.564,22.267 6.479,22.267 5.81,21.598L1.056,16.844C0.386,16.174 0.386,15.089 1.056,14.42L5.81,9.666C6.479,8.997 7.564,8.997 8.234,9.666L12.988,14.42Z" fill="#1F2024"/>
</mask>
<rect  x="0.554" y="-0.368" width="32" height="32" fill="#8F9098"/>
</svg>
