<svg width="34" height="32" viewBox="0 0 34 32" fill="none" xmlns="http://www.w3.org/2000/svg" xmlns:xlink="http://www.w3.org/1999/xlink">
<mask id="mask_0_i_259_6172;38_1843;38_1834" style="mask-type:alpha" maskUnits="userSpaceOnUse" x="0.852539" y="-0.736084" width="16.000017" height="16.000092">
<path d="M15.641,-0.234C16.31,-0.903 17.395,-0.903 18.064,-0.234L22.819,4.52C23.488,5.189 23.488,6.274 22.819,6.944L18.064,11.698C17.395,12.367 16.31,12.367 15.641,11.698L10.887,6.944C10.217,6.274 10.217,5.189 10.887,4.52L15.641,-0.234Z" fill="#1F2024"/>
<path d="M32.351,14.052C33.02,14.721 33.02,15.807 32.351,16.476L27.597,21.23C26.927,21.899 25.842,21.899 25.173,21.23L20.419,16.476C19.749,15.807 19.749,14.721 20.419,14.052L25.173,9.298C25.842,8.629 26.927,8.629 27.597,9.298L32.351,14.052Z" fill="#1F2024"/>
<path d="M15.641,18.83C16.31,18.161 17.395,18.161 18.064,18.83L22.819,23.584C23.488,24.254 23.488,25.339 22.819,26.008L18.064,30.762C17.395,31.432 16.31,31.432 15.641,30.762L10.887,26.008C10.217,25.339 10.217,24.254 10.887,23.584L15.641,18.83Z" fill="#1F2024"/>
<path d="M13.286,14.052C13.956,14.721 13.956,15.807 13.286,16.476L8.532,21.23C7.863,21.899 6.778,21.899 6.109,21.23L1.355,16.476C0.685,15.807 0.685,14.721 1.355,14.052L6.109,9.298C6.778,8.629 7.863,8.629 8.532,9.298L13.286,14.052Z" fill="#1F2024"/>
</mask>
<rect  x="0.853" y="-0.736" width="32" height="32" fill="#8F9098"/>
</svg>
