<svg width="32" height="32" viewBox="0 0 32 32" fill="none" xmlns="http://www.w3.org/2000/svg" xmlns:xlink="http://www.w3.org/1999/xlink">
<mask id="mask_0_i_258_5150;38_1843;38_1834" style="mask-type:alpha" maskUnits="userSpaceOnUse" x="-0.357422" y="-0.397949" width="16.000017" height="16.000092">
<path d="M14.431,0.104C15.1,-0.565 16.185,-0.565 16.854,0.104L21.609,4.858C22.278,5.527 22.278,6.613 21.609,7.282L16.854,12.036C16.185,12.705 15.1,12.705 14.431,12.036L9.677,7.282C9.007,6.613 9.007,5.527 9.677,4.858L14.431,0.104Z" fill="#1F2024"/>
<path d="M31.141,14.39C31.81,15.06 31.81,16.145 31.141,16.814L26.387,21.568C25.717,22.237 24.632,22.237 23.963,21.568L19.209,16.814C18.539,16.145 18.539,15.06 19.209,14.39L23.963,9.636C24.632,8.967 25.717,8.967 26.387,9.636L31.141,14.39Z" fill="#1F2024"/>
<path d="M14.431,19.168C15.1,18.499 16.185,18.499 16.854,19.168L21.609,23.922C22.278,24.592 22.278,25.677 21.609,26.346L16.854,31.1C16.185,31.77 15.1,31.77 14.431,31.1L9.677,26.346C9.007,25.677 9.007,24.592 9.677,23.922L14.431,19.168Z" fill="#1F2024"/>
<path d="M12.076,14.39C12.746,15.06 12.746,16.145 12.076,16.814L7.322,21.568C6.653,22.237 5.568,22.237 4.899,21.568L0.145,16.814C-0.525,16.145 -0.525,15.06 0.145,14.39L4.899,9.636C5.568,8.967 6.653,8.967 7.322,9.636L12.076,14.39Z" fill="#1F2024"/>
</mask>
<rect  x="-0.357" y="-0.398" width="32" height="32" fill="#8F9098"/>
</svg>
