<svg width="32" height="32" viewBox="0 0 32 32" fill="none" xmlns="http://www.w3.org/2000/svg" xmlns:xlink="http://www.w3.org/1999/xlink">
<mask id="mask_0_i_251_5676;38_1843;38_1834" style="mask-type:alpha" maskUnits="userSpaceOnUse" x="-0.663086" y="-0.787109" width="16.000017" height="16.000092">
<path d="M14.125,-0.285C14.794,-0.954 15.879,-0.954 16.549,-0.285L21.303,4.469C21.972,5.138 21.972,6.223 21.303,6.893L16.549,11.647C15.879,12.316 14.794,12.316 14.125,11.647L9.371,6.893C8.702,6.223 8.702,5.138 9.371,4.469L14.125,-0.285Z" fill="#1F2024"/>
<path d="M30.835,14.001C31.504,14.67 31.504,15.756 30.835,16.425L26.081,21.179C25.412,21.848 24.327,21.848 23.657,21.179L18.903,16.425C18.234,15.756 18.234,14.67 18.903,14.001L23.657,9.247C24.327,8.578 25.412,8.578 26.081,9.247L30.835,14.001Z" fill="#1F2024"/>
<path d="M14.125,18.779C14.794,18.11 15.879,18.11 16.549,18.779L21.303,23.533C21.972,24.202 21.972,25.288 21.303,25.957L16.549,30.711C15.879,31.38 14.794,31.38 14.125,30.711L9.371,25.957C8.702,25.288 8.702,24.202 9.371,23.533L14.125,18.779Z" fill="#1F2024"/>
<path d="M11.771,14.001C12.44,14.67 12.44,15.756 11.771,16.425L7.017,21.179C6.347,21.848 5.262,21.848 4.593,21.179L-0.161,16.425C-0.83,15.756 -0.83,14.67 -0.161,14.001L4.593,9.247C5.262,8.578 6.347,8.578 7.017,9.247L11.771,14.001Z" fill="#1F2024"/>
</mask>
<rect  x="-0.663" y="-0.787" width="32" height="32" fill="#8F9098"/>
</svg>
