<svg width="34" height="34" viewBox="0 0 34 34" fill="none" xmlns="http://www.w3.org/2000/svg" xmlns:xlink="http://www.w3.org/1999/xlink">
<mask id="mask_0_i_248_4449;38_1843;38_1834" style="mask-type:alpha" maskUnits="userSpaceOnUse" x="0.842773" y="0.128052" width="16.000017" height="16.000092">
<path d="M15.631,0.63C16.3,-0.039 17.385,-0.039 18.055,0.63L22.809,5.384C23.478,6.053 23.478,7.139 22.809,7.808L18.055,12.562C17.385,13.231 16.3,13.231 15.631,12.562L10.877,7.808C10.208,7.139 10.208,6.053 10.877,5.384L15.631,0.63Z" fill="#1F2024"/>
<path d="M32.341,14.916C33.01,15.586 33.01,16.671 32.341,17.34L27.587,22.094C26.917,22.763 25.832,22.763 25.163,22.094L20.409,17.34C19.74,16.671 19.74,15.586 20.409,14.916L25.163,10.162C25.832,9.493 26.917,9.493 27.587,10.162L32.341,14.916Z" fill="#1F2024"/>
<path d="M15.631,19.694C16.3,19.025 17.385,19.025 18.055,19.694L22.809,24.448C23.478,25.118 23.478,26.203 22.809,26.872L18.055,31.626C17.385,32.296 16.3,32.296 15.631,31.626L10.877,26.872C10.208,26.203 10.208,25.118 10.877,24.448L15.631,19.694Z" fill="#1F2024"/>
<path d="M13.277,14.916C13.946,15.586 13.946,16.671 13.277,17.34L8.523,22.094C7.853,22.763 6.768,22.763 6.099,22.094L1.345,17.34C0.675,16.671 0.675,15.586 1.345,14.916L6.099,10.162C6.768,9.493 7.853,9.493 8.523,10.162L13.277,14.916Z" fill="#1F2024"/>
</mask>
<rect  x="0.843" y="0.128" width="32" height="32" fill="#8F9098"/>
</svg>
