<svg width="34" height="32" viewBox="0 0 34 32" fill="none" xmlns="http://www.w3.org/2000/svg" xmlns:xlink="http://www.w3.org/1999/xlink">
<mask id="mask_0_i_258_5568;38_1834" style="mask-type:alpha" maskUnits="userSpaceOnUse" x="0.84375" y="-1.000122" width="16.000017" height="16.000092">
<path d="M15.632,-0.498C16.301,-1.167 17.386,-1.167 18.056,-0.498L22.81,4.256C23.479,4.925 23.479,6.01 22.81,6.68L18.056,11.434C17.386,12.103 16.301,12.103 15.632,11.434L10.878,6.68C10.209,6.01 10.209,4.925 10.878,4.256L15.632,-0.498Z" fill="#1F2024"/>
<path d="M32.342,13.788C33.011,14.457 33.011,15.543 32.342,16.212L27.588,20.966C26.918,21.635 25.833,21.635 25.164,20.966L20.41,16.212C19.741,15.543 19.741,14.457 20.41,13.788L25.164,9.034C25.833,8.365 26.918,8.365 27.588,9.034L32.342,13.788Z" fill="#1F2024"/>
<path d="M15.632,18.566C16.301,17.897 17.386,17.897 18.056,18.566L22.81,23.32C23.479,23.989 23.479,25.075 22.81,25.744L18.056,30.498C17.386,31.167 16.301,31.167 15.632,30.498L10.878,25.744C10.209,25.075 10.209,23.989 10.878,23.32L15.632,18.566Z" fill="#1F2024"/>
<path d="M13.278,13.788C13.947,14.457 13.947,15.543 13.278,16.212L8.524,20.966C7.854,21.635 6.769,21.635 6.1,20.966L1.346,16.212C0.676,15.543 0.676,14.457 1.346,13.788L6.1,9.034C6.769,8.365 7.854,8.365 8.524,9.034L13.278,13.788Z" fill="#1F2024"/>
</mask>
<rect  x="0.844" y="-1" width="32" height="32" fill="#1F2024"/>
</svg>
