<svg width="34" height="34" viewBox="0 0 34 34" fill="none" xmlns="http://www.w3.org/2000/svg" xmlns:xlink="http://www.w3.org/1999/xlink">
<mask id="mask_0_i_258_5611;38_1843;38_1834" style="mask-type:alpha" maskUnits="userSpaceOnUse" x="0.050781" y="0.964844" width="16.000017" height="16.000092">
<path d="M14.839,1.467C15.508,0.798 16.593,0.798 17.263,1.467L22.017,6.221C22.686,6.89 22.686,7.975 22.017,8.645L17.263,13.399C16.593,14.068 15.508,14.068 14.839,13.399L10.085,8.645C9.416,7.975 9.416,6.89 10.085,6.221L14.839,1.467Z" fill="#1F2024"/>
<path d="M31.549,15.753C32.218,16.422 32.218,17.508 31.549,18.177L26.795,22.931C26.125,23.6 25.04,23.6 24.371,22.931L19.617,18.177C18.948,17.508 18.948,16.422 19.617,15.753L24.371,10.999C25.04,10.33 26.125,10.33 26.795,10.999L31.549,15.753Z" fill="#1F2024"/>
<path d="M14.839,20.531C15.508,19.862 16.593,19.862 17.263,20.531L22.017,25.285C22.686,25.954 22.686,27.04 22.017,27.709L17.263,32.463C16.593,33.132 15.508,33.132 14.839,32.463L10.085,27.709C9.416,27.04 9.416,25.954 10.085,25.285L14.839,20.531Z" fill="#1F2024"/>
<path d="M12.485,15.753C13.154,16.422 13.154,17.508 12.485,18.177L7.731,22.931C7.061,23.6 5.976,23.6 5.307,22.931L0.553,18.177C-0.117,17.508 -0.117,16.422 0.553,15.753L5.307,10.999C5.976,10.33 7.061,10.33 7.731,10.999L12.485,15.753Z" fill="#1F2024"/>
</mask>
<rect  x="0.051" y="0.965" width="32" height="32" fill="#8F9098"/>
</svg>
