<svg width="34" height="34" viewBox="0 0 34 34" fill="none" xmlns="http://www.w3.org/2000/svg" xmlns:xlink="http://www.w3.org/1999/xlink">
<mask id="mask_0_i_258_5767;38_1843;38_1834" style="mask-type:alpha" maskUnits="userSpaceOnUse" x="0.894531" y="0.004395" width="16.000017" height="16.000092">
<path d="M15.683,0.506C16.352,-0.163 17.437,-0.163 18.106,0.506L22.861,5.26C23.53,5.93 23.53,7.015 22.861,7.684L18.106,12.438C17.437,13.108 16.352,13.108 15.683,12.438L10.929,7.684C10.259,7.015 10.259,5.93 10.929,5.26L15.683,0.506Z" fill="#1F2024"/>
<path d="M32.393,14.793C33.062,15.462 33.062,16.547 32.393,17.216L27.639,21.97C26.969,22.64 25.884,22.64 25.215,21.97L20.461,17.216C19.791,16.547 19.791,15.462 20.461,14.793L25.215,10.039C25.884,9.369 26.969,9.369 27.639,10.039L32.393,14.793Z" fill="#1F2024"/>
<path d="M15.683,19.571C16.352,18.901 17.437,18.901 18.106,19.571L22.861,24.325C23.53,24.994 23.53,26.079 22.861,26.749L18.106,31.503C17.437,32.172 16.352,32.172 15.683,31.503L10.929,26.749C10.259,26.079 10.259,24.994 10.929,24.325L15.683,19.571Z" fill="#1F2024"/>
<path d="M13.328,14.793C13.998,15.462 13.998,16.547 13.328,17.216L8.574,21.97C7.905,22.64 6.82,22.64 6.151,21.97L1.397,17.216C0.727,16.547 0.727,15.462 1.397,14.793L6.151,10.039C6.82,9.369 7.905,9.369 8.574,10.039L13.328,14.793Z" fill="#1F2024"/>
</mask>
<rect  x="0.895" y="0.004" width="32" height="32" fill="#8F9098"/>
</svg>
