<svg width="32" height="32" viewBox="0 0 32 32" fill="none" xmlns="http://www.w3.org/2000/svg" xmlns:xlink="http://www.w3.org/1999/xlink">
<mask id="mask_0_i_261_6805;38_1834" style="mask-type:alpha" maskUnits="userSpaceOnUse" x="-0.583008" y="-1.000122" width="16.000017" height="16.000092">
<path d="M14.205,-0.498C14.874,-1.167 15.96,-1.167 16.629,-0.498L21.383,4.256C22.052,4.925 22.052,6.01 21.383,6.68L16.629,11.434C15.96,12.103 14.874,12.103 14.205,11.434L9.451,6.68C8.782,6.01 8.782,4.925 9.451,4.256L14.205,-0.498Z" fill="#1F2024"/>
<path d="M30.915,13.788C31.584,14.457 31.584,15.543 30.915,16.212L26.161,20.966C25.492,21.635 24.407,21.635 23.737,20.966L18.983,16.212C18.314,15.543 18.314,14.457 18.983,13.788L23.737,9.034C24.407,8.365 25.492,8.365 26.161,9.034L30.915,13.788Z" fill="#1F2024"/>
<path d="M14.205,18.566C14.874,17.897 15.96,17.897 16.629,18.566L21.383,23.32C22.052,23.989 22.052,25.075 21.383,25.744L16.629,30.498C15.96,31.167 14.874,31.167 14.205,30.498L9.451,25.744C8.782,25.075 8.782,23.989 9.451,23.32L14.205,18.566Z" fill="#1F2024"/>
<path d="M11.851,13.788C12.52,14.457 12.52,15.543 11.851,16.212L7.097,20.966C6.427,21.635 5.342,21.635 4.673,20.966L-0.081,16.212C-0.75,15.543 -0.75,14.457 -0.081,13.788L4.673,9.034C5.342,8.365 6.427,8.365 7.097,9.034L11.851,13.788Z" fill="#1F2024"/>
</mask>
<rect  x="-0.583" y="-1" width="32" height="32" fill="#1F2024"/>
</svg>
