<svg width="32" height="32" viewBox="0 0 32 32" fill="none" xmlns="http://www.w3.org/2000/svg" xmlns:xlink="http://www.w3.org/1999/xlink">
<mask id="mask_0_i_245_3199;38_1843;38_1834" style="mask-type:alpha" maskUnits="userSpaceOnUse" x="-0.582031" y="0" width="16.000017" height="16.000092">
<path d="M14.206,0.502C14.875,-0.167 15.961,-0.167 16.63,0.502L21.384,5.256C22.053,5.925 22.053,7.01 21.384,7.68L16.63,12.434C15.961,13.103 14.875,13.103 14.206,12.434L9.452,7.68C8.783,7.01 8.783,5.925 9.452,5.256L14.206,0.502Z" fill="#1F2024"/>
<path d="M30.916,14.788C31.585,15.458 31.585,16.543 30.916,17.212L26.162,21.966C25.493,22.635 24.408,22.635 23.738,21.966L18.984,17.212C18.315,16.543 18.315,15.458 18.984,14.788L23.738,10.034C24.408,9.365 25.493,9.365 26.162,10.034L30.916,14.788Z" fill="#1F2024"/>
<path d="M14.206,19.566C14.875,18.897 15.961,18.897 16.63,19.566L21.384,24.32C22.053,24.99 22.053,26.075 21.384,26.744L16.63,31.498C15.961,32.168 14.875,32.168 14.206,31.498L9.452,26.744C8.783,26.075 8.783,24.99 9.452,24.32L14.206,19.566Z" fill="#1F2024"/>
<path d="M11.852,14.788C12.521,15.458 12.521,16.543 11.852,17.212L7.098,21.966C6.428,22.635 5.343,22.635 4.674,21.966L-0.08,17.212C-0.749,16.543 -0.749,15.458 -0.08,14.788L4.674,10.034C5.343,9.365 6.428,9.365 7.098,10.034L11.852,14.788Z" fill="#1F2024"/>
</mask>
<rect  x="-0.582" y="0" width="32" height="32" fill="#8F9098"/>
</svg>
