<svg width="32" height="34" viewBox="0 0 32 34" fill="none" xmlns="http://www.w3.org/2000/svg" xmlns:xlink="http://www.w3.org/1999/xlink">
<mask id="mask_0_i_283_6993;38_1843;38_1834" style="mask-type:alpha" maskUnits="userSpaceOnUse" x="-0.157227" y="0.618408" width="16.000017" height="16.000092">
<path d="M14.631,1.12C15.3,0.451 16.385,0.451 17.055,1.12L21.809,5.874C22.478,6.544 22.478,7.629 21.809,8.298L17.055,13.052C16.385,13.722 15.3,13.722 14.631,13.052L9.877,8.298C9.208,7.629 9.208,6.544 9.877,5.874L14.631,1.12Z" fill="#1F2024"/>
<path d="M31.341,15.407C32.01,16.076 32.01,17.161 31.341,17.83L26.587,22.584C25.917,23.254 24.832,23.254 24.163,22.584L19.409,17.83C18.74,17.161 18.74,16.076 19.409,15.407L24.163,10.653C24.832,9.983 25.917,9.983 26.587,10.653L31.341,15.407Z" fill="#1F2024"/>
<path d="M14.631,20.185C15.3,19.515 16.385,19.515 17.055,20.185L21.809,24.939C22.478,25.608 22.478,26.693 21.809,27.363L17.055,32.117C16.385,32.786 15.3,32.786 14.631,32.117L9.877,27.363C9.208,26.693 9.208,25.608 9.877,24.939L14.631,20.185Z" fill="#1F2024"/>
<path d="M12.277,15.407C12.946,16.076 12.946,17.161 12.277,17.83L7.523,22.584C6.853,23.254 5.768,23.254 5.099,22.584L0.345,17.83C-0.325,17.161 -0.325,16.076 0.345,15.407L5.099,10.653C5.768,9.983 6.853,9.983 7.523,10.653L12.277,15.407Z" fill="#1F2024"/>
</mask>
<rect  x="-0.157" y="0.619" width="32" height="32" fill="#8F9098"/>
</svg>
