<svg width="34" height="32" viewBox="0 0 34 32" fill="none" xmlns="http://www.w3.org/2000/svg" xmlns:xlink="http://www.w3.org/1999/xlink">
<mask id="mask_0_i_259_6360;38_1843;38_1834" style="mask-type:alpha" maskUnits="userSpaceOnUse" x="0.526367" y="-0.736084" width="16.000017" height="16.000092">
<path d="M15.315,-0.234C15.984,-0.903 17.069,-0.903 17.738,-0.234L22.492,4.52C23.162,5.189 23.162,6.274 22.492,6.944L17.738,11.698C17.069,12.367 15.984,12.367 15.315,11.698L10.56,6.944C9.891,6.274 9.891,5.189 10.56,4.52L15.315,-0.234Z" fill="#1F2024"/>
<path d="M32.024,14.052C32.694,14.721 32.694,15.807 32.024,16.476L27.27,21.23C26.601,21.899 25.516,21.899 24.847,21.23L20.093,16.476C19.423,15.807 19.423,14.721 20.093,14.052L24.847,9.298C25.516,8.629 26.601,8.629 27.27,9.298L32.024,14.052Z" fill="#1F2024"/>
<path d="M15.315,18.83C15.984,18.161 17.069,18.161 17.738,18.83L22.492,23.584C23.162,24.254 23.162,25.339 22.492,26.008L17.738,30.762C17.069,31.432 15.984,31.432 15.315,30.762L10.56,26.008C9.891,25.339 9.891,24.254 10.56,23.584L15.315,18.83Z" fill="#1F2024"/>
<path d="M12.96,14.052C13.63,14.721 13.63,15.807 12.96,16.476L8.206,21.23C7.537,21.899 6.452,21.899 5.782,21.23L1.028,16.476C0.359,15.807 0.359,14.721 1.028,14.052L5.782,9.298C6.452,8.629 7.537,8.629 8.206,9.298L12.96,14.052Z" fill="#1F2024"/>
</mask>
<rect  x="0.526" y="-0.736" width="32" height="32" fill="#8F9098"/>
</svg>
