<svg width="34" height="34" viewBox="0 0 34 34" fill="none" xmlns="http://www.w3.org/2000/svg" xmlns:xlink="http://www.w3.org/1999/xlink">
<mask id="mask_0_i_248_4314;38_1843;38_1834" style="mask-type:alpha" maskUnits="userSpaceOnUse" x="0.842773" y="0.90686" width="16.000017" height="16.000092">
<path d="M15.631,1.409C16.3,0.74 17.385,0.74 18.055,1.409L22.809,6.163C23.478,6.832 23.478,7.917 22.809,8.587L18.055,13.341C17.385,14.01 16.3,14.01 15.631,13.341L10.877,8.587C10.208,7.917 10.208,6.832 10.877,6.163L15.631,1.409Z" fill="#1F2024"/>
<path d="M32.341,15.695C33.01,16.364 33.01,17.45 32.341,18.119L27.587,22.873C26.917,23.542 25.832,23.542 25.163,22.873L20.409,18.119C19.74,17.45 19.74,16.364 20.409,15.695L25.163,10.941C25.832,10.272 26.917,10.272 27.587,10.941L32.341,15.695Z" fill="#1F2024"/>
<path d="M15.631,20.473C16.3,19.804 17.385,19.804 18.055,20.473L22.809,25.227C23.478,25.896 23.478,26.982 22.809,27.651L18.055,32.405C17.385,33.074 16.3,33.074 15.631,32.405L10.877,27.651C10.208,26.982 10.208,25.896 10.877,25.227L15.631,20.473Z" fill="#1F2024"/>
<path d="M13.277,15.695C13.946,16.364 13.946,17.45 13.277,18.119L8.523,22.873C7.853,23.542 6.768,23.542 6.099,22.873L1.345,18.119C0.675,17.45 0.675,16.364 1.345,15.695L6.099,10.941C6.768,10.272 7.853,10.272 8.523,10.941L13.277,15.695Z" fill="#1F2024"/>
</mask>
<rect  x="0.843" y="0.907" width="32" height="32" fill="#8F9098"/>
</svg>
