<svg width="34" height="32" viewBox="0 0 34 32" fill="none" xmlns="http://www.w3.org/2000/svg" xmlns:xlink="http://www.w3.org/1999/xlink">
<mask id="mask_0_i_257_4753;38_1843;38_1834" style="mask-type:alpha" maskUnits="userSpaceOnUse" x="0.070313" y="-0.406494" width="16.000017" height="16.000092">
<path d="M14.858,0.095C15.528,-0.574 16.613,-0.574 17.282,0.095L22.036,4.85C22.706,5.519 22.706,6.604 22.036,7.273L17.282,12.027C16.613,12.697 15.528,12.697 14.858,12.027L10.104,7.273C9.435,6.604 9.435,5.519 10.104,4.85L14.858,0.095Z" fill="#1F2024"/>
<path d="M31.568,14.382C32.238,15.051 32.238,16.136 31.568,16.805L26.814,21.56C26.145,22.229 25.06,22.229 24.391,21.56L19.636,16.805C18.967,16.136 18.967,15.051 19.636,14.382L24.391,9.628C25.06,8.958 26.145,8.958 26.814,9.628L31.568,14.382Z" fill="#1F2024"/>
<path d="M14.858,19.16C15.528,18.491 16.613,18.491 17.282,19.16L22.036,23.914C22.706,24.583 22.706,25.668 22.036,26.338L17.282,31.092C16.613,31.761 15.528,31.761 14.858,31.092L10.104,26.338C9.435,25.668 9.435,24.583 10.104,23.914L14.858,19.16Z" fill="#1F2024"/>
<path d="M12.504,14.382C13.173,15.051 13.173,16.136 12.504,16.805L7.75,21.56C7.081,22.229 5.996,22.229 5.326,21.56L0.572,16.805C-0.097,16.136 -0.097,15.051 0.572,14.382L5.326,9.628C5.996,8.958 7.081,8.958 7.75,9.628L12.504,14.382Z" fill="#1F2024"/>
</mask>
<rect  x="0.07" y="-0.406" width="32" height="32" fill="#8F9098"/>
</svg>
