<svg width="34" height="32" viewBox="0 0 34 32" fill="none" xmlns="http://www.w3.org/2000/svg" xmlns:xlink="http://www.w3.org/1999/xlink">
<mask id="mask_0_i_257_4645;38_1834" style="mask-type:alpha" maskUnits="userSpaceOnUse" x="0.367188" y="-1.000122" width="16.000017" height="16.000092">
<path d="M15.155,-0.498C15.825,-1.167 16.91,-1.167 17.579,-0.498L22.333,4.256C23.002,4.925 23.002,6.01 22.333,6.68L17.579,11.434C16.91,12.103 15.825,12.103 15.155,11.434L10.401,6.68C9.732,6.01 9.732,4.925 10.401,4.256L15.155,-0.498Z" fill="#1F2024"/>
<path d="M31.865,13.788C32.535,14.457 32.535,15.543 31.865,16.212L27.111,20.966C26.442,21.635 25.357,21.635 24.687,20.966L19.933,16.212C19.264,15.543 19.264,14.457 19.933,13.788L24.687,9.034C25.357,8.365 26.442,8.365 27.111,9.034L31.865,13.788Z" fill="#1F2024"/>
<path d="M15.155,18.566C15.825,17.897 16.91,17.897 17.579,18.566L22.333,23.32C23.002,23.989 23.002,25.075 22.333,25.744L17.579,30.498C16.91,31.167 15.825,31.167 15.155,30.498L10.401,25.744C9.732,25.075 9.732,23.989 10.401,23.32L15.155,18.566Z" fill="#1F2024"/>
<path d="M12.801,13.788C13.47,14.457 13.47,15.543 12.801,16.212L8.047,20.966C7.378,21.635 6.293,21.635 5.623,20.966L0.869,16.212C0.2,15.543 0.2,14.457 0.869,13.788L5.623,9.034C6.293,8.365 7.378,8.365 8.047,9.034L12.801,13.788Z" fill="#1F2024"/>
</mask>
<rect  x="0.367" y="-1" width="32" height="32" fill="#1F2024"/>
</svg>
