<svg width="32" height="32" viewBox="0 0 32 32" fill="none" xmlns="http://www.w3.org/2000/svg" xmlns:xlink="http://www.w3.org/1999/xlink">
<mask id="mask_0_i_252_6714;38_1843;38_1834" style="mask-type:alpha" maskUnits="userSpaceOnUse" x="-0.473633" y="-0.537231" width="16.000017" height="16.000092">
<path d="M14.315,-0.035C14.984,-0.705 16.069,-0.705 16.738,-0.035L21.492,4.719C22.162,5.388 22.162,6.473 21.492,7.143L16.738,11.897C16.069,12.566 14.984,12.566 14.315,11.897L9.56,7.143C8.891,6.473 8.891,5.388 9.56,4.719L14.315,-0.035Z" fill="#1F2024"/>
<path d="M31.024,14.251C31.694,14.92 31.694,16.005 31.024,16.675L26.27,21.429C25.601,22.098 24.516,22.098 23.847,21.429L19.093,16.675C18.423,16.005 18.423,14.92 19.093,14.251L23.847,9.497C24.516,8.828 25.601,8.828 26.27,9.497L31.024,14.251Z" fill="#1F2024"/>
<path d="M14.315,19.029C14.984,18.36 16.069,18.36 16.738,19.029L21.492,23.783C22.162,24.452 22.162,25.538 21.492,26.207L16.738,30.961C16.069,31.63 14.984,31.63 14.315,30.961L9.56,26.207C8.891,25.538 8.891,24.452 9.56,23.783L14.315,19.029Z" fill="#1F2024"/>
<path d="M11.96,14.251C12.63,14.92 12.63,16.005 11.96,16.675L7.206,21.429C6.537,22.098 5.452,22.098 4.782,21.429L0.028,16.675C-0.641,16.005 -0.641,14.92 0.028,14.251L4.782,9.497C5.452,8.828 6.537,8.828 7.206,9.497L11.96,14.251Z" fill="#1F2024"/>
</mask>
<rect  x="-0.474" y="-0.537" width="32" height="32" fill="#8F9098"/>
</svg>
