<svg width="34" height="32" viewBox="0 0 34 32" fill="none" xmlns="http://www.w3.org/2000/svg" xmlns:xlink="http://www.w3.org/1999/xlink">
<mask id="mask_0_i_258_5667;38_1834" style="mask-type:alpha" maskUnits="userSpaceOnUse" x="0.894531" y="-1.000122" width="16.000017" height="16.000092">
<path d="M15.683,-0.498C16.352,-1.167 17.437,-1.167 18.106,-0.498L22.861,4.256C23.53,4.925 23.53,6.01 22.861,6.68L18.106,11.434C17.437,12.103 16.352,12.103 15.683,11.434L10.929,6.68C10.259,6.01 10.259,4.925 10.929,4.256L15.683,-0.498Z" fill="#1F2024"/>
<path d="M32.393,13.788C33.062,14.457 33.062,15.543 32.393,16.212L27.639,20.966C26.969,21.635 25.884,21.635 25.215,20.966L20.461,16.212C19.791,15.543 19.791,14.457 20.461,13.788L25.215,9.034C25.884,8.365 26.969,8.365 27.639,9.034L32.393,13.788Z" fill="#1F2024"/>
<path d="M15.683,18.566C16.352,17.897 17.437,17.897 18.106,18.566L22.861,23.32C23.53,23.989 23.53,25.075 22.861,25.744L18.106,30.498C17.437,31.167 16.352,31.167 15.683,30.498L10.929,25.744C10.259,25.075 10.259,23.989 10.929,23.32L15.683,18.566Z" fill="#1F2024"/>
<path d="M13.328,13.788C13.998,14.457 13.998,15.543 13.328,16.212L8.574,20.966C7.905,21.635 6.82,21.635 6.151,20.966L1.397,16.212C0.727,15.543 0.727,14.457 1.397,13.788L6.151,9.034C6.82,8.365 7.905,8.365 8.574,9.034L13.328,13.788Z" fill="#1F2024"/>
</mask>
<rect  x="0.895" y="-1" width="32" height="32" fill="#1F2024"/>
</svg>
