<svg width="34" height="34" viewBox="0 0 34 34" fill="none" xmlns="http://www.w3.org/2000/svg" xmlns:xlink="http://www.w3.org/1999/xlink">
<mask id="mask_0_i_261_6755;38_1843;38_1834" style="mask-type:alpha" maskUnits="userSpaceOnUse" x="0.495117" y="0.122314" width="16.000017" height="16.000092">
<path d="M15.283,0.624C15.953,-0.045 17.038,-0.045 17.707,0.624L22.461,5.378C23.13,6.048 23.13,7.133 22.461,7.802L17.707,12.556C17.038,13.225 15.953,13.225 15.283,12.556L10.529,7.802C9.86,7.133 9.86,6.048 10.529,5.378L15.283,0.624Z" fill="#1F2024"/>
<path d="M31.993,14.911C32.663,15.58 32.663,16.665 31.993,17.334L27.239,22.088C26.57,22.758 25.485,22.758 24.815,22.088L20.061,17.334C19.392,16.665 19.392,15.58 20.061,14.911L24.815,10.156C25.485,9.487 26.57,9.487 27.239,10.156L31.993,14.911Z" fill="#1F2024"/>
<path d="M15.283,19.689C15.953,19.019 17.038,19.019 17.707,19.689L22.461,24.443C23.13,25.112 23.13,26.197 22.461,26.867L17.707,31.621C17.038,32.29 15.953,32.29 15.283,31.621L10.529,26.867C9.86,26.197 9.86,25.112 10.529,24.443L15.283,19.689Z" fill="#1F2024"/>
<path d="M12.929,14.911C13.598,15.58 13.598,16.665 12.929,17.334L8.175,22.088C7.506,22.758 6.42,22.758 5.751,22.088L0.997,17.334C0.328,16.665 0.328,15.58 0.997,14.911L5.751,10.156C6.42,9.487 7.506,9.487 8.175,10.156L12.929,14.911Z" fill="#1F2024"/>
</mask>
<rect  x="0.495" y="0.122" width="32" height="32" fill="#8F9098"/>
</svg>
