<svg width="42" height="32" viewBox="0 0 42 32" fill="none" xmlns="http://www.w3.org/2000/svg" xmlns:xlink="http://www.w3.org/1999/xlink">
<path d="M40.75,13.24L40.75,17.36C40.75,18.48 39.83,19.4 38.69,19.4L34.83,19.4C32.67,19.4 30.69,17.82 30.51,15.66C30.39,14.4 30.87,13.22 31.71,12.4C32.45,11.64 33.47,11.2 34.59,11.2L38.69,11.2C39.83,11.2 40.75,12.12 40.75,13.24Z" fill="#F1F5F9"/>
<path d="M27.51,15.92C27.33,13.82 28.09,11.76 29.61,10.26C30.89,8.96 32.67,8.2 34.59,8.2L35.73,8.2C36.29,8.2 36.75,7.74 36.67,7.18C36.13,3.3 32.77,0.3 28.75,0.3L8.75,0.3C4.33,0.3 0.75,3.88 0.75,8.3L0.75,22.3C0.75,26.72 4.33,30.3 8.75,30.3L28.75,30.3C32.79,30.3 36.13,27.3 36.67,23.42C36.75,22.86 36.29,22.4 35.73,22.4L34.83,22.4C31.03,22.4 27.83,19.56 27.51,15.92ZM22.75,11.8L10.75,11.8C9.93,11.8 9.25,11.14 9.25,10.3C9.25,9.46 9.93,8.8 10.75,8.8L22.75,8.8C23.57,8.8 24.25,9.48 24.25,10.3C24.25,11.12 23.57,11.8 22.75,11.8Z" fill="#F1F5F9"/>
</svg>
