<svg width="40" height="34" viewBox="0 0 40 34" fill="none" xmlns="http://www.w3.org/2000/svg" xmlns:xlink="http://www.w3.org/1999/xlink">
<path d="M1.25,18.72C0.15,18.72 -0.75,19.62 -0.75,20.72L-0.75,26.54C-0.75,32.5 0.77,34 6.81,34L25.69,34C31.63,34 33.19,32.56 33.25,26.86L33.25,20.72C33.25,19.62 32.35,18.72 31.25,18.72L1.25,18.72ZM9.17,29.12L5.75,29.12C4.93,29.12 4.25,28.44 4.25,27.62C4.25,26.8 4.93,26.12 5.75,26.12L9.19,26.12C10.01,26.12 10.69,26.8 10.69,27.62C10.69,28.44 10.01,29.12 9.17,29.12ZM20.35,29.12L13.47,29.12C12.65,29.12 11.97,28.44 11.97,27.62C11.97,26.8 12.65,26.12 13.47,26.12L20.35,26.12C21.17,26.12 21.85,26.8 21.85,27.62C21.85,28.44 21.19,29.12 20.35,29.12Z" fill="#F1F5F9"/>
<path d="M39.25,18.66L39.25,8.18C39.25,1.92 35.67,-0.8 30.27,-0.8L12.41,-0.8C10.89,-0.8 9.53,-0.58 8.33,-0.12C7.39,0.22 6.55,0.72 5.87,1.38C5.51,1.72 5.79,2.28 6.31,2.28L28.05,2.28C32.55,2.28 36.19,5.92 36.19,10.42L36.19,24.76C36.19,25.26 36.73,25.54 37.09,25.18C38.47,23.72 39.25,21.58 39.25,18.66Z" fill="#F1F5F9"/>
</svg>
