<svg width="40" height="40" viewBox="0 0 40 40" fill="none" xmlns="http://www.w3.org/2000/svg" xmlns:xlink="http://www.w3.org/1999/xlink">
<line x1="18.5" y1="10.88" x2="18.5" y2="17.54" stroke="#F1F5F9" stroke-width="1.5" stroke-miterlimit="10" stroke-linecap="round"/>
<path d="M5.46,24.08L4.176,23.305L4.173,23.309L5.46,24.08ZM2.92,28.32L1.633,27.549L1.631,27.553L2.92,28.32ZM5.32,34.82L4.845,36.243L4.846,36.243L5.32,34.82ZM34.78,34.82L35.253,36.243L35.254,36.243L34.78,34.82ZM37.18,28.32L38.467,27.55L38.466,27.549L37.18,28.32ZM34.64,24.08L35.926,23.309L35.924,23.305L34.64,24.08ZM33.38,15.32L34.88,15.32L34.88,15.316L33.38,15.32ZM20.04,0.5C11.851,0.5 5.22,7.132 5.22,15.32L8.22,15.32C8.22,8.788 13.508,3.5 20.04,3.5L20.04,0.5ZM5.22,15.32L5.22,19.52L8.22,19.52L8.22,15.32L5.22,15.32ZM5.22,19.52C5.22,20.024 5.111,20.734 4.906,21.476C4.701,22.22 4.432,22.88 4.176,23.305L6.744,24.855C7.188,24.12 7.548,23.18 7.798,22.274C8.049,21.366 8.22,20.376 8.22,19.52L5.22,19.52ZM4.173,23.309L1.633,27.549L4.207,29.091L6.747,24.851L4.173,23.309ZM1.631,27.553C0.641,29.214 0.441,31.071 1.048,32.712C1.654,34.355 3.013,35.632 4.845,36.243L5.794,33.397C4.746,33.048 4.125,32.385 3.862,31.673C3.598,30.959 3.638,30.046 4.209,29.087L1.631,27.553ZM4.846,36.243C14.714,39.526 25.386,39.526 35.253,36.243L34.306,33.397C25.054,36.474 15.046,36.474 5.793,33.397L4.846,36.243ZM35.254,36.243C38.869,35.038 40.416,30.808 38.467,27.55L35.893,29.09C36.863,30.712 36.09,32.802 34.305,33.397L35.254,36.243ZM38.466,27.549L35.926,23.309L33.353,24.851L35.893,29.091L38.466,27.549ZM35.924,23.305C35.669,22.882 35.399,22.218 35.194,21.47C34.988,20.723 34.88,20.013 34.88,19.52L31.88,19.52C31.88,20.367 32.051,21.357 32.301,22.265C32.55,23.172 32.911,24.118 33.355,24.855L35.924,23.305ZM34.88,19.52L34.88,15.32L31.88,15.32L31.88,19.52L34.88,19.52ZM34.88,15.316C34.857,7.171 28.189,0.5 20.04,0.5L20.04,3.5C26.53,3.5 31.862,8.829 31.88,15.324L34.88,15.316Z" transform="rotate(0 20.01 19.602)" fill="#F1F5F9"/>
</svg>
