<svg width="48" height="48" viewBox="0 0 48 48" fill="none" xmlns="http://www.w3.org/2000/svg" xmlns:xlink="http://www.w3.org/1999/xlink">
<mask id="mask_0_269_8037" style="mask-type:alpha" maskUnits="userSpaceOnUse" x="0.771484" y="1.999146" width="22.250401" height="22.25">
<path d="M7.271,10.499C6.443,10.499 5.771,11.171 5.771,11.999L5.771,39.999C5.771,40.828 6.443,41.499 7.271,41.499L35.271,41.499C36.1,41.499 36.771,40.828 36.771,39.999L36.771,25.999C36.771,24.618 37.891,23.499 39.271,23.499C40.652,23.499 41.771,24.618 41.771,25.999L41.771,39.999C41.771,43.589 38.861,46.499 35.271,46.499L7.271,46.499C3.682,46.499 0.771,43.589 0.771,39.999L0.771,11.999C0.771,8.409 3.682,5.499 7.271,5.499L21.271,5.499C22.652,5.499 23.771,6.618 23.771,7.999C23.771,9.38 22.652,10.499 21.271,10.499L7.271,10.499Z" clip-rule="evenodd" fill-rule="evenodd" fill="#006FFD"/>
<path d="M25.461,28.601L39.756,14.305L32.966,7.515L18.671,21.811C18.474,22.008 18.334,22.254 18.266,22.524L16.682,30.59L24.745,29.005C25.016,28.938 25.264,28.798 25.461,28.601ZM44.371,9.69C44.948,9.113 45.272,8.331 45.272,7.515C45.272,6.699 44.948,5.917 44.371,5.34L41.932,2.9C41.355,2.323 40.572,1.999 39.756,1.999C38.941,1.999 38.158,2.323 37.581,2.9L35.141,5.34L41.932,12.13L44.371,9.69Z" fill="#006FFD"/>
</mask>
<rect  x="-0.729" y="-0.001" width="48" height="48" fill="#006FFD"/>
</svg>
