<svg width="114" height="118" viewBox="0 0 114 118" fill="none" xmlns="http://www.w3.org/2000/svg" xmlns:xlink="http://www.w3.org/1999/xlink">
<mask id="mask_0_i_294_6900;1_2641" style="mask-type:alpha" maskUnits="userSpaceOnUse" x="0.303955" y="0.652344" width="55.902161" height="55.902161">
<circle cx="56.206" cy="56.555" r="55.902" fill="url(#pf_0_i_294_6900;1_2641)"/>
</mask>
<mask id="mask_0_i_294_6900;1_2650" style="mask-type:alpha" maskUnits="userSpaceOnUse" x="45.434204" y="56.674805" width="10.193794" height="18.444403">
<path d="M59.509,56.863C56.542,56.634 53.689,56.623 51.441,56.782C49.13,56.947 47.421,58.732 46.966,61.003C44.831,71.651 45.021,79.767 46.958,86.947C47.648,89.501 49.062,91.962 51.547,92.869C52.741,93.305 54.175,93.589 55.816,93.562C61.685,93.463 65.163,87.422 65.575,81.567C66.117,73.883 65.729,67.134 64.776,61.636C64.322,59.018 62.158,57.067 59.509,56.863Z" transform="rotate(0 55.628 75.119)" fill="url(#pf_0_i_294_6900;1_2650)"/>
</mask>
<circle cx="56.206" cy="56.555" r="55.902" fill="url(#pf_0_i_294_6900;1_2636)"/>
<g mask="url(#mask_0_i_294_6900;1_2641)">
<path d="M22.263,106.709L22.263,38.944L29.135,32.231L38.507,35.108L38.507,116.938L22.263,106.709Z" fill="url(#pf_0_i_294_6900;1_2642)"/>
<path d="M72.276,106.709L72.276,38.944L79.225,32.231L88.701,35.108L88.701,116.938L72.276,106.709Z" transform="rotate(360 80.489 74.584)" fill="url(#pf_0_i_294_6900;1_2643)"/>
</g>
<g filter="url(#filterI294_6900;1_2645)">
<path d="M27.888,36.732C25.141,37.519 23.119,39.178 22.161,40.382C21.267,41.505 19.52,41.771 18.258,40.976C16.996,40.181 16.697,38.627 17.59,37.504C19.138,35.559 22.102,33.155 26.171,31.99C30.367,30.788 35.53,30.966 41.121,33.978C42.443,34.69 42.867,36.222 42.066,37.399C41.265,38.576 39.543,38.952 38.221,38.24C33.989,35.96 30.508,35.981 27.888,36.732Z" clip-rule="evenodd" fill-rule="evenodd" fill="#1F1F1F"/>
</g>
<g filter="url(#filterI294_6900;1_2646)">
<path d="M78.57,36.732C75.775,37.519 73.717,39.178 72.742,40.382C71.833,41.505 70.055,41.771 68.771,40.976C67.486,40.181 67.182,38.627 68.091,37.504C69.666,35.559 72.683,33.155 76.823,31.99C81.093,30.788 86.347,30.966 92.037,33.978C93.383,34.69 93.813,36.222 92.998,37.399C92.183,38.576 90.431,38.952 89.085,38.24C84.779,35.96 81.236,35.981 78.57,36.732Z" clip-rule="evenodd" fill-rule="evenodd" transform="rotate(360 80.489 36.365)" fill="#1F1F1F"/>
</g>
<g filter="url(#filterI294_6900;1_2648)">
<path d="M59.509,56.863C56.542,56.634 53.689,56.623 51.441,56.782C49.13,56.947 47.421,58.732 46.966,61.003C44.831,71.651 45.021,79.767 46.959,86.947C47.648,89.501 49.062,91.962 51.547,92.869C52.741,93.305 54.175,93.589 55.817,93.562C61.685,93.463 65.163,87.422 65.576,81.567C66.117,73.883 65.729,67.134 64.776,61.636C64.322,59.018 62.158,57.067 59.509,56.863Z" fill="url(#pf_0_i_294_6900;1_2648)"/>
</g>
<g mask="url(#mask_0_i_294_6900;1_2650)">
<g filter="url(#filterI294_6900;1_2651)">
<path d="M56.13,75.448C42.657,75.448 35.394,80.187 33.446,82.557C35.508,86.23 42.932,93.577 56.13,93.577C69.328,93.577 75.949,89.785 77.611,87.889C76.064,83.742 69.603,75.448 56.13,75.448Z" transform="rotate(-7.335 55.528 84.512)" fill="url(#pf_0_i_294_6900;1_2651)"/>
</g>
</g>
<defs>
<radialGradient id="pf_0_i_294_6900;1_2636" cx="0" cy="0" r="1" gradientUnits="userSpaceOnUse" gradientTransform="matrix(23.671549 43.642493 -43.642493 23.671549 21.875 10.346)">
<stop stop-color="#FFDC81"/>
<stop offset="0.385" stop-color="#FFCA42"/>
<stop offset="0.656" stop-color="#FFC737"/>
<stop offset="1" stop-color="#FD9902"/>
</radialGradient>
<linearGradient id="pf_0_i_294_6900;1_2642" x1="30.385" y1="50.857" x2="30.385" y2="116.938" gradientUnits="userSpaceOnUse">
<stop offset="0.042" stop-color="#53A2FF" stop-opacity="0.85"/>
<stop offset="0.729" stop-color="#5F6FFE" stop-opacity="0.15"/>
</linearGradient>
<linearGradient id="pf_0_i_294_6900;1_2643" x1="80.489" y1="98.312" x2="80.489" y2="32.231" gradientUnits="userSpaceOnUse">
<stop offset="0.042" stop-color="#53A2FF" stop-opacity="0.85"/>
<stop offset="0.729" stop-color="#5F6FFE" stop-opacity="0.15"/>
</linearGradient>
<filter id="filterI294_6900;1_2645" x="16.075439" y="30.295898" width="14.697757" height="7.069256" filterUnits="userSpaceOnUse" color-interpolation-filters="sRGB">
<feFlood flood-opacity="0" result="BackgroundImageFix"/>
<feColorMatrix in="SourceAlpha" type="matrix" values="0 0 0 0 0 0 0 0 0 0 0 0 0 0 0 0 0 0 127 0" result="hardAlpha"/>
<feMorphology radius="0" operator="dilate" in="SourceAlpha" result="0dropshadow"/>
<feOffset dx="0" dy="0"/>
<feGaussianBlur stdDeviation="0.5"/>
<feComposite in2="hardAlpha" operator="out"/>
<feColorMatrix type="matrix" values="0 0 0 0 1 0 0 0 0 1 0 0 0 0 1 0 0 0 0.4 0"/>
<feBlend mode="normal" in2="BackgroundImageFix" result="0dropshadow"/>
<feBlend mode="normal" in="SourceGraphic" in2="0dropshadow" result="shape"/>
<feColorMatrix in="SourceAlpha" type="matrix" values="0 0 0 0 0 0 0 0 0 0 0 0 0 0 0 0 0 0 127 0" result="hardAlpha"/>
<feMorphology radius="0" operator="erode" in="SourceAlpha" result="1innershadow"/>
<feOffset dx="0" dy="2"/>
<feGaussianBlur stdDeviation="0.5"/>
<feComposite in2="hardAlpha" operator="arithmetic" k2="-1" k3="1"/>
<feColorMatrix type="matrix" values="0 0 0 0 0 0 0 0 0 0 0 0 0 0 0 0 0 0 1 0"/>
<feBlend mode="normal" in2="shape" result="1innershadow"/>
</filter>
<filter id="filterI294_6900;1_2646" x="66.567261" y="30.295898" width="14.921753" height="7.069256" filterUnits="userSpaceOnUse" color-interpolation-filters="sRGB">
<feFlood flood-opacity="0" result="BackgroundImageFix"/>
<feColorMatrix in="SourceAlpha" type="matrix" values="0 0 0 0 0 0 0 0 0 0 0 0 0 0 0 0 0 0 127 0" result="hardAlpha"/>
<feMorphology radius="0" operator="dilate" in="SourceAlpha" result="0dropshadow"/>
<feOffset dx="0" dy="0"/>
<feGaussianBlur stdDeviation="0.5"/>
<feComposite in2="hardAlpha" operator="out"/>
<feColorMatrix type="matrix" values="0 0 0 0 1 0 0 0 0 1 0 0 0 0 1 0 0 0 0.4 0"/>
<feBlend mode="normal" in2="BackgroundImageFix" result="0dropshadow"/>
<feBlend mode="normal" in="SourceGraphic" in2="0dropshadow" result="shape"/>
<feColorMatrix in="SourceAlpha" type="matrix" values="0 0 0 0 0 0 0 0 0 0 0 0 0 0 0 0 0 0 127 0" result="hardAlpha"/>
<feMorphology radius="0" operator="erode" in="SourceAlpha" result="1innershadow"/>
<feOffset dx="0" dy="2"/>
<feGaussianBlur stdDeviation="0.5"/>
<feComposite in2="hardAlpha" operator="arithmetic" k2="-1" k3="1"/>
<feColorMatrix type="matrix" values="0 0 0 0 0 0 0 0 0 0 0 0 0 0 0 0 0 0 1 0"/>
<feBlend mode="normal" in2="shape" result="1innershadow"/>
</filter>
<filter id="filterI294_6900;1_2648" x="44.434326" y="55.674805" width="12.193794" height="20.444401" filterUnits="userSpaceOnUse" color-interpolation-filters="sRGB">
<feFlood flood-opacity="0" result="BackgroundImageFix"/>
<feColorMatrix in="SourceAlpha" type="matrix" values="0 0 0 0 0 0 0 0 0 0 0 0 0 0 0 0 0 0 127 0" result="hardAlpha"/>
<feMorphology radius="0" operator="dilate" in="SourceAlpha" result="0dropshadow"/>
<feOffset dx="0" dy="0.5"/>
<feGaussianBlur stdDeviation="0.5"/>
<feComposite in2="hardAlpha" operator="out"/>
<feColorMatrix type="matrix" values="0 0 0 0 1 0 0 0 0 1 0 0 0 0 1 0 0 0 0.3 0"/>
<feBlend mode="normal" in2="BackgroundImageFix" result="0dropshadow"/>
<feBlend mode="normal" in="SourceGraphic" in2="0dropshadow" result="shape"/>
<feColorMatrix in="SourceAlpha" type="matrix" values="0 0 0 0 0 0 0 0 0 0 0 0 0 0 0 0 0 0 127 0" result="hardAlpha"/>
<feMorphology radius="0" operator="erode" in="SourceAlpha" result="1innershadow"/>
<feOffset dx="0" dy="1"/>
<feGaussianBlur stdDeviation="0.5"/>
<feComposite in2="hardAlpha" operator="arithmetic" k2="-1" k3="1"/>
<feColorMatrix type="matrix" values="0 0 0 0 0 0 0 0 0 0 0 0 0 0 0 0 0 0 0.25 0"/>
<feBlend mode="normal" in2="shape" result="1innershadow"/>
</filter>
<linearGradient id="pf_0_i_294_6900;1_2648" x1="55.738" y1="56.675" x2="55.738" y2="93.564" gradientUnits="userSpaceOnUse">
<stop stop-color="#791037"/>
<stop offset="1" stop-color="#46081F"/>
</linearGradient>
<filter id="filterI294_6900;1_2651" x="31.911743" y="73.0539" width="24.616722" height="12.458355" filterUnits="userSpaceOnUse" color-interpolation-filters="sRGB">
<feFlood flood-opacity="0" result="BackgroundImageFix"/>
<feColorMatrix in="SourceAlpha" type="matrix" values="0 0 0 0 0 0 0 0 0 0 0 0 0 0 0 0 0 0 127 0" result="hardAlpha"/>
<feMorphology radius="0" operator="dilate" in="SourceAlpha" result="0dropshadow"/>
<feOffset dx="0" dy="-1"/>
<feGaussianBlur stdDeviation="0.5"/>
<feComposite in2="hardAlpha" operator="out"/>
<feColorMatrix type="matrix" values="0 0 0 0 0 0 0 0 0 0 0 0 0 0 0 0 0 0 0.15 0"/>
<feBlend mode="normal" in2="BackgroundImageFix" result="0dropshadow"/>
<feBlend mode="normal" in="SourceGraphic" in2="0dropshadow" result="shape"/>
<feColorMatrix in="SourceAlpha" type="matrix" values="0 0 0 0 0 0 0 0 0 0 0 0 0 0 0 0 0 0 127 0" result="hardAlpha"/>
<feMorphology radius="0" operator="erode" in="SourceAlpha" result="1innershadow"/>
<feOffset dx="0.5" dy="0.5"/>
<feGaussianBlur stdDeviation="0.25"/>
<feComposite in2="hardAlpha" operator="arithmetic" k2="-1" k3="1"/>
<feColorMatrix type="matrix" values="0 0 0 0 1 0 0 0 0 1 0 0 0 0 1 0 0 0 0.12 0"/>
<feBlend mode="normal" in2="shape" result="1innershadow"/>
</filter>
<radialGradient id="pf_0_i_294_6900;1_2651" cx="0" cy="0" r="1" gradientUnits="userSpaceOnUse" gradientTransform="matrix(5.038682 8.605107 -7.482368 4.164042 24.912 37.38)">
<stop offset="0.56" stop-color="#FF7C7C"/>
<stop offset="1" stop-color="#FF5963"/>
</radialGradient>
</defs>
</svg>
