<svg width="48" height="48" viewBox="0 0 48 48" fill="none" xmlns="http://www.w3.org/2000/svg" xmlns:xlink="http://www.w3.org/1999/xlink">
<mask id="mask_0_269_8040" style="mask-type:alpha" maskUnits="userSpaceOnUse" x="3.271484" y="3.999146" width="20" height="20">
<path d="M15.554,41.216L35.555,21.216L26.055,11.716L6.054,31.717C5.779,31.992 5.583,32.337 5.488,32.715L3.271,43.999L14.553,41.782C14.932,41.688 15.279,41.492 15.554,41.216ZM42.011,14.759C42.818,13.952 43.271,12.857 43.271,11.716C43.271,10.575 42.818,9.48 42.011,8.673L38.598,5.259C37.791,4.452 36.696,3.999 35.555,3.999C34.413,3.999 33.318,4.452 32.511,5.259L29.098,8.673L38.598,18.173L42.011,14.759Z" fill="#006FFD"/>
</mask>
<rect  x="-0.729" y="-0.001" width="48" height="48" fill="#006FFD"/>
</svg>
