<svg width="64" height="66" viewBox="0 0 64 66" fill="none" xmlns="http://www.w3.org/2000/svg" xmlns:xlink="http://www.w3.org/1999/xlink">
<mask id="mask_0_i_294_10130;290_7095" style="mask-type:alpha" maskUnits="userSpaceOnUse" x="9.598999" y="1" width="22.401424" height="32.002121">
<path d="M36.16,1.161C36.81,1.388 37.378,1.84 37.78,2.45C38.183,3.06 38.4,3.797 38.4,4.553L38.4,22.332L51.2,22.332C51.786,22.332 52.36,22.51 52.861,22.847C53.361,23.185 53.769,23.668 54.039,24.245C54.31,24.821 54.433,25.469 54.395,26.119C54.357,26.768 54.16,27.393 53.824,27.926L31.424,63.484C31.035,64.104 30.477,64.57 29.832,64.814C29.187,65.058 28.489,65.067 27.839,64.84C27.19,64.613 26.622,64.161 26.22,63.551C25.817,62.94 25.6,62.203 25.6,61.446L25.6,43.667L12.8,43.667C12.215,43.667 11.641,43.489 11.14,43.152C10.64,42.815 10.232,42.332 9.961,41.755C9.691,41.178 9.568,40.53 9.606,39.881C9.644,39.232 9.841,38.607 10.176,38.074L32.576,2.516C32.967,1.897 33.525,1.432 34.169,1.189C34.814,0.946 35.511,0.937 36.16,1.165L36.16,1.161Z" clip-rule="evenodd" fill-rule="evenodd" fill="#006FFD"/>
</mask>
<rect  x="0" y="1" width="64" height="64" fill="#FFFFFF"/>
</svg>
