<svg width="48" height="48" viewBox="0 0 48 48" fill="none" xmlns="http://www.w3.org/2000/svg" xmlns:xlink="http://www.w3.org/1999/xlink">
<mask id="mask_0_290_7095" style="mask-type:alpha" maskUnits="userSpaceOnUse" x="6.470703" y="-0.000977" width="16.801067" height="24.001591">
<path d="M26.392,0.12C26.879,0.29 27.305,0.629 27.607,1.086C27.909,1.544 28.072,2.097 28.072,2.664L28.072,15.998L37.672,15.998C38.111,15.998 38.542,16.132 38.917,16.385C39.292,16.637 39.598,17 39.801,17.432C40.004,17.865 40.096,18.351 40.068,18.838C40.039,19.325 39.891,19.794 39.64,20.193L22.84,46.862C22.547,47.327 22.129,47.677 21.645,47.86C21.162,48.043 20.638,48.05 20.151,47.879C19.664,47.709 19.238,47.37 18.936,46.912C18.634,46.454 18.471,45.901 18.472,45.334L18.472,31.999L8.872,31.999C8.433,32 8.002,31.866 7.627,31.613C7.251,31.36 6.945,30.998 6.743,30.565C6.54,30.133 6.447,29.647 6.476,29.16C6.504,28.673 6.652,28.204 6.904,27.804L23.704,1.136C23.997,0.671 24.415,0.323 24.899,0.14C25.382,-0.042 25.905,-0.048 26.392,0.123L26.392,0.12Z" clip-rule="evenodd" fill-rule="evenodd" fill="#006FFD"/>
</mask>
<rect  x="-0.729" y="-0.001" width="48" height="48" fill="#006FFD"/>
</svg>
