<svg width="48" height="48" viewBox="0 0 48 48" fill="none" xmlns="http://www.w3.org/2000/svg" xmlns:xlink="http://www.w3.org/1999/xlink">
<mask id="mask_0_267_7074" style="mask-type:alpha" maskUnits="userSpaceOnUse" x="-0.728516" y="-0.000977" width="24" height="24">
<path d="M26.271,23.999C26.271,25.658 24.931,26.999 23.271,26.999C21.612,26.999 20.271,25.658 20.271,23.999C20.271,22.34 21.612,20.999 23.271,20.999C24.931,20.999 26.271,22.34 26.271,23.999ZM-0.729,23.999C-0.729,10.743 10.015,-0.001 23.271,-0.001C36.528,-0.001 47.271,10.743 47.271,23.999C47.271,37.255 36.528,47.999 23.271,47.999C10.015,47.999 -0.729,37.255 -0.729,23.999ZM29.75,28.752L34.953,15.224C35.656,13.321 33.865,11.615 32.046,12.318L18.518,17.521C17.721,17.821 17.093,18.449 16.793,19.246L11.59,32.774C10.887,34.593 12.593,36.383 14.496,35.68L28.025,30.477C28.821,30.177 29.45,29.549 29.75,28.752L29.75,28.752Z" fill="#000000"/>
</mask>
<rect  x="-0.729" y="-0.003" width="48" height="48" fill="#006FFD"/>
</svg>
