<svg width="32" height="32" viewBox="0 0 32 32" fill="none" xmlns="http://www.w3.org/2000/svg" xmlns:xlink="http://www.w3.org/1999/xlink">
<mask id="mask_0_i_251_5824;38_1819;36_1805" style="mask-type:alpha" maskUnits="userSpaceOnUse" x="-0.473633" y="5.031616" width="16" height="10.90527">
<path d="M15.526,11.577C14.369,11.577 13.259,12.037 12.441,12.855C11.622,13.673 11.163,14.783 11.163,15.941C11.163,17.098 11.622,18.208 12.441,19.026C13.259,19.845 14.369,20.304 15.526,20.304C16.684,20.304 17.794,19.845 18.612,19.026C19.43,18.208 19.89,17.098 19.89,15.941C19.89,14.783 19.43,13.673 18.612,12.855C17.794,12.037 16.684,11.577 15.526,11.577ZM15.526,23.213C13.598,23.213 11.748,22.447 10.384,21.083C9.02,19.719 8.254,17.87 8.254,15.941C8.254,14.012 9.02,12.162 10.384,10.798C11.748,9.434 13.598,8.668 15.526,8.668C17.455,8.668 19.305,9.434 20.669,10.798C22.033,12.162 22.799,14.012 22.799,15.941C22.799,17.87 22.033,19.719 20.669,21.083C19.305,22.447 17.455,23.213 15.526,23.213ZM15.526,5.032C8.457,5.032 2.115,9.395 -0.474,15.941C3.003,24.784 12.981,29.119 21.825,25.643C26.261,23.897 29.781,20.392 31.526,15.941C28.937,9.395 22.595,5.032 15.526,5.032Z" fill="#006FFD"/>
</mask>
<rect  x="-0.474" y="-0.06" width="32" height="32" fill="#8F9098"/>
</svg>
