<svg width="32" height="34" viewBox="0 0 32 34" fill="none" xmlns="http://www.w3.org/2000/svg" xmlns:xlink="http://www.w3.org/1999/xlink">
<mask id="mask_0_i_252_6810;38_1819;36_1805" style="mask-type:alpha" maskUnits="userSpaceOnUse" x="-0.20874" y="5.563477" width="16" height="10.90527">
<path d="M15.791,12.109C14.634,12.109 13.524,12.569 12.706,13.387C11.887,14.205 11.428,15.315 11.428,16.473C11.428,17.63 11.887,18.74 12.706,19.558C13.524,20.376 14.634,20.836 15.791,20.836C16.949,20.836 18.058,20.376 18.877,19.558C19.695,18.74 20.155,17.63 20.155,16.473C20.155,15.315 19.695,14.205 18.877,13.387C18.058,12.569 16.949,12.109 15.791,12.109ZM15.791,23.745C13.862,23.745 12.013,22.979 10.649,21.615C9.285,20.251 8.519,18.401 8.519,16.473C8.519,14.544 9.285,12.694 10.649,11.33C12.013,9.966 13.862,9.2 15.791,9.2C17.72,9.2 19.57,9.966 20.934,11.33C22.298,12.694 23.064,14.544 23.064,16.473C23.064,18.401 22.298,20.251 20.934,21.615C19.57,22.979 17.72,23.745 15.791,23.745ZM15.791,5.563C8.722,5.563 2.38,9.927 -0.209,16.473C3.268,25.316 13.246,29.651 22.089,26.174C26.526,24.429 30.046,20.923 31.791,16.473C29.202,9.927 22.86,5.563 15.791,5.563Z" fill="#006FFD"/>
</mask>
<rect  x="-0.209" y="0.472" width="32" height="32" fill="#8F9098"/>
</svg>
