<svg width="48" height="48" viewBox="0 0 48 48" fill="none" xmlns="http://www.w3.org/2000/svg" xmlns:xlink="http://www.w3.org/1999/xlink">
<mask id="mask_0_267_5617" style="mask-type:alpha" maskUnits="userSpaceOnUse" x="-0.728516" y="3.493652" width="24" height="20.5">
<path d="M44.71,7.761C45.687,6.785 45.687,5.202 44.71,4.226C43.734,3.25 42.151,3.25 41.175,4.226L5.176,40.226C4.199,41.202 4.199,42.785 5.176,43.761C6.152,44.738 7.735,44.738 8.711,43.761L13.89,38.583C19.732,40.862 26.417,41.029 32.719,38.552C39.373,35.934 44.653,30.676 47.271,23.999C45.562,19.677 42.761,15.989 39.257,13.215L44.71,7.761ZM33.134,19.338L29.701,22.771C29.777,23.173 29.817,23.584 29.817,23.999C29.817,25.735 29.127,27.4 27.9,28.628C26.672,29.855 25.007,30.545 23.271,30.545C22.856,30.545 22.445,30.505 22.044,30.429L18.61,33.862C20.054,34.545 21.644,34.908 23.271,34.908C26.165,34.908 28.939,33.759 30.985,31.713C33.031,29.667 34.18,26.893 34.18,23.999C34.18,22.372 33.817,20.782 33.134,19.338ZM23.271,7.636C26.052,7.636 28.758,8.086 31.307,8.927L26.618,13.616C25.547,13.271 24.418,13.09 23.271,13.09C20.378,13.09 17.603,14.24 15.558,16.285C13.512,18.331 12.362,21.106 12.362,23.999C12.362,25.146 12.543,26.275 12.889,27.346L6.272,33.964C3.269,31.337 0.833,27.971 -0.729,23.999C3.155,14.181 12.668,7.636 23.271,7.636ZM18.643,19.371C19.75,18.264 21.212,17.595 22.761,17.474L16.746,23.489C16.867,21.94 17.537,20.478 18.643,19.371Z" clip-rule="evenodd" fill-rule="evenodd" fill="#006FFD"/>
</mask>
<rect  x="-0.729" y="-0.001" width="48" height="48" fill="#006FFD"/>
</svg>
