<svg width="32" height="32" viewBox="0 0 32 32" fill="none" xmlns="http://www.w3.org/2000/svg" xmlns:xlink="http://www.w3.org/1999/xlink">
<mask id="mask_0_i_249_4988;38_1819;36_1805" style="mask-type:alpha" maskUnits="userSpaceOnUse" x="-0.310547" y="4.933105" width="16" height="10.90527">
<path d="M15.689,11.479C14.532,11.479 13.422,11.938 12.604,12.757C11.786,13.575 11.326,14.685 11.326,15.842C11.326,17 11.786,18.109 12.604,18.928C13.422,19.746 14.532,20.206 15.689,20.206C16.847,20.206 17.957,19.746 18.775,18.928C19.593,18.109 20.053,17 20.053,15.842C20.053,14.685 19.593,13.575 18.775,12.757C17.957,11.938 16.847,11.479 15.689,11.479ZM15.689,23.115C13.761,23.115 11.911,22.349 10.547,20.985C9.183,19.621 8.417,17.771 8.417,15.842C8.417,13.913 9.183,12.064 10.547,10.7C11.911,9.336 13.761,8.569 15.689,8.569C17.618,8.569 19.468,9.336 20.832,10.7C22.196,12.064 22.962,13.913 22.962,15.842C22.962,17.771 22.196,19.621 20.832,20.985C19.468,22.349 17.618,23.115 15.689,23.115ZM15.689,4.933C8.62,4.933 2.279,9.297 -0.311,15.842C3.166,24.686 13.144,29.02 21.988,25.544C26.424,23.799 29.944,20.293 31.689,15.842C29.1,9.297 22.758,4.933 15.689,4.933Z" fill="#006FFD"/>
</mask>
<rect  x="-0.311" y="-0.158" width="32" height="32" fill="#8F9098"/>
</svg>
