<svg width="32" height="32" viewBox="0 0 32 32" fill="none" xmlns="http://www.w3.org/2000/svg" xmlns:xlink="http://www.w3.org/1999/xlink">
<mask id="mask_0_i_248_3982;38_1819;36_1805" style="mask-type:alpha" maskUnits="userSpaceOnUse" x="-0.556641" y="5.091187" width="16" height="10.90527">
<path d="M15.443,11.637C14.286,11.637 13.176,12.096 12.358,12.915C11.539,13.733 11.08,14.843 11.08,16C11.08,17.158 11.539,18.267 12.358,19.086C13.176,19.904 14.286,20.364 15.443,20.364C16.601,20.364 17.711,19.904 18.529,19.086C19.347,18.267 19.807,17.158 19.807,16C19.807,14.843 19.347,13.733 18.529,12.915C17.711,12.096 16.601,11.637 15.443,11.637ZM15.443,23.273C13.515,23.273 11.665,22.507 10.301,21.143C8.937,19.779 8.171,17.929 8.171,16C8.171,14.071 8.937,12.222 10.301,10.858C11.665,9.494 13.515,8.728 15.443,8.728C17.372,8.728 19.222,9.494 20.586,10.858C21.95,12.222 22.716,14.071 22.716,16C22.716,17.929 21.95,19.779 20.586,21.143C19.222,22.507 17.372,23.273 15.443,23.273ZM15.443,5.091C8.374,5.091 2.032,9.455 -0.557,16C2.92,24.844 12.898,29.178 21.742,25.702C26.178,23.957 29.698,20.451 31.443,16C28.854,9.455 22.512,5.091 15.443,5.091Z" fill="#006FFD"/>
</mask>
<rect  x="-0.557" y="0" width="32" height="32" fill="#8F9098"/>
</svg>
