<svg width="32" height="32" viewBox="0 0 32 32" fill="none" xmlns="http://www.w3.org/2000/svg" xmlns:xlink="http://www.w3.org/1999/xlink">
<mask id="mask_0_i_249_5109;38_1819;36_1805" style="mask-type:alpha" maskUnits="userSpaceOnUse" x="-0.582031" y="5.091309" width="16" height="10.90527">
<path d="M15.418,11.637C14.261,11.637 13.151,12.097 12.332,12.915C11.514,13.733 11.054,14.843 11.054,16C11.054,17.158 11.514,18.268 12.332,19.086C13.151,19.904 14.261,20.364 15.418,20.364C16.575,20.364 17.685,19.904 18.504,19.086C19.322,18.268 19.782,17.158 19.782,16C19.782,14.843 19.322,13.733 18.504,12.915C17.685,12.097 16.575,11.637 15.418,11.637ZM15.418,23.273C13.489,23.273 11.639,22.507 10.275,21.143C8.911,19.779 8.145,17.929 8.145,16C8.145,14.072 8.911,12.222 10.275,10.858C11.639,9.494 13.489,8.728 15.418,8.728C17.347,8.728 19.197,9.494 20.561,10.858C21.924,12.222 22.691,14.072 22.691,16C22.691,17.929 21.924,19.779 20.561,21.143C19.197,22.507 17.347,23.273 15.418,23.273ZM15.418,5.091C8.349,5.091 2.007,9.455 -0.582,16C2.894,24.844 12.873,29.179 21.716,25.702C26.153,23.957 29.673,20.451 31.418,16C28.829,9.455 22.487,5.091 15.418,5.091Z" fill="#006FFD"/>
</mask>
<rect  x="-0.582" y="0" width="32" height="32" fill="#8F9098"/>
</svg>
