<svg width="32" height="32" viewBox="0 0 32 32" fill="none" xmlns="http://www.w3.org/2000/svg" xmlns:xlink="http://www.w3.org/1999/xlink">
<mask id="mask_0_i_249_4987;38_1819;36_1805" style="mask-type:alpha" maskUnits="userSpaceOnUse" x="-0.53125" y="4.671875" width="16" height="10.90527">
<path d="M15.469,11.217C14.311,11.217 13.202,11.677 12.383,12.495C11.565,13.314 11.105,14.424 11.105,15.581C11.105,16.738 11.565,17.848 12.383,18.667C13.202,19.485 14.311,19.945 15.469,19.945C16.626,19.945 17.736,19.485 18.554,18.667C19.373,17.848 19.832,16.738 19.832,15.581C19.832,14.424 19.373,13.314 18.554,12.495C17.736,11.677 16.626,11.217 15.469,11.217ZM15.469,22.854C13.54,22.854 11.69,22.087 10.326,20.724C8.962,19.36 8.196,17.51 8.196,15.581C8.196,13.652 8.962,11.802 10.326,10.438C11.69,9.074 13.54,8.308 15.469,8.308C17.398,8.308 19.247,9.074 20.611,10.438C21.975,11.802 22.742,13.652 22.742,15.581C22.742,17.51 21.975,19.36 20.611,20.724C19.247,22.087 17.398,22.854 15.469,22.854ZM15.469,4.672C8.4,4.672 2.058,9.036 -0.531,15.581C2.945,24.425 12.923,28.759 21.767,25.283C26.203,23.537 29.723,20.032 31.469,15.581C28.88,9.036 22.538,4.672 15.469,4.672Z" fill="#006FFD"/>
</mask>
<rect  x="-0.531" y="-0.419" width="32" height="32" fill="#8F9098"/>
</svg>
