<svg width="32" height="32" viewBox="0 0 32 32" fill="none" xmlns="http://www.w3.org/2000/svg" xmlns:xlink="http://www.w3.org/1999/xlink">
<mask id="mask_0_i_281_5626;38_1819;36_1805" style="mask-type:alpha" maskUnits="userSpaceOnUse" x="-0.918945" y="5.091309" width="16" height="10.90527">
<path d="M15.081,11.637C13.924,11.637 12.814,12.097 11.995,12.915C11.177,13.733 10.717,14.843 10.717,16C10.717,17.158 11.177,18.268 11.995,19.086C12.814,19.904 13.924,20.364 15.081,20.364C16.238,20.364 17.348,19.904 18.167,19.086C18.985,18.268 19.445,17.158 19.445,16C19.445,14.843 18.985,13.733 18.167,12.915C17.348,12.097 16.238,11.637 15.081,11.637ZM15.081,23.273C13.152,23.273 11.302,22.507 9.938,21.143C8.575,19.779 7.808,17.929 7.808,16C7.808,14.072 8.575,12.222 9.938,10.858C11.302,9.494 13.152,8.728 15.081,8.728C17.01,8.728 18.86,9.494 20.224,10.858C21.587,12.222 22.354,14.072 22.354,16C22.354,17.929 21.587,19.779 20.224,21.143C18.86,22.507 17.01,23.273 15.081,23.273ZM15.081,5.091C8.012,5.091 1.67,9.455 -0.919,16C2.557,24.844 12.536,29.179 21.379,25.702C25.816,23.957 29.336,20.451 31.081,16C28.492,9.455 22.15,5.091 15.081,5.091Z" fill="#006FFD"/>
</mask>
<rect  x="-0.919" y="0" width="32" height="32" fill="#8F9098"/>
</svg>
