<svg width="32" height="32" viewBox="0 0 32 32" fill="none" xmlns="http://www.w3.org/2000/svg" xmlns:xlink="http://www.w3.org/1999/xlink">
<mask id="mask_0_i_252_7216;38_1819;36_1805" style="mask-type:alpha" maskUnits="userSpaceOnUse" x="-0.590576" y="5.085938" width="16" height="10.90527">
<path d="M15.409,11.631C14.252,11.631 13.142,12.091 12.324,12.909C11.506,13.728 11.046,14.838 11.046,15.995C11.046,17.152 11.506,18.262 12.324,19.081C13.142,19.899 14.252,20.359 15.409,20.359C16.567,20.359 17.677,19.899 18.495,19.081C19.313,18.262 19.773,17.152 19.773,15.995C19.773,14.838 19.313,13.728 18.495,12.909C17.677,12.091 16.567,11.631 15.409,11.631ZM15.409,23.268C13.481,23.268 11.631,22.502 10.267,21.138C8.903,19.774 8.137,17.924 8.137,15.995C8.137,14.066 8.903,12.216 10.267,10.852C11.631,9.489 13.481,8.722 15.409,8.722C17.338,8.722 19.188,9.489 20.552,10.852C21.916,12.216 22.682,14.066 22.682,15.995C22.682,17.924 21.916,19.774 20.552,21.138C19.188,22.502 17.338,23.268 15.409,23.268ZM15.409,5.086C8.34,5.086 1.999,9.45 -0.591,15.995C2.886,24.839 12.864,29.173 21.708,25.697C26.144,23.951 29.664,20.446 31.409,15.995C28.82,9.45 22.478,5.086 15.409,5.086Z" fill="#006FFD"/>
</mask>
<rect  x="-0.591" y="-0.005" width="32" height="32" fill="#8F9098"/>
</svg>
