<svg width="34" height="32" viewBox="0 0 34 32" fill="none" xmlns="http://www.w3.org/2000/svg" xmlns:xlink="http://www.w3.org/1999/xlink">
<mask id="mask_0_i_248_4118;38_1819;36_1805" style="mask-type:alpha" maskUnits="userSpaceOnUse" x="0.751953" y="5.091187" width="16" height="10.90527">
<path d="M16.752,11.637C15.595,11.637 14.485,12.096 13.666,12.915C12.848,13.733 12.388,14.843 12.388,16C12.388,17.158 12.848,18.267 13.666,19.086C14.485,19.904 15.595,20.364 16.752,20.364C17.909,20.364 19.019,19.904 19.838,19.086C20.656,18.267 21.116,17.158 21.116,16C21.116,14.843 20.656,13.733 19.838,12.915C19.019,12.096 17.909,11.637 16.752,11.637ZM16.752,23.273C14.823,23.273 12.973,22.507 11.609,21.143C10.245,19.779 9.479,17.929 9.479,16C9.479,14.071 10.245,12.222 11.609,10.858C12.973,9.494 14.823,8.728 16.752,8.728C18.681,8.728 20.531,9.494 21.895,10.858C23.258,12.222 24.025,14.071 24.025,16C24.025,17.929 23.258,19.779 21.895,21.143C20.531,22.507 18.681,23.273 16.752,23.273ZM16.752,5.091C9.683,5.091 3.341,9.455 0.752,16C4.228,24.844 14.206,29.178 23.05,25.702C27.487,23.957 31.007,20.451 32.752,16C30.163,9.455 23.821,5.091 16.752,5.091Z" fill="#006FFD"/>
</mask>
<rect  x="0.752" y="0" width="32" height="32" fill="#8F9098"/>
</svg>
