<svg width="32" height="32" viewBox="0 0 32 32" fill="none" xmlns="http://www.w3.org/2000/svg" xmlns:xlink="http://www.w3.org/1999/xlink">
<mask id="mask_0_i_252_7195;38_1819;36_1805" style="mask-type:alpha" maskUnits="userSpaceOnUse" x="-0.157471" y="5.091309" width="16" height="10.90527">
<path d="M15.843,11.637C14.685,11.637 13.575,12.097 12.757,12.915C11.939,13.733 11.479,14.843 11.479,16C11.479,17.158 11.939,18.268 12.757,19.086C13.575,19.904 14.685,20.364 15.843,20.364C17,20.364 18.11,19.904 18.928,19.086C19.746,18.268 20.206,17.158 20.206,16C20.206,14.843 19.746,13.733 18.928,12.915C18.11,12.097 17,11.637 15.843,11.637ZM15.843,23.273C13.914,23.273 12.064,22.507 10.7,21.143C9.336,19.779 8.57,17.929 8.57,16C8.57,14.072 9.336,12.222 10.7,10.858C12.064,9.494 13.914,8.728 15.843,8.728C17.771,8.728 19.621,9.494 20.985,10.858C22.349,12.222 23.115,14.072 23.115,16C23.115,17.929 22.349,19.779 20.985,21.143C19.621,22.507 17.771,23.273 15.843,23.273ZM15.843,5.091C8.773,5.091 2.432,9.455 -0.157,16C3.319,24.844 13.297,29.179 22.141,25.702C26.577,23.957 30.097,20.451 31.843,16C29.254,9.455 22.912,5.091 15.843,5.091Z" fill="#006FFD"/>
</mask>
<rect  x="-0.157" y="0" width="32" height="32" fill="#8F9098"/>
</svg>
