<svg width="34" height="32" viewBox="0 0 34 32" fill="none" xmlns="http://www.w3.org/2000/svg" xmlns:xlink="http://www.w3.org/1999/xlink">
<mask id="mask_0_i_259_6095;38_1819;36_1805" style="mask-type:alpha" maskUnits="userSpaceOnUse" x="0.772461" y="4.558594" width="16" height="10.90527">
<path d="M16.772,11.104C15.615,11.104 14.505,11.564 13.687,12.382C12.869,13.2 12.409,14.31 12.409,15.468C12.409,16.625 12.869,17.735 13.687,18.553C14.505,19.372 15.615,19.831 16.772,19.831C17.93,19.831 19.04,19.372 19.858,18.553C20.676,17.735 21.136,16.625 21.136,15.468C21.136,14.31 20.676,13.2 19.858,12.382C19.04,11.564 17.93,11.104 16.772,11.104ZM16.772,22.74C14.844,22.74 12.994,21.974 11.63,20.61C10.266,19.246 9.5,17.397 9.5,15.468C9.5,13.539 10.266,11.689 11.63,10.325C12.994,8.961 14.844,8.195 16.772,8.195C18.701,8.195 20.551,8.961 21.915,10.325C23.279,11.689 24.045,13.539 24.045,15.468C24.045,17.397 23.279,19.246 21.915,20.61C20.551,21.974 18.701,22.74 16.772,22.74ZM16.772,4.559C9.703,4.559 3.362,8.922 0.772,15.468C4.249,24.311 14.227,28.646 23.071,25.17C27.507,23.424 31.027,19.919 32.772,15.468C30.183,8.922 23.841,4.559 16.772,4.559Z" fill="#006FFD"/>
</mask>
<rect  x="0.772" y="-0.533" width="32" height="32" fill="#8F9098"/>
</svg>
