<svg width="34" height="32" viewBox="0 0 34 32" fill="none" xmlns="http://www.w3.org/2000/svg" xmlns:xlink="http://www.w3.org/1999/xlink">
<mask id="mask_0_i_252_6421;38_1819;36_1805" style="mask-type:alpha" maskUnits="userSpaceOnUse" x="0.554688" y="5.091309" width="16" height="10.90527">
<path d="M16.555,11.637C15.397,11.637 14.287,12.097 13.469,12.915C12.651,13.733 12.191,14.843 12.191,16C12.191,17.158 12.651,18.268 13.469,19.086C14.287,19.904 15.397,20.364 16.555,20.364C17.712,20.364 18.822,19.904 19.64,19.086C20.459,18.268 20.918,17.158 20.918,16C20.918,14.843 20.459,13.733 19.64,12.915C18.822,12.097 17.712,11.637 16.555,11.637ZM16.555,23.273C14.626,23.273 12.776,22.507 11.412,21.143C10.048,19.779 9.282,17.929 9.282,16C9.282,14.072 10.048,12.222 11.412,10.858C12.776,9.494 14.626,8.728 16.555,8.728C18.484,8.728 20.333,9.494 21.697,10.858C23.061,12.222 23.827,14.072 23.827,16C23.827,17.929 23.061,19.779 21.697,21.143C20.333,22.507 18.484,23.273 16.555,23.273ZM16.555,5.091C9.486,5.091 3.144,9.455 0.555,16C4.031,24.844 14.009,29.179 22.853,25.702C27.289,23.957 30.809,20.451 32.555,16C29.966,9.455 23.624,5.091 16.555,5.091Z" fill="#006FFD"/>
</mask>
<rect  x="0.555" y="0" width="32" height="32" fill="#8F9098"/>
</svg>
