<svg width="34" height="34" viewBox="0 0 34 34" fill="none" xmlns="http://www.w3.org/2000/svg" xmlns:xlink="http://www.w3.org/1999/xlink">
<mask id="mask_0_i_256_4871;38_1819;36_1805" style="mask-type:alpha" maskUnits="userSpaceOnUse" x="0.868652" y="5.851563" width="16" height="10.90527">
<path d="M16.869,12.397C15.711,12.397 14.601,12.857 13.783,13.675C12.965,14.493 12.505,15.603 12.505,16.761C12.505,17.918 12.965,19.028 13.783,19.846C14.601,20.665 15.711,21.124 16.869,21.124C18.026,21.124 19.136,20.665 19.954,19.846C20.773,19.028 21.232,17.918 21.232,16.761C21.232,15.603 20.773,14.493 19.954,13.675C19.136,12.857 18.026,12.397 16.869,12.397ZM16.869,24.033C14.94,24.033 13.09,23.267 11.726,21.903C10.362,20.539 9.596,18.69 9.596,16.761C9.596,14.832 10.362,12.982 11.726,11.618C13.09,10.254 14.94,9.488 16.869,9.488C18.797,9.488 20.647,10.254 22.011,11.618C23.375,12.982 24.141,14.832 24.141,16.761C24.141,18.69 23.375,20.539 22.011,21.903C20.647,23.267 18.797,24.033 16.869,24.033ZM16.869,5.852C9.8,5.852 3.458,10.215 0.869,16.761C4.345,25.604 14.323,29.939 23.167,26.463C27.603,24.717 31.123,21.212 32.869,16.761C30.28,10.215 23.938,5.852 16.869,5.852Z" fill="#006FFD"/>
</mask>
<rect  x="0.869" y="0.76" width="32" height="32" fill="#8F9098"/>
</svg>
