<svg width="32" height="32" viewBox="0 0 32 32" fill="none" xmlns="http://www.w3.org/2000/svg" xmlns:xlink="http://www.w3.org/1999/xlink">
<mask id="mask_0_i_248_3983;38_1819;36_1805" style="mask-type:alpha" maskUnits="userSpaceOnUse" x="-0.582031" y="4.684814" width="16" height="10.90527">
<path d="M15.418,11.23C14.261,11.23 13.151,11.69 12.332,12.508C11.514,13.327 11.054,14.437 11.054,15.594C11.054,16.751 11.514,17.861 12.332,18.679C13.151,19.498 14.261,19.958 15.418,19.958C16.575,19.958 17.685,19.498 18.504,18.679C19.322,17.861 19.782,16.751 19.782,15.594C19.782,14.437 19.322,13.327 18.504,12.508C17.685,11.69 16.575,11.23 15.418,11.23ZM15.418,22.867C13.489,22.867 11.639,22.1 10.275,20.736C8.911,19.373 8.145,17.523 8.145,15.594C8.145,13.665 8.911,11.815 10.275,10.451C11.639,9.087 13.489,8.321 15.418,8.321C17.347,8.321 19.197,9.087 20.561,10.451C21.924,11.815 22.691,13.665 22.691,15.594C22.691,17.523 21.924,19.373 20.561,20.736C19.197,22.1 17.347,22.867 15.418,22.867ZM15.418,4.685C8.349,4.685 2.007,9.048 -0.582,15.594C2.894,24.438 12.873,28.772 21.716,25.296C26.153,23.55 29.673,20.045 31.418,15.594C28.829,9.048 22.487,4.685 15.418,4.685Z" fill="#006FFD"/>
</mask>
<rect  x="-0.582" y="-0.406" width="32" height="32" fill="#8F9098"/>
</svg>
