<svg width="32" height="32" viewBox="0 0 32 32" fill="none" xmlns="http://www.w3.org/2000/svg" xmlns:xlink="http://www.w3.org/1999/xlink">
<mask id="mask_0_i_259_6000;38_1819;36_1805" style="mask-type:alpha" maskUnits="userSpaceOnUse" x="-0.473633" y="4.152344" width="16" height="10.90527">
<path d="M15.526,10.698C14.369,10.698 13.259,11.158 12.441,11.976C11.622,12.794 11.163,13.904 11.163,15.061C11.163,16.219 11.622,17.329 12.441,18.147C13.259,18.965 14.369,19.425 15.526,19.425C16.684,19.425 17.794,18.965 18.612,18.147C19.43,17.329 19.89,16.219 19.89,15.061C19.89,13.904 19.43,12.794 18.612,11.976C17.794,11.158 16.684,10.698 15.526,10.698ZM15.526,22.334C13.598,22.334 11.748,21.568 10.384,20.204C9.02,18.84 8.254,16.99 8.254,15.061C8.254,13.133 9.02,11.283 10.384,9.919C11.748,8.555 13.598,7.789 15.526,7.789C17.455,7.789 19.305,8.555 20.669,9.919C22.033,11.283 22.799,13.133 22.799,15.061C22.799,16.99 22.033,18.84 20.669,20.204C19.305,21.568 17.455,22.334 15.526,22.334ZM15.526,4.152C8.457,4.152 2.115,8.516 -0.474,15.061C3.003,23.905 12.981,28.24 21.825,24.763C26.261,23.018 29.781,19.512 31.526,15.061C28.937,8.516 22.595,4.152 15.526,4.152Z" fill="#006FFD"/>
</mask>
<rect  x="-0.474" y="-0.939" width="32" height="32" fill="#8F9098"/>
</svg>
