<svg width="34" height="32" viewBox="0 0 34 32" fill="none" xmlns="http://www.w3.org/2000/svg" xmlns:xlink="http://www.w3.org/1999/xlink">
<mask id="mask_0_i_252_7184;38_1819;36_1805" style="mask-type:alpha" maskUnits="userSpaceOnUse" x="0.269287" y="4.89209" width="16" height="10.90527">
<path d="M16.269,11.438C15.112,11.438 14.002,11.897 13.184,12.716C12.365,13.534 11.906,14.644 11.906,15.801C11.906,16.958 12.365,18.068 13.184,18.887C14.002,19.705 15.112,20.165 16.269,20.165C17.427,20.165 18.537,19.705 19.355,18.887C20.173,18.068 20.633,16.958 20.633,15.801C20.633,14.644 20.173,13.534 19.355,12.716C18.537,11.897 17.427,11.438 16.269,11.438ZM16.269,23.074C14.34,23.074 12.491,22.308 11.127,20.944C9.763,19.58 8.997,17.73 8.997,15.801C8.997,13.872 9.763,12.022 11.127,10.659C12.491,9.295 14.34,8.528 16.269,8.528C18.198,8.528 20.048,9.295 21.412,10.659C22.776,12.022 23.542,13.872 23.542,15.801C23.542,17.73 22.776,19.58 21.412,20.944C20.048,22.308 18.198,23.074 16.269,23.074ZM16.269,4.892C9.2,4.892 2.858,9.256 0.269,15.801C3.746,24.645 13.724,28.979 22.567,25.503C27.004,23.758 30.524,20.252 32.269,15.801C29.68,9.256 23.338,4.892 16.269,4.892Z" fill="#006FFD"/>
</mask>
<rect  x="0.269" y="-0.199" width="32" height="32" fill="#8F9098"/>
</svg>
