<svg width="32" height="34" viewBox="0 0 32 34" fill="none" xmlns="http://www.w3.org/2000/svg" xmlns:xlink="http://www.w3.org/1999/xlink">
<mask id="mask_0_i_252_7525;38_1819;36_1805" style="mask-type:alpha" maskUnits="userSpaceOnUse" x="-0.590576" y="5.164063" width="16" height="10.90527">
<path d="M15.409,11.71C14.252,11.71 13.142,12.169 12.324,12.988C11.506,13.806 11.046,14.916 11.046,16.073C11.046,17.23 11.506,18.34 12.324,19.159C13.142,19.977 14.252,20.437 15.409,20.437C16.567,20.437 17.677,19.977 18.495,19.159C19.313,18.34 19.773,17.23 19.773,16.073C19.773,14.916 19.313,13.806 18.495,12.988C17.677,12.169 16.567,11.71 15.409,11.71ZM15.409,23.346C13.481,23.346 11.631,22.58 10.267,21.216C8.903,19.852 8.137,18.002 8.137,16.073C8.137,14.144 8.903,12.294 10.267,10.931C11.631,9.567 13.481,8.8 15.409,8.8C17.338,8.8 19.188,9.567 20.552,10.931C21.916,12.294 22.682,14.144 22.682,16.073C22.682,18.002 21.916,19.852 20.552,21.216C19.188,22.58 17.338,23.346 15.409,23.346ZM15.409,5.164C8.34,5.164 1.999,9.528 -0.591,16.073C2.886,24.917 12.864,29.251 21.708,25.775C26.144,24.03 29.664,20.524 31.409,16.073C28.82,9.528 22.478,5.164 15.409,5.164Z" fill="#006FFD"/>
</mask>
<rect  x="-0.591" y="0.073" width="32" height="32" fill="#8F9098"/>
</svg>
