<svg width="34" height="34" viewBox="0 0 34 34" fill="none" xmlns="http://www.w3.org/2000/svg" xmlns:xlink="http://www.w3.org/1999/xlink">
<mask id="mask_0_i_283_7006;38_1819;36_1805" style="mask-type:alpha" maskUnits="userSpaceOnUse" x="0.842773" y="5.591187" width="16" height="10.90527">
<path d="M16.843,12.137C15.685,12.137 14.576,12.596 13.757,13.415C12.939,14.233 12.479,15.343 12.479,16.5C12.479,17.658 12.939,18.767 13.757,19.586C14.576,20.404 15.685,20.864 16.843,20.864C18,20.864 19.11,20.404 19.928,19.586C20.747,18.767 21.206,17.658 21.206,16.5C21.206,15.343 20.747,14.233 19.928,13.415C19.11,12.596 18,12.137 16.843,12.137ZM16.843,23.773C14.914,23.773 13.064,23.007 11.7,21.643C10.336,20.279 9.57,18.429 9.57,16.5C9.57,14.571 10.336,12.722 11.7,11.358C13.064,9.994 14.914,9.228 16.843,9.228C18.772,9.228 20.621,9.994 21.985,11.358C23.349,12.722 24.116,14.571 24.116,16.5C24.116,18.429 23.349,20.279 21.985,21.643C20.621,23.007 18.772,23.773 16.843,23.773ZM16.843,5.591C9.774,5.591 3.432,9.955 0.843,16.5C4.319,25.344 14.297,29.678 23.141,26.202C27.577,24.457 31.097,20.951 32.843,16.5C30.254,9.955 23.912,5.591 16.843,5.591Z" fill="#006FFD"/>
</mask>
<rect  x="0.843" y="0.5" width="32" height="32" fill="#8F9098"/>
</svg>
