<svg width="32" height="32" viewBox="0 0 32 32" fill="none" xmlns="http://www.w3.org/2000/svg" xmlns:xlink="http://www.w3.org/1999/xlink">
<mask id="mask_0_i_252_7500;38_1819;36_1805" style="mask-type:alpha" maskUnits="userSpaceOnUse" x="-0.590576" y="4.251465" width="16" height="10.90527">
<path d="M15.409,10.797C14.252,10.797 13.142,11.257 12.324,12.075C11.506,12.893 11.046,14.003 11.046,15.161C11.046,16.318 11.506,17.428 12.324,18.246C13.142,19.064 14.252,19.524 15.409,19.524C16.567,19.524 17.677,19.064 18.495,18.246C19.313,17.428 19.773,16.318 19.773,15.161C19.773,14.003 19.313,12.893 18.495,12.075C17.677,11.257 16.567,10.797 15.409,10.797ZM15.409,22.433C13.481,22.433 11.631,21.667 10.267,20.303C8.903,18.939 8.137,17.089 8.137,15.161C8.137,13.232 8.903,11.382 10.267,10.018C11.631,8.654 13.481,7.888 15.409,7.888C17.338,7.888 19.188,8.654 20.552,10.018C21.916,11.382 22.682,13.232 22.682,15.161C22.682,17.089 21.916,18.939 20.552,20.303C19.188,21.667 17.338,22.433 15.409,22.433ZM15.409,4.251C8.34,4.251 1.999,8.615 -0.591,15.161C2.886,24.004 12.864,28.339 21.708,24.862C26.144,23.117 29.664,19.611 31.409,15.161C28.82,8.615 22.478,4.251 15.409,4.251Z" fill="#006FFD"/>
</mask>
<rect  x="-0.591" y="-0.84" width="32" height="32" fill="#8F9098"/>
</svg>
