<svg width="32" height="32" viewBox="0 0 32 32" fill="none" xmlns="http://www.w3.org/2000/svg" xmlns:xlink="http://www.w3.org/1999/xlink">
<mask id="mask_0_i_252_7489;38_1819;36_1805" style="mask-type:alpha" maskUnits="userSpaceOnUse" x="-0.730713" y="4.544678" width="16" height="10.90527">
<path d="M15.269,11.09C14.112,11.09 13.002,11.55 12.184,12.368C11.365,13.187 10.906,14.296 10.906,15.454C10.906,16.611 11.365,17.721 12.184,18.539C13.002,19.358 14.112,19.817 15.269,19.817C16.427,19.817 17.537,19.358 18.355,18.539C19.173,17.721 19.633,16.611 19.633,15.454C19.633,14.296 19.173,13.187 18.355,12.368C17.537,11.55 16.427,11.09 15.269,11.09ZM15.269,22.726C13.34,22.726 11.491,21.96 10.127,20.596C8.763,19.232 7.997,17.383 7.997,15.454C7.997,13.525 8.763,11.675 10.127,10.311C11.491,8.947 13.34,8.181 15.269,8.181C17.198,8.181 19.048,8.947 20.412,10.311C21.776,11.675 22.542,13.525 22.542,15.454C22.542,17.383 21.776,19.232 20.412,20.596C19.048,21.96 17.198,22.726 15.269,22.726ZM15.269,4.545C8.2,4.545 1.858,8.908 -0.731,15.454C2.746,24.297 12.724,28.632 21.567,25.156C26.004,23.41 29.524,19.905 31.269,15.454C28.68,8.908 22.338,4.545 15.269,4.545Z" fill="#006FFD"/>
</mask>
<rect  x="-0.731" y="-0.547" width="32" height="32" fill="#8F9098"/>
</svg>
