<svg width="34" height="32" viewBox="0 0 34 32" fill="none" xmlns="http://www.w3.org/2000/svg" xmlns:xlink="http://www.w3.org/1999/xlink">
<mask id="mask_0_i_248_4298;38_1819;36_1805" style="mask-type:alpha" maskUnits="userSpaceOnUse" x="0.842773" y="4.131836" width="16" height="10.90527">
<path d="M16.843,10.677C15.685,10.677 14.576,11.137 13.757,11.955C12.939,12.774 12.479,13.884 12.479,15.041C12.479,16.198 12.939,17.308 13.757,18.126C14.576,18.945 15.685,19.405 16.843,19.405C18,19.405 19.11,18.945 19.928,18.126C20.747,17.308 21.206,16.198 21.206,15.041C21.206,13.884 20.747,12.774 19.928,11.955C19.11,11.137 18,10.677 16.843,10.677ZM16.843,22.314C14.914,22.314 13.064,21.547 11.7,20.184C10.336,18.82 9.57,16.97 9.57,15.041C9.57,13.112 10.336,11.262 11.7,9.898C13.064,8.534 14.914,7.768 16.843,7.768C18.772,7.768 20.621,8.534 21.985,9.898C23.349,11.262 24.116,13.112 24.116,15.041C24.116,16.97 23.349,18.82 21.985,20.184C20.621,21.547 18.772,22.314 16.843,22.314ZM16.843,4.132C9.774,4.132 3.432,8.495 0.843,15.041C4.319,23.885 14.297,28.219 23.141,24.743C27.577,22.997 31.097,19.492 32.843,15.041C30.254,8.495 23.912,4.132 16.843,4.132Z" fill="#006FFD"/>
</mask>
<rect  x="0.843" y="-0.959" width="32" height="32" fill="#8F9098"/>
</svg>
