<svg width="34" height="34" viewBox="0 0 34 34" fill="none" xmlns="http://www.w3.org/2000/svg" xmlns:xlink="http://www.w3.org/1999/xlink">
<mask id="mask_0_i_248_4135;38_1819;36_1805" style="mask-type:alpha" maskUnits="userSpaceOnUse" x="0.039063" y="6" width="16" height="10.90527">
<path d="M16.039,12.545C14.882,12.545 13.772,13.005 12.954,13.824C12.135,14.642 11.675,15.752 11.675,16.909C11.675,18.066 12.135,19.176 12.954,19.995C13.772,20.813 14.882,21.273 16.039,21.273C17.196,21.273 18.306,20.813 19.125,19.995C19.943,19.176 20.403,18.066 20.403,16.909C20.403,15.752 19.943,14.642 19.125,13.824C18.306,13.005 17.196,12.545 16.039,12.545ZM16.039,24.182C14.11,24.182 12.26,23.416 10.896,22.052C9.533,20.688 8.766,18.838 8.766,16.909C8.766,14.98 9.533,13.13 10.896,11.767C12.26,10.403 14.11,9.636 16.039,9.636C17.968,9.636 19.818,10.403 21.182,11.767C22.545,13.13 23.312,14.98 23.312,16.909C23.312,18.838 22.545,20.688 21.182,22.052C19.818,23.416 17.968,24.182 16.039,24.182ZM16.039,6C8.97,6 2.628,10.364 0.039,16.909C3.515,25.753 13.494,30.087 22.337,26.611C26.774,24.865 30.294,21.36 32.039,16.909C29.45,10.364 23.108,6 16.039,6Z" fill="#006FFD"/>
</mask>
<rect  x="0.039" y="0.909" width="32" height="32" fill="#8F9098"/>
</svg>
