<svg width="32" height="34" viewBox="0 0 32 34" fill="none" xmlns="http://www.w3.org/2000/svg" xmlns:xlink="http://www.w3.org/1999/xlink">
<mask id="mask_0_i_259_6084;38_1819;36_1805" style="mask-type:alpha" maskUnits="userSpaceOnUse" x="-0.473633" y="5.355469" width="16" height="10.90527">
<path d="M15.526,11.901C14.369,11.901 13.259,12.361 12.441,13.179C11.622,13.997 11.163,15.107 11.163,16.265C11.163,17.422 11.622,18.532 12.441,19.35C13.259,20.168 14.369,20.628 15.526,20.628C16.684,20.628 17.794,20.168 18.612,19.35C19.43,18.532 19.89,17.422 19.89,16.265C19.89,15.107 19.43,13.997 18.612,13.179C17.794,12.361 16.684,11.901 15.526,11.901ZM15.526,23.537C13.598,23.537 11.748,22.771 10.384,21.407C9.02,20.043 8.254,18.193 8.254,16.265C8.254,14.336 9.02,12.486 10.384,11.122C11.748,9.758 13.598,8.992 15.526,8.992C17.455,8.992 19.305,9.758 20.669,11.122C22.033,12.486 22.799,14.336 22.799,16.265C22.799,18.193 22.033,20.043 20.669,21.407C19.305,22.771 17.455,23.537 15.526,23.537ZM15.526,5.355C8.457,5.355 2.115,9.719 -0.474,16.265C3.003,25.108 12.981,29.443 21.825,25.966C26.261,24.221 29.781,20.715 31.526,16.265C28.937,9.719 22.595,5.355 15.526,5.355Z" fill="#006FFD"/>
</mask>
<rect  x="-0.474" y="0.264" width="32" height="32" fill="#8F9098"/>
</svg>
