<svg width="32" height="32" viewBox="0 0 32 32" fill="none" xmlns="http://www.w3.org/2000/svg" xmlns:xlink="http://www.w3.org/1999/xlink">
<mask id="mask_0_i_248_4134;38_1819;36_1805" style="mask-type:alpha" maskUnits="userSpaceOnUse" x="-0.131836" y="5.091187" width="16" height="10.90527">
<path d="M15.868,11.637C14.711,11.637 13.601,12.096 12.783,12.915C11.964,13.733 11.505,14.843 11.505,16C11.505,17.158 11.964,18.267 12.783,19.086C13.601,19.904 14.711,20.364 15.868,20.364C17.025,20.364 18.135,19.904 18.954,19.086C19.772,18.267 20.232,17.158 20.232,16C20.232,14.843 19.772,13.733 18.954,12.915C18.135,12.096 17.025,11.637 15.868,11.637ZM15.868,23.273C13.939,23.273 12.089,22.507 10.726,21.143C9.362,19.779 8.595,17.929 8.595,16C8.595,14.071 9.362,12.222 10.726,10.858C12.089,9.494 13.939,8.728 15.868,8.728C17.797,8.728 19.647,9.494 21.011,10.858C22.375,12.222 23.141,14.071 23.141,16C23.141,17.929 22.375,19.779 21.011,21.143C19.647,22.507 17.797,23.273 15.868,23.273ZM15.868,5.091C8.799,5.091 2.457,9.455 -0.132,16C3.345,24.844 13.323,29.178 22.166,25.702C26.603,23.957 30.123,20.451 31.868,16C29.279,9.455 22.937,5.091 15.868,5.091Z" fill="#006FFD"/>
</mask>
<rect  x="-0.132" y="0" width="32" height="32" fill="#8F9098"/>
</svg>
