<svg width="48" height="48" viewBox="0 0 48 48" fill="none" xmlns="http://www.w3.org/2000/svg" xmlns:xlink="http://www.w3.org/1999/xlink">
<mask id="mask_0_243_3030" style="mask-type:alpha" maskUnits="userSpaceOnUse" x="-0.728516" y="7.635742" width="24" height="16.357904">
<path d="M23.271,17.454C21.535,17.454 19.871,18.144 18.643,19.371C17.416,20.599 16.726,22.263 16.726,23.999C16.726,25.735 17.416,27.4 18.643,28.628C19.871,29.855 21.535,30.545 23.271,30.545C25.007,30.545 26.672,29.855 27.9,28.628C29.127,27.4 29.817,25.735 29.817,23.999C29.817,22.263 29.127,20.599 27.9,19.371C26.672,18.144 25.007,17.454 23.271,17.454ZM23.271,34.909C20.378,34.909 17.603,33.759 15.558,31.713C13.512,29.667 12.362,26.893 12.362,23.999C12.362,21.106 13.512,18.331 15.558,16.285C17.603,14.24 20.378,13.09 23.271,13.09C26.165,13.09 28.939,14.24 30.985,16.285C33.031,18.331 34.18,21.106 34.18,23.999C34.18,26.893 33.031,29.667 30.985,31.713C28.939,33.759 26.165,34.909 23.271,34.909ZM23.271,7.636C12.668,7.636 3.155,14.181 -0.729,23.999C4.486,37.265 19.453,43.767 32.719,38.552C39.373,35.934 44.653,30.676 47.271,23.999C43.388,14.181 33.875,7.636 23.271,7.636Z" fill="#006FFD"/>
</mask>
<rect  x="-0.729" y="-0.001" width="48" height="48" fill="#006FFD"/>
</svg>
