<svg width="32" height="32" viewBox="0 0 32 32" fill="none" xmlns="http://www.w3.org/2000/svg" xmlns:xlink="http://www.w3.org/1999/xlink">
<mask id="mask_0_i_263_4235;38_1819;36_1805" style="mask-type:alpha" maskUnits="userSpaceOnUse" x="-0.157227" y="4.219727" width="16" height="10.90527">
<path d="M15.843,10.765C14.685,10.765 13.576,11.225 12.757,12.043C11.939,12.862 11.479,13.972 11.479,15.129C11.479,16.286 11.939,17.396 12.757,18.214C13.576,19.033 14.685,19.492 15.843,19.492C17,19.492 18.11,19.033 18.928,18.214C19.747,17.396 20.206,16.286 20.206,15.129C20.206,13.972 19.747,12.862 18.928,12.043C18.11,11.225 17,10.765 15.843,10.765ZM15.843,22.402C13.914,22.402 12.064,21.635 10.7,20.271C9.336,18.908 8.57,17.058 8.57,15.129C8.57,13.2 9.336,11.35 10.7,9.986C12.064,8.622 13.914,7.856 15.843,7.856C17.772,7.856 19.621,8.622 20.985,9.986C22.349,11.35 23.116,13.2 23.116,15.129C23.116,17.058 22.349,18.908 20.985,20.271C19.621,21.635 17.772,22.402 15.843,22.402ZM15.843,4.22C8.774,4.22 2.432,8.583 -0.157,15.129C3.319,23.972 13.297,28.307 22.141,24.831C26.577,23.085 30.097,19.58 31.843,15.129C29.254,8.583 22.912,4.22 15.843,4.22Z" fill="#006FFD"/>
</mask>
<rect  x="-0.157" y="-0.872" width="32" height="32" fill="#8F9098"/>
</svg>
