<svg width="34" height="34" viewBox="0 0 34 34" fill="none" xmlns="http://www.w3.org/2000/svg" xmlns:xlink="http://www.w3.org/1999/xlink">
<mask id="mask_0_i_256_4883;38_1819;36_1805" style="mask-type:alpha" maskUnits="userSpaceOnUse" x="0.001953" y="5.129395" width="16" height="10.90527">
<path d="M16.002,11.675C14.845,11.675 13.735,12.135 12.916,12.953C12.098,13.771 11.638,14.881 11.638,16.038C11.638,17.196 12.098,18.306 12.916,19.124C13.735,19.942 14.845,20.402 16.002,20.402C17.159,20.402 18.269,19.942 19.088,19.124C19.906,18.306 20.366,17.196 20.366,16.038C20.366,14.881 19.906,13.771 19.088,12.953C18.269,12.135 17.159,11.675 16.002,11.675ZM16.002,23.311C14.073,23.311 12.223,22.545 10.859,21.181C9.495,19.817 8.729,17.967 8.729,16.038C8.729,14.11 9.495,12.26 10.859,10.896C12.223,9.532 14.073,8.766 16.002,8.766C17.931,8.766 19.781,9.532 21.145,10.896C22.508,12.26 23.275,14.11 23.275,16.038C23.275,17.967 22.508,19.817 21.145,21.181C19.781,22.545 17.931,23.311 16.002,23.311ZM16.002,5.129C8.933,5.129 2.591,9.493 0.002,16.038C3.478,24.882 13.456,29.217 22.3,25.74C26.737,23.995 30.257,20.489 32.002,16.038C29.413,9.493 23.071,5.129 16.002,5.129Z" fill="#006FFD"/>
</mask>
<rect  x="0.002" y="0.038" width="32" height="32" fill="#8F9098"/>
</svg>
