<svg width="32" height="32" viewBox="0 0 32 32" fill="none" xmlns="http://www.w3.org/2000/svg" xmlns:xlink="http://www.w3.org/1999/xlink">
<mask id="mask_0_i_259_6011;38_1819;36_1805" style="mask-type:alpha" maskUnits="userSpaceOnUse" x="-0.473633" y="4.403809" width="16" height="10.90527">
<path d="M15.526,10.949C14.369,10.949 13.259,11.409 12.441,12.227C11.622,13.046 11.163,14.156 11.163,15.313C11.163,16.47 11.622,17.58 12.441,18.398C13.259,19.217 14.369,19.677 15.526,19.677C16.684,19.677 17.794,19.217 18.612,18.398C19.43,17.58 19.89,16.47 19.89,15.313C19.89,14.156 19.43,13.046 18.612,12.227C17.794,11.409 16.684,10.949 15.526,10.949ZM15.526,22.586C13.598,22.586 11.748,21.819 10.384,20.455C9.02,19.092 8.254,17.242 8.254,15.313C8.254,13.384 9.02,11.534 10.384,10.17C11.748,8.806 13.598,8.04 15.526,8.04C17.455,8.04 19.305,8.806 20.669,10.17C22.033,11.534 22.799,13.384 22.799,15.313C22.799,17.242 22.033,19.092 20.669,20.455C19.305,21.819 17.455,22.586 15.526,22.586ZM15.526,4.404C8.457,4.404 2.115,8.767 -0.474,15.313C3.003,24.157 12.981,28.491 21.825,25.015C26.261,23.269 29.781,19.764 31.526,15.313C28.937,8.767 22.595,4.404 15.526,4.404Z" fill="#006FFD"/>
</mask>
<rect  x="-0.474" y="-0.688" width="32" height="32" fill="#8F9098"/>
</svg>
