<svg width="34" height="32" viewBox="0 0 34 32" fill="none" xmlns="http://www.w3.org/2000/svg" xmlns:xlink="http://www.w3.org/1999/xlink">
<mask id="mask_0_i_263_4234;38_1819;36_1805" style="mask-type:alpha" maskUnits="userSpaceOnUse" x="0.868652" y="5.091309" width="16" height="10.90527">
<path d="M16.869,11.637C15.711,11.637 14.601,12.097 13.783,12.915C12.965,13.733 12.505,14.843 12.505,16C12.505,17.158 12.965,18.268 13.783,19.086C14.601,19.904 15.711,20.364 16.869,20.364C18.026,20.364 19.136,19.904 19.954,19.086C20.773,18.268 21.232,17.158 21.232,16C21.232,14.843 20.773,13.733 19.954,12.915C19.136,12.097 18.026,11.637 16.869,11.637ZM16.869,23.273C14.94,23.273 13.09,22.507 11.726,21.143C10.362,19.779 9.596,17.929 9.596,16C9.596,14.072 10.362,12.222 11.726,10.858C13.09,9.494 14.94,8.728 16.869,8.728C18.797,8.728 20.647,9.494 22.011,10.858C23.375,12.222 24.141,14.072 24.141,16C24.141,17.929 23.375,19.779 22.011,21.143C20.647,22.507 18.797,23.273 16.869,23.273ZM16.869,5.091C9.8,5.091 3.458,9.455 0.869,16C4.345,24.844 14.323,29.179 23.167,25.702C27.603,23.957 31.123,20.451 32.869,16C30.28,9.455 23.938,5.091 16.869,5.091Z" fill="#006FFD"/>
</mask>
<rect  x="0.869" y="0" width="32" height="32" fill="#8F9098"/>
</svg>
