<svg width="32" height="32" viewBox="0 0 32 32" fill="none" xmlns="http://www.w3.org/2000/svg" xmlns:xlink="http://www.w3.org/1999/xlink">
<mask id="mask_0_i_251_5835;38_1819;36_1805" style="mask-type:alpha" maskUnits="userSpaceOnUse" x="-0.473633" y="4.561523" width="16" height="10.90527">
<path d="M15.526,11.107C14.369,11.107 13.259,11.567 12.441,12.385C11.622,13.203 11.163,14.313 11.163,15.471C11.163,16.628 11.622,17.738 12.441,18.556C13.259,19.375 14.369,19.834 15.526,19.834C16.684,19.834 17.794,19.375 18.612,18.556C19.43,17.738 19.89,16.628 19.89,15.471C19.89,14.313 19.43,13.203 18.612,12.385C17.794,11.567 16.684,11.107 15.526,11.107ZM15.526,22.743C13.598,22.743 11.748,21.977 10.384,20.613C9.02,19.249 8.254,17.399 8.254,15.471C8.254,13.542 9.02,11.692 10.384,10.328C11.748,8.964 13.598,8.198 15.526,8.198C17.455,8.198 19.305,8.964 20.669,10.328C22.033,11.692 22.799,13.542 22.799,15.471C22.799,17.399 22.033,19.249 20.669,20.613C19.305,21.977 17.455,22.743 15.526,22.743ZM15.526,4.562C8.457,4.562 2.115,8.925 -0.474,15.471C3.003,24.314 12.981,28.649 21.825,25.173C26.261,23.427 29.781,19.922 31.526,15.471C28.937,8.925 22.595,4.562 15.526,4.562Z" fill="#006FFD"/>
</mask>
<rect  x="-0.474" y="-0.53" width="32" height="32" fill="#8F9098"/>
</svg>
