<svg width="32" height="32" viewBox="0 0 32 32" fill="none" xmlns="http://www.w3.org/2000/svg" xmlns:xlink="http://www.w3.org/1999/xlink">
<mask id="mask_0_i_248_4103;38_1819;36_1805" style="mask-type:alpha" maskUnits="userSpaceOnUse" x="-0.556641" y="4.609375" width="16" height="10.90527">
<path d="M15.443,11.155C14.286,11.155 13.176,11.615 12.358,12.433C11.539,13.251 11.08,14.361 11.08,15.518C11.08,16.676 11.539,17.786 12.358,18.604C13.176,19.422 14.286,19.882 15.443,19.882C16.601,19.882 17.711,19.422 18.529,18.604C19.347,17.786 19.807,16.676 19.807,15.518C19.807,14.361 19.347,13.251 18.529,12.433C17.711,11.615 16.601,11.155 15.443,11.155ZM15.443,22.791C13.515,22.791 11.665,22.025 10.301,20.661C8.937,19.297 8.171,17.447 8.171,15.518C8.171,13.59 8.937,11.74 10.301,10.376C11.665,9.012 13.515,8.246 15.443,8.246C17.372,8.246 19.222,9.012 20.586,10.376C21.95,11.74 22.716,13.59 22.716,15.518C22.716,17.447 21.95,19.297 20.586,20.661C19.222,22.025 17.372,22.791 15.443,22.791ZM15.443,4.609C8.374,4.609 2.032,8.973 -0.557,15.518C2.92,24.362 12.898,28.697 21.742,25.22C26.178,23.475 29.698,19.969 31.443,15.518C28.854,8.973 22.512,4.609 15.443,4.609Z" fill="#006FFD"/>
</mask>
<rect  x="-0.557" y="-0.482" width="32" height="32" fill="#8F9098"/>
</svg>
