<svg width="48" height="48" viewBox="0 0 48 48" fill="none" xmlns="http://www.w3.org/2000/svg" xmlns:xlink="http://www.w3.org/1999/xlink">
<path d="M29.66,23C29.66,26.131 27.132,28.66 24,28.66L24,31.66C28.789,31.66 32.66,27.788 32.66,23L29.66,23ZM24,28.66C20.869,28.66 18.34,26.131 18.34,23L15.34,23C15.34,27.788 19.212,31.66 24,31.66L24,28.66ZM18.34,23C18.34,19.868 20.869,17.34 24,17.34L24,14.34C19.212,14.34 15.34,18.211 15.34,23L18.34,23ZM24,17.34C27.132,17.34 29.66,19.868 29.66,23L32.66,23C32.66,18.211 28.789,14.34 24,14.34L24,17.34Z" transform="rotate(0 24 23)" fill="#C2C2C2"/>
<path d="M42.22,28.18L40.956,27.373L40.954,27.375L42.22,28.18ZM42.22,17.8L40.954,18.605L40.956,18.607L42.22,17.8ZM5.78,17.8L7.044,18.607L7.046,18.605L5.78,17.8ZM5.78,28.18L7.046,27.375L7.044,27.373L5.78,28.18ZM24,41.04C31.696,41.04 38.704,36.502 43.486,28.985L40.954,27.375C36.576,34.258 30.424,38.04 24,38.04L24,41.04ZM43.484,28.987C44.575,27.278 45.07,25.088 45.07,22.99C45.07,20.891 44.575,18.702 43.484,16.993L40.956,18.607C41.665,19.718 42.07,21.308 42.07,22.99C42.07,24.671 41.665,26.262 40.956,27.373L43.484,28.987ZM43.486,16.995C38.704,9.478 31.696,4.94 24,4.94L24,7.94C30.424,7.94 36.576,11.722 40.954,18.605L43.486,16.995ZM24,4.94C16.304,4.94 9.296,9.478 4.514,16.995L7.046,18.605C11.424,11.722 17.576,7.94 24,7.94L24,4.94ZM4.516,16.993C3.425,18.702 2.93,20.891 2.93,22.99C2.93,25.088 3.425,27.278 4.516,28.987L7.044,27.373C6.335,26.262 5.93,24.671 5.93,22.99C5.93,21.308 6.335,19.718 7.044,18.607L4.516,16.993ZM4.514,28.985C9.296,36.502 16.304,41.04 24,41.04L24,38.04C17.576,38.04 11.424,34.258 7.046,27.375L4.514,28.985Z" transform="rotate(0 24 22.99)" fill="#C2C2C2"/>
</svg>
