<svg width="32" height="32" viewBox="0 0 32 32" fill="none" xmlns="http://www.w3.org/2000/svg" xmlns:xlink="http://www.w3.org/1999/xlink">
<mask id="mask_0_i_259_6042;38_1819;36_1805" style="mask-type:alpha" maskUnits="userSpaceOnUse" x="-0.421875" y="4.723145" width="16" height="10.90527">
<path d="M15.578,11.269C14.421,11.269 13.311,11.728 12.493,12.547C11.674,13.365 11.214,14.475 11.214,15.632C11.214,16.79 11.674,17.899 12.493,18.718C13.311,19.536 14.421,19.996 15.578,19.996C16.735,19.996 17.845,19.536 18.664,18.718C19.482,17.899 19.942,16.79 19.942,15.632C19.942,14.475 19.482,13.365 18.664,12.547C17.845,11.728 16.735,11.269 15.578,11.269ZM15.578,22.905C13.649,22.905 11.799,22.139 10.436,20.775C9.072,19.411 8.305,17.561 8.305,15.632C8.305,13.703 9.072,11.854 10.436,10.49C11.799,9.126 13.649,8.36 15.578,8.36C17.507,8.36 19.357,9.126 20.721,10.49C22.085,11.854 22.851,13.703 22.851,15.632C22.851,17.561 22.085,19.411 20.721,20.775C19.357,22.139 17.507,22.905 15.578,22.905ZM15.578,4.723C8.509,4.723 2.167,9.087 -0.422,15.632C3.054,24.476 13.033,28.81 21.876,25.334C26.313,23.589 29.833,20.083 31.578,15.632C28.989,9.087 22.647,4.723 15.578,4.723Z" fill="#006FFD"/>
</mask>
<rect  x="-0.422" y="-0.368" width="32" height="32" fill="#8F9098"/>
</svg>
