<svg width="48" height="48" viewBox="0 0 48 48" fill="none" xmlns="http://www.w3.org/2000/svg" xmlns:xlink="http://www.w3.org/1999/xlink">
<mask id="mask_0_267_5341" style="mask-type:alpha" maskUnits="userSpaceOnUse" x="11.607422" y="-0.000977" width="11.664887" height="24">
<path d="M17.563,47.999L17.563,25.476L11.607,25.476L11.607,17.367L17.563,17.367L17.563,10.44C17.563,4.997 21.081,-0.001 29.187,-0.001C32.469,-0.001 34.896,0.314 34.896,0.314L34.705,7.886C34.705,7.886 32.23,7.862 29.529,7.862C26.606,7.862 26.137,9.209 26.137,11.445L26.137,17.367L34.937,17.367L34.554,25.476L26.137,25.476L26.137,47.999L17.563,47.999Z" fill="#006FFD"/>
</mask>
<rect  x="-0.725" y="-0.001" width="48" height="48" fill="#006FFD"/>
</svg>
