<svg width="90" height="90" viewBox="0 0 90 90" fill="none" xmlns="http://www.w3.org/2000/svg" xmlns:xlink="http://www.w3.org/1999/xlink">
<path d="M89.528,44.387C89.528,41.626 87.29,39.387 84.528,39.387C81.767,39.387 79.528,41.626 79.528,44.387L89.528,44.387ZM44.528,9.387C47.29,9.387 49.528,7.148 49.528,4.387C49.528,1.626 47.29,-0.613 44.528,-0.613L44.528,9.387ZM79.528,44.387C79.528,51.309 77.476,58.076 73.63,63.832L81.945,69.388C86.889,61.987 89.528,53.287 89.528,44.387L79.528,44.387ZM73.63,63.832C69.784,69.588 64.318,74.074 57.922,76.723L61.749,85.962C69.972,82.556 77,76.788 81.945,69.388L73.63,63.832ZM57.922,76.723C51.527,79.372 44.49,80.065 37.7,78.714L35.749,88.522C44.478,90.259 53.526,89.368 61.749,85.962L57.922,76.723ZM37.7,78.714C30.911,77.364 24.674,74.031 19.78,69.136L12.709,76.207C19.002,82.5 27.02,86.786 35.749,88.522L37.7,78.714ZM19.78,69.136C14.885,64.241 11.551,58.004 10.201,51.215L0.393,53.166C2.129,61.895 6.415,69.913 12.709,76.207L19.78,69.136ZM10.201,51.215C8.85,44.426 9.543,37.388 12.193,30.993L2.954,27.166C-0.452,35.389 -1.343,44.437 0.393,53.166L10.201,51.215ZM12.193,30.993C14.842,24.598 19.328,19.131 25.083,15.286L19.528,6.971C12.127,11.916 6.36,18.944 2.954,27.166L12.193,30.993ZM25.083,15.286C30.839,11.44 37.606,9.387 44.528,9.387L44.528,-0.613C35.628,-0.613 26.928,2.026 19.528,6.971L25.083,15.286Z" transform="rotate(-180 44.528 44.387)" fill="#006FFD"/>
</svg>
