<svg width="74" height="74" viewBox="0 0 74 74" fill="none" xmlns="http://www.w3.org/2000/svg" xmlns:xlink="http://www.w3.org/1999/xlink">
<path d="M73.911,36C73.911,33.239 71.673,31 68.911,31C66.15,31 63.911,33.239 63.911,36L73.911,36ZM36.911,9C39.673,9 41.911,6.761 41.911,4C41.911,1.239 39.673,-1 36.911,-1L36.911,9ZM63.911,36C63.911,41.34 62.328,46.56 59.361,51L67.676,56.556C71.741,50.471 73.911,43.318 73.911,36L63.911,36ZM59.361,51C56.394,55.441 52.177,58.901 47.244,60.945L51.07,70.184C57.831,67.383 63.61,62.641 67.676,56.556L59.361,51ZM47.244,60.945C42.31,62.988 36.881,63.523 31.644,62.481L29.693,72.289C36.87,73.717 44.31,72.984 51.07,70.184L47.244,60.945ZM31.644,62.481C26.406,61.439 21.595,58.868 17.819,55.092L10.748,62.163C15.923,67.337 22.515,70.861 29.693,72.289L31.644,62.481ZM17.819,55.092C14.043,51.316 11.472,46.505 10.43,41.267L0.622,43.218C2.05,50.396 5.574,56.988 10.748,62.163L17.819,55.092ZM10.43,41.267C9.388,36.03 9.923,30.601 11.966,25.668L2.728,21.841C-0.073,28.602 -0.806,36.041 0.622,43.218L10.43,41.267ZM11.966,25.668C14.01,20.734 17.471,16.517 21.911,13.55L16.355,5.236C10.27,9.301 5.528,15.08 2.728,21.841L11.966,25.668ZM21.911,13.55C26.351,10.584 31.571,9 36.911,9L36.911,-1C29.593,-1 22.44,1.17 16.355,5.236L21.911,13.55Z" transform="rotate(-180 36.911 36)" fill="#006FFD"/>
</svg>
