<svg width="76" height="42" viewBox="0 0 76 42" fill="none" xmlns="http://www.w3.org/2000/svg" xmlns:xlink="http://www.w3.org/1999/xlink">
<path d="M74.558,4C74.558,1.239 72.319,-1 69.558,-1C66.796,-1 64.558,1.239 64.558,4L74.558,4ZM37.558,36L37.558,31L37.558,36ZM10.558,4C10.558,1.239 8.319,-1 5.558,-1C2.796,-1 0.558,1.239 0.558,4L10.558,4ZM64.558,4C64.558,7.546 63.859,11.057 62.502,14.332L71.741,18.159C73.601,13.67 74.558,8.859 74.558,4L64.558,4ZM62.502,14.332C61.145,17.608 59.157,20.585 56.649,23.092L63.721,30.163C67.156,26.727 69.882,22.648 71.741,18.159L62.502,14.332ZM56.649,23.092C54.142,25.599 51.166,27.588 47.89,28.945L51.717,38.184C56.206,36.324 60.285,33.599 63.721,30.163L56.649,23.092ZM47.89,28.945C44.614,30.302 41.103,31 37.558,31L37.558,41C42.417,41 47.228,40.043 51.717,38.184L47.89,28.945ZM37.558,31C34.012,31 30.501,30.302 27.225,28.945L23.398,38.184C27.887,40.043 32.699,41 37.558,41L37.558,31ZM27.225,28.945C23.949,27.588 20.973,25.599 18.466,23.092L11.395,30.163C14.83,33.599 18.909,36.324 23.398,38.184L27.225,28.945ZM18.466,23.092C15.959,20.585 13.97,17.608 12.613,14.332L3.374,18.159C5.233,22.648 7.959,26.727 11.395,30.163L18.466,23.092ZM12.613,14.332C11.256,11.057 10.558,7.546 10.558,4L0.558,4C0.558,8.859 1.515,13.67 3.374,18.159L12.613,14.332Z" transform="rotate(-180 37.558 20)" fill="#006FFD"/>
</svg>
