<svg width="44" height="44" viewBox="0 0 44 44" fill="none" xmlns="http://www.w3.org/2000/svg" xmlns:xlink="http://www.w3.org/1999/xlink">
<path d="M42.558,6C42.558,3.239 40.319,1 37.558,1C34.796,1 32.558,3.239 32.558,6L42.558,6ZM5.558,33C2.796,33 0.558,35.239 0.558,38C0.558,40.761 2.796,43 5.558,43L5.558,33ZM32.558,6C32.558,9.546 31.859,13.057 30.502,16.332L39.741,20.159C41.601,15.67 42.558,10.859 42.558,6L32.558,6ZM30.502,16.332C29.145,19.608 27.157,22.585 24.649,25.092L31.721,32.163C35.156,28.727 37.882,24.648 39.741,20.159L30.502,16.332ZM24.649,25.092C22.142,27.599 19.166,29.588 15.89,30.945L19.717,40.184C24.206,38.324 28.285,35.599 31.721,32.163L24.649,25.092ZM15.89,30.945C12.614,32.302 9.103,33 5.558,33L5.558,43C10.417,43 15.228,42.043 19.717,40.184L15.89,30.945Z" transform="rotate(-180 21.558 22)" fill="#006FFD"/>
</svg>
