<svg width="20" height="34" viewBox="0 0 20 34" fill="none" xmlns="http://www.w3.org/2000/svg" xmlns:xlink="http://www.w3.org/1999/xlink">
<path d="M18.558,5.373C18.558,2.611 16.319,0.373 13.558,0.373C10.796,0.373 8.558,2.611 8.558,5.373L18.558,5.373ZM0.649,24.464C-1.303,26.417 -1.303,29.583 0.649,31.536C2.602,33.488 5.768,33.488 7.721,31.536L0.649,24.464ZM8.558,5.373C8.558,8.918 7.859,12.429 6.502,15.705L15.741,19.532C17.601,15.043 18.558,10.231 18.558,5.373L8.558,5.373ZM6.502,15.705C5.145,18.981 3.157,21.957 0.649,24.464L7.721,31.536C11.156,28.1 13.882,24.021 15.741,19.532L6.502,15.705Z" transform="rotate(-180 8.871 16.686)" fill="#006FFD"/>
</svg>
