<svg width="74" height="66" viewBox="0 0 74 66" fill="none" xmlns="http://www.w3.org/2000/svg" xmlns:xlink="http://www.w3.org/1999/xlink">
<path d="M73.244,27.314C73.244,24.552 71.006,22.314 68.244,22.314C65.483,22.314 63.244,24.552 63.244,27.314L73.244,27.314ZM17.152,8.222C19.105,6.269 19.105,3.103 17.152,1.151C15.2,-0.802 12.034,-0.802 10.081,1.151L17.152,8.222ZM63.244,27.314C63.244,31.754 62.149,36.125 60.056,40.041L68.875,44.755C71.744,39.389 73.244,33.398 73.244,27.314L63.244,27.314ZM60.056,40.041C57.963,43.957 54.937,47.296 51.245,49.763L56.8,58.078C61.86,54.698 66.007,50.122 68.875,44.755L60.056,40.041ZM51.245,49.763C47.553,52.23 43.31,53.748 38.891,54.184L39.871,64.135C45.926,63.539 51.741,61.458 56.8,58.078L51.245,49.763ZM38.891,54.184C34.472,54.619 30.014,53.958 25.912,52.258L22.085,61.497C27.707,63.826 33.816,64.732 39.871,64.135L38.891,54.184ZM25.912,52.258C21.81,50.559 18.19,47.875 15.373,44.442L7.643,50.786C11.503,55.49 16.464,59.169 22.085,61.497L25.912,52.258ZM15.373,44.442C12.556,41.01 10.629,36.936 9.763,32.581L-0.045,34.532C1.142,40.5 3.783,46.083 7.643,50.786L15.373,44.442ZM9.763,32.581C8.897,28.226 9.118,23.725 10.407,19.476L0.838,16.573C-0.929,22.396 -1.232,28.564 -0.045,34.532L9.763,32.581ZM10.407,19.476C11.696,15.227 14.013,11.362 17.152,8.222L10.081,1.151C5.779,5.453 2.604,10.75 0.838,16.573L10.407,19.476Z" transform="rotate(-180 36.244 32)" fill="#006FFD"/>
</svg>
