<svg width="92" height="92" viewBox="0 0 92 92" fill="none" xmlns="http://www.w3.org/2000/svg" xmlns:xlink="http://www.w3.org/1999/xlink">
<path d="M91,45.385C91,42.624 88.761,40.385 86,40.385C83.239,40.385 81,42.624 81,45.385L91,45.385ZM46,10.385C48.761,10.385 51,8.147 51,5.385C51,2.624 48.761,0.385 46,0.385L46,10.385ZM81,45.385C81,52.308 78.947,59.075 75.101,64.83L83.416,70.386C88.361,62.986 91,54.286 91,45.385L81,45.385ZM75.101,64.83C71.256,70.586 65.789,75.072 59.394,77.721L63.221,86.96C71.443,83.554 78.471,77.786 83.416,70.386L75.101,64.83ZM59.394,77.721C52.999,80.37 45.961,81.063 39.172,79.713L37.221,89.521C45.95,91.257 54.998,90.366 63.221,86.96L59.394,77.721ZM39.172,79.713C32.383,78.362 26.146,75.029 21.251,70.134L14.18,77.205C20.474,83.499 28.492,87.784 37.221,89.521L39.172,79.713ZM21.251,70.134C16.356,65.239 13.023,59.003 11.673,52.214L1.865,54.164C3.601,62.894 7.887,70.912 14.18,77.205L21.251,70.134ZM11.673,52.214C10.322,45.424 11.015,38.387 13.664,31.991L4.425,28.165C1.019,36.387 0.128,45.435 1.865,54.164L11.673,52.214ZM13.664,31.991C16.313,25.596 20.799,20.13 26.555,16.284L20.999,7.969C13.599,12.914 7.831,19.942 4.425,28.165L13.664,31.991ZM26.555,16.284C32.311,12.438 39.078,10.385 46,10.385L46,0.385C37.1,0.385 28.4,3.025 20.999,7.969L26.555,16.284Z" transform="rotate(-180 46 45.385)" fill="#006FFD"/>
</svg>
