<svg width="76" height="76" viewBox="0 0 76 76" fill="none" xmlns="http://www.w3.org/2000/svg" xmlns:xlink="http://www.w3.org/1999/xlink">
<path d="M74.558,38C74.558,35.239 72.319,33 69.558,33C66.796,33 64.558,35.239 64.558,38L74.558,38ZM56.649,18.908C58.602,20.861 61.768,20.861 63.721,18.908C65.673,16.956 65.673,13.79 63.721,11.837L56.649,18.908ZM64.558,38C64.558,44.247 62.392,50.3 58.429,55.129L66.159,61.473C71.589,54.855 74.558,46.56 74.558,38L64.558,38ZM58.429,55.129C54.466,59.957 48.952,63.263 42.825,64.481L44.776,74.289C53.172,72.619 60.728,68.09 66.159,61.473L58.429,55.129ZM42.825,64.481C36.698,65.7 30.339,64.756 24.83,61.812L20.116,70.631C27.665,74.666 36.38,75.959 44.776,74.289L42.825,64.481ZM24.83,61.812C19.321,58.867 15.003,54.104 12.613,48.332L3.374,52.159C6.65,60.068 12.567,66.596 20.116,70.631L24.83,61.812ZM12.613,48.332C10.222,42.561 9.907,36.14 11.72,30.162L2.151,27.259C-0.334,35.451 0.098,44.251 3.374,52.159L12.613,48.332ZM11.72,30.162C13.534,24.185 17.363,19.021 22.557,15.55L17.002,7.236C9.884,11.991 4.636,19.068 2.151,27.259L11.72,30.162ZM22.557,15.55C27.751,12.08 33.988,10.518 40.204,11.13L41.184,1.178C32.665,0.339 24.119,2.48 17.002,7.236L22.557,15.55ZM40.204,11.13C46.421,11.742 52.232,14.491 56.649,18.908L63.721,11.837C57.668,5.784 49.703,2.017 41.184,1.178L40.204,11.13Z" transform="rotate(-180 37.558 38)" fill="#006FFD"/>
</svg>
