<svg width="48" height="48" viewBox="0 0 48 48" fill="none" xmlns="http://www.w3.org/2000/svg" xmlns:xlink="http://www.w3.org/1999/xlink">
<mask id="mask_0_283_6034" style="mask-type:alpha" maskUnits="userSpaceOnUse" x="3.271484" y="5.998901" width="19.999996" height="18.198334">
<path d="M3.271,8.999C3.271,8.203 3.573,7.44 4.108,6.878C4.644,6.315 5.371,5.999 6.129,5.999L40.414,5.999C41.172,5.999 41.899,6.315 42.435,6.878C42.97,7.44 43.271,8.203 43.271,8.999C43.271,9.795 42.97,10.558 42.435,11.12C41.899,11.683 41.172,11.999 40.414,11.999L6.129,11.999C5.371,11.999 4.644,11.683 4.108,11.12C3.573,10.558 3.271,9.795 3.271,8.999ZM9.567,23.999C9.567,23.203 9.868,22.44 10.404,21.878C10.94,21.315 11.667,20.999 12.424,20.999L34.257,20.999C35.015,20.999 35.742,21.315 36.278,21.878C36.813,22.44 37.114,23.203 37.114,23.999C37.114,24.795 36.813,25.558 36.278,26.12C35.742,26.683 35.015,26.999 34.257,26.999L12.424,26.999C11.667,26.999 10.94,26.683 10.404,26.12C9.868,25.558 9.567,24.795 9.567,23.999ZM16.911,39.396C16.911,38.6 17.212,37.837 17.748,37.274C18.283,36.712 19.01,36.396 19.768,36.396L26.92,36.396C27.677,36.396 28.404,36.712 28.94,37.274C29.476,37.837 29.777,38.6 29.777,39.396C29.777,40.191 29.476,40.954 28.94,41.517C28.404,42.08 27.677,42.396 26.92,42.396L19.768,42.396C19.01,42.396 18.283,42.08 17.748,41.517C17.212,40.954 16.911,40.191 16.911,39.396Z" clip-rule="evenodd" fill-rule="evenodd" fill="#006FFD"/>
</mask>
<rect  x="-0.721" y="-0.003" width="48" height="48" fill="#006FFD"/>
</svg>
