<svg width="48" height="48" viewBox="0 0 48 48" fill="none" xmlns="http://www.w3.org/2000/svg" xmlns:xlink="http://www.w3.org/1999/xlink">
<mask id="mask_0_267_5340" style="mask-type:alpha" maskUnits="userSpaceOnUse" x="1.712891" y="1.999023" width="21.558615" height="22">
<path d="M44.405,19.873C44.68,21.346 44.83,22.886 44.83,24.493C44.83,37.062 36.418,45.999 23.713,45.999C20.824,46 17.962,45.431 15.293,44.326C12.623,43.221 10.198,41.6 8.155,39.557C6.112,37.514 4.491,35.089 3.386,32.419C2.28,29.75 1.712,26.888 1.713,23.999C1.712,21.11 2.28,18.249 3.386,15.579C4.491,12.909 6.112,10.484 8.155,8.441C10.198,6.398 12.623,4.777 15.293,3.672C17.962,2.567 20.824,1.998 23.713,1.999C29.653,1.999 34.617,4.185 38.425,7.734L32.223,13.935L32.223,13.92C29.915,11.721 26.985,10.592 23.713,10.592C16.454,10.592 10.554,16.725 10.554,23.986C10.554,31.244 16.454,37.39 23.713,37.39C30.299,37.39 34.782,33.625 35.703,28.453L23.713,28.453L23.713,19.873L44.408,19.873L44.405,19.873Z" fill="#006FFD"/>
</mask>
<rect  x="-0.725" y="-0.001" width="48" height="48" fill="#006FFD"/>
</svg>
