<svg width="44" height="50" viewBox="0 0 44 50" fill="none" xmlns="http://www.w3.org/2000/svg" xmlns:xlink="http://www.w3.org/1999/xlink">
<path d="M1.704,7.606C0.755,7.606 -0.015,8.375 -0.015,9.325C-0.015,10.274 0.755,11.043 1.704,11.043L1.704,7.606ZM38.577,23.808C38.577,24.757 39.347,25.527 40.296,25.527C41.245,25.527 42.015,24.757 42.015,23.808L38.577,23.808ZM1.704,11.043L33.421,11.043L33.421,7.606L1.704,7.606L1.704,11.043ZM33.421,11.043C36.276,11.043 38.577,13.345 38.577,16.2L42.015,16.2C42.015,11.446 38.174,7.606 33.421,7.606L33.421,11.043ZM38.577,16.2L38.577,23.808L42.015,23.808L42.015,16.2L38.577,16.2Z" transform="rotate(0 21 16.566)" fill="#3B38EB"/>
<path d="M10.161,3.299C10.832,2.628 10.832,1.539 10.161,0.868C9.49,0.197 8.402,0.197 7.73,0.868L10.161,3.299ZM1.704,9.325L0.489,8.11C0.166,8.432 -0.015,8.869 -0.015,9.325C-0.015,9.781 0.166,10.218 0.489,10.54L1.704,9.325ZM7.73,17.782C8.402,18.453 9.49,18.453 10.161,17.782C10.832,17.111 10.832,16.023 10.161,15.352L7.73,17.782ZM7.73,0.868L0.489,8.11L2.919,10.54L10.161,3.299L7.73,0.868ZM0.489,10.54L7.73,17.782L10.161,15.352L2.919,8.11L0.489,10.54Z" transform="rotate(0 5.325 9.325)" fill="#3B38EB"/>
<path d="M40.296,42.394C41.245,42.394 42.015,41.624 42.015,40.675C42.015,39.726 41.245,38.956 40.296,38.956L40.296,42.394ZM3.423,26.192C3.423,25.243 2.653,24.473 1.704,24.473C0.755,24.473 -0.015,25.243 -0.015,26.192L3.423,26.192ZM40.296,38.956L8.579,38.956L8.579,42.394L40.296,42.394L40.296,38.956ZM8.579,38.956C5.724,38.956 3.423,36.655 3.423,33.8L-0.015,33.8C-0.015,38.554 3.826,42.394 8.579,42.394L8.579,38.956ZM3.423,33.8L3.423,26.192L-0.015,26.192L-0.015,33.8L3.423,33.8Z" transform="rotate(0 21 33.434)" fill="#3B38EB"/>
<path d="M31.839,46.701C31.168,47.372 31.168,48.461 31.839,49.132C32.51,49.803 33.598,49.803 34.27,49.132L31.839,46.701ZM40.296,40.675L41.511,41.89C41.834,41.568 42.015,41.131 42.015,40.675C42.015,40.219 41.834,39.782 41.511,39.46L40.296,40.675ZM34.27,32.218C33.598,31.547 32.51,31.547 31.839,32.218C31.168,32.889 31.168,33.977 31.839,34.648L34.27,32.218ZM34.27,49.132L41.511,41.89L39.081,39.46L31.839,46.701L34.27,49.132ZM41.511,39.46L34.27,32.218L31.839,34.648L39.081,41.89L41.511,39.46Z" transform="rotate(0 36.675 40.675)" fill="#3B38EB"/>
</svg>
