<svg width="48" height="48" viewBox="0 0 48 48" fill="none" xmlns="http://www.w3.org/2000/svg" xmlns:xlink="http://www.w3.org/1999/xlink">
<mask id="mask_0_216_4408" style="mask-type:alpha" maskUnits="userSpaceOnUse" x="3.273438" y="5.997559" width="20" height="18">
<path d="M3.273,8.998C3.273,8.202 3.574,7.439 4.11,6.876C4.646,6.314 5.373,5.998 6.131,5.998L40.416,5.998C41.174,5.998 41.901,6.314 42.437,6.876C42.972,7.439 43.273,8.202 43.273,8.998C43.273,9.793 42.972,10.556 42.437,11.119C41.901,11.681 41.174,11.998 40.416,11.998L6.131,11.998C5.373,11.998 4.646,11.681 4.11,11.119C3.574,10.556 3.273,9.793 3.273,8.998ZM3.273,23.998C3.273,23.202 3.574,22.439 4.11,21.876C4.646,21.314 5.373,20.998 6.131,20.998L40.416,20.998C41.174,20.998 41.901,21.314 42.437,21.876C42.972,22.439 43.273,23.202 43.273,23.998C43.273,24.793 42.972,25.556 42.437,26.119C41.901,26.682 41.174,26.998 40.416,26.998L6.131,26.998C5.373,26.998 4.646,26.682 4.11,26.119C3.574,25.556 3.273,24.793 3.273,23.998ZM3.273,38.998C3.273,38.202 3.574,37.439 4.11,36.876C4.646,36.314 5.373,35.998 6.131,35.998L40.416,35.998C41.174,35.998 41.901,36.314 42.437,36.876C42.972,37.439 43.273,38.202 43.273,38.998C43.273,39.793 42.972,40.556 42.437,41.119C41.901,41.682 41.174,41.998 40.416,41.998L6.131,41.998C5.373,41.998 4.646,41.682 4.11,41.119C3.574,40.556 3.273,39.793 3.273,38.998Z" clip-rule="evenodd" fill-rule="evenodd" fill="#006FFD"/>
</mask>
<rect  x="-0.727" y="-0.002" width="48" height="48" fill="#006FFD"/>
</svg>
