<svg width="48" height="48" viewBox="0 0 48 48" fill="none" xmlns="http://www.w3.org/2000/svg" xmlns:xlink="http://www.w3.org/1999/xlink">
<mask id="mask_0_126_522" style="mask-type:alpha" maskUnits="userSpaceOnUse" x="-0.228516" y="2.773682" width="23.5" height="21.225203">
<path d="M-0.229,15.669C-0.229,8.523 5.617,2.774 12.771,2.774C16.541,2.774 19.73,4.791 21.791,6.499C22.343,6.957 22.839,7.413 23.271,7.838C23.703,7.413 24.199,6.957 24.752,6.499C26.813,4.791 30.002,2.774 33.771,2.774C40.926,2.774 46.771,8.523 46.771,15.669C46.771,18.348 46.232,22.703 43.258,27.862C40.292,33.008 34.983,38.818 25.656,44.552L25.646,44.558C24.931,44.994 24.109,45.224 23.271,45.224C22.434,45.224 21.612,44.994 20.897,44.558L20.887,44.552C11.56,38.818 6.251,33.008 3.285,27.862C0.311,22.703 -0.229,18.348 -0.229,15.669ZM25.274,13.07C24.802,13.702 24.06,14.074 23.271,14.074C22.484,14.074 21.742,13.703 21.27,13.072C21.27,13.072 21.269,13.071 21.269,13.07L21.269,13.071L21.27,13.072L21.27,13.072L21.271,13.074C21.272,13.074 21.271,13.073 21.268,13.07L21.243,13.037C21.218,13.004 21.175,12.95 21.117,12.879C21.001,12.736 20.822,12.522 20.588,12.261C20.116,11.737 19.435,11.04 18.6,10.348C16.861,8.907 14.8,7.774 12.771,7.774C8.33,7.774 4.771,11.332 4.771,15.669C4.771,17.624 5.151,21.087 7.617,25.365C10.07,29.62 14.662,34.814 23.271,40.148C31.881,34.814 36.473,29.62 38.926,25.365C41.392,21.087 41.771,17.624 41.771,15.669C41.771,11.332 38.213,7.774 33.771,7.774C31.743,7.774 29.682,8.907 27.942,10.348C27.108,11.04 26.427,11.737 25.955,12.261C25.721,12.522 25.542,12.736 25.425,12.879C25.367,12.95 25.325,13.004 25.3,13.037L25.274,13.07C25.273,13.072 25.272,13.073 25.272,13.073L25.272,13.072L25.273,13.071L25.274,13.07Z" clip-rule="evenodd" fill-rule="evenodd" fill="#006FFD"/>
</mask>
<rect  x="-0.729" y="-0.001" width="48" height="48" fill="#006FFD"/>
</svg>
