<svg width="24" height="24" viewBox="0 0 24 24" fill="none" xmlns="http://www.w3.org/2000/svg" xmlns:xlink="http://www.w3.org/1999/xlink">
<mask id="mask_0_i_294_6257;126_526" style="mask-type:alpha" maskUnits="userSpaceOnUse" x="0.25" y="1.387695" width="11.75" height="10.612601">
<path d="M6.75,1.388C3.173,1.388 0.25,4.262 0.25,7.835C0.25,9.175 0.52,11.352 2.007,13.932C3.49,16.505 6.144,19.41 10.808,22.277L10.813,22.28C11.17,22.498 11.581,22.613 12,22.613C12.419,22.613 12.83,22.498 13.187,22.28L13.192,22.277C17.856,19.41 20.51,16.505 21.993,13.932C23.48,11.352 23.75,9.175 23.75,7.835C23.75,4.262 20.827,1.388 17.25,1.388C15.365,1.388 13.771,2.396 12.74,3.25C12.464,3.479 12.216,3.707 12,3.92C11.784,3.707 11.536,3.479 11.26,3.25C10.229,2.396 8.635,1.388 6.75,1.388Z" fill="#006FFD"/>
</mask>
<rect  x="0" y="0" width="24" height="24" fill="#1F2024"/>
</svg>
