<svg width="40" height="42" viewBox="0 0 40 42" fill="none" xmlns="http://www.w3.org/2000/svg" xmlns:xlink="http://www.w3.org/1999/xlink">
<mask id="mask_0_i_240_6351;126_522" style="mask-type:alpha" maskUnits="userSpaceOnUse" x="0.416664" y="2.542236" width="19.583332" height="17.687668">
<path d="M0.417,13.288C0.417,7.333 5.288,2.542 11.25,2.542C14.391,2.542 17.049,4.223 18.766,5.647C19.227,6.028 19.64,6.408 20,6.762C20.36,6.408 20.773,6.028 21.234,5.647C22.951,4.223 25.609,2.542 28.75,2.542C34.712,2.542 39.583,7.333 39.583,13.288C39.583,15.521 39.134,19.15 36.655,23.449C34.183,27.737 29.76,32.579 21.987,37.358L21.979,37.363C21.383,37.726 20.698,37.918 20,37.918C19.302,37.918 18.617,37.726 18.021,37.363L18.013,37.358C10.24,32.579 5.816,27.737 3.345,23.449C0.866,19.15 0.417,15.521 0.417,13.288ZM21.669,11.123C21.276,11.649 20.657,11.959 20,11.959C19.344,11.959 18.726,11.65 18.332,11.124C18.332,11.124 18.332,11.123 18.331,11.123L18.332,11.123L18.332,11.124L18.333,11.125L18.333,11.126C18.333,11.126 18.333,11.125 18.331,11.122L18.31,11.095C18.289,11.068 18.253,11.023 18.205,10.963C18.108,10.844 17.959,10.666 17.764,10.449C17.37,10.012 16.803,9.431 16.107,8.855C14.658,7.653 12.941,6.709 11.25,6.709C7.549,6.709 4.583,9.674 4.583,13.288C4.583,14.917 4.899,17.803 6.955,21.369C8.998,24.914 12.826,29.242 20,33.688C27.174,29.242 31.002,24.914 33.045,21.369C35.101,17.803 35.417,14.917 35.417,13.288C35.417,9.674 32.451,6.709 28.75,6.709C27.059,6.709 25.342,7.653 23.892,8.855C23.197,9.431 22.63,10.012 22.236,10.449C22.041,10.666 21.892,10.844 21.795,10.963C21.747,11.023 21.711,11.068 21.69,11.095L21.669,11.122C21.668,11.124 21.667,11.125 21.667,11.125L21.667,11.125L21.668,11.123L21.669,11.123Z" clip-rule="evenodd" fill-rule="evenodd" fill="#006FFD"/>
</mask>
<rect  x="0" y="0.23" width="40" height="40" fill="#2F3036"/>
</svg>
