<svg width="80" height="80" viewBox="0 0 80 80" fill="none" xmlns="http://www.w3.org/2000/svg" xmlns:xlink="http://www.w3.org/1999/xlink">
<mask id="mask_0_i_288_6734;126_526" style="mask-type:alpha" maskUnits="userSpaceOnUse" x="0.833374" y="4.624659" width="39.166664" height="35.37534">
<path d="M22.5,4.625C10.575,4.625 0.833,14.206 0.833,26.116C0.833,30.582 1.733,37.839 6.69,46.439C11.633,55.015 20.481,64.699 36.026,74.256L36.042,74.266C37.235,74.991 38.604,75.375 40,75.375C41.396,75.375 42.765,74.991 43.958,74.266L43.974,74.256C59.519,64.699 68.367,55.015 73.31,46.439C78.268,37.839 79.167,30.582 79.167,26.116C79.167,14.206 69.425,4.625 57.5,4.625C51.218,4.625 45.903,7.986 42.467,10.833C41.547,11.596 40.72,12.357 40,13.065C39.28,12.357 38.453,11.596 37.533,10.833C34.098,7.986 28.782,4.625 22.5,4.625Z" fill="#006FFD"/>
</mask>
<rect  x="0" y="0" width="80" height="80" fill="#1F2024"/>
</svg>
