<svg width="64" height="66" viewBox="0 0 64 66" fill="none" xmlns="http://www.w3.org/2000/svg" xmlns:xlink="http://www.w3.org/1999/xlink">
<mask id="mask_0_i_294_10244;126_526" style="mask-type:alpha" maskUnits="userSpaceOnUse" x="-0.000336" y="3.890137" width="31.333332" height="28.30027">
<path d="M17.333,3.89C7.793,3.89 0,11.556 0,21.083C0,24.656 0.719,30.462 4.685,37.342C8.639,44.202 15.717,51.95 28.154,59.595L28.167,59.603C29.121,60.184 30.216,60.491 31.333,60.491C32.45,60.491 33.545,60.184 34.499,59.603L34.512,59.595C46.948,51.95 54.027,44.202 57.981,37.342C61.947,30.462 62.666,24.656 62.666,21.083C62.666,11.556 54.873,3.89 45.333,3.89C40.307,3.89 36.055,6.579 33.307,8.857C32.57,9.467 31.909,10.076 31.333,10.642C30.757,10.076 30.095,9.467 29.359,8.857C26.611,6.579 22.359,3.89 17.333,3.89Z" fill="#006FFD"/>
</mask>
<rect  x="-0.667" y="0.19" width="64" height="64" fill="#1F2024"/>
</svg>
