<svg width="32" height="34" viewBox="0 0 32 34" fill="none" xmlns="http://www.w3.org/2000/svg" xmlns:xlink="http://www.w3.org/1999/xlink">
<mask id="mask_0_i_261_8765;126_526" style="mask-type:alpha" maskUnits="userSpaceOnUse" x="0.333313" y="2.849854" width="15.666666" height="14.150135">
<path d="M9,2.85C4.23,2.85 0.333,6.683 0.333,11.447C0.333,13.233 0.693,16.136 2.676,19.576C4.653,23.006 8.192,26.88 14.41,30.702L14.417,30.706C14.894,30.997 15.442,31.15 16,31.15C16.558,31.15 17.106,30.997 17.583,30.706L17.59,30.702C23.808,26.88 27.347,23.006 29.324,19.576C31.307,16.136 31.667,13.233 31.667,11.447C31.667,6.683 27.77,2.85 23,2.85C20.487,2.85 18.361,4.194 16.987,5.333C16.619,5.638 16.288,5.943 16,6.226C15.712,5.943 15.381,5.638 15.013,5.333C13.639,4.194 11.513,2.85 9,2.85Z" fill="#006FFD"/>
</mask>
<rect  x="0" y="1" width="32" height="32" fill="#1F2024"/>
</svg>
