<svg width="48" height="48" viewBox="0 0 48 48" fill="none" xmlns="http://www.w3.org/2000/svg" xmlns:xlink="http://www.w3.org/1999/xlink">
<mask id="mask_0_126_526" style="mask-type:alpha" maskUnits="userSpaceOnUse" x="-0.228516" y="2.773682" width="23.5" height="21.225203">
<path d="M12.771,2.774C5.617,2.774 -0.229,8.523 -0.229,15.669C-0.229,18.348 0.311,22.703 3.285,27.862C6.251,33.008 11.56,38.818 20.887,44.552L20.897,44.558C21.612,44.994 22.434,45.224 23.271,45.224C24.109,45.224 24.931,44.994 25.646,44.558L25.656,44.552C34.983,38.818 40.292,33.008 43.258,27.862C46.232,22.703 46.771,18.348 46.771,15.669C46.771,8.523 40.926,2.774 33.771,2.774C30.002,2.774 26.813,4.791 24.752,6.499C24.199,6.957 23.703,7.413 23.271,7.838C22.839,7.413 22.343,6.957 21.791,6.499C19.73,4.791 16.541,2.774 12.771,2.774Z" fill="#006FFD"/>
</mask>
<rect  x="-0.729" y="-0.001" width="48" height="48" fill="#006FFD"/>
</svg>
