<svg width="40" height="40" viewBox="0 0 40 40" fill="none" xmlns="http://www.w3.org/2000/svg" xmlns:xlink="http://www.w3.org/1999/xlink">
<mask id="mask_0_i_259_6072;177_2148;126_526" style="mask-type:alpha" maskUnits="userSpaceOnUse" x="-0.057129" y="2.3125" width="19.583332" height="17.68767">
<path d="M10.776,2.313C4.814,2.313 -0.057,7.103 -0.057,13.058C-0.057,15.291 0.392,18.92 2.871,23.22C5.343,27.508 9.766,32.35 17.539,37.128L17.547,37.133C18.144,37.496 18.828,37.688 19.526,37.688C20.224,37.688 20.909,37.496 21.505,37.133L21.513,37.128C29.286,32.35 33.71,27.508 36.181,23.22C38.66,18.92 39.109,15.291 39.109,13.058C39.109,7.103 34.239,2.313 28.276,2.313C25.135,2.313 22.477,3.993 20.76,5.417C20.3,5.798 19.886,6.178 19.526,6.532C19.166,6.178 18.753,5.798 18.293,5.417C16.575,3.993 13.917,2.313 10.776,2.313Z" fill="#006FFD"/>
</mask>
<rect  x="-0.474" y="0" width="40" height="40" fill="#006FFD"/>
</svg>
