<svg width="48" height="48" viewBox="0 0 48 48" fill="none" xmlns="http://www.w3.org/2000/svg" xmlns:xlink="http://www.w3.org/1999/xlink">
<mask id="mask_0_i_240_6097;126_522" style="mask-type:alpha" maskUnits="userSpaceOnUse" x="0.428711" y="1.831177" width="23.5" height="21.225203">
<path d="M0.429,14.726C0.429,7.58 6.274,1.831 13.429,1.831C17.198,1.831 20.387,3.848 22.448,5.556C23.001,6.014 23.497,6.47 23.929,6.895C24.361,6.47 24.857,6.014 25.409,5.556C27.47,3.848 30.659,1.831 34.429,1.831C41.584,1.831 47.429,7.58 47.429,14.726C47.429,17.406 46.889,21.76 43.915,26.92C40.949,32.065 35.64,37.876 26.313,43.61L26.303,43.616C25.588,44.051 24.766,44.282 23.929,44.282C23.091,44.282 22.27,44.051 21.554,43.616L21.544,43.61C12.217,37.876 6.908,32.065 3.942,26.92C0.968,21.76 0.429,17.406 0.429,14.726ZM25.932,12.128C25.46,12.759 24.717,13.131 23.929,13.131C23.141,13.131 22.4,12.76 21.928,12.13C21.927,12.129 21.927,12.128 21.926,12.128L21.927,12.128L21.928,12.13L21.928,12.13L21.929,12.131C21.929,12.131 21.928,12.13 21.926,12.127L21.9,12.094C21.875,12.062 21.833,12.008 21.775,11.936C21.658,11.793 21.479,11.58 21.245,11.319C20.773,10.795 20.092,10.097 19.258,9.406C17.518,7.964 15.457,6.831 13.429,6.831C8.987,6.831 5.429,10.389 5.429,14.726C5.429,16.681 5.808,20.144 8.274,24.423C10.727,28.677 15.32,33.871 23.929,39.206C32.538,33.871 37.131,28.677 39.583,24.423C42.05,20.144 42.429,16.681 42.429,14.726C42.429,10.389 38.87,6.831 34.429,6.831C32.4,6.831 30.339,7.964 28.6,9.406C27.766,10.097 27.084,10.795 26.613,11.319C26.378,11.58 26.199,11.793 26.083,11.936C26.025,12.008 25.983,12.062 25.957,12.094L25.932,12.127C25.93,12.129 25.929,12.13 25.929,12.131L25.93,12.13L25.931,12.128L25.932,12.128Z" clip-rule="evenodd" fill-rule="evenodd" fill="#006FFD"/>
</mask>
<rect  x="-0.071" y="-0.944" width="48" height="48" fill="#1F2024"/>
</svg>
