<svg width="48" height="48" viewBox="0 0 48 48" fill="none" xmlns="http://www.w3.org/2000/svg" xmlns:xlink="http://www.w3.org/1999/xlink">
<line x1="22.5" y1="30" x2="22.5" y2="36" stroke="#3B38EB" stroke-width="1.5" stroke-miterlimit="3.999327" stroke-linecap="round" stroke-linejoin="round"/>
<path d="M20.14,5.64L21.078,6.811L21.078,6.81L20.14,5.64ZM6.28,16.74L7.213,17.914L7.218,17.911L6.28,16.74ZM4.06,22.56L5.54,22.313L5.538,22.304L4.06,22.56ZM6.72,38.48L5.241,38.727L5.241,38.73L6.72,38.48ZM41.28,38.48L42.759,38.732L42.759,38.727L41.28,38.48ZM43.94,22.56L45.419,22.807L45.42,22.802L43.94,22.56ZM41.72,16.74L42.661,15.572L42.657,15.569L41.72,16.74ZM27.86,5.66L26.92,6.829L26.923,6.832L27.86,5.66ZM19.202,4.469L5.342,15.569L7.218,17.911L21.078,6.811L19.202,4.469ZM5.347,15.566C4.306,16.393 3.529,17.606 3.056,18.845C2.583,20.085 2.355,21.507 2.582,22.817L5.538,22.304C5.425,21.653 5.527,20.786 5.859,19.915C6.191,19.044 6.694,18.328 7.213,17.914L5.347,15.566ZM2.581,22.807L5.241,38.727L8.2,38.233L5.54,22.313L2.581,22.807ZM5.241,38.73C5.843,42.291 9.188,45.12 12.8,45.12L12.8,42.12C10.652,42.12 8.557,40.349 8.199,38.23L5.241,38.73ZM12.8,45.12L35.2,45.12L35.2,42.12L12.8,42.12L12.8,45.12ZM35.2,45.12C38.794,45.12 42.156,42.27 42.759,38.732L39.801,38.228C39.444,40.33 37.326,42.12 35.2,42.12L35.2,45.12ZM42.759,38.727L45.419,22.807L42.46,22.313L39.8,38.233L42.759,38.727ZM45.42,22.802C45.633,21.498 45.4,20.081 44.929,18.845C44.458,17.61 43.688,16.399 42.661,15.572L40.779,17.909C41.292,18.321 41.792,19.04 42.126,19.915C42.46,20.789 42.567,21.662 42.46,22.318L45.42,22.802ZM42.657,15.569L28.797,4.489L26.923,6.832L40.783,17.912L42.657,15.569ZM28.8,4.491C26.114,2.332 21.873,2.328 19.202,4.47L21.078,6.81C22.647,5.552 25.326,5.548 26.92,6.829L28.8,4.491Z" fill="#3B38EB"/>
</svg>
