<svg width="42" height="42" viewBox="0 0 42 42" fill="none" xmlns="http://www.w3.org/2000/svg" xmlns:xlink="http://www.w3.org/1999/xlink">
<mask id="mask_0_i_272_9115;109_2346;109_2323;269_8089" style="mask-type:alpha" maskUnits="userSpaceOnUse" x="0.333008" y="0.22998" width="20" height="20">
<path d="M39.838,17.19L35.367,15.857C35.058,14.779 34.633,13.737 34.099,12.75L36.288,8.657C36.37,8.502 36.4,8.325 36.374,8.153C36.347,7.98 36.266,7.82 36.141,7.697L32.952,4.497C32.828,4.372 32.668,4.291 32.495,4.265C32.322,4.238 32.145,4.268 31.991,4.35L27.92,6.523C26.922,5.964 25.866,5.517 24.77,5.19L23.436,0.777C23.379,0.614 23.272,0.474 23.131,0.375C22.989,0.277 22.82,0.226 22.648,0.23L18.137,0.23C17.964,0.231 17.795,0.287 17.656,0.39C17.517,0.493 17.414,0.638 17.363,0.804L16.028,5.204C14.923,5.529 13.858,5.976 12.852,6.537L8.848,4.377C8.693,4.295 8.516,4.265 8.343,4.291C8.17,4.318 8.01,4.399 7.887,4.524L4.644,7.683C4.519,7.806 4.438,7.966 4.411,8.139C4.385,8.312 4.415,8.489 4.497,8.643L6.659,12.643C6.099,13.644 5.651,14.704 5.325,15.803L0.907,17.137C0.741,17.188 0.596,17.29 0.493,17.43C0.39,17.569 0.334,17.737 0.333,17.91L0.333,22.417C0.334,22.59 0.39,22.758 0.493,22.897C0.596,23.036 0.741,23.139 0.907,23.19L5.351,24.523C5.681,25.604 6.129,26.646 6.686,27.63L4.497,31.817C4.415,31.971 4.385,32.148 4.411,32.321C4.438,32.494 4.519,32.654 4.644,32.777L7.834,35.963C7.957,36.088 8.117,36.169 8.29,36.196C8.463,36.222 8.64,36.192 8.795,36.11L12.919,33.91C13.894,34.436 14.923,34.856 15.988,35.163L17.323,39.657C17.374,39.822 17.477,39.967 17.616,40.07C17.755,40.173 17.924,40.229 18.097,40.23L22.608,40.23C22.781,40.229 22.95,40.173 23.089,40.07C23.228,39.967 23.331,39.822 23.382,39.657L24.717,35.15C25.773,34.841 26.793,34.421 27.76,33.897L31.911,36.11C32.065,36.192 32.242,36.222 32.415,36.196C32.588,36.169 32.748,36.088 32.871,35.963L36.061,32.777C36.186,32.654 36.267,32.494 36.294,32.321C36.32,32.148 36.29,31.971 36.208,31.817L33.993,27.683C34.523,26.714 34.948,25.69 35.26,24.63L39.758,23.297C39.924,23.246 40.069,23.143 40.172,23.004C40.275,22.865 40.331,22.697 40.332,22.523L40.332,17.977C40.34,17.811 40.297,17.647 40.209,17.506C40.12,17.365 39.991,17.255 39.838,17.19ZM20.393,27.563C18.941,27.563 17.522,27.133 16.314,26.328C15.107,25.522 14.166,24.376 13.611,23.036C13.055,21.696 12.91,20.222 13.193,18.799C13.476,17.377 14.176,16.07 15.202,15.045C16.229,14.019 17.537,13.321 18.961,13.038C20.384,12.755 21.86,12.9 23.202,13.455C24.543,14.01 25.689,14.95 26.496,16.156C27.303,17.362 27.733,18.78 27.733,20.23C27.733,22.175 26.96,24.04 25.583,25.416C24.207,26.791 22.339,27.563 20.393,27.563Z" fill="#006FFD"/>
</mask>
<rect  x="0.333" y="0.23" width="40" height="40" fill="#006FFD"/>
</svg>
