<svg width="40" height="40" viewBox="0 0 40 40" fill="none" xmlns="http://www.w3.org/2000/svg" xmlns:xlink="http://www.w3.org/1999/xlink">
<mask id="mask_0_i_294_7051;109_2341;109_2326;109_764" style="mask-type:alpha" maskUnits="userSpaceOnUse" x="2.334106" y="-0.958008" width="16.666016" height="19.999994">
<path d="M29,9.042C29,14.564 24.523,19.042 19,19.042C13.478,19.042 9.001,14.564 9.001,9.042C9.001,3.519 13.478,-0.958 19,-0.958C24.523,-0.958 29,3.519 29,9.042Z" fill="#006FFD"/>
<path d="M2.334,32.375C2.334,26.853 6.811,22.376 12.334,22.376L25.667,22.376C31.189,22.376 35.666,26.853 35.666,32.375L35.666,34.042C35.666,36.803 33.428,39.042 30.666,39.042L7.334,39.042C4.573,39.042 2.334,36.803 2.334,34.042L2.334,32.375Z" fill="#006FFD"/>
</mask>
<rect  x="-0.999" y="-0.96" width="39.998" height="39.999" fill="#D4D6DD"/>
</svg>
