<svg width="52" height="54" viewBox="0 0 52 54" fill="none" xmlns="http://www.w3.org/2000/svg" xmlns:xlink="http://www.w3.org/1999/xlink">
<path d="M25.528,52.522C11.031,52.522 -0.722,40.77 -0.722,26.272C-0.722,11.775 11.031,0.022 25.528,0.022C40.026,0.022 51.778,11.775 51.778,26.272C51.778,40.77 40.026,52.522 25.528,52.522ZM25.528,49.897C38.576,49.897 49.153,39.32 49.153,26.272C49.153,13.224 38.576,2.647 25.528,2.647C12.481,2.647 1.903,13.224 1.903,26.272C1.903,39.32 12.481,49.897 25.528,49.897ZM25.497,44.647C16.142,44.647 7.263,35.674 7.263,29.19C7.263,25.468 15.349,29.947 25.497,29.947C35.646,29.947 43.821,25.474 43.794,29.19C43.748,35.474 34.853,44.647 25.497,44.647ZM25.497,36.378C34.196,36.378 40.213,33.016 40.213,30.591C40.213,28.166 34.196,32.037 25.497,32.037C16.799,32.037 10.881,28.63 10.881,30.591C10.881,32.551 16.799,36.378 25.497,36.378ZM17.621,21.613C15.899,21.613 14.503,20.217 14.503,18.496C14.503,16.774 15.899,15.378 17.621,15.378C19.342,15.378 20.738,16.774 20.738,18.496C20.738,20.217 19.342,21.613 17.621,21.613ZM33.371,21.613C31.649,21.613 30.253,20.217 30.253,18.496C30.253,16.774 31.649,15.378 33.371,15.378C35.092,15.378 36.488,16.774 36.488,18.496C36.488,20.217 35.092,21.613 33.371,21.613Z" clip-rule="evenodd" fill-rule="evenodd" fill="#494A50"/>
</svg>
