<svg width="40" height="42" viewBox="0 0 40 42" fill="none" xmlns="http://www.w3.org/2000/svg" xmlns:xlink="http://www.w3.org/1999/xlink">
<mask id="mask_0_i_272_9115;109_2341;109_2326;109_764" style="mask-type:alpha" maskUnits="userSpaceOnUse" x="2.333984" y="0.22998" width="16.666016" height="19.999994">
<path d="M29,10.23C29,15.752 24.523,20.23 19,20.23C13.477,20.23 9,15.752 9,10.23C9,4.707 13.477,0.23 19,0.23C24.523,0.23 29,4.707 29,10.23Z" fill="#006FFD"/>
<path d="M2.334,33.563C2.334,28.041 6.811,23.564 12.334,23.564L25.666,23.564C31.189,23.564 35.666,28.041 35.666,33.563L35.666,35.23C35.666,37.991 33.428,40.23 30.666,40.23L7.334,40.23C4.572,40.23 2.334,37.991 2.334,35.23L2.334,33.563Z" fill="#006FFD"/>
</mask>
<rect  x="-0.999" y="0.228" width="39.998" height="39.999" fill="#D4D6DD"/>
</svg>
