<svg width="40" height="42" viewBox="0 0 40 42" fill="none" xmlns="http://www.w3.org/2000/svg" xmlns:xlink="http://www.w3.org/1999/xlink">
<mask id="mask_0_i_281_5709;109_2341;109_2326;109_764" style="mask-type:alpha" maskUnits="userSpaceOnUse" x="2.333984" y="0.459229" width="16.666016" height="19.999994">
<path d="M29,10.459C29,15.982 24.523,20.459 19,20.459C13.477,20.459 9,15.982 9,10.459C9,4.936 13.477,0.459 19,0.459C24.523,0.459 29,4.936 29,10.459Z" fill="#006FFD"/>
<path d="M2.334,33.793C2.334,28.27 6.811,23.793 12.334,23.793L25.666,23.793C31.189,23.793 35.666,28.27 35.666,33.793L35.666,35.459C35.666,38.221 33.428,40.459 30.666,40.459L7.334,40.459C4.572,40.459 2.334,38.221 2.334,35.459L2.334,33.793Z" fill="#006FFD"/>
</mask>
<rect  x="-0.999" y="0.457" width="39.998" height="39.999" fill="#D4D6DD"/>
</svg>
