<svg width="42" height="42" viewBox="0 0 42 42" fill="none" xmlns="http://www.w3.org/2000/svg" xmlns:xlink="http://www.w3.org/1999/xlink">
<mask id="mask_0_i_267_7130;109_2341;109_2326;267_7080" style="mask-type:alpha" maskUnits="userSpaceOnUse" x="3.583374" y="3.563232" width="16.666668" height="16.666668">
<path d="M4.972,17.45C4.604,17.45 4.251,17.304 3.99,17.044C3.73,16.783 3.583,16.43 3.583,16.061L3.583,4.952C3.583,4.584 3.73,4.231 3.99,3.97C4.251,3.71 4.604,3.563 4.972,3.563L16.084,3.563C16.453,3.563 16.806,3.71 17.067,3.97C17.327,4.231 17.473,4.584 17.473,4.952L17.473,16.061C17.473,16.43 17.327,16.783 17.067,17.044C16.806,17.304 16.453,17.45 16.084,17.45L4.972,17.45ZM24.418,17.45C24.05,17.45 23.697,17.304 23.436,17.044C23.176,16.783 23.029,16.43 23.029,16.061L23.029,4.952C23.029,4.584 23.176,4.231 23.436,3.97C23.697,3.71 24.05,3.563 24.418,3.563L35.528,3.563C35.896,3.563 36.249,3.71 36.51,3.97C36.77,4.231 36.917,4.584 36.917,4.952L36.917,16.061C36.917,16.43 36.77,16.783 36.51,17.044C36.249,17.304 35.896,17.45 35.528,17.45L24.418,17.45ZM4.972,36.897C4.604,36.897 4.251,36.75 3.99,36.49C3.73,36.229 3.583,35.876 3.583,35.508L3.583,24.395C3.583,24.027 3.73,23.674 3.99,23.413C4.251,23.153 4.604,23.007 4.972,23.007L16.084,23.007C16.453,23.007 16.806,23.153 17.067,23.413C17.327,23.674 17.473,24.027 17.473,24.395L17.473,35.508C17.473,35.876 17.327,36.229 17.067,36.49C16.806,36.75 16.453,36.897 16.084,36.897L4.972,36.897ZM24.418,36.897C24.05,36.897 23.697,36.75 23.436,36.49C23.176,36.229 23.029,35.876 23.029,35.508L23.029,24.395C23.029,24.027 23.176,23.674 23.436,23.413C23.697,23.153 24.05,23.007 24.418,23.007L35.528,23.007C35.896,23.007 36.249,23.153 36.51,23.413C36.77,23.674 36.917,24.027 36.917,24.395L36.917,35.508C36.917,35.876 36.77,36.229 36.51,36.49C36.249,36.75 35.896,36.897 35.528,36.897L24.418,36.897Z" fill="#000000"/>
</mask>
<rect  x="0.25" y="0.228" width="40" height="40" fill="#D4D6DD"/>
</svg>
