<svg width="24" height="26" viewBox="0 0 24 26" fill="none" xmlns="http://www.w3.org/2000/svg" xmlns:xlink="http://www.w3.org/1999/xlink">
<mask id="mask_0_i_283_6985;283_6867;283_6034" style="mask-type:alpha" maskUnits="userSpaceOnUse" x="1.842773" y="3.941895" width="9.999998" height="9.099167">
<path d="M1.843,5.442C1.843,5.044 1.993,4.663 2.261,4.381C2.529,4.1 2.892,3.942 3.271,3.942L20.414,3.942C20.793,3.942 21.156,4.1 21.424,4.381C21.692,4.663 21.843,5.044 21.843,5.442C21.843,5.84 21.692,6.221 21.424,6.503C21.156,6.784 20.793,6.942 20.414,6.942L3.271,6.942C2.892,6.942 2.529,6.784 2.261,6.503C1.993,6.221 1.843,5.84 1.843,5.442ZM4.991,12.942C4.991,12.544 5.141,12.163 5.409,11.881C5.677,11.6 6.04,11.442 6.419,11.442L17.336,11.442C17.715,11.442 18.078,11.6 18.346,11.881C18.614,12.163 18.764,12.544 18.764,12.942C18.764,13.34 18.614,13.721 18.346,14.003C18.078,14.284 17.715,14.442 17.336,14.442L6.419,14.442C6.04,14.442 5.677,14.284 5.409,14.003C5.141,13.721 4.991,13.34 4.991,12.942ZM8.662,20.64C8.662,20.242 8.813,19.861 9.081,19.58C9.349,19.298 9.712,19.14 10.091,19.14L13.667,19.14C14.046,19.14 14.409,19.298 14.677,19.58C14.945,19.861 15.095,20.242 15.095,20.64C15.095,21.038 14.945,21.42 14.677,21.701C14.409,21.982 14.046,22.14 13.667,22.14L10.091,22.14C9.712,22.14 9.349,21.982 9.081,21.701C8.813,21.42 8.662,21.038 8.662,20.64Z" clip-rule="evenodd" fill-rule="evenodd" fill="#006FFD"/>
</mask>
<rect  x="-0.153" y="0.941" width="24" height="24" fill="#8F9098"/>
</svg>
