<svg width="32" height="34" viewBox="0 0 32 34" fill="none" xmlns="http://www.w3.org/2000/svg" xmlns:xlink="http://www.w3.org/1999/xlink">
<mask id="mask_0_i_267_5107;143_1324;267_5617" style="mask-type:alpha" maskUnits="userSpaceOnUse" x="0" y="2.559814" width="16" height="13.666667">
<path d="M30.293,5.405C30.943,4.754 30.943,3.699 30.293,3.048C29.642,2.397 28.586,2.397 27.936,3.048L3.936,27.048C3.285,27.699 3.285,28.754 3.936,29.405C4.587,30.056 5.642,30.056 6.293,29.405L9.746,25.952C13.64,27.472 18.097,27.583 22.298,25.932C26.735,24.187 30.255,20.681 32,16.23C30.86,13.349 28.993,10.89 26.657,9.041L30.293,5.405ZM22.575,13.122L20.286,15.412C20.337,15.68 20.364,15.954 20.364,16.23C20.364,17.388 19.904,18.498 19.086,19.316C18.267,20.134 17.157,20.594 16,20.594C15.723,20.594 15.449,20.568 15.181,20.516L12.892,22.806C13.855,23.261 14.915,23.503 16,23.503C17.929,23.503 19.779,22.737 21.143,21.373C22.506,20.009 23.273,18.159 23.273,16.23C23.273,15.145 23.03,14.085 22.575,13.122ZM16,5.321C17.854,5.321 19.658,5.621 21.357,6.182L18.231,9.308C17.517,9.078 16.765,8.958 16,8.958C14.071,8.958 12.221,9.724 10.857,11.088C9.494,12.452 8.727,14.301 8.727,16.23C8.727,16.995 8.848,17.747 9.078,18.462L4.667,22.873C2.665,21.122 1.041,18.878 0,16.23C2.589,9.685 8.931,5.321 16,5.321ZM12.914,13.145C13.652,12.407 14.627,11.961 15.66,11.88L11.65,15.89C11.73,14.857 12.177,13.883 12.914,13.145Z" clip-rule="evenodd" fill-rule="evenodd" fill="#006FFD"/>
</mask>
<rect  x="0" y="0.23" width="32" height="32" fill="#8F9098"/>
</svg>
