<svg width="64" height="64" viewBox="0 0 64 64" fill="none" xmlns="http://www.w3.org/2000/svg" xmlns:xlink="http://www.w3.org/1999/xlink">
<mask id="mask_0_i_7_236;11_211;11_209" style="mask-type:alpha" maskUnits="userSpaceOnUse" x="-0.580078" y="5.334351" width="31.998749" height="26.665625">
<path d="M22.344,23.243C22.344,26.925 19.478,29.91 15.944,29.91C12.409,29.91 9.544,26.925 9.544,23.243C9.544,19.562 12.409,16.577 15.944,16.577C19.478,16.577 22.344,19.562 22.344,23.243Z" fill="#B4DBFF"/>
<path d="M-0.58,12.001C-0.58,8.319 2.285,5.334 5.82,5.334L57.018,5.334C60.552,5.334 63.417,8.319 63.417,12.001L63.417,51.999C63.417,55.681 60.552,58.666 57.018,58.666L52.793,58.666C52.779,58.666 52.765,58.666 52.751,58.666L7.278,58.666C7.266,58.666 7.254,58.666 7.242,58.666L5.82,58.666C2.285,58.666 -0.58,55.681 -0.58,51.999L-0.58,12.001ZM5.82,10.334L57.018,10.334C57.901,10.334 58.618,11.08 58.618,12.001L58.618,32.774L44.713,18.667L21.058,42.666L14.09,35.597L4.22,45.61L4.22,12.001C4.22,11.08 4.936,10.334 5.82,10.334Z" clip-rule="evenodd" fill-rule="evenodd" fill="#B4DBFF"/>
</mask>
<rect  x="-0.582" y="-0.001" width="63.997" height="63.997" fill="#B4DBFF"/>
</svg>
