<svg width="42" height="40" viewBox="0 0 42 40" fill="none" xmlns="http://www.w3.org/2000/svg" xmlns:xlink="http://www.w3.org/1999/xlink">
<mask id="mask_0_i_294_7051;109_2346;109_2326;269_8089" style="mask-type:alpha" maskUnits="userSpaceOnUse" x="0.333374" y="-0.958008" width="20" height="20">
<path d="M39.839,16.002L35.368,14.669C35.059,13.591 34.633,12.549 34.1,11.562L36.289,7.469C36.371,7.314 36.401,7.137 36.374,6.965C36.348,6.792 36.266,6.632 36.142,6.509L32.952,3.309C32.829,3.184 32.669,3.103 32.496,3.077C32.323,3.05 32.146,3.08 31.991,3.162L27.92,5.335C26.923,4.776 25.867,4.329 24.771,4.002L23.436,-0.411C23.38,-0.574 23.273,-0.714 23.131,-0.813C22.99,-0.911 22.821,-0.962 22.649,-0.958L18.137,-0.958C17.964,-0.957 17.796,-0.901 17.656,-0.798C17.517,-0.695 17.414,-0.55 17.363,-0.384L16.029,4.016C14.924,4.341 13.858,4.788 12.852,5.349L8.848,3.189C8.694,3.107 8.517,3.077 8.344,3.103C8.17,3.13 8.01,3.211 7.887,3.336L4.644,6.495C4.52,6.618 4.438,6.778 4.412,6.951C4.385,7.124 4.415,7.301 4.497,7.455L6.66,11.455C6.099,12.456 5.651,13.516 5.325,14.615L0.907,15.949C0.742,16 0.597,16.102 0.493,16.242C0.39,16.381 0.334,16.549 0.333,16.722L0.333,21.229C0.334,21.402 0.39,21.57 0.493,21.709C0.597,21.848 0.742,21.951 0.907,22.002L5.352,23.335C5.682,24.416 6.129,25.458 6.686,26.442L4.497,30.629C4.415,30.783 4.385,30.96 4.412,31.133C4.438,31.306 4.52,31.466 4.644,31.589L7.834,34.775C7.957,34.9 8.117,34.981 8.29,35.008C8.463,35.034 8.64,35.004 8.795,34.922L12.919,32.722C13.895,33.248 14.924,33.668 15.989,33.975L17.323,38.469C17.374,38.634 17.477,38.779 17.616,38.882C17.756,38.985 17.924,39.041 18.097,39.042L22.609,39.042C22.782,39.041 22.95,38.985 23.09,38.882C23.229,38.779 23.331,38.634 23.383,38.469L24.717,33.962C25.773,33.653 26.793,33.233 27.76,32.709L31.911,34.922C32.066,35.004 32.243,35.034 32.416,35.008C32.589,34.981 32.749,34.9 32.872,34.775L36.062,31.589C36.186,31.466 36.268,31.306 36.294,31.133C36.321,30.96 36.291,30.783 36.208,30.629L33.993,26.495C34.523,25.526 34.948,24.502 35.261,23.442L39.759,22.109C39.924,22.058 40.069,21.955 40.172,21.816C40.276,21.677 40.332,21.509 40.332,21.335L40.332,16.789C40.34,16.623 40.297,16.459 40.209,16.318C40.121,16.177 39.991,16.067 39.839,16.002ZM20.393,26.375C18.941,26.375 17.522,25.945 16.315,25.14C15.108,24.334 14.167,23.188 13.611,21.848C13.056,20.508 12.91,19.034 13.194,17.611C13.477,16.189 14.176,14.882 15.202,13.857C16.229,12.831 17.537,12.133 18.961,11.85C20.385,11.567 21.861,11.712 23.202,12.267C24.543,12.822 25.69,13.762 26.496,14.968C27.303,16.174 27.734,17.592 27.734,19.042C27.734,20.987 26.96,22.852 25.584,24.228C24.207,25.603 22.34,26.375 20.393,26.375Z" fill="#006FFD"/>
</mask>
<rect  x="0.333" y="-0.958" width="40" height="40" fill="#D4D6DD"/>
</svg>
