<svg width="24" height="24" viewBox="0 0 24 24" fill="none" xmlns="http://www.w3.org/2000/svg" xmlns:xlink="http://www.w3.org/1999/xlink">
<mask id="mask_0_i_283_6875;283_6034" style="mask-type:alpha" maskUnits="userSpaceOnUse" x="1.842773" y="3" width="9.999998" height="9.099167">
<path d="M1.843,4.5C1.843,4.102 1.993,3.721 2.261,3.439C2.529,3.158 2.892,3 3.271,3L20.414,3C20.793,3 21.156,3.158 21.424,3.439C21.692,3.721 21.843,4.102 21.843,4.5C21.843,4.898 21.692,5.279 21.424,5.561C21.156,5.842 20.793,6 20.414,6L3.271,6C2.892,6 2.529,5.842 2.261,5.561C1.993,5.279 1.843,4.898 1.843,4.5ZM4.991,12C4.991,11.602 5.141,11.221 5.409,10.939C5.677,10.658 6.04,10.5 6.419,10.5L17.336,10.5C17.715,10.5 18.078,10.658 18.346,10.939C18.614,11.221 18.764,11.602 18.764,12C18.764,12.398 18.614,12.779 18.346,13.061C18.078,13.342 17.715,13.5 17.336,13.5L6.419,13.5C6.04,13.5 5.677,13.342 5.409,13.061C5.141,12.779 4.991,12.398 4.991,12ZM8.662,19.698C8.662,19.301 8.813,18.919 9.081,18.638C9.349,18.356 9.712,18.198 10.091,18.198L13.667,18.198C14.046,18.198 14.409,18.356 14.677,18.638C14.945,18.919 15.095,19.301 15.095,19.698C15.095,20.096 14.945,20.478 14.677,20.759C14.409,21.04 14.046,21.198 13.667,21.198L10.091,21.198C9.712,21.198 9.349,21.04 9.081,20.759C8.813,20.478 8.662,20.096 8.662,19.698Z" clip-rule="evenodd" fill-rule="evenodd" fill="#006FFD"/>
</mask>
<rect  x="-0.153" y="-0.001" width="24" height="24" fill="#8F9098"/>
</svg>
