<svg width="24" height="26" viewBox="0 0 24 26" fill="none" xmlns="http://www.w3.org/2000/svg" xmlns:xlink="http://www.w3.org/1999/xlink">
<mask id="mask_0_i_258_5216;216_4176;213_3658" style="mask-type:alpha" maskUnits="userSpaceOnUse" x="-0.478516" y="1.963135" width="11.09114" height="11.09114">
<path d="M0.034,8.896C-0.099,8.94 -0.217,9.021 -0.306,9.129C-0.396,9.237 -0.453,9.368 -0.472,9.507C-0.491,9.647 -0.47,9.788 -0.412,9.916C-0.354,10.044 -0.262,10.153 -0.145,10.231L6.487,13.887C6.611,13.955 6.751,13.987 6.892,13.979C7.033,13.971 7.169,13.923 7.284,13.842L14.33,8.817C14.67,8.589 15.078,8.996 14.85,9.337L9.825,16.383C9.744,16.498 9.696,16.634 9.688,16.775C9.68,16.916 9.712,17.056 9.78,17.179L13.436,23.812C13.514,23.929 13.623,24.021 13.751,24.079C13.879,24.137 14.02,24.157 14.159,24.139C14.299,24.12 14.43,24.063 14.538,23.973C14.646,23.884 14.727,23.766 14.771,23.633L21.665,2.95C21.709,2.818 21.716,2.676 21.684,2.54C21.651,2.405 21.582,2.281 21.484,2.183C21.386,2.084 21.262,2.015 21.126,1.983C20.991,1.951 20.849,1.958 20.717,2.001L0.034,8.896Z" fill="#FFFFFF"/>
</mask>
<g mask="url(#mask_0_i_258_5216;216_4176;213_3658)">
<rect  x="-0.789" y="0.456" width="24" height="24" fill="#FFFFFF"/>
</g>
</svg>
