<svg width="40" height="40" viewBox="0 0 40 40" fill="none" xmlns="http://www.w3.org/2000/svg" xmlns:xlink="http://www.w3.org/1999/xlink">
<mask id="mask_0_i_294_7051;109_2336;109_2323;269_8081" style="mask-type:alpha" maskUnits="userSpaceOnUse" x="1.335815" y="0.708984" width="18.331104" height="18.333332">
<path d="M19.667,0.709C29.791,0.709 37.998,8.916 37.998,19.04C37.998,29.164 29.791,37.371 19.667,37.371C16.701,37.375 13.779,36.657 11.154,35.278L3.29,37.325C3.027,37.394 2.751,37.392 2.489,37.321C2.227,37.25 1.988,37.112 1.796,36.92C1.604,36.728 1.465,36.489 1.394,36.227C1.322,35.965 1.321,35.689 1.389,35.426L3.435,27.564C2.052,24.936 1.332,22.01 1.336,19.04C1.336,8.916 9.543,0.709 19.667,0.709Z" fill="#006FFD"/>
</mask>
<rect  x="-0.333" y="-0.958" width="40" height="40" fill="#006FFD"/>
</svg>
