<svg width="40" height="42" viewBox="0 0 40 42" fill="none" xmlns="http://www.w3.org/2000/svg" xmlns:xlink="http://www.w3.org/1999/xlink">
<mask id="mask_0_i_281_5709;109_2336;109_2326;269_8081" style="mask-type:alpha" maskUnits="userSpaceOnUse" x="1.335449" y="2.125854" width="18.331104" height="18.333332">
<path d="M19.667,2.126C29.791,2.126 37.998,10.333 37.998,20.457C37.998,30.581 29.791,38.788 19.667,38.788C16.701,38.792 13.779,38.073 11.154,36.695L3.29,38.742C3.027,38.811 2.751,38.809 2.489,38.738C2.227,38.667 1.988,38.529 1.796,38.337C1.604,38.145 1.465,37.906 1.394,37.644C1.322,37.382 1.32,37.106 1.389,36.843L3.434,28.981C2.052,26.353 1.331,23.427 1.335,20.457C1.335,10.333 9.542,2.126 19.667,2.126Z" fill="#006FFD"/>
</mask>
<rect  x="-0.333" y="0.459" width="40" height="40" fill="#D4D6DD"/>
</svg>
