<svg width="40" height="40" viewBox="0 0 40 40" fill="none" xmlns="http://www.w3.org/2000/svg" xmlns:xlink="http://www.w3.org/1999/xlink">
<mask id="mask_0_i_290_8147;109_2336;109_2323;269_8081" style="mask-type:alpha" maskUnits="userSpaceOnUse" x="1.335693" y="1.039063" width="18.331104" height="18.333332">
<path d="M19.667,1.039C29.791,1.039 37.998,9.246 37.998,19.37C37.998,29.494 29.791,37.701 19.667,37.701C16.701,37.705 13.779,36.987 11.154,35.608L3.29,37.655C3.027,37.724 2.751,37.722 2.489,37.651C2.227,37.58 1.988,37.442 1.796,37.25C1.604,37.058 1.465,36.819 1.394,36.557C1.322,36.295 1.321,36.019 1.389,35.756L3.435,27.894C2.052,25.266 1.332,22.34 1.336,19.37C1.336,9.246 9.543,1.039 19.667,1.039Z" fill="#006FFD"/>
</mask>
<rect  x="-0.333" y="-0.627" width="40" height="40" fill="#006FFD"/>
</svg>
