<svg width="24" height="24" viewBox="0 0 24 24" fill="none" xmlns="http://www.w3.org/2000/svg" xmlns:xlink="http://www.w3.org/1999/xlink">
<mask id="mask_0_i_290_7308;216_4176;213_3658" style="mask-type:alpha" maskUnits="userSpaceOnUse" x="0.310669" y="1.00708" width="11.09114" height="11.09114">
<path d="M0.824,7.94C0.69,7.984 0.572,8.065 0.483,8.173C0.393,8.281 0.336,8.412 0.317,8.551C0.299,8.691 0.319,8.832 0.377,8.96C0.435,9.088 0.528,9.197 0.644,9.275L7.277,12.931C7.4,12.999 7.541,13.031 7.681,13.023C7.822,13.015 7.958,12.967 8.073,12.886L15.119,7.861C15.46,7.633 15.867,8.04 15.639,8.381L10.615,15.427C10.533,15.542 10.485,15.678 10.477,15.819C10.469,15.959 10.501,16.1 10.569,16.223L14.225,22.856C14.303,22.972 14.412,23.065 14.54,23.123C14.668,23.181 14.81,23.201 14.949,23.183C15.088,23.164 15.219,23.107 15.327,23.017C15.435,22.928 15.516,22.81 15.56,22.676L22.455,1.994C22.498,1.862 22.505,1.72 22.473,1.584C22.441,1.449 22.372,1.325 22.273,1.227C22.175,1.128 22.051,1.059 21.916,1.027C21.78,0.995 21.638,1.001 21.506,1.045L0.824,7.94Z" fill="#FFFFFF"/>
</mask>
<g mask="url(#mask_0_i_290_7308;216_4176;213_3658)">
<rect  x="0" y="-0.5" width="24" height="24" fill="#FFFFFF"/>
</g>
</svg>
