<svg width="24" height="26" viewBox="0 0 24 26" fill="none" xmlns="http://www.w3.org/2000/svg" xmlns:xlink="http://www.w3.org/1999/xlink">
<mask id="mask_0_i_240_6053;216_4176;213_3658" style="mask-type:alpha" maskUnits="userSpaceOnUse" x="0.310661" y="1.737045" width="11.09114" height="11.09114">
<path d="M0.824,8.67C0.69,8.714 0.572,8.795 0.483,8.903C0.393,9.011 0.336,9.142 0.317,9.281C0.299,9.42 0.319,9.562 0.377,9.69C0.435,9.818 0.528,9.927 0.644,10.005L7.277,13.661C7.4,13.729 7.541,13.761 7.681,13.753C7.822,13.745 7.958,13.697 8.073,13.615L15.119,8.591C15.46,8.363 15.867,8.77 15.639,9.111L10.615,16.157C10.533,16.272 10.485,16.408 10.477,16.549C10.469,16.689 10.501,16.83 10.569,16.953L14.225,23.586C14.303,23.702 14.412,23.795 14.54,23.853C14.668,23.911 14.81,23.931 14.949,23.913C15.088,23.894 15.219,23.837 15.327,23.747C15.435,23.658 15.516,23.54 15.56,23.406L22.455,2.724C22.498,2.591 22.505,2.45 22.473,2.314C22.441,2.179 22.372,2.055 22.273,1.957C22.175,1.858 22.051,1.789 21.916,1.757C21.78,1.725 21.638,1.731 21.506,1.775L0.824,8.67Z" fill="#FFFFFF"/>
</mask>
<g mask="url(#mask_0_i_240_6053;216_4176;213_3658)">
<rect  x="0" y="0.23" width="24" height="24" fill="#FFFFFF"/>
</g>
</svg>
