<svg width="32" height="34" viewBox="0 0 32 34" fill="none" xmlns="http://www.w3.org/2000/svg" xmlns:xlink="http://www.w3.org/1999/xlink">
<mask id="mask_0_i_252_6948;143_1324;267_5617" style="mask-type:alpha" maskUnits="userSpaceOnUse" x="-0.157471" y="2.621338" width="16" height="13.666667">
<path d="M30.135,5.466C30.786,4.816 30.786,3.76 30.135,3.109C29.484,2.459 28.429,2.459 27.778,3.11L3.779,27.11C3.128,27.76 3.128,28.816 3.779,29.467C4.429,30.117 5.485,30.117 6.136,29.467L9.588,26.014C13.483,27.534 17.94,27.645 22.141,25.994C26.577,24.248 30.097,20.743 31.843,16.292C30.703,13.41 28.836,10.952 26.5,9.102L30.135,5.466ZM22.418,13.184L20.129,15.473C20.18,15.741 20.206,16.015 20.206,16.292C20.206,17.449 19.746,18.559 18.928,19.377C18.11,20.196 17,20.655 15.843,20.655C15.566,20.655 15.292,20.629 15.024,20.578L12.735,22.867C13.697,23.322 14.757,23.565 15.843,23.565C17.771,23.565 19.621,22.798 20.985,21.434C22.349,20.071 23.115,18.221 23.115,16.292C23.115,15.207 22.873,14.147 22.418,13.184ZM15.843,5.383C17.696,5.383 19.5,5.683 21.2,6.244L18.074,9.37C17.359,9.139 16.607,9.019 15.843,9.019C13.914,9.019 12.064,9.785 10.7,11.149C9.336,12.513 8.57,14.363 8.57,16.292C8.57,17.056 8.69,17.809 8.921,18.523L4.509,22.935C2.507,21.184 0.883,18.94 -0.157,16.292C2.432,9.746 8.773,5.383 15.843,5.383ZM12.757,13.206C13.495,12.469 14.469,12.022 15.502,11.941L11.492,15.952C11.573,14.919 12.019,13.944 12.757,13.206Z" clip-rule="evenodd" fill-rule="evenodd" fill="#006FFD"/>
</mask>
<rect  x="-0.157" y="0.292" width="32" height="32" fill="#8F9098"/>
</svg>
