<svg width="42" height="40" viewBox="0 0 42 40" fill="none" xmlns="http://www.w3.org/2000/svg" xmlns:xlink="http://www.w3.org/1999/xlink">
<mask id="mask_0_i_290_8147;109_2346;109_2326;269_8089" style="mask-type:alpha" maskUnits="userSpaceOnUse" x="0.333252" y="-0.627441" width="20" height="20">
<path d="M39.838,16.333L35.367,14.999C35.058,13.921 34.633,12.879 34.1,11.893L36.288,7.799C36.37,7.645 36.401,7.468 36.374,7.295C36.348,7.122 36.266,6.962 36.142,6.839L32.952,3.639C32.829,3.515 32.669,3.433 32.496,3.407C32.322,3.381 32.145,3.411 31.991,3.493L27.92,5.666C26.923,5.107 25.866,4.66 24.77,4.333L23.436,-0.081C23.379,-0.243 23.273,-0.384 23.131,-0.482C22.99,-0.58 22.821,-0.631 22.648,-0.627L18.137,-0.627C17.964,-0.626 17.795,-0.57 17.656,-0.467C17.517,-0.364 17.414,-0.219 17.363,-0.054L16.029,4.346C14.924,4.671 13.858,5.119 12.852,5.679L8.848,3.519C8.694,3.437 8.517,3.407 8.343,3.434C8.17,3.46 8.01,3.542 7.887,3.666L4.644,6.826C4.52,6.949 4.438,7.109 4.412,7.282C4.385,7.455 4.415,7.632 4.497,7.786L6.659,11.786C6.099,12.787 5.651,13.847 5.325,14.946L0.907,16.279C0.742,16.33 0.597,16.433 0.493,16.572C0.39,16.711 0.334,16.88 0.333,17.053L0.333,21.559C0.334,21.732 0.39,21.901 0.493,22.04C0.597,22.179 0.742,22.282 0.907,22.333L5.351,23.666C5.682,24.747 6.129,25.789 6.686,26.773L4.497,30.959C4.415,31.114 4.385,31.291 4.412,31.464C4.438,31.637 4.52,31.796 4.644,31.919L7.834,35.106C7.957,35.23 8.117,35.312 8.29,35.338C8.463,35.365 8.64,35.335 8.795,35.253L12.919,33.053C13.894,33.579 14.924,33.999 15.989,34.306L17.323,38.799C17.374,38.965 17.477,39.11 17.616,39.213C17.755,39.316 17.924,39.372 18.097,39.373L22.608,39.373C22.782,39.372 22.95,39.316 23.089,39.213C23.229,39.11 23.331,38.965 23.382,38.799L24.717,34.293C25.773,33.984 26.793,33.564 27.76,33.039L31.911,35.253C32.065,35.335 32.242,35.365 32.416,35.338C32.589,35.312 32.749,35.23 32.872,35.106L36.061,31.919C36.186,31.796 36.268,31.637 36.294,31.464C36.32,31.291 36.29,31.114 36.208,30.959L33.993,26.826C34.523,25.856 34.948,24.833 35.261,23.773L39.758,22.439C39.924,22.388 40.069,22.286 40.172,22.147C40.275,22.008 40.331,21.839 40.332,21.666L40.332,17.119C40.34,16.954 40.297,16.789 40.209,16.649C40.121,16.508 39.991,16.398 39.838,16.333ZM20.393,26.706C18.941,26.706 17.522,26.276 16.315,25.47C15.108,24.664 14.167,23.519 13.611,22.179C13.056,20.839 12.91,19.365 13.193,17.942C13.477,16.519 14.176,15.213 15.202,14.187C16.229,13.162 17.537,12.463 18.961,12.18C20.385,11.897 21.861,12.043 23.202,12.598C24.543,13.153 25.69,14.093 26.496,15.298C27.303,16.504 27.733,17.922 27.733,19.373C27.733,21.318 26.96,23.183 25.583,24.558C24.207,25.933 22.34,26.706 20.393,26.706Z" fill="#006FFD"/>
</mask>
<rect  x="0.333" y="-0.627" width="40" height="40" fill="#D4D6DD"/>
</svg>
