<svg width="64" height="64" viewBox="0 0 64 64" fill="none" xmlns="http://www.w3.org/2000/svg" xmlns:xlink="http://www.w3.org/1999/xlink">
<mask id="mask_0_i_290_8480;7_236;11_211;11_209" style="mask-type:alpha" maskUnits="userSpaceOnUse" x="-0.998535" y="5.33252" width="31.998749" height="26.665625">
<path d="M21.925,23.241C21.925,26.923 19.06,29.908 15.525,29.908C11.991,29.908 9.126,26.923 9.126,23.241C9.126,19.56 11.991,16.575 15.525,16.575C19.06,16.575 21.925,19.56 21.925,23.241Z" fill="#B4DBFF"/>
<path d="M-0.999,11.999C-0.999,8.317 1.867,5.333 5.401,5.333L56.599,5.333C60.134,5.333 62.999,8.317 62.999,11.999L62.999,51.997C62.999,55.679 60.134,58.664 56.599,58.664L52.375,58.664C52.361,58.664 52.347,58.664 52.333,58.664L6.86,58.664C6.848,58.664 6.836,58.664 6.824,58.664L5.401,58.664C1.867,58.664 -0.999,55.679 -0.999,51.997L-0.999,11.999ZM5.401,10.332L56.599,10.332C57.483,10.332 58.199,11.078 58.199,11.999L58.199,32.772L44.295,18.665L20.64,42.665L13.671,35.595L3.801,45.609L3.801,11.999C3.801,11.078 4.518,10.332 5.401,10.332Z" clip-rule="evenodd" fill-rule="evenodd" fill="#B4DBFF"/>
</mask>
<rect  x="-0.999" y="-0.002" width="63.997" height="63.997" fill="#B4DBFF"/>
</svg>
