<svg width="42" height="40" viewBox="0 0 42 40" fill="none" xmlns="http://www.w3.org/2000/svg" xmlns:xlink="http://www.w3.org/1999/xlink">
<mask id="mask_0_i_290_8147;109_2341;109_2326;109_764" style="mask-type:alpha" maskUnits="userSpaceOnUse" x="4.333862" y="-0.627441" width="16.666016" height="19.999994">
<path d="M31,9.372C31,14.895 26.523,19.372 21,19.372C15.477,19.372 11,14.895 11,9.372C11,3.85 15.477,-0.627 21,-0.627C26.523,-0.627 31,3.85 31,9.372Z" fill="#006FFD"/>
<path d="M4.334,32.706C4.334,27.183 8.811,22.706 14.333,22.706L27.666,22.706C33.189,22.706 37.666,27.183 37.666,32.706L37.666,34.373C37.666,37.134 35.427,39.373 32.666,39.373L9.334,39.373C6.572,39.373 4.334,37.134 4.334,34.373L4.334,32.706Z" fill="#006FFD"/>
</mask>
<rect  x="1.001" y="-0.63" width="39.998" height="39.999" fill="#D4D6DD"/>
</svg>
