<svg width="24" height="24" viewBox="0 0 24 24" fill="none" xmlns="http://www.w3.org/2000/svg" xmlns:xlink="http://www.w3.org/1999/xlink">
<mask id="mask_0_i_216_4203;213_3658" style="mask-type:alpha" maskUnits="userSpaceOnUse" x="-0.478516" y="1.50708" width="11.09114" height="11.09114">
<path d="M0.034,8.44C-0.099,8.484 -0.217,8.565 -0.306,8.673C-0.396,8.781 -0.453,8.912 -0.472,9.051C-0.491,9.191 -0.47,9.332 -0.412,9.46C-0.354,9.588 -0.262,9.697 -0.145,9.775L6.487,13.431C6.611,13.499 6.751,13.531 6.892,13.523C7.033,13.515 7.169,13.467 7.284,13.386L14.33,8.361C14.67,8.133 15.078,8.54 14.85,8.881L9.825,15.927C9.744,16.042 9.696,16.178 9.688,16.319C9.68,16.459 9.712,16.6 9.78,16.723L13.436,23.356C13.514,23.472 13.623,23.565 13.751,23.623C13.879,23.681 14.02,23.701 14.159,23.683C14.299,23.664 14.43,23.607 14.538,23.517C14.646,23.428 14.727,23.31 14.771,23.176L21.665,2.494C21.709,2.362 21.716,2.22 21.684,2.084C21.651,1.949 21.582,1.825 21.484,1.727C21.386,1.628 21.262,1.559 21.126,1.527C20.991,1.495 20.849,1.501 20.717,1.545L0.034,8.44Z" fill="#FFFFFF"/>
</mask>
<g mask="url(#mask_0_i_216_4203;213_3658)">
<rect  x="-0.789" y="0" width="24" height="24" fill="#FFFFFF"/>
</g>
</svg>
