<svg width="52" height="54" viewBox="0 0 52 54" fill="none" xmlns="http://www.w3.org/2000/svg" xmlns:xlink="http://www.w3.org/1999/xlink">
<path d="M25.736,52.375C11.239,52.375 -0.514,40.622 -0.514,26.125C-0.514,11.628 11.239,-0.125 25.736,-0.125C40.234,-0.125 51.986,11.628 51.986,26.125C51.986,40.622 40.234,52.375 25.736,52.375ZM25.736,49.75C38.784,49.75 49.361,39.173 49.361,26.125C49.361,13.077 38.784,2.5 25.736,2.5C12.689,2.5 2.111,13.077 2.111,26.125C2.111,39.173 12.689,49.75 25.736,49.75ZM25.705,44.5C16.35,44.5 7.471,35.527 7.471,29.043C7.471,25.321 15.557,29.8 25.705,29.8C35.854,29.8 44.029,25.327 44.002,29.043C43.956,35.327 35.061,44.5 25.705,44.5ZM25.705,36.231C34.404,36.231 40.421,32.869 40.421,30.443C40.421,28.018 34.404,31.889 25.705,31.889C17.007,31.889 11.089,28.483 11.089,30.443C11.089,32.404 17.007,36.231 25.705,36.231ZM17.829,21.466C16.107,21.466 14.711,20.07 14.711,18.348C14.711,16.627 16.107,15.231 17.829,15.231C19.55,15.231 20.946,16.627 20.946,18.348C20.946,20.07 19.55,21.466 17.829,21.466ZM33.579,21.466C31.857,21.466 30.461,20.07 30.461,18.348C30.461,16.627 31.857,15.231 33.579,15.231C35.3,15.231 36.696,16.627 36.696,18.348C36.696,20.07 35.3,21.466 33.579,21.466Z" clip-rule="evenodd" fill-rule="evenodd" fill="#494A50"/>
</svg>
