<svg width="40" height="42" viewBox="0 0 40 42" fill="none" xmlns="http://www.w3.org/2000/svg" xmlns:xlink="http://www.w3.org/1999/xlink">
<mask id="mask_0_i_269_8382;109_2336;109_2323;269_8081" style="mask-type:alpha" maskUnits="userSpaceOnUse" x="1.335693" y="1.896667" width="18.331104" height="18.333332">
<path d="M19.667,1.897C29.791,1.897 37.998,10.104 37.998,20.228C37.998,30.352 29.791,38.559 19.667,38.559C16.701,38.563 13.779,37.844 11.154,36.465L3.29,38.513C3.027,38.581 2.751,38.58 2.489,38.509C2.227,38.438 1.988,38.299 1.796,38.107C1.604,37.916 1.465,37.677 1.394,37.415C1.322,37.153 1.321,36.877 1.389,36.614L3.435,28.752C2.052,26.123 1.332,23.197 1.336,20.228C1.336,10.104 9.543,1.897 19.667,1.897Z" fill="#006FFD"/>
</mask>
<rect  x="-0.333" y="0.23" width="40" height="40" fill="#006FFD"/>
</svg>
