<svg width="40" height="42" viewBox="0 0 40 42" fill="none" xmlns="http://www.w3.org/2000/svg" xmlns:xlink="http://www.w3.org/1999/xlink">
<mask id="mask_0_i_267_7130;109_2346;109_2326;267_7082" style="mask-type:alpha" maskUnits="userSpaceOnUse" x="-0.25" y="2.798584" width="20" height="17.431503">
<path d="M4.497,7.156L35.003,7.156C36.201,7.156 37.182,6.176 37.182,4.978C37.182,3.779 36.201,2.799 35.003,2.799L4.497,2.799C3.299,2.799 2.318,3.779 2.318,4.978C2.318,6.176 3.299,7.156 4.497,7.156ZM37.53,11.079C37.334,10.076 36.441,9.335 35.395,9.335L4.105,9.335C3.059,9.335 2.166,10.076 1.97,11.079L-0.209,21.973C-0.471,23.324 0.554,24.588 1.926,24.588L2.318,24.588L2.318,35.483C2.318,36.681 3.299,37.662 4.497,37.662L21.929,37.662C23.127,37.662 24.108,36.681 24.108,35.483L24.108,24.588L32.824,24.588L32.824,35.483C32.824,36.681 33.804,37.662 35.003,37.662C36.201,37.662 37.182,36.681 37.182,35.483L37.182,24.588L37.574,24.588C38.946,24.588 39.971,23.324 39.709,21.973L37.53,11.079ZM19.75,33.304L6.676,33.304L6.676,24.588L19.75,24.588L19.75,33.304Z" fill="#000000"/>
</mask>
<rect  x="-0.25" y="0.228" width="40" height="40" fill="#D4D6DD"/>
</svg>
