<svg width="24" height="26" viewBox="0 0 24 26" fill="none" xmlns="http://www.w3.org/2000/svg" xmlns:xlink="http://www.w3.org/1999/xlink">
<mask id="mask_0_i_294_10139;216_4176;213_3658" style="mask-type:alpha" maskUnits="userSpaceOnUse" x="-0.161011" y="1.779297" width="11.09114" height="11.09114">
<path d="M0.352,8.712C0.219,8.756 0.101,8.837 0.011,8.945C-0.078,9.053 -0.136,9.184 -0.154,9.324C-0.173,9.463 -0.152,9.604 -0.094,9.732C-0.037,9.86 0.056,9.969 0.173,10.047L6.805,13.703C6.929,13.771 7.069,13.803 7.21,13.795C7.351,13.787 7.486,13.739 7.602,13.658L14.647,8.633C14.988,8.405 15.395,8.813 15.167,9.153L10.143,16.199C10.061,16.314 10.013,16.45 10.005,16.591C9.997,16.732 10.029,16.872 10.097,16.996L13.753,23.628C13.831,23.745 13.94,23.837 14.068,23.895C14.196,23.953 14.338,23.973 14.477,23.955C14.616,23.936 14.747,23.879 14.855,23.789C14.963,23.7 15.044,23.582 15.089,23.449L21.983,2.766C22.027,2.634 22.033,2.492 22.001,2.357C21.969,2.221 21.9,2.097 21.802,1.999C21.703,1.901 21.579,1.831 21.444,1.799C21.309,1.767 21.167,1.774 21.035,1.818L0.352,8.712Z" fill="#FFFFFF"/>
</mask>
<g mask="url(#mask_0_i_294_10139;216_4176;213_3658)">
<rect  x="-0.472" y="0.272" width="24" height="24" fill="#FFFFFF"/>
</g>
</svg>
