<svg width="54" height="52" viewBox="0 0 54 52" fill="none" xmlns="http://www.w3.org/2000/svg" xmlns:xlink="http://www.w3.org/1999/xlink">
<path d="M26,51.75C11.503,51.75 -0.25,39.997 -0.25,25.5C-0.25,11.003 11.503,-0.75 26,-0.75C40.497,-0.75 52.25,11.003 52.25,25.5C52.25,39.997 40.497,51.75 26,51.75ZM26,49.125C39.048,49.125 49.625,38.548 49.625,25.5C49.625,12.452 39.048,1.875 26,1.875C12.952,1.875 2.375,12.452 2.375,25.5C2.375,38.548 12.952,49.125 26,49.125ZM25.969,43.875C16.614,43.875 7.735,34.902 7.735,28.418C7.735,24.696 15.821,29.175 25.969,29.175C36.117,29.175 44.293,24.702 44.265,28.418C44.22,34.702 35.324,43.875 25.969,43.875ZM25.969,35.606C34.667,35.606 40.685,32.244 40.685,29.818C40.685,27.393 34.667,31.264 25.969,31.264C17.27,31.264 11.353,27.858 11.353,29.818C11.353,31.779 17.27,35.606 25.969,35.606ZM18.092,20.841C16.371,20.841 14.975,19.445 14.975,17.723C14.975,16.002 16.371,14.606 18.092,14.606C19.814,14.606 21.209,16.002 21.209,17.723C21.209,19.445 19.814,20.841 18.092,20.841ZM33.842,20.841C32.121,20.841 30.725,19.445 30.725,17.723C30.725,16.002 32.121,14.606 33.842,14.606C35.564,14.606 36.959,16.002 36.959,17.723C36.959,19.445 35.564,20.841 33.842,20.841Z" clip-rule="evenodd" fill-rule="evenodd" fill="#494A50"/>
</svg>
