<svg width="42" height="42" viewBox="0 0 42 42" fill="none" xmlns="http://www.w3.org/2000/svg" xmlns:xlink="http://www.w3.org/1999/xlink">
<mask id="mask_0_i_269_8382;109_2341;109_2326;109_764" style="mask-type:alpha" maskUnits="userSpaceOnUse" x="4.333862" y="0.22998" width="16.666016" height="19.999994">
<path d="M31,10.23C31,15.752 26.523,20.23 21,20.23C15.477,20.23 11,15.752 11,10.23C11,4.707 15.477,0.23 21,0.23C26.523,0.23 31,4.707 31,10.23Z" fill="#006FFD"/>
<path d="M4.334,33.563C4.334,28.041 8.811,23.564 14.333,23.564L27.666,23.564C33.189,23.564 37.666,28.041 37.666,33.563L37.666,35.23C37.666,37.991 35.427,40.23 32.666,40.23L9.334,40.23C6.572,40.23 4.334,37.991 4.334,35.23L4.334,33.563Z" fill="#006FFD"/>
</mask>
<rect  x="1.001" y="0.228" width="39.998" height="39.999" fill="#D4D6DD"/>
</svg>
