<svg width="42" height="42" viewBox="0 0 42 42" fill="none" xmlns="http://www.w3.org/2000/svg" xmlns:xlink="http://www.w3.org/1999/xlink">
<mask id="mask_0_i_281_5884;109_2336;109_2326;267_7074" style="mask-type:alpha" maskUnits="userSpaceOnUse" x="0.75" y="0.22998" width="20" height="20">
<path d="M23.25,20.23C23.25,21.613 22.133,22.73 20.75,22.73C19.367,22.73 18.25,21.613 18.25,20.23C18.25,18.847 19.367,17.73 20.75,17.73C22.133,17.73 23.25,18.847 23.25,20.23ZM0.75,20.23C0.75,9.183 9.703,0.23 20.75,0.23C31.797,0.23 40.75,9.183 40.75,20.23C40.75,31.277 31.797,40.23 20.75,40.23C9.703,40.23 0.75,31.277 0.75,20.23ZM26.148,24.191L30.484,12.917C31.07,11.332 29.578,9.91 28.062,10.496L16.789,14.832C16.125,15.082 15.602,15.605 15.352,16.269L11.016,27.542C10.43,29.058 11.852,30.55 13.438,29.964L24.711,25.628C25.375,25.378 25.898,24.855 26.148,24.191L26.148,24.191Z" fill="#000000"/>
</mask>
<rect  x="0.75" y="0.228" width="40" height="40" fill="#D4D6DD"/>
</svg>
