<svg width="40" height="42" viewBox="0 0 40 42" fill="none" xmlns="http://www.w3.org/2000/svg" xmlns:xlink="http://www.w3.org/1999/xlink">
<mask id="mask_0_i_267_7130;109_2351;109_2326;109_764" style="mask-type:alpha" maskUnits="userSpaceOnUse" x="2.583984" y="0.22998" width="16.666016" height="19.999994">
<path d="M29.25,10.23C29.25,15.752 24.773,20.23 19.25,20.23C13.727,20.23 9.25,15.752 9.25,10.23C9.25,4.707 13.727,0.23 19.25,0.23C24.773,0.23 29.25,4.707 29.25,10.23Z" fill="#006FFD"/>
<path d="M2.584,33.563C2.584,28.041 7.061,23.564 12.584,23.564L25.916,23.564C31.439,23.564 35.916,28.041 35.916,33.563L35.916,35.23C35.916,37.991 33.678,40.23 30.916,40.23L7.584,40.23C4.822,40.23 2.584,37.991 2.584,35.23L2.584,33.563Z" fill="#006FFD"/>
</mask>
<rect  x="-0.749" y="0.228" width="39.998" height="39.999" fill="#D4D6DD"/>
</svg>
