<svg width="42" height="42" viewBox="0 0 42 42" fill="none" xmlns="http://www.w3.org/2000/svg" xmlns:xlink="http://www.w3.org/1999/xlink">
<mask id="mask_0_i_281_5709;109_2346;109_2323;269_8089" style="mask-type:alpha" maskUnits="userSpaceOnUse" x="0.333008" y="0.459229" width="20" height="20">
<path d="M39.838,17.419L35.367,16.086C35.058,15.008 34.633,13.966 34.099,12.979L36.288,8.886C36.37,8.732 36.4,8.555 36.374,8.382C36.347,8.209 36.266,8.049 36.141,7.926L32.952,4.726C32.828,4.602 32.668,4.52 32.495,4.494C32.322,4.467 32.145,4.497 31.991,4.579L27.92,6.753C26.922,6.194 25.866,5.746 24.77,5.419L23.436,1.006C23.379,0.843 23.272,0.703 23.131,0.605C22.989,0.506 22.82,0.456 22.648,0.459L18.137,0.459C17.964,0.46 17.795,0.516 17.656,0.619C17.517,0.723 17.414,0.867 17.363,1.033L16.028,5.433C14.923,5.758 13.858,6.205 12.852,6.766L8.848,4.606C8.693,4.524 8.516,4.494 8.343,4.52C8.17,4.547 8.01,4.628 7.887,4.753L4.644,7.913C4.519,8.036 4.438,8.195 4.411,8.368C4.385,8.541 4.415,8.718 4.497,8.873L6.659,12.873C6.099,13.873 5.651,14.933 5.325,16.033L0.907,17.366C0.741,17.417 0.596,17.52 0.493,17.659C0.39,17.798 0.334,17.966 0.333,18.139L0.333,22.646C0.334,22.819 0.39,22.987 0.493,23.127C0.596,23.266 0.741,23.368 0.907,23.419L5.351,24.753C5.681,25.834 6.129,26.875 6.686,27.859L4.497,32.046C4.415,32.2 4.385,32.377 4.411,32.55C4.438,32.723 4.519,32.883 4.644,33.006L7.834,36.193C7.957,36.317 8.117,36.398 8.29,36.425C8.463,36.451 8.64,36.421 8.795,36.339L12.919,34.139C13.894,34.665 14.923,35.085 15.988,35.393L17.323,39.886C17.374,40.051 17.477,40.196 17.616,40.299C17.755,40.402 17.924,40.458 18.097,40.459L22.608,40.459C22.781,40.458 22.95,40.402 23.089,40.299C23.228,40.196 23.331,40.051 23.382,39.886L24.717,35.379C25.773,35.07 26.793,34.65 27.76,34.126L31.911,36.339C32.065,36.421 32.242,36.451 32.415,36.425C32.588,36.398 32.748,36.317 32.871,36.193L36.061,33.006C36.186,32.883 36.267,32.723 36.294,32.55C36.32,32.377 36.29,32.2 36.208,32.046L33.993,27.913C34.523,26.943 34.948,25.919 35.26,24.859L39.758,23.526C39.924,23.475 40.069,23.372 40.172,23.233C40.275,23.094 40.331,22.926 40.332,22.753L40.332,18.206C40.34,18.04 40.297,17.876 40.209,17.735C40.12,17.595 39.991,17.484 39.838,17.419ZM20.393,27.793C18.941,27.793 17.522,27.363 16.314,26.557C15.107,25.751 14.166,24.606 13.611,23.266C13.055,21.926 12.91,20.451 13.193,19.029C13.476,17.606 14.176,16.299 15.202,15.274C16.229,14.248 17.537,13.55 18.961,13.267C20.384,12.984 21.86,13.129 23.202,13.684C24.543,14.239 25.689,15.179 26.496,16.385C27.303,17.591 27.733,19.009 27.733,20.459C27.733,22.404 26.96,24.269 25.583,25.645C24.207,27.02 22.339,27.793 20.393,27.793Z" fill="#006FFD"/>
</mask>
<rect  x="0.333" y="0.459" width="40" height="40" fill="#006FFD"/>
</svg>
