<svg width="52" height="42" viewBox="0 0 52 42" fill="none" xmlns="http://www.w3.org/2000/svg" xmlns:xlink="http://www.w3.org/1999/xlink">
<path d="M47.737,36.125L15.303,36.125L4.173,20.125L15.303,4.125L47.737,4.125L47.737,36.125ZM49.737,0.125L14.259,0.125C13.605,0.125 12.991,0.445 12.617,0.983L0.095,18.983C-0.383,19.669 -0.383,20.581 0.095,21.267L12.617,39.267C12.991,39.805 13.605,40.125 14.259,40.125L49.737,40.125C50.841,40.125 51.737,39.229 51.737,38.125L51.737,2.125C51.737,1.021 50.841,0.125 49.737,0.125ZM21.323,28.039C21.713,28.429 22.225,28.625 22.737,28.625C23.249,28.625 23.761,28.429 24.151,28.039L29.237,22.953L34.323,28.039C34.713,28.429 35.225,28.625 35.737,28.625C36.249,28.625 36.761,28.429 37.151,28.039C37.933,27.257 37.933,25.993 37.151,25.211L32.065,20.125L37.151,15.039C37.933,14.257 37.933,12.993 37.151,12.211C36.369,11.429 35.105,11.429 34.323,12.211L29.237,17.297L24.151,12.211C23.369,11.429 22.105,11.429 21.323,12.211C20.541,12.993 20.541,14.257 21.323,15.039L26.409,20.125L21.323,25.211C20.541,25.993 20.541,27.257 21.323,28.039Z" clip-rule="evenodd" fill-rule="evenodd" fill="#1F2024"/>
</svg>
