<svg width="42" height="42" viewBox="0 0 42 42" fill="none" xmlns="http://www.w3.org/2000/svg" xmlns:xlink="http://www.w3.org/1999/xlink">
<mask id="mask_0_i_281_5884;109_2341;109_2323;269_8040" style="mask-type:alpha" maskUnits="userSpaceOnUse" x="3.583374" y="3.563293" width="16.666668" height="16.666666">
<path d="M13.819,34.578L30.486,17.911L22.569,9.994L5.902,26.661C5.673,26.891 5.51,27.178 5.431,27.493L3.583,36.897L12.985,35.049C13.301,34.97 13.589,34.807 13.819,34.578ZM35.867,12.53C36.539,11.857 36.917,10.945 36.917,9.994C36.917,9.043 36.539,8.131 35.867,7.458L33.022,4.614C32.349,3.941 31.437,3.563 30.486,3.563C29.535,3.563 28.623,3.941 27.95,4.614L25.105,7.458L33.022,15.375L35.867,12.53Z" fill="#006FFD"/>
</mask>
<rect  x="0.25" y="0.23" width="40" height="40" fill="#006FFD"/>
</svg>
