<svg width="26" height="26" viewBox="0 0 26 26" fill="none" xmlns="http://www.w3.org/2000/svg" xmlns:xlink="http://www.w3.org/1999/xlink">
<mask id="mask_0_i_283_7043;283_6867;283_6034" style="mask-type:alpha" maskUnits="userSpaceOnUse" x="2" y="3.229919" width="9.999998" height="9.099167">
<path d="M2,4.73C2,4.332 2.151,3.951 2.418,3.669C2.686,3.388 3.05,3.23 3.429,3.23L20.571,3.23C20.95,3.23 21.314,3.388 21.582,3.669C21.849,3.951 22,4.332 22,4.73C22,5.128 21.849,5.509 21.582,5.791C21.314,6.072 20.95,6.23 20.571,6.23L3.429,6.23C3.05,6.23 2.686,6.072 2.418,5.791C2.151,5.509 2,5.128 2,4.73ZM5.148,12.23C5.148,11.832 5.298,11.451 5.566,11.169C5.834,10.888 6.198,10.73 6.577,10.73L17.493,10.73C17.872,10.73 18.235,10.888 18.503,11.169C18.771,11.451 18.922,11.832 18.922,12.23C18.922,12.628 18.771,13.009 18.503,13.291C18.235,13.572 17.872,13.73 17.493,13.73L6.577,13.73C6.198,13.73 5.834,13.572 5.566,13.291C5.298,13.009 5.148,12.628 5.148,12.23ZM8.82,19.928C8.82,19.53 8.97,19.149 9.238,18.868C9.506,18.586 9.869,18.428 10.248,18.428L13.824,18.428C14.203,18.428 14.566,18.586 14.834,18.868C15.102,19.149 15.253,19.53 15.253,19.928C15.253,20.326 15.102,20.708 14.834,20.989C14.566,21.27 14.203,21.428 13.824,21.428L10.248,21.428C9.869,21.428 9.506,21.27 9.238,20.989C8.97,20.708 8.82,20.326 8.82,19.928Z" clip-rule="evenodd" fill-rule="evenodd" fill="#006FFD"/>
</mask>
<rect  x="0.004" y="0.229" width="24" height="24" fill="#8F9098"/>
</svg>
