<svg width="64" height="64" viewBox="0 0 64 64" fill="none" xmlns="http://www.w3.org/2000/svg" xmlns:xlink="http://www.w3.org/1999/xlink">
<mask id="mask_0_i_294_10211;7_236;11_211;11_209" style="mask-type:alpha" maskUnits="userSpaceOnUse" x="0.001465" y="5.334351" width="31.998749" height="26.665625">
<path d="M22.925,23.243C22.925,26.925 20.06,29.91 16.525,29.91C12.991,29.91 10.126,26.925 10.126,23.243C10.126,19.562 12.991,16.577 16.525,16.577C20.06,16.577 22.925,19.562 22.925,23.243Z" fill="#B4DBFF"/>
<path d="M0.001,12.001C0.001,8.319 2.867,5.334 6.401,5.334L57.599,5.334C61.134,5.334 63.999,8.319 63.999,12.001L63.999,51.999C63.999,55.681 61.134,58.666 57.599,58.666L53.375,58.666C53.361,58.666 53.347,58.666 53.333,58.666L7.86,58.666C7.848,58.666 7.836,58.666 7.824,58.666L6.401,58.666C2.867,58.666 0.001,55.681 0.001,51.999L0.001,12.001ZM6.401,10.334L57.599,10.334C58.483,10.334 59.199,11.08 59.199,12.001L59.199,32.774L45.295,18.667L21.64,42.666L14.671,35.597L4.801,45.61L4.801,12.001C4.801,11.08 5.518,10.334 6.401,10.334Z" clip-rule="evenodd" fill-rule="evenodd" fill="#B4DBFF"/>
</mask>
<rect  x="0.001" y="-0.001" width="63.997" height="63.997" fill="#B4DBFF"/>
</svg>
