<svg width="54" height="54" viewBox="0 0 54 54" fill="none" xmlns="http://www.w3.org/2000/svg" xmlns:xlink="http://www.w3.org/1999/xlink">
<path d="M26,52.481C11.503,52.481 -0.25,40.728 -0.25,26.231C-0.25,11.733 11.503,-0.019 26,-0.019C40.497,-0.019 52.25,11.733 52.25,26.231C52.25,40.728 40.497,52.481 26,52.481ZM26,49.856C39.048,49.856 49.625,39.279 49.625,26.231C49.625,13.183 39.048,2.606 26,2.606C12.952,2.606 2.375,13.183 2.375,26.231C2.375,39.279 12.952,49.856 26,49.856ZM25.969,44.606C16.614,44.606 7.735,35.633 7.735,29.148C7.735,25.427 15.821,29.906 25.969,29.906C36.117,29.906 44.293,25.433 44.265,29.148C44.22,35.432 35.324,44.606 25.969,44.606ZM25.969,36.337C34.667,36.337 40.685,32.974 40.685,30.549C40.685,28.124 34.667,31.995 25.969,31.995C17.27,31.995 11.353,28.589 11.353,30.549C11.353,32.51 17.27,36.337 25.969,36.337ZM18.092,21.571C16.371,21.571 14.975,20.176 14.975,18.454C14.975,16.733 16.371,15.337 18.092,15.337C19.814,15.337 21.209,16.733 21.209,18.454C21.209,20.176 19.814,21.571 18.092,21.571ZM33.842,21.571C32.121,21.571 30.725,20.176 30.725,18.454C30.725,16.733 32.121,15.337 33.842,15.337C35.564,15.337 36.959,16.733 36.959,18.454C36.959,20.176 35.564,21.571 33.842,21.571Z" clip-rule="evenodd" fill-rule="evenodd" fill="#494A50"/>
</svg>
