<svg width="40" height="42" viewBox="0 0 40 42" fill="none" xmlns="http://www.w3.org/2000/svg" xmlns:xlink="http://www.w3.org/1999/xlink">
<mask id="mask_0_i_281_5884;109_2346;109_2326;281_6031" style="mask-type:alpha" maskUnits="userSpaceOnUse" x="-0.25" y="3.563293" width="20" height="16.666668">
<path d="M6.417,3.563C4.649,3.563 2.953,4.266 1.703,5.516C0.452,6.766 -0.25,8.462 -0.25,10.23L-0.25,10.9L19.75,21.67L39.75,10.903L39.75,10.23C39.75,8.462 39.048,6.766 37.797,5.516C36.547,4.266 34.851,3.563 33.083,3.563L6.417,3.563ZM39.75,14.687L20.54,25.03C20.297,25.161 20.026,25.229 19.75,25.229C19.474,25.229 19.203,25.161 18.96,25.03L-0.25,14.687L-0.25,30.23C-0.25,31.998 0.452,33.694 1.703,34.944C2.953,36.194 4.649,36.897 6.417,36.897L33.083,36.897C34.851,36.897 36.547,36.194 37.797,34.944C39.048,33.694 39.75,31.998 39.75,30.23L39.75,14.687Z" fill="#006FFD"/>
</mask>
<rect  x="-0.25" y="0.229" width="40" height="40" fill="#D4D6DD"/>
</svg>
