<svg width="54" height="54" viewBox="0 0 54 54" fill="none" xmlns="http://www.w3.org/2000/svg" xmlns:xlink="http://www.w3.org/1999/xlink">
<path d="M26,52.48C11.503,52.48 -0.25,40.727 -0.25,26.23C-0.25,11.733 11.503,-0.02 26,-0.02C40.497,-0.02 52.25,11.733 52.25,26.23C52.25,40.727 40.497,52.48 26,52.48ZM26,49.855C39.048,49.855 49.625,39.278 49.625,26.23C49.625,13.182 39.048,2.605 26,2.605C12.952,2.605 2.375,13.182 2.375,26.23C2.375,39.278 12.952,49.855 26,49.855ZM25.969,44.605C16.614,44.605 7.735,35.632 7.735,29.148C7.735,25.426 15.821,29.905 25.969,29.905C36.117,29.905 44.293,25.432 44.265,29.148C44.22,35.432 35.324,44.605 25.969,44.605ZM25.969,36.336C34.667,36.336 40.685,32.974 40.685,30.548C40.685,28.123 34.667,31.994 25.969,31.994C17.27,31.994 11.353,28.588 11.353,30.548C11.353,32.509 17.27,36.336 25.969,36.336ZM18.092,21.571C16.371,21.571 14.975,20.175 14.975,18.453C14.975,16.732 16.371,15.336 18.092,15.336C19.814,15.336 21.209,16.732 21.209,18.453C21.209,20.175 19.814,21.571 18.092,21.571ZM33.842,21.571C32.121,21.571 30.725,20.175 30.725,18.453C30.725,16.732 32.121,15.336 33.842,15.336C35.564,15.336 36.959,16.732 36.959,18.453C36.959,20.175 35.564,21.571 33.842,21.571Z" clip-rule="evenodd" fill-rule="evenodd" fill="#494A50"/>
</svg>
