<svg width="26" height="26" viewBox="0 0 26 26" fill="none" xmlns="http://www.w3.org/2000/svg" xmlns:xlink="http://www.w3.org/1999/xlink">
<mask id="mask_0_i_283_7034;283_6875;283_6022" style="mask-type:alpha" maskUnits="userSpaceOnUse" x="0.447266" y="1.97998" width="11.552743" height="10.25">
<path d="M5.256,2.305C5.733,1.872 6.461,1.872 6.938,2.305L11.338,6.305C11.849,6.769 11.887,7.56 11.422,8.071C10.958,8.582 10.167,8.619 9.656,8.155L7.347,6.056L7.347,21.23C7.347,21.92 6.788,22.48 6.097,22.48C5.407,22.48 4.847,21.92 4.847,21.23L4.847,6.056L2.538,8.155C2.027,8.619 1.237,8.582 0.772,8.071C0.308,7.56 0.346,6.769 0.856,6.305L5.256,2.305ZM17.903,1.98C18.593,1.98 19.153,2.54 19.153,3.23L19.153,18.404L21.462,16.305C21.973,15.841 22.763,15.878 23.228,16.389C23.692,16.9 23.654,17.691 23.144,18.155L18.744,22.155C18.267,22.588 17.539,22.588 17.062,22.155L12.662,18.155C12.151,17.691 12.113,16.9 12.578,16.389C13.042,15.878 13.833,15.841 14.344,16.305L16.653,18.404L16.653,3.23C16.653,2.54 17.212,1.98 17.903,1.98Z" clip-rule="evenodd" fill-rule="evenodd" fill="#006FFD"/>
</mask>
<rect  x="0.004" y="0.23" width="24" height="24" fill="#8F9098"/>
</svg>
