<svg width="64" height="66" viewBox="0 0 64 66" fill="none" xmlns="http://www.w3.org/2000/svg" xmlns:xlink="http://www.w3.org/1999/xlink">
<mask id="mask_0_i_267_5320;11_211;11_209" style="mask-type:alpha" maskUnits="userSpaceOnUse" x="-0.998535" y="5.564453" width="31.998749" height="26.665625">
<path d="M21.925,23.473C21.925,27.155 19.06,30.14 15.525,30.14C11.991,30.14 9.126,27.155 9.126,23.473C9.126,19.792 11.991,16.807 15.525,16.807C19.06,16.807 21.925,19.792 21.925,23.473Z" fill="#B4DBFF"/>
<path d="M-0.999,12.231C-0.999,8.549 1.867,5.564 5.401,5.564L56.599,5.564C60.134,5.564 62.999,8.549 62.999,12.231L62.999,52.229C62.999,55.911 60.134,58.896 56.599,58.896L52.375,58.896C52.361,58.896 52.347,58.896 52.333,58.896L6.86,58.896C6.848,58.896 6.836,58.896 6.824,58.896L5.401,58.896C1.867,58.896 -0.999,55.911 -0.999,52.229L-0.999,12.231ZM5.401,10.564L56.599,10.564C57.483,10.564 58.199,11.31 58.199,12.231L58.199,33.004L44.295,18.897L20.64,42.896L13.671,35.827L3.801,45.84L3.801,12.231C3.801,11.31 4.518,10.564 5.401,10.564Z" clip-rule="evenodd" fill-rule="evenodd" fill="#B4DBFF"/>
</mask>
<rect  x="-0.999" y="0.229" width="63.997" height="63.997" fill="#B4DBFF"/>
</svg>
