<svg width="64" height="64" viewBox="0 0 64 64" fill="none" xmlns="http://www.w3.org/2000/svg" xmlns:xlink="http://www.w3.org/1999/xlink">
<mask id="mask_0_i_294_10225;11_211;11_209" style="mask-type:alpha" maskUnits="userSpaceOnUse" x="-0.316895" y="4.606812" width="31.998749" height="26.665625">
<path d="M22.607,22.516C22.607,26.197 19.742,29.182 16.207,29.182C12.672,29.182 9.807,26.197 9.807,22.516C9.807,18.834 12.672,15.849 16.207,15.849C19.742,15.849 22.607,18.834 22.607,22.516Z" fill="#B4DBFF"/>
<path d="M-0.317,11.273C-0.317,7.591 2.548,4.607 6.083,4.607L57.281,4.607C60.815,4.607 63.681,7.591 63.681,11.273L63.681,51.272C63.681,54.953 60.815,57.938 57.281,57.938L53.057,57.938C53.043,57.938 53.028,57.938 53.014,57.938L7.541,57.938C7.529,57.938 7.517,57.938 7.505,57.938L6.083,57.938C2.548,57.938 -0.317,54.953 -0.317,51.272L-0.317,11.273ZM6.083,9.607L57.281,9.607C58.165,9.607 58.881,10.353 58.881,11.273L58.881,32.046L44.977,17.94L21.321,41.939L14.353,34.869L4.483,44.883L4.483,11.273C4.483,10.353 5.199,9.607 6.083,9.607Z" clip-rule="evenodd" fill-rule="evenodd" fill="#B4DBFF"/>
</mask>
<rect  x="-0.317" y="-0.728" width="63.997" height="63.997" fill="#B4DBFF"/>
</svg>
