<svg width="64" height="64" viewBox="0 0 64 64" fill="none" xmlns="http://www.w3.org/2000/svg" xmlns:xlink="http://www.w3.org/1999/xlink">
<mask id="mask_0_i_240_6272;174_2067;11_211;11_209" style="mask-type:alpha" maskUnits="userSpaceOnUse" x="0.001465" y="4.390869" width="31.998749" height="26.665625">
<path d="M22.925,22.3C22.925,25.981 20.06,28.966 16.525,28.966C12.991,28.966 10.126,25.981 10.126,22.3C10.126,18.618 12.991,15.633 16.525,15.633C20.06,15.633 22.925,18.618 22.925,22.3Z" fill="#B4DBFF"/>
<path d="M0.001,11.057C0.001,7.376 2.867,4.391 6.401,4.391L57.599,4.391C61.134,4.391 63.999,7.376 63.999,11.057L63.999,51.056C63.999,54.737 61.134,57.722 57.599,57.722L53.375,57.722C53.361,57.722 53.347,57.722 53.333,57.722L7.86,57.722C7.848,57.722 7.836,57.722 7.824,57.722L6.401,57.722C2.867,57.722 0.001,54.737 0.001,51.056L0.001,11.057ZM6.401,9.391L57.599,9.391C58.483,9.391 59.199,10.137 59.199,11.057L59.199,31.83L45.295,17.724L21.64,41.723L14.671,34.653L4.801,44.667L4.801,11.057C4.801,10.137 5.518,9.391 6.401,9.391Z" clip-rule="evenodd" fill-rule="evenodd" fill="#B4DBFF"/>
</mask>
<rect  x="0.001" y="-0.944" width="63.997" height="63.997" fill="#B4DBFF"/>
</svg>
