<svg width="64" height="64" viewBox="0 0 64 64" fill="none" xmlns="http://www.w3.org/2000/svg" xmlns:xlink="http://www.w3.org/1999/xlink">
<mask id="mask_0_i_294_6551;174_2067;11_211;11_209" style="mask-type:alpha" maskUnits="userSpaceOnUse" x="0.001587" y="4.954102" width="31.998749" height="26.665625">
<path d="M22.925,22.863C22.925,26.545 20.06,29.53 16.525,29.53C12.991,29.53 10.126,26.545 10.126,22.863C10.126,19.181 12.991,16.197 16.525,16.197C20.06,16.197 22.925,19.181 22.925,22.863Z" fill="#B4DBFF"/>
<path d="M0.002,11.621C0.002,7.939 2.867,4.954 6.401,4.954L57.599,4.954C61.134,4.954 63.999,7.939 63.999,11.621L63.999,51.619C63.999,55.301 61.134,58.285 57.599,58.285L53.375,58.285C53.361,58.285 53.347,58.285 53.333,58.285L7.86,58.285C7.848,58.285 7.836,58.285 7.824,58.285L6.401,58.285C2.867,58.285 0.002,55.301 0.002,51.619L0.002,11.621ZM6.401,9.954L57.599,9.954C58.483,9.954 59.199,10.7 59.199,11.621L59.199,32.393L45.295,18.287L21.64,42.286L14.671,35.217L4.801,45.23L4.801,11.621C4.801,10.7 5.518,9.954 6.401,9.954Z" clip-rule="evenodd" fill-rule="evenodd" fill="#B4DBFF"/>
</mask>
<rect  x="0.001" y="-0.381" width="63.997" height="63.997" fill="#B4DBFF"/>
</svg>
