<svg width="66" height="64" viewBox="0 0 66 64" fill="none" xmlns="http://www.w3.org/2000/svg" xmlns:xlink="http://www.w3.org/1999/xlink">
<mask id="mask_0_i_258_5737;234_4069;11_211;11_209" style="mask-type:alpha" maskUnits="userSpaceOnUse" x="0.896484" y="5.2229" width="31.998749" height="26.665625">
<path d="M23.82,23.132C23.82,26.814 20.955,29.798 17.42,29.798C13.886,29.798 11.021,26.814 11.021,23.132C11.021,19.45 13.886,16.465 17.42,16.465C20.955,16.465 23.82,19.45 23.82,23.132Z" fill="#B4DBFF"/>
<path d="M0.896,11.889C0.896,8.208 3.762,5.223 7.296,5.223L58.494,5.223C62.029,5.223 64.894,8.208 64.894,11.889L64.894,51.888C64.894,55.57 62.029,58.554 58.494,58.554L54.27,58.554C54.256,58.554 54.242,58.554 54.228,58.554L8.755,58.554C8.743,58.554 8.731,58.554 8.719,58.554L7.296,58.554C3.762,58.554 0.896,55.57 0.896,51.888L0.896,11.889ZM7.296,10.223L58.494,10.223C59.378,10.223 60.094,10.969 60.094,11.889L60.094,32.662L46.19,18.556L22.535,42.555L15.566,35.485L5.696,45.499L5.696,11.889C5.696,10.969 6.413,10.223 7.296,10.223Z" clip-rule="evenodd" fill-rule="evenodd" fill="#B4DBFF"/>
</mask>
<rect  x="0.895" y="-0.112" width="63.997" height="63.997" fill="#B4DBFF"/>
</svg>
