<svg width="64" height="64" viewBox="0 0 64 64" fill="none" xmlns="http://www.w3.org/2000/svg" xmlns:xlink="http://www.w3.org/1999/xlink">
<mask id="mask_0_i_294_10190;174_2245;11_211;11_209" style="mask-type:alpha" maskUnits="userSpaceOnUse" x="-0.316895" y="4.524902" width="31.998749" height="26.665625">
<path d="M22.607,22.434C22.607,26.116 19.742,29.1 16.207,29.1C12.672,29.1 9.807,26.116 9.807,22.434C9.807,18.752 12.672,15.767 16.207,15.767C19.742,15.767 22.607,18.752 22.607,22.434Z" fill="#B4DBFF"/>
<path d="M-0.317,11.191C-0.317,7.51 2.548,4.525 6.083,4.525L57.281,4.525C60.815,4.525 63.681,7.51 63.681,11.191L63.681,51.19C63.681,54.872 60.815,57.856 57.281,57.856L53.057,57.856C53.043,57.856 53.028,57.856 53.014,57.856L7.541,57.856C7.529,57.856 7.517,57.856 7.505,57.856L6.083,57.856C2.548,57.856 -0.317,54.872 -0.317,51.19L-0.317,11.191ZM6.083,9.525L57.281,9.525C58.165,9.525 58.881,10.271 58.881,11.191L58.881,31.964L44.977,17.858L21.321,41.857L14.353,34.787L4.483,44.801L4.483,11.191C4.483,10.271 5.199,9.525 6.083,9.525Z" clip-rule="evenodd" fill-rule="evenodd" fill="#B4DBFF"/>
</mask>
<rect  x="-0.317" y="-0.81" width="63.997" height="63.997" fill="#B4DBFF"/>
</svg>
