<svg width="64" height="64" viewBox="0 0 64 64" fill="none" xmlns="http://www.w3.org/2000/svg" xmlns:xlink="http://www.w3.org/1999/xlink">
<mask id="mask_0_i_174_2110;11_211;11_209" style="mask-type:alpha" maskUnits="userSpaceOnUse" x="-0.472168" y="5.334351" width="31.998749" height="26.665625">
<path d="M22.451,23.243C22.451,26.925 19.586,29.91 16.052,29.91C12.517,29.91 9.652,26.925 9.652,23.243C9.652,19.562 12.517,16.577 16.052,16.577C19.586,16.577 22.451,19.562 22.451,23.243Z" fill="#B4DBFF"/>
<path d="M-0.472,12.001C-0.472,8.319 2.393,5.334 5.928,5.334L57.126,5.334C60.66,5.334 63.525,8.319 63.525,12.001L63.525,51.999C63.525,55.681 60.66,58.666 57.126,58.666L52.901,58.666C52.887,58.666 52.873,58.666 52.859,58.666L7.386,58.666C7.374,58.666 7.362,58.666 7.35,58.666L5.928,58.666C2.393,58.666 -0.472,55.681 -0.472,51.999L-0.472,12.001ZM5.928,10.334L57.126,10.334C58.009,10.334 58.725,11.08 58.725,12.001L58.725,32.774L44.821,18.667L21.166,42.666L14.198,35.597L4.328,45.61L4.328,12.001C4.328,11.08 5.044,10.334 5.928,10.334Z" clip-rule="evenodd" fill-rule="evenodd" fill="#B4DBFF"/>
</mask>
<rect  x="-0.473" y="-0.001" width="63.997" height="63.997" fill="#B4DBFF"/>
</svg>
