<svg width="66" height="64" viewBox="0 0 66 64" fill="none" xmlns="http://www.w3.org/2000/svg" xmlns:xlink="http://www.w3.org/1999/xlink">
<mask id="mask_0_i_11_211;11_209" style="mask-type:alpha" maskUnits="userSpaceOnUse" x="0.845703" y="5.334351" width="31.998749" height="26.665625">
<path d="M23.769,23.243C23.769,26.925 20.904,29.91 17.37,29.91C13.835,29.91 10.97,26.925 10.97,23.243C10.97,19.562 13.835,16.577 17.37,16.577C20.904,16.577 23.769,19.562 23.769,23.243Z" fill="#B4DBFF"/>
<path d="M0.846,12.001C0.846,8.319 3.711,5.334 7.245,5.334L58.444,5.334C61.978,5.334 64.843,8.319 64.843,12.001L64.843,51.999C64.843,55.681 61.978,58.666 58.444,58.666L54.219,58.666C54.205,58.666 54.191,58.666 54.177,58.666L8.704,58.666C8.692,58.666 8.68,58.666 8.668,58.666L7.245,58.666C3.711,58.666 0.846,55.681 0.846,51.999L0.846,12.001ZM7.245,10.334L58.444,10.334C59.327,10.334 60.043,11.08 60.043,12.001L60.043,32.774L46.139,18.667L22.484,42.666L15.516,35.597L5.646,45.61L5.646,12.001C5.646,11.08 6.362,10.334 7.245,10.334Z" clip-rule="evenodd" fill-rule="evenodd" fill="#B4DBFF"/>
</mask>
<rect  x="0.844" y="-0.001" width="63.997" height="63.997" fill="#B4DBFF"/>
</svg>
