<svg width="64" height="64" viewBox="0 0 64 64" fill="none" xmlns="http://www.w3.org/2000/svg" xmlns:xlink="http://www.w3.org/1999/xlink">
<mask id="mask_0_i_240_6081;174_2067;11_211;11_209" style="mask-type:alpha" maskUnits="userSpaceOnUse" x="-0.069824" y="4.390869" width="31.998749" height="26.665625">
<path d="M22.854,22.3C22.854,25.981 19.989,28.966 16.454,28.966C12.92,28.966 10.054,25.981 10.054,22.3C10.054,18.618 12.92,15.633 16.454,15.633C19.989,15.633 22.854,18.618 22.854,22.3Z" fill="#B4DBFF"/>
<path d="M-0.07,11.057C-0.07,7.376 2.795,4.391 6.33,4.391L57.528,4.391C61.062,4.391 63.928,7.376 63.928,11.057L63.928,51.056C63.928,54.737 61.062,57.722 57.528,57.722L53.304,57.722C53.29,57.722 53.275,57.722 53.261,57.722L7.788,57.722C7.776,57.722 7.764,57.722 7.752,57.722L6.33,57.722C2.795,57.722 -0.07,54.737 -0.07,51.056L-0.07,11.057ZM6.33,9.391L57.528,9.391C58.412,9.391 59.128,10.137 59.128,11.057L59.128,31.83L45.224,17.724L21.568,41.723L14.6,34.653L4.73,44.667L4.73,11.057C4.73,10.137 5.446,9.391 6.33,9.391Z" clip-rule="evenodd" fill-rule="evenodd" fill="#B4DBFF"/>
</mask>
<rect  x="-0.07" y="-0.944" width="63.997" height="63.997" fill="#B4DBFF"/>
</svg>
