<svg width="66" height="66" viewBox="0 0 66 66" fill="none" xmlns="http://www.w3.org/2000/svg" xmlns:xlink="http://www.w3.org/1999/xlink">
<mask id="mask_0_i_240_6343;11_211;11_209" style="mask-type:alpha" maskUnits="userSpaceOnUse" x="1.00145" y="5.564331" width="31.998749" height="26.665625">
<path d="M23.925,23.473C23.925,27.155 21.06,30.14 17.525,30.14C13.991,30.14 11.126,27.155 11.126,23.473C11.126,19.791 13.991,16.807 17.525,16.807C21.06,16.807 23.925,19.791 23.925,23.473Z" fill="#B4DBFF"/>
<path d="M1.001,12.231C1.001,8.549 3.867,5.564 7.401,5.564L58.599,5.564C62.134,5.564 64.999,8.549 64.999,12.231L64.999,52.229C64.999,55.911 62.134,58.896 58.599,58.896L54.375,58.896C54.361,58.896 54.347,58.896 54.333,58.896L8.86,58.896C8.848,58.896 8.836,58.896 8.824,58.896L7.401,58.896C3.867,58.896 1.001,55.911 1.001,52.229L1.001,12.231ZM7.401,10.564L58.599,10.564C59.483,10.564 60.199,11.31 60.199,12.231L60.199,33.004L46.295,18.897L22.64,42.896L15.671,35.827L5.801,45.84L5.801,12.231C5.801,11.31 6.518,10.564 7.401,10.564Z" clip-rule="evenodd" fill-rule="evenodd" fill="#B4DBFF"/>
</mask>
<rect  x="1.001" y="0.229" width="63.997" height="63.997" fill="#B4DBFF"/>
</svg>
