<svg width="64" height="66" viewBox="0 0 64 66" fill="none" xmlns="http://www.w3.org/2000/svg" xmlns:xlink="http://www.w3.org/1999/xlink">
<mask id="mask_0_i_294_6543;174_2245;11_211;11_209" style="mask-type:alpha" maskUnits="userSpaceOnUse" x="0.001587" y="5.954102" width="31.998749" height="26.665625">
<path d="M22.925,23.863C22.925,27.545 20.06,30.53 16.525,30.53C12.991,30.53 10.126,27.545 10.126,23.863C10.126,20.181 12.991,17.197 16.525,17.197C20.06,17.197 22.925,20.181 22.925,23.863Z" fill="#B4DBFF"/>
<path d="M0.002,12.621C0.002,8.939 2.867,5.954 6.401,5.954L57.599,5.954C61.134,5.954 63.999,8.939 63.999,12.621L63.999,52.619C63.999,56.301 61.134,59.285 57.599,59.285L53.375,59.285C53.361,59.285 53.347,59.285 53.333,59.285L7.86,59.285C7.848,59.285 7.836,59.285 7.824,59.285L6.401,59.285C2.867,59.285 0.002,56.301 0.002,52.619L0.002,12.621ZM6.401,10.954L57.599,10.954C58.483,10.954 59.199,11.7 59.199,12.621L59.199,33.393L45.295,19.287L21.64,43.286L14.671,36.217L4.801,46.23L4.801,12.621C4.801,11.7 5.518,10.954 6.401,10.954Z" clip-rule="evenodd" fill-rule="evenodd" fill="#B4DBFF"/>
</mask>
<rect  x="0.001" y="0.619" width="63.997" height="63.997" fill="#B4DBFF"/>
</svg>
