<svg width="64" height="64" viewBox="0 0 64 64" fill="none" xmlns="http://www.w3.org/2000/svg" xmlns:xlink="http://www.w3.org/1999/xlink">
<mask id="mask_0_i_269_8508;11_211;11_209" style="mask-type:alpha" maskUnits="userSpaceOnUse" x="-0.998535" y="5.335693" width="31.998749" height="26.665625">
<path d="M21.925,23.245C21.925,26.926 19.06,29.911 15.525,29.911C11.991,29.911 9.126,26.926 9.126,23.245C9.126,19.563 11.991,16.578 15.525,16.578C19.06,16.578 21.925,19.563 21.925,23.245Z" fill="#B4DBFF"/>
<path d="M-0.999,12.002C-0.999,8.32 1.867,5.336 5.401,5.336L56.599,5.336C60.134,5.336 62.999,8.32 62.999,12.002L62.999,52C62.999,55.682 60.134,58.667 56.599,58.667L52.375,58.667C52.361,58.667 52.347,58.667 52.333,58.667L6.86,58.667C6.848,58.667 6.836,58.667 6.824,58.667L5.401,58.667C1.867,58.667 -0.999,55.682 -0.999,52L-0.999,12.002ZM5.401,10.335L56.599,10.335C57.483,10.335 58.199,11.082 58.199,12.002L58.199,32.775L44.295,18.669L20.64,42.668L13.671,35.598L3.801,45.612L3.801,12.002C3.801,11.082 4.518,10.335 5.401,10.335Z" clip-rule="evenodd" fill-rule="evenodd" fill="#B4DBFF"/>
</mask>
<rect  x="-0.999" y="0" width="63.997" height="63.997" fill="#B4DBFF"/>
</svg>
