<svg width="66" height="64" viewBox="0 0 66 64" fill="none" xmlns="http://www.w3.org/2000/svg" xmlns:xlink="http://www.w3.org/1999/xlink">
<mask id="mask_0_i_234_4069;11_211;11_209" style="mask-type:alpha" maskUnits="userSpaceOnUse" x="0.896484" y="5.334351" width="31.998749" height="26.665625">
<path d="M23.82,23.243C23.82,26.925 20.955,29.91 17.42,29.91C13.886,29.91 11.021,26.925 11.021,23.243C11.021,19.562 13.886,16.577 17.42,16.577C20.955,16.577 23.82,19.562 23.82,23.243Z" fill="#B4DBFF"/>
<path d="M0.896,12.001C0.896,8.319 3.762,5.334 7.296,5.334L58.494,5.334C62.029,5.334 64.894,8.319 64.894,12.001L64.894,51.999C64.894,55.681 62.029,58.666 58.494,58.666L54.27,58.666C54.256,58.666 54.242,58.666 54.228,58.666L8.755,58.666C8.743,58.666 8.731,58.666 8.719,58.666L7.296,58.666C3.762,58.666 0.896,55.681 0.896,51.999L0.896,12.001ZM7.296,10.334L58.494,10.334C59.378,10.334 60.094,11.08 60.094,12.001L60.094,32.774L46.19,18.667L22.535,42.666L15.566,35.597L5.696,45.61L5.696,12.001C5.696,11.08 6.413,10.334 7.296,10.334Z" clip-rule="evenodd" fill-rule="evenodd" fill="#B4DBFF"/>
</mask>
<rect  x="0.895" y="-0.001" width="63.997" height="63.997" fill="#B4DBFF"/>
</svg>
