<svg width="48" height="48" viewBox="0 0 48 48" fill="none" xmlns="http://www.w3.org/2000/svg" xmlns:xlink="http://www.w3.org/1999/xlink">
<mask id="mask_0_11_209" style="mask-type:alpha" maskUnits="userSpaceOnUse" x="-0.726563" y="3.997498" width="24" height="20">
<path d="M16.467,17.43C16.467,20.191 14.318,22.43 11.667,22.43C9.016,22.43 6.867,20.191 6.867,17.43C6.867,14.668 9.016,12.43 11.667,12.43C14.318,12.43 16.467,14.668 16.467,17.43Z" fill="#006FFD"/>
<path d="M-0.727,8.997C-0.727,6.236 1.422,3.997 4.073,3.997L42.473,3.997C45.124,3.997 47.273,6.236 47.273,8.997L47.273,38.997C47.273,41.759 45.124,43.997 42.473,43.997L39.305,43.997C39.294,43.997 39.284,43.997 39.273,43.997L5.167,43.997C5.158,43.997 5.149,43.997 5.14,43.997L4.073,43.997C1.422,43.997 -0.727,41.759 -0.727,38.997L-0.727,8.997ZM4.073,7.747L42.473,7.747C43.136,7.747 43.673,8.307 43.673,8.997L43.673,24.578L33.245,13.998L15.503,31.997L10.276,26.695L2.873,34.206L2.873,8.997C2.873,8.307 3.411,7.747 4.073,7.747Z" clip-rule="evenodd" fill-rule="evenodd" fill="#006FFD"/>
</mask>
<rect  x="-0.727" y="-0.004" width="48" height="48" fill="#006FFD"/>
</svg>
