<svg width="66" height="64" viewBox="0 0 66 64" fill="none" xmlns="http://www.w3.org/2000/svg" xmlns:xlink="http://www.w3.org/1999/xlink">
<mask id="mask_0_i_240_6073;11_211;11_209" style="mask-type:alpha" maskUnits="userSpaceOnUse" x="0.930176" y="4.390747" width="31.998749" height="26.665625">
<path d="M23.854,22.3C23.854,25.981 20.989,28.966 17.454,28.966C13.92,28.966 11.054,25.981 11.054,22.3C11.054,18.618 13.92,15.633 17.454,15.633C20.989,15.633 23.854,18.618 23.854,22.3Z" fill="#B4DBFF"/>
<path d="M0.93,11.057C0.93,7.375 3.795,4.391 7.33,4.391L58.528,4.391C62.062,4.391 64.928,7.375 64.928,11.057L64.928,51.056C64.928,54.737 62.062,57.722 58.528,57.722L54.304,57.722C54.29,57.722 54.275,57.722 54.261,57.722L8.788,57.722C8.776,57.722 8.764,57.722 8.752,57.722L7.33,57.722C3.795,57.722 0.93,54.737 0.93,51.056L0.93,11.057ZM7.33,9.391L58.528,9.391C59.412,9.391 60.128,10.137 60.128,11.057L60.128,31.83L46.224,17.724L22.568,41.723L15.6,34.653L5.73,44.667L5.73,11.057C5.73,10.137 6.446,9.391 7.33,9.391Z" clip-rule="evenodd" fill-rule="evenodd" fill="#B4DBFF"/>
</mask>
<rect  x="0.93" y="-0.944" width="63.997" height="63.997" fill="#B4DBFF"/>
</svg>
