<svg width="64" height="66" viewBox="0 0 64 66" fill="none" xmlns="http://www.w3.org/2000/svg" xmlns:xlink="http://www.w3.org/1999/xlink">
<mask id="mask_0_i_240_6231;234_4069;11_211;11_209" style="mask-type:alpha" maskUnits="userSpaceOnUse" x="0.001465" y="5.564453" width="31.998749" height="26.665625">
<path d="M22.925,23.473C22.925,27.155 20.06,30.14 16.525,30.14C12.991,30.14 10.126,27.155 10.126,23.473C10.126,19.792 12.991,16.807 16.525,16.807C20.06,16.807 22.925,19.792 22.925,23.473Z" fill="#B4DBFF"/>
<path d="M0.001,12.231C0.001,8.549 2.867,5.564 6.401,5.564L57.599,5.564C61.134,5.564 63.999,8.549 63.999,12.231L63.999,52.229C63.999,55.911 61.134,58.896 57.599,58.896L53.375,58.896C53.361,58.896 53.347,58.896 53.333,58.896L7.86,58.896C7.848,58.896 7.836,58.896 7.824,58.896L6.401,58.896C2.867,58.896 0.001,55.911 0.001,52.229L0.001,12.231ZM6.401,10.564L57.599,10.564C58.483,10.564 59.199,11.31 59.199,12.231L59.199,33.004L45.295,18.897L21.64,42.896L14.671,35.827L4.801,45.84L4.801,12.231C4.801,11.31 5.518,10.564 6.401,10.564Z" clip-rule="evenodd" fill-rule="evenodd" fill="#B4DBFF"/>
</mask>
<rect  x="0.001" y="0.229" width="63.997" height="63.997" fill="#B4DBFF"/>
</svg>
