<svg width="64" height="64" viewBox="0 0 64 64" fill="none" xmlns="http://www.w3.org/2000/svg" xmlns:xlink="http://www.w3.org/1999/xlink">
<mask id="mask_0_i_281_6095;11_211;11_209" style="mask-type:alpha" maskUnits="userSpaceOnUse" x="-0.998535" y="5.334404" width="31.998749" height="26.665625">
<path d="M21.925,23.243C21.925,26.925 19.06,29.91 15.525,29.91C11.991,29.91 9.126,26.925 9.126,23.243C9.126,19.562 11.991,16.577 15.525,16.577C19.06,16.577 21.925,19.562 21.925,23.243Z" fill="#B4DBFF"/>
<path d="M-0.999,12.001C-0.999,8.319 1.867,5.334 5.401,5.334L56.599,5.334C60.134,5.334 62.999,8.319 62.999,12.001L62.999,51.999C62.999,55.681 60.134,58.666 56.599,58.666L52.375,58.666C52.361,58.666 52.347,58.666 52.333,58.666L6.86,58.666C6.848,58.666 6.836,58.666 6.824,58.666L5.401,58.666C1.867,58.666 -0.999,55.681 -0.999,51.999L-0.999,12.001ZM5.401,10.334L56.599,10.334C57.483,10.334 58.199,11.08 58.199,12.001L58.199,32.774L44.295,18.667L20.64,42.666L13.671,35.597L3.801,45.61L3.801,12.001C3.801,11.08 4.518,10.334 5.401,10.334Z" clip-rule="evenodd" fill-rule="evenodd" fill="#B4DBFF"/>
</mask>
<rect  x="-0.999" y="-0.001" width="63.997" height="63.997" fill="#B4DBFF"/>
</svg>
