<svg width="64" height="66" viewBox="0 0 64 66" fill="none" xmlns="http://www.w3.org/2000/svg" xmlns:xlink="http://www.w3.org/1999/xlink">
<mask id="mask_0_i_240_6264;174_2245;11_211;11_209" style="mask-type:alpha" maskUnits="userSpaceOnUse" x="0.001465" y="5.390869" width="31.998749" height="26.665625">
<path d="M22.925,23.3C22.925,26.981 20.06,29.966 16.525,29.966C12.991,29.966 10.126,26.981 10.126,23.3C10.126,19.618 12.991,16.633 16.525,16.633C20.06,16.633 22.925,19.618 22.925,23.3Z" fill="#B4DBFF"/>
<path d="M0.001,12.057C0.001,8.376 2.867,5.391 6.401,5.391L57.599,5.391C61.134,5.391 63.999,8.376 63.999,12.057L63.999,52.056C63.999,55.737 61.134,58.722 57.599,58.722L53.375,58.722C53.361,58.722 53.347,58.722 53.333,58.722L7.86,58.722C7.848,58.722 7.836,58.722 7.824,58.722L6.401,58.722C2.867,58.722 0.001,55.737 0.001,52.056L0.001,12.057ZM6.401,10.391L57.599,10.391C58.483,10.391 59.199,11.137 59.199,12.057L59.199,32.83L45.295,18.724L21.64,42.723L14.671,35.653L4.801,45.667L4.801,12.057C4.801,11.137 5.518,10.391 6.401,10.391Z" clip-rule="evenodd" fill-rule="evenodd" fill="#B4DBFF"/>
</mask>
<rect  x="0.001" y="0.056" width="63.997" height="63.997" fill="#B4DBFF"/>
</svg>
