<svg width="64" height="66" viewBox="0 0 64 66" fill="none" xmlns="http://www.w3.org/2000/svg" xmlns:xlink="http://www.w3.org/1999/xlink">
<mask id="mask_0_i_294_10183;174_2067;11_211;11_209" style="mask-type:alpha" maskUnits="userSpaceOnUse" x="-0.316895" y="5.524902" width="31.998749" height="26.665625">
<path d="M22.607,23.434C22.607,27.116 19.742,30.1 16.207,30.1C12.672,30.1 9.807,27.116 9.807,23.434C9.807,19.752 12.672,16.767 16.207,16.767C19.742,16.767 22.607,19.752 22.607,23.434Z" fill="#B4DBFF"/>
<path d="M-0.317,12.191C-0.317,8.51 2.548,5.525 6.083,5.525L57.281,5.525C60.815,5.525 63.681,8.51 63.681,12.191L63.681,52.19C63.681,55.872 60.815,58.856 57.281,58.856L53.057,58.856C53.043,58.856 53.028,58.856 53.014,58.856L7.541,58.856C7.529,58.856 7.517,58.856 7.505,58.856L6.083,58.856C2.548,58.856 -0.317,55.872 -0.317,52.19L-0.317,12.191ZM6.083,10.525L57.281,10.525C58.165,10.525 58.881,11.271 58.881,12.191L58.881,32.964L44.977,18.858L21.321,42.857L14.353,35.787L4.483,45.801L4.483,12.191C4.483,11.271 5.199,10.525 6.083,10.525Z" clip-rule="evenodd" fill-rule="evenodd" fill="#B4DBFF"/>
</mask>
<rect  x="-0.317" y="0.19" width="63.997" height="63.997" fill="#B4DBFF"/>
</svg>
