<svg width="64" height="66" viewBox="0 0 64 66" fill="none" xmlns="http://www.w3.org/2000/svg" xmlns:xlink="http://www.w3.org/1999/xlink">
<mask id="mask_0_i_174_2245;11_211;11_209" style="mask-type:alpha" maskUnits="userSpaceOnUse" x="-0.472168" y="6.334473" width="31.998749" height="26.665625">
<path d="M22.451,24.243C22.451,27.925 19.586,30.91 16.052,30.91C12.517,30.91 9.652,27.925 9.652,24.243C9.652,20.562 12.517,17.577 16.052,17.577C19.586,17.577 22.451,20.562 22.451,24.243Z" fill="#B4DBFF"/>
<path d="M-0.472,13.001C-0.472,9.319 2.393,6.334 5.928,6.334L57.126,6.334C60.66,6.334 63.525,9.319 63.525,13.001L63.525,52.999C63.525,56.681 60.66,59.666 57.126,59.666L52.901,59.666C52.887,59.666 52.873,59.666 52.859,59.666L7.386,59.666C7.374,59.666 7.362,59.666 7.35,59.666L5.928,59.666C2.393,59.666 -0.472,56.681 -0.472,52.999L-0.472,13.001ZM5.928,11.334L57.126,11.334C58.009,11.334 58.725,12.08 58.725,13.001L58.725,33.774L44.821,19.667L21.166,43.666L14.198,36.597L4.328,46.61L4.328,13.001C4.328,12.08 5.044,11.334 5.928,11.334Z" clip-rule="evenodd" fill-rule="evenodd" fill="#B4DBFF"/>
</mask>
<rect  x="-0.473" y="1" width="63.997" height="63.997" fill="#B4DBFF"/>
</svg>
