<svg width="66" height="64" viewBox="0 0 66 64" fill="none" xmlns="http://www.w3.org/2000/svg" xmlns:xlink="http://www.w3.org/1999/xlink">
<mask id="mask_0_i_240_6280;11_211;11_209" style="mask-type:alpha" maskUnits="userSpaceOnUse" x="1.001465" y="4.390869" width="31.998749" height="26.665625">
<path d="M23.925,22.3C23.925,25.981 21.06,28.966 17.525,28.966C13.991,28.966 11.126,25.981 11.126,22.3C11.126,18.618 13.991,15.633 17.525,15.633C21.06,15.633 23.925,18.618 23.925,22.3Z" fill="#B4DBFF"/>
<path d="M1.001,11.057C1.001,7.376 3.867,4.391 7.401,4.391L58.599,4.391C62.134,4.391 64.999,7.376 64.999,11.057L64.999,51.056C64.999,54.737 62.134,57.722 58.599,57.722L54.375,57.722C54.361,57.722 54.347,57.722 54.333,57.722L8.86,57.722C8.848,57.722 8.836,57.722 8.824,57.722L7.401,57.722C3.867,57.722 1.001,54.737 1.001,51.056L1.001,11.057ZM7.401,9.391L58.599,9.391C59.483,9.391 60.199,10.137 60.199,11.057L60.199,31.83L46.295,17.724L22.64,41.723L15.671,34.653L5.801,44.667L5.801,11.057C5.801,10.137 6.518,9.391 7.401,9.391Z" clip-rule="evenodd" fill-rule="evenodd" fill="#B4DBFF"/>
</mask>
<rect  x="1.001" y="-0.944" width="63.997" height="63.997" fill="#B4DBFF"/>
</svg>
