<svg width="64" height="64" viewBox="0 0 64 64" fill="none" xmlns="http://www.w3.org/2000/svg" xmlns:xlink="http://www.w3.org/1999/xlink">
<mask id="mask_0_i_259_5980;174_2067;11_211;11_209" style="mask-type:alpha" maskUnits="userSpaceOnUse" x="-0.472168" y="4.801758" width="31.998749" height="26.665625">
<path d="M22.451,22.711C22.451,26.392 19.586,29.377 16.052,29.377C12.517,29.377 9.652,26.392 9.652,22.711C9.652,19.029 12.517,16.044 16.052,16.044C19.586,16.044 22.451,19.029 22.451,22.711Z" fill="#B4DBFF"/>
<path d="M-0.472,11.468C-0.472,7.786 2.393,4.802 5.928,4.802L57.126,4.802C60.66,4.802 63.525,7.786 63.525,11.468L63.525,51.467C63.525,55.148 60.66,58.133 57.126,58.133L52.901,58.133C52.887,58.133 52.873,58.133 52.859,58.133L7.386,58.133C7.374,58.133 7.362,58.133 7.35,58.133L5.928,58.133C2.393,58.133 -0.472,55.148 -0.472,51.467L-0.472,11.468ZM5.928,9.802L57.126,9.802C58.009,9.802 58.725,10.548 58.725,11.468L58.725,32.241L44.821,18.135L21.166,42.134L14.198,35.064L4.328,45.078L4.328,11.468C4.328,10.548 5.044,9.802 5.928,9.802Z" clip-rule="evenodd" fill-rule="evenodd" fill="#B4DBFF"/>
</mask>
<rect  x="-0.473" y="-0.533" width="63.997" height="63.997" fill="#B4DBFF"/>
</svg>
