<svg width="64" height="66" viewBox="0 0 64 66" fill="none" xmlns="http://www.w3.org/2000/svg" xmlns:xlink="http://www.w3.org/1999/xlink">
<mask id="mask_0_i_294_10206;234_4069;11_211;11_209" style="mask-type:alpha" maskUnits="userSpaceOnUse" x="-0.470215" y="5.492676" width="31.998749" height="26.665625">
<path d="M22.453,23.402C22.453,27.083 19.588,30.068 16.054,30.068C12.519,30.068 9.654,27.083 9.654,23.402C9.654,19.72 12.519,16.735 16.054,16.735C19.588,16.735 22.453,19.72 22.453,23.402Z" fill="#B4DBFF"/>
<path d="M-0.47,12.159C-0.47,8.477 2.395,5.493 5.93,5.493L57.128,5.493C60.662,5.493 63.527,8.477 63.527,12.159L63.527,52.157C63.527,55.839 60.662,58.824 57.128,58.824L52.903,58.824C52.889,58.824 52.875,58.824 52.861,58.824L7.388,58.824C7.376,58.824 7.364,58.824 7.352,58.824L5.93,58.824C2.395,58.824 -0.47,55.839 -0.47,52.157L-0.47,12.159ZM5.93,10.492L57.128,10.492C58.011,10.492 58.727,11.239 58.727,12.159L58.727,32.932L44.823,18.826L21.168,42.825L14.2,35.755L4.33,45.769L4.33,12.159C4.33,11.239 5.046,10.492 5.93,10.492Z" clip-rule="evenodd" fill-rule="evenodd" fill="#B4DBFF"/>
</mask>
<rect  x="-0.471" y="0.158" width="63.997" height="63.997" fill="#B4DBFF"/>
</svg>
