<svg width="42" height="40" viewBox="0 0 42 40" fill="none" xmlns="http://www.w3.org/2000/svg" xmlns:xlink="http://www.w3.org/1999/xlink">
<mask id="mask_0_i_293_6130;281_6031" style="mask-type:alpha" maskUnits="userSpaceOnUse" x="0.662109" y="2.919922" width="20" height="16.666668">
<path d="M7.329,2.92C5.561,2.92 3.865,3.622 2.615,4.873C1.364,6.123 0.662,7.818 0.662,9.587L0.662,10.257L20.662,21.027L40.662,10.26L40.662,9.587C40.662,7.818 39.96,6.123 38.71,4.873C37.459,3.622 35.764,2.92 33.996,2.92L7.329,2.92ZM40.662,14.043L21.452,24.387C21.209,24.517 20.938,24.586 20.662,24.586C20.386,24.586 20.115,24.517 19.872,24.387L0.662,14.043L0.662,29.587C0.662,31.355 1.364,33.05 2.615,34.301C3.865,35.551 5.561,36.253 7.329,36.253L33.996,36.253C35.764,36.253 37.459,35.551 38.71,34.301C39.96,33.05 40.662,31.355 40.662,29.587L40.662,14.043Z" fill="#006FFD"/>
</mask>
<rect  x="0.662" y="-0.414" width="40" height="40" fill="#1F2024"/>
</svg>
