<svg width="48" height="48" viewBox="0 0 48 48" fill="none" xmlns="http://www.w3.org/2000/svg" xmlns:xlink="http://www.w3.org/1999/xlink">
<mask id="mask_0_281_6031" style="mask-type:alpha" maskUnits="userSpaceOnUse" x="-0.728516" y="3.999023" width="24" height="20">
<path d="M7.271,3.999C5.15,3.999 3.115,4.842 1.615,6.342C0.114,7.842 -0.729,9.877 -0.729,11.999L-0.729,12.803L23.271,25.727L47.271,12.807L47.271,11.999C47.271,9.877 46.429,7.842 44.928,6.342C43.428,4.842 41.393,3.999 39.271,3.999L7.271,3.999ZM47.271,17.347L24.219,29.759C23.928,29.916 23.602,29.998 23.271,29.998C22.94,29.998 22.615,29.916 22.323,29.759L-0.729,17.347L-0.729,35.999C-0.729,38.121 0.114,40.156 1.615,41.656C3.115,43.156 5.15,43.999 7.271,43.999L39.271,43.999C41.393,43.999 43.428,43.156 44.928,41.656C46.429,40.156 47.271,38.121 47.271,35.999L47.271,17.347Z" fill="#006FFD"/>
</mask>
<rect  x="-0.729" y="-0.002" width="48" height="48" fill="#006FFD"/>
</svg>
