<svg width="48" height="48" viewBox="0 0 48 48" fill="none" xmlns="http://www.w3.org/2000/svg" xmlns:xlink="http://www.w3.org/1999/xlink">
<mask id="mask_0_i_156_1675;156_1556" style="mask-type:alpha" maskUnits="userSpaceOnUse" x="1.417969" y="1" width="22.000351" height="22">
<path d="M45.419,23C45.419,35.15 35.569,45 23.418,45C11.268,45 1.418,35.15 1.418,23C1.418,10.85 11.268,1 23.418,1C35.569,1 45.419,10.85 45.419,23Z" fill="#D9D9D9"/>
</mask>
<g mask="url(#mask_0_i_156_1675;156_1556)">
<rect  x="-0.582" y="-1" width="48.001" height="48" fill="#3AC0A0"/>
</g>
<path d="M33.002,16.663C32.223,15.824 30.933,15.811 30.139,16.636L21.199,25.924L16.699,21.248C15.905,20.424 14.614,20.437 13.836,21.275C13.077,22.093 13.087,23.393 13.861,24.197L21.199,31.821L32.976,19.585C33.75,18.781 33.761,17.481 33.002,16.663Z" fill="#FFFFFF"/>
</svg>
