<svg width="24" height="26" viewBox="0 0 24 26" fill="none" xmlns="http://www.w3.org/2000/svg" xmlns:xlink="http://www.w3.org/1999/xlink">
<mask id="mask_0_i_267_5194;6_1803;267_5341" style="mask-type:alpha" maskUnits="userSpaceOnUse" x="5.16748" y="0.22998" width="5.832443" height="12">
<path d="M8.145,24.23L8.145,12.968L5.167,12.968L5.167,8.914L8.145,8.914L8.145,5.451C8.145,2.729 9.904,0.23 13.957,0.23C15.598,0.23 16.812,0.387 16.812,0.387L16.716,4.174C16.716,4.174 15.479,4.162 14.128,4.162C12.667,4.162 12.432,4.835 12.432,5.953L12.432,8.914L16.832,8.914L16.641,12.968L12.432,12.968L12.432,24.23L8.145,24.23Z" fill="#FFFFFF"/>
</mask>
<g mask="url(#mask_0_i_267_5194;6_1803;267_5341)">
<rect  x="-0.998" y="0.23" width="24" height="24" fill="#FFFFFF"/>
</g>
</svg>
