<svg width="48" height="50" viewBox="0 0 48 50" fill="none" xmlns="http://www.w3.org/2000/svg" xmlns:xlink="http://www.w3.org/1999/xlink">
<mask id="mask_0_i_243_3016;156_1586;156_1548" style="mask-type:alpha" maskUnits="userSpaceOnUse" x="1.417969" y="2.727051" width="22.000351" height="22">
<path d="M45.419,24.727C45.419,36.877 35.569,46.727 23.418,46.727C11.268,46.727 1.418,36.877 1.418,24.727C1.418,12.577 11.268,2.727 23.418,2.727C35.569,2.727 45.419,12.577 45.419,24.727Z" fill="#D9D9D9"/>
</mask>
<g mask="url(#mask_0_i_243_3016;156_1586;156_1548)">
<rect  x="-0.582" y="0.727" width="48.001" height="48" fill="#006FFD"/>
</g>
<path d="M18.684,22.354C18.684,21.249 19.579,20.354 20.684,20.354L23.418,20.354C24.522,20.354 25.418,21.249 25.418,22.354L25.418,31.667L27.829,31.667C28.934,31.667 29.829,32.563 29.829,33.667C29.829,34.772 28.934,35.667 27.829,35.667L19.006,35.667C17.901,35.667 17.006,34.772 17.006,33.667C17.006,32.563 17.901,31.667 19.006,31.667L21.418,31.667L21.418,24.354L20.684,24.354C19.579,24.354 18.684,23.458 18.684,22.354Z" clip-rule="evenodd" fill-rule="evenodd" fill="#FFFFFF"/>
<path d="M25.883,16.404C25.883,17.849 24.711,19.021 23.266,19.021C21.821,19.021 20.649,17.849 20.649,16.404C20.649,14.959 21.821,13.787 23.266,13.787C24.711,13.787 25.883,14.959 25.883,16.404Z" fill="#FFFFFF"/>
</svg>
