<svg width="48" height="48" viewBox="0 0 48 48" fill="none" xmlns="http://www.w3.org/2000/svg" xmlns:xlink="http://www.w3.org/1999/xlink">
<mask id="mask_0_i_156_1586;156_1548" style="mask-type:alpha" maskUnits="userSpaceOnUse" x="1.417969" y="1" width="22.000351" height="22">
<path d="M45.419,23C45.419,35.15 35.569,45 23.418,45C11.268,45 1.418,35.15 1.418,23C1.418,10.85 11.268,1 23.418,1C35.569,1 45.419,10.85 45.419,23Z" fill="#D9D9D9"/>
</mask>
<g mask="url(#mask_0_i_156_1586;156_1548)">
<rect  x="-0.582" y="-1" width="48.001" height="48" fill="#006FFD"/>
</g>
<path d="M18.684,20.626C18.684,19.522 19.579,18.626 20.684,18.626L23.418,18.626C24.522,18.626 25.418,19.522 25.418,20.626L25.418,29.94L27.829,29.94C28.934,29.94 29.829,30.835 29.829,31.94C29.829,33.045 28.934,33.94 27.829,33.94L19.006,33.94C17.901,33.94 17.006,33.045 17.006,31.94C17.006,30.835 17.901,29.94 19.006,29.94L21.418,29.94L21.418,22.626L20.684,22.626C19.579,22.626 18.684,21.731 18.684,20.626Z" clip-rule="evenodd" fill-rule="evenodd" fill="#FFFFFF"/>
<path d="M25.883,14.677C25.883,16.122 24.711,17.294 23.266,17.294C21.821,17.294 20.649,16.122 20.649,14.677C20.649,13.232 21.821,12.06 23.266,12.06C24.711,12.06 25.883,13.232 25.883,14.677Z" fill="#FFFFFF"/>
</svg>
