<svg width="40" height="42" viewBox="0 0 40 42" fill="none" xmlns="http://www.w3.org/2000/svg" xmlns:xlink="http://www.w3.org/1999/xlink">
<mask id="mask_0_i_137_12430;126_526" style="mask-type:alpha" maskUnits="userSpaceOnUse" x="-0.057129" y="2.455078" width="19.583332" height="17.687386">
<path d="M10.776,2.455C4.814,2.455 -0.057,7.246 -0.057,13.201C-0.057,15.434 0.392,19.062 2.871,23.362C5.343,27.65 9.766,32.492 17.539,37.27L17.547,37.275C18.144,37.638 18.828,37.83 19.526,37.83C20.224,37.83 20.909,37.638 21.505,37.275L21.513,37.27C29.286,32.492 33.71,27.65 36.181,23.362C38.66,19.062 39.109,15.434 39.109,13.201C39.109,7.246 34.239,2.455 28.276,2.455C25.135,2.455 22.477,4.136 20.76,5.559C20.3,5.941 19.886,6.321 19.526,6.675C19.166,6.321 18.753,5.941 18.293,5.559C16.575,4.136 13.917,2.455 10.776,2.455Z" fill="#006FFD"/>
</mask>
<rect  x="-0.474" y="0.143" width="40" height="39.999" fill="#006FFD"/>
</svg>
