<svg width="40" height="42" viewBox="0 0 40 42" fill="none" xmlns="http://www.w3.org/2000/svg" xmlns:xlink="http://www.w3.org/1999/xlink">
<mask id="mask_0_i_126_1286;126_526" style="mask-type:alpha" maskUnits="userSpaceOnUse" x="-0.057129" y="2.883789" width="19.583332" height="17.687386">
<path d="M10.776,2.884C4.814,2.884 -0.057,7.675 -0.057,13.629C-0.057,15.862 0.392,19.491 2.871,23.791C5.343,28.079 9.766,32.921 17.539,37.699L17.547,37.704C18.144,38.067 18.828,38.259 19.526,38.259C20.224,38.259 20.909,38.067 21.505,37.704L21.513,37.699C29.286,32.921 33.71,28.079 36.181,23.791C38.66,19.491 39.109,15.862 39.109,13.629C39.109,7.675 34.239,2.884 28.276,2.884C25.135,2.884 22.477,4.564 20.76,5.988C20.3,6.37 19.886,6.75 19.526,7.104C19.166,6.75 18.753,6.37 18.293,5.988C16.575,4.564 13.917,2.884 10.776,2.884Z" fill="#006FFD"/>
</mask>
<rect  x="-0.474" y="0.572" width="40" height="39.999" fill="#006FFD"/>
</svg>
