<svg width="48" height="48" viewBox="0 0 48 48" fill="none" xmlns="http://www.w3.org/2000/svg" xmlns:xlink="http://www.w3.org/1999/xlink">
<mask id="mask_0_i_156_1651;156_1545" style="mask-type:alpha" maskUnits="userSpaceOnUse" x="1.417969" y="1" width="22.000351" height="22">
<path d="M45.419,23C45.419,35.15 35.569,45 23.418,45C11.268,45 1.418,35.15 1.418,23C1.418,10.85 11.268,1 23.418,1C35.569,1 45.419,10.85 45.419,23Z" fill="#D9D9D9"/>
</mask>
<g mask="url(#mask_0_i_156_1651;156_1545)">
<rect  x="-0.582" y="-1" width="48.001" height="48" fill="#FFB37C"/>
</g>
<path d="M22.313,11.12C22.661,10.967 23.038,10.887 23.419,10.888C23.8,10.888 24.176,10.967 24.524,11.121C24.873,11.275 25.185,11.499 25.442,11.78C25.698,12.062 25.893,12.393 26.015,12.754C26.136,13.115 26.181,13.497 26.146,13.876L25.054,25.894C25.012,26.298 24.821,26.672 24.519,26.944C24.217,27.216 23.825,27.366 23.419,27.366C23.013,27.366 22.621,27.216 22.319,26.944C22.017,26.672 21.827,26.298 21.784,25.894L20.689,13.876C20.654,13.497 20.699,13.114 20.821,12.753C20.942,12.392 21.138,12.061 21.395,11.779C21.652,11.498 21.964,11.274 22.313,11.12Z" fill="#FFFFFF"/>
<path d="M26.036,32.495C26.036,33.941 24.864,35.112 23.419,35.112C21.974,35.112 20.802,33.941 20.802,32.495C20.802,31.05 21.974,29.878 23.419,29.878C24.864,29.878 26.036,31.05 26.036,32.495Z" fill="#FFFFFF"/>
</svg>
