<svg width="24" height="26" viewBox="0 0 24 26" fill="none" xmlns="http://www.w3.org/2000/svg" xmlns:xlink="http://www.w3.org/1999/xlink">
<mask id="mask_0_i_267_5172;6_1803;267_5340" style="mask-type:alpha" maskUnits="userSpaceOnUse" x="0.220703" y="1.22998" width="10.779307" height="11">
<path d="M21.567,10.167C21.705,10.904 21.779,11.674 21.779,12.477C21.779,18.761 17.573,23.23 11.221,23.23C9.776,23.23 8.345,22.946 7.011,22.394C5.676,21.841 4.463,21.031 3.442,20.009C2.42,18.988 1.61,17.775 1.057,16.44C0.504,15.105 0.22,13.675 0.221,12.23C0.22,10.785 0.504,9.355 1.057,8.02C1.61,6.685 2.42,5.472 3.442,4.451C4.463,3.429 5.676,2.619 7.011,2.066C8.345,1.514 9.776,1.23 11.221,1.23C14.191,1.23 16.673,2.323 18.577,4.097L15.476,7.198L15.476,7.19C14.322,6.091 12.857,5.527 11.221,5.527C7.591,5.527 4.641,8.593 4.641,12.223C4.641,15.853 7.591,18.926 11.221,18.926C14.514,18.926 16.755,17.043 17.216,14.457L11.221,14.457L11.221,10.167L21.568,10.167L21.567,10.167Z" fill="#FFFFFF"/>
</mask>
<g mask="url(#mask_0_i_267_5172;6_1803;267_5340)">
<rect  x="-0.998" y="0.23" width="24" height="24" fill="#FFFFFF"/>
</g>
</svg>
