<svg width="26" height="26" viewBox="0 0 26 26" fill="none" xmlns="http://www.w3.org/2000/svg" xmlns:xlink="http://www.w3.org/1999/xlink">
<mask id="mask_0_i_267_5961;6_1803;164_1458" style="mask-type:alpha" maskUnits="userSpaceOnUse" x="1.5" y="0.72998" width="11.500001" height="11.500001">
<path d="M14.5,2.23C14.5,1.402 13.828,0.73 13,0.73C12.172,0.73 11.5,1.402 11.5,2.23L11.5,10.73L3,10.73C2.172,10.73 1.5,11.402 1.5,12.23C1.5,13.058 2.172,13.73 3,13.73L11.5,13.73L11.5,22.23C11.5,23.058 12.172,23.73 13,23.73C13.828,23.73 14.5,23.058 14.5,22.23L14.5,13.73L23,13.73C23.828,13.73 24.5,13.058 24.5,12.23C24.5,11.402 23.828,10.73 23,10.73L14.5,10.73L14.5,2.23Z" fill="#FFFFFF"/>
</mask>
<g mask="url(#mask_0_i_267_5961;6_1803;164_1458)">
<rect  x="1" y="0.23" width="24" height="24" fill="#FFFFFF"/>
</g>
</svg>
