<svg width="24" height="26" viewBox="0 0 24 26" fill="none" xmlns="http://www.w3.org/2000/svg" xmlns:xlink="http://www.w3.org/1999/xlink">
<mask id="mask_0_i_267_5188;6_1803;267_5339" style="mask-type:alpha" maskUnits="userSpaceOnUse" x="1.25" y="0.229858" width="9.749977" height="12.000061">
<path d="M15.773,0.242C15.722,0.185 13.884,0.264 12.285,2C10.686,3.734 10.932,5.723 10.968,5.774C11.004,5.825 13.248,5.904 14.681,3.887C16.113,1.869 15.824,0.3 15.773,0.242ZM20.744,17.841C20.672,17.697 17.256,15.99 17.574,12.708C17.892,9.425 20.087,8.525 20.121,8.427C20.156,8.33 19.226,7.242 18.24,6.692C17.517,6.304 16.716,6.081 15.896,6.041C15.734,6.036 15.171,5.898 14.015,6.215C13.253,6.423 11.535,7.098 11.063,7.125C10.589,7.152 9.179,6.342 7.662,6.128C6.692,5.94 5.663,6.324 4.926,6.62C4.191,6.914 2.793,7.751 1.815,9.975C0.837,12.198 1.349,15.72 1.715,16.815C2.081,17.909 2.652,19.701 3.624,21.009C4.488,22.485 5.634,23.51 6.113,23.858C6.591,24.206 7.941,24.437 8.877,23.958C9.63,23.496 10.989,23.231 11.526,23.25C12.062,23.27 13.118,23.481 14.199,24.059C15.056,24.354 15.866,24.231 16.677,23.901C17.489,23.57 18.663,22.313 20.034,19.764C20.555,18.579 20.792,17.939 20.744,17.841Z" fill="#FFFFFF"/>
<path d="M15.773,0.242C15.722,0.185 13.884,0.264 12.285,2C10.686,3.734 10.932,5.723 10.968,5.774C11.004,5.825 13.248,5.904 14.681,3.887C16.113,1.869 15.824,0.3 15.773,0.242ZM20.744,17.841C20.672,17.697 17.256,15.99 17.574,12.708C17.892,9.425 20.087,8.525 20.121,8.427C20.156,8.33 19.226,7.242 18.24,6.692C17.517,6.304 16.716,6.081 15.896,6.041C15.734,6.036 15.171,5.898 14.015,6.215C13.253,6.423 11.535,7.098 11.063,7.125C10.589,7.152 9.179,6.342 7.662,6.128C6.692,5.94 5.663,6.324 4.926,6.62C4.191,6.914 2.793,7.751 1.815,9.975C0.837,12.198 1.349,15.72 1.715,16.815C2.081,17.909 2.652,19.701 3.624,21.009C4.488,22.485 5.634,23.51 6.113,23.858C6.591,24.206 7.941,24.437 8.877,23.958C9.63,23.496 10.989,23.231 11.526,23.25C12.062,23.27 13.118,23.481 14.199,24.059C15.056,24.354 15.866,24.231 16.677,23.901C17.489,23.57 18.663,22.313 20.034,19.764C20.555,18.579 20.792,17.939 20.744,17.841Z" fill="#FFFFFF"/>
</mask>
<g mask="url(#mask_0_i_267_5188;6_1803;267_5339)">
<rect  x="-0.998" y="0.23" width="24" height="24" fill="#FFFFFF"/>
</g>
</svg>
