<svg width="40" height="42" viewBox="0 0 40 42" fill="none" xmlns="http://www.w3.org/2000/svg" xmlns:xlink="http://www.w3.org/1999/xlink">
<mask id="mask_0_i_137_12483;126_526" style="mask-type:alpha" maskUnits="userSpaceOnUse" x="-0.057129" y="2.740845" width="19.583332" height="17.687386">
<path d="M10.776,2.741C4.814,2.741 -0.057,7.532 -0.057,13.487C-0.057,15.719 0.392,19.348 2.871,23.648C5.343,27.936 9.766,32.778 17.539,37.556L17.547,37.561C18.144,37.924 18.828,38.116 19.526,38.116C20.224,38.116 20.909,37.924 21.505,37.561L21.513,37.556C29.286,32.778 33.71,27.936 36.181,23.648C38.66,19.348 39.109,15.719 39.109,13.487C39.109,7.532 34.239,2.741 28.276,2.741C25.135,2.741 22.477,4.422 20.76,5.845C20.3,6.227 19.886,6.607 19.526,6.961C19.166,6.607 18.753,6.227 18.293,5.845C16.575,4.422 13.917,2.741 10.776,2.741Z" fill="#006FFD"/>
</mask>
<rect  x="-0.474" y="0.429" width="40" height="39.999" fill="#006FFD"/>
</svg>
