<svg width="48" height="48" viewBox="0 0 48 48" fill="none" xmlns="http://www.w3.org/2000/svg" xmlns:xlink="http://www.w3.org/1999/xlink">
<mask id="mask_0_i_290_7578;156_1586;156_1548" style="mask-type:alpha" maskUnits="userSpaceOnUse" x="2" y="1.5" width="22.000351" height="22">
<path d="M46.001,23.5C46.001,35.65 36.151,45.5 24,45.5C11.85,45.5 2,35.65 2,23.5C2,11.35 11.85,1.5 24,1.5C36.151,1.5 46.001,11.35 46.001,23.5Z" fill="#D9D9D9"/>
</mask>
<g mask="url(#mask_0_i_290_7578;156_1586;156_1548)">
<rect  x="0" y="-0.5" width="48.001" height="48" fill="#006FFD"/>
</g>
<path d="M19.266,21.127C19.266,20.022 20.162,19.127 21.266,19.127L24,19.127C25.105,19.127 26,20.022 26,21.127L26,30.44L28.412,30.44C29.516,30.44 30.412,31.335 30.412,32.44C30.412,33.545 29.516,34.44 28.412,34.44L19.588,34.44C18.484,34.44 17.588,33.545 17.588,32.44C17.588,31.335 18.484,30.44 19.588,30.44L22,30.44L22,23.127L21.266,23.127C20.162,23.127 19.266,22.231 19.266,21.127Z" clip-rule="evenodd" fill-rule="evenodd" fill="#FFFFFF"/>
<path d="M26.465,15.177C26.465,16.622 25.294,17.794 23.848,17.794C22.403,17.794 21.231,16.622 21.231,15.177C21.231,13.732 22.403,12.56 23.848,12.56C25.294,12.56 26.465,13.732 26.465,15.177Z" fill="#FFFFFF"/>
</svg>
