<svg width="40" height="42" viewBox="0 0 40 42" fill="none" xmlns="http://www.w3.org/2000/svg" xmlns:xlink="http://www.w3.org/1999/xlink">
<mask id="mask_0_i_137_12441;126_526" style="mask-type:alpha" maskUnits="userSpaceOnUse" x="-0.057129" y="2.5979" width="19.583332" height="17.687386">
<path d="M10.776,2.598C4.814,2.598 -0.057,7.389 -0.057,13.344C-0.057,15.577 0.392,19.205 2.871,23.505C5.343,27.793 9.766,32.635 17.539,37.413L17.547,37.418C18.144,37.781 18.828,37.973 19.526,37.973C20.224,37.973 20.909,37.781 21.505,37.418L21.513,37.413C29.286,32.635 33.71,27.793 36.181,23.505C38.66,19.205 39.109,15.577 39.109,13.344C39.109,7.389 34.239,2.598 28.276,2.598C25.135,2.598 22.477,4.279 20.76,5.702C20.3,6.084 19.886,6.464 19.526,6.818C19.166,6.464 18.753,6.084 18.293,5.702C16.575,4.279 13.917,2.598 10.776,2.598Z" fill="#006FFD"/>
</mask>
<rect  x="-0.474" y="0.286" width="40" height="39.999" fill="#006FFD"/>
</svg>
