<svg width="24" height="24" viewBox="0 0 24 24" fill="none" xmlns="http://www.w3.org/2000/svg" xmlns:xlink="http://www.w3.org/1999/xlink">
<mask id="mask_0_i_240_6116;6_1823;164_1458" style="mask-type:alpha" maskUnits="userSpaceOnUse" x="-0.428223" y="0.400146" width="11.500001" height="11.500001">
<path d="M12.572,1.9C12.572,1.072 11.9,0.4 11.072,0.4C10.243,0.4 9.572,1.072 9.572,1.9L9.572,10.4L1.072,10.4C0.243,10.4 -0.428,11.072 -0.428,11.9C-0.428,12.729 0.243,13.4 1.072,13.4L9.572,13.4L9.572,21.9C9.572,22.729 10.243,23.4 11.072,23.4C11.9,23.4 12.572,22.729 12.572,21.9L12.572,13.4L21.072,13.4C21.9,13.4 22.572,12.729 22.572,11.9C22.572,11.072 21.9,10.4 21.072,10.4L12.572,10.4L12.572,1.9Z" fill="#006FFD"/>
</mask>
<rect  x="-0.928" y="-0.1" width="24" height="24" fill="#006FFD"/>
</svg>
