<svg width="40" height="42" viewBox="0 0 40 42" fill="none" xmlns="http://www.w3.org/2000/svg" xmlns:xlink="http://www.w3.org/1999/xlink">
<mask id="mask_0_i_294_10214;126_526" style="mask-type:alpha" maskUnits="userSpaceOnUse" x="0.098267" y="2.584717" width="19.583332" height="17.687386">
<path d="M10.932,2.585C4.969,2.585 0.098,7.376 0.098,13.33C0.098,15.563 0.548,19.192 3.026,23.492C5.498,27.78 9.922,32.622 17.695,37.4L17.703,37.405C18.299,37.768 18.984,37.96 19.682,37.96C20.38,37.96 21.064,37.768 21.66,37.405L21.669,37.4C29.441,32.622 33.865,27.78 36.337,23.492C38.815,19.192 39.265,15.563 39.265,13.33C39.265,7.376 34.394,2.585 28.432,2.585C25.29,2.585 22.633,4.265 20.915,5.689C20.455,6.07 20.042,6.451 19.682,6.805C19.322,6.451 18.908,6.07 18.448,5.689C16.73,4.265 14.073,2.585 10.932,2.585Z" fill="#006FFD"/>
</mask>
<rect  x="-0.318" y="0.272" width="40" height="39.999" fill="#006FFD"/>
</svg>
