<svg width="24" height="24" viewBox="0 0 24 24" fill="none" xmlns="http://www.w3.org/2000/svg" xmlns:xlink="http://www.w3.org/1999/xlink">
<mask id="mask_0_i_290_8122;6_1823;164_1458" style="mask-type:alpha" maskUnits="userSpaceOnUse" x="-0.428223" y="-0.457031" width="11.500001" height="11.500001">
<path d="M12.572,1.043C12.572,0.215 11.9,-0.457 11.072,-0.457C10.243,-0.457 9.572,0.215 9.572,1.043L9.572,9.543L1.072,9.543C0.243,9.543 -0.428,10.215 -0.428,11.043C-0.428,11.871 0.243,12.543 1.072,12.543L9.572,12.543L9.572,21.043C9.572,21.871 10.243,22.543 11.072,22.543C11.9,22.543 12.572,21.871 12.572,21.043L12.572,12.543L21.072,12.543C21.9,12.543 22.572,11.871 22.572,11.043C22.572,10.215 21.9,9.543 21.072,9.543L12.572,9.543L12.572,1.043Z" fill="#006FFD"/>
</mask>
<rect  x="-0.928" y="-0.957" width="24" height="24" fill="#006FFD"/>
</svg>
