<svg width="42" height="40" viewBox="0 0 42 40" fill="none" xmlns="http://www.w3.org/2000/svg" xmlns:xlink="http://www.w3.org/1999/xlink">
<mask id="mask_0_i_294_6155;294_6243" style="mask-type:alpha" maskUnits="userSpaceOnUse" x="2.330444" y="-0.413086" width="18.331774" height="18.333334">
<path d="M10.653,36.254L10.653,11.515L2.794,11.515L2.794,36.254L10.653,36.254ZM6.725,8.135C9.465,8.135 11.171,6.235 11.171,3.861C11.12,1.434 9.466,-0.413 6.777,-0.413C4.088,-0.413 2.33,1.434 2.33,3.861C2.33,6.235 4.036,8.135 6.673,8.135L6.725,8.135ZM15.003,36.254L22.863,36.254L22.863,22.438C22.863,21.699 22.914,20.96 23.121,20.432C23.689,18.954 24.983,17.424 27.154,17.424C29.997,17.424 31.135,19.693 31.135,23.019L31.135,36.253L38.994,36.253L38.994,22.068C38.994,14.469 35.117,10.934 29.946,10.934C25.706,10.934 23.844,13.413 22.81,15.102L22.863,15.102L22.863,11.514L15.004,11.514C15.107,13.835 15.003,36.254 15.003,36.254Z" fill="#000000"/>
</mask>
<rect  x="0.662" y="-0.413" width="40" height="40" fill="#1F2024"/>
</svg>
