<svg width="48" height="48" viewBox="0 0 48 48" fill="none" xmlns="http://www.w3.org/2000/svg" xmlns:xlink="http://www.w3.org/1999/xlink">
<mask id="mask_0_294_6243" style="mask-type:alpha" maskUnits="userSpaceOnUse" x="1.773438" y="-0.000977" width="21.998127" height="22">
<path d="M11.761,43.999L11.761,14.312L2.33,14.312L2.33,43.999L11.761,43.999ZM7.047,10.257C10.335,10.257 12.382,7.977 12.382,5.128C12.321,2.215 10.336,-0.001 7.109,-0.001C3.883,-0.001 1.773,2.215 1.773,5.128C1.773,7.977 3.82,10.257 6.985,10.257L7.047,10.257ZM16.981,43.999L26.412,43.999L26.412,27.42C26.412,26.533 26.473,25.647 26.722,25.013C27.404,23.24 28.956,21.404 31.561,21.404C34.974,21.404 36.339,24.126 36.339,28.117L36.339,43.999L45.77,43.999L45.77,26.977C45.77,17.858 41.117,13.615 34.912,13.615C29.824,13.615 27.59,16.591 26.349,18.617L26.412,18.617L26.412,14.312L16.981,14.312C17.105,17.097 16.981,43.999 16.981,43.999Z" fill="#000000"/>
</mask>
<rect  x="-0.229" y="-0.001" width="48" height="48" fill="#006FFD"/>
</svg>
