<svg width="42" height="54" viewBox="0 0 42 54" fill="none" xmlns="http://www.w3.org/2000/svg" xmlns:xlink="http://www.w3.org/1999/xlink">
<path d="M39.117,0.024C39.208,2.96 37.729,4.861 36.063,6.201C37.482,9.255 39.141,11.992 40.06,14.959C42.738,23.613 38.497,33.326 30.391,37.766C22.292,42.204 11.853,40.532 5.914,33.724C0.207,27.182 -1.095,19.717 2.467,11.834C6.008,3.998 12.473,0.149 21.069,0.039C27.028,-0.037 32.989,0.024 39.117,0.024L39.117,0.024ZM20.652,32.615C27.568,32.647 33.166,27.101 33.194,20.189C33.223,13.226 27.675,7.691 20.607,7.632C13.944,7.577 8.217,13.32 8.2,20.076C8.182,26.981 13.745,32.583 20.653,32.615L20.652,32.615Z" fill="#3B38EB"/>
<path d="M35.328,42.644C36.557,44.415 37.731,46.106 38.899,47.787C39.102,48.08 39.035,48.485 38.742,48.688C28.863,55.56 13.431,55.955 2.693,48.756C2.403,48.561 2.325,48.167 2.511,47.871C3.067,46.988 3.622,46.095 4.203,45.219C4.779,44.349 5.382,43.497 6.016,42.588C6.208,42.311 6.58,42.231 6.873,42.397C16.009,47.594 25.149,47.628 34.475,42.447C34.767,42.284 35.137,42.368 35.328,42.643L35.328,42.644Z" fill="#3B38EB"/>
</svg>
