<svg width="46" height="46" viewBox="0 0 46 46" fill="none" xmlns="http://www.w3.org/2000/svg" xmlns:xlink="http://www.w3.org/1999/xlink">
<path d="M45.08,23.523C45.08,21.892 44.934,20.324 44.662,18.818L23,18.818L23,27.715L35.378,27.715C34.845,30.59 33.225,33.026 30.789,34.657L30.789,40.428L38.222,40.428C42.571,36.424 45.08,30.527 45.08,23.523Z" clip-rule="evenodd" fill-rule="evenodd" fill="#4285F4"/>
<path d="M23,46C29.21,46 34.416,43.94 38.222,40.427L30.788,34.656C28.729,36.036 26.094,36.852 23,36.852C17.009,36.852 11.939,32.806 10.13,27.37L2.446,27.37L2.446,33.329C6.231,40.846 14.009,46 23,46Z" clip-rule="evenodd" fill-rule="evenodd" fill="#34A853"/>
<path d="M10.13,27.37C9.67,25.99 9.409,24.516 9.409,23C9.409,21.484 9.67,20.01 10.13,18.63L10.13,12.671L2.446,12.671C0.889,15.776 0,19.289 0,23C0,26.711 0.889,30.224 2.446,33.329L10.13,27.37Z" clip-rule="evenodd" fill-rule="evenodd" fill="#FBBC05"/>
<path d="M23,9.148C26.377,9.148 29.408,10.308 31.792,12.587L38.389,5.99C34.406,2.279 29.199,0 23,0C14.009,0 6.231,5.154 2.446,12.671L10.13,18.63C11.939,13.194 17.009,9.148 23,9.148Z" clip-rule="evenodd" fill-rule="evenodd" fill="#EA4335"/>
</svg>
