<svg width="46" height="46" viewBox="0 0 46 46" fill="none" xmlns="http://www.w3.org/2000/svg" xmlns:xlink="http://www.w3.org/1999/xlink">
<path d="M9.738,24.125L11.738,24.125L11.738,22.125L9.738,22.125L9.738,24.125ZM33.736,24.125L33.736,22.125L31.736,22.125L31.736,24.125L33.736,24.125ZM41.838,22.227L40.424,23.641L41.838,22.227ZM22.523,2.911L21.109,4.326L22.523,2.911ZM19.536,1.497L0.22,20.812L3.049,23.641L22.364,4.326L19.536,1.497ZM2.421,26.125L9.738,26.125L9.738,22.125L2.421,22.125L2.421,26.125ZM7.738,24.125L7.738,40.536L11.738,40.536L11.738,24.125L7.738,24.125ZM11.327,44.125L32.148,44.125L32.148,40.125L11.327,40.125L11.327,44.125ZM35.736,40.536L35.736,24.125L31.736,24.125L31.736,40.536L35.736,40.536ZM33.736,26.125L41.052,26.125L41.052,22.125L33.736,22.125L33.736,26.125ZM43.252,20.812L23.937,1.497L21.109,4.326L40.424,23.641L43.252,20.812ZM32.148,44.125C34.13,44.125 35.736,42.518 35.736,40.536L31.736,40.536C31.736,40.309 31.921,40.125 32.148,40.125L32.148,44.125ZM7.738,40.536C7.738,42.518 9.345,44.125 11.327,44.125L11.327,40.125C11.554,40.125 11.738,40.309 11.738,40.536L7.738,40.536ZM41.052,26.125C43.824,26.125 45.213,22.773 43.252,20.812L40.424,23.641C39.864,23.081 40.261,22.125 41.052,22.125L41.052,26.125ZM0.22,20.812C-1.74,22.773 -0.352,26.125 2.421,26.125L2.421,22.125C3.212,22.125 3.608,23.081 3.049,23.641L0.22,20.812ZM22.364,4.326C22.018,4.672 21.455,4.672 21.109,4.326L23.937,1.497C22.722,0.282 20.751,0.282 19.536,1.497L22.364,4.326Z" fill="#494A50"/>
</svg>
