<svg width="46" height="46" viewBox="0 0 46 46" fill="none" xmlns="http://www.w3.org/2000/svg" xmlns:xlink="http://www.w3.org/1999/xlink">
<path d="M46,22.721C46,35.423 35.703,45.721 23,45.721C10.297,45.721 0,35.423 0,22.721C0,11.241 8.411,1.726 19.406,0L19.406,16.072L13.566,16.072L13.566,22.721L19.406,22.721L19.406,27.788C19.406,33.552 22.84,36.736 28.094,36.736C30.61,36.736 33.242,36.287 33.242,36.287L33.242,30.627L30.342,30.627C27.485,30.627 26.594,28.854 26.594,27.035L26.594,22.721L32.973,22.721L31.953,16.072L26.594,16.072L26.594,0C37.589,1.726 46,11.241 46,22.721Z" fill="#1877F2"/>
</svg>
