<svg width="48" height="48" viewBox="0 0 48 48" fill="none" xmlns="http://www.w3.org/2000/svg" xmlns:xlink="http://www.w3.org/1999/xlink">
<mask id="mask_0_109_764" style="mask-type:alpha" maskUnits="userSpaceOnUse" x="3.273438" y="-0.003052" width="20" height="24.000549">
<path d="M35.274,11.997C35.274,18.624 29.901,23.997 23.274,23.997C16.646,23.997 11.274,18.624 11.274,11.997C11.274,5.37 16.646,-0.003 23.274,-0.003C29.901,-0.003 35.274,5.37 35.274,11.997Z" fill="#006FFD"/>
<path d="M3.273,39.998C3.273,33.371 8.646,27.998 15.273,27.998L31.273,27.998C37.901,27.998 43.273,33.371 43.273,39.998L43.273,41.998C43.273,45.312 40.587,47.998 37.273,47.998L9.273,47.998C5.96,47.998 3.273,45.312 3.273,41.998L3.273,39.998Z" fill="#006FFD"/>
</mask>
<rect  x="-0.727" y="-0.005" width="48" height="48" fill="#006FFD"/>
</svg>
