<svg width="32" height="32" viewBox="0 0 32 32" fill="none" xmlns="http://www.w3.org/2000/svg" xmlns:xlink="http://www.w3.org/1999/xlink">
<mask id="mask_0_i_137_13045;216_4539" style="mask-type:alpha" maskUnits="userSpaceOnUse" x="0.192383" y="-0.333374" width="15.333576" height="15.333332">
<path d="M12.38,-0.333C5.654,-0.333 0.192,5.075 0.192,11.759C0.192,18.443 5.654,23.851 12.38,23.851C14.887,23.851 17.22,23.099 19.159,21.81L27.11,29.695C27.967,30.546 29.356,30.546 30.214,29.695C31.075,28.841 31.075,27.455 30.214,26.601L22.314,18.766C23.732,16.79 24.567,14.371 24.567,11.759C24.567,5.075 19.106,-0.333 12.38,-0.333ZM4.588,11.759C4.588,7.5 8.071,4.037 12.38,4.037C16.688,4.037 20.172,7.5 20.172,11.759C20.172,16.019 16.688,19.481 12.38,19.481C8.071,19.481 4.588,16.019 4.588,11.759Z" clip-rule="evenodd" fill-rule="evenodd" fill="#006FFD"/>
</mask>
<rect  x="-0.474" y="-1" width="32.001" height="32" fill="#8F9098"/>
</svg>
