<svg width="40" height="40" viewBox="0 0 40 40" fill="none" xmlns="http://www.w3.org/2000/svg" xmlns:xlink="http://www.w3.org/1999/xlink">
<mask id="mask_0_i_294_7050;126_660;269_8037" style="mask-type:alpha" maskUnits="userSpaceOnUse" x="1.25" y="0.708984" width="18.542" height="18.54137">
<path d="M6.667,7.792C5.976,7.792 5.417,8.352 5.417,9.042L5.417,32.375C5.417,33.066 5.976,33.625 6.667,33.625L30,33.625C30.69,33.625 31.25,33.066 31.25,32.375L31.25,20.709C31.25,19.558 32.183,18.625 33.333,18.625C34.484,18.625 35.417,19.558 35.417,20.709L35.417,32.375C35.417,35.367 32.992,37.792 30,37.792L6.667,37.792C3.675,37.792 1.25,35.367 1.25,32.375L1.25,9.042C1.25,6.051 3.675,3.626 6.667,3.626L18.333,3.626C19.484,3.626 20.417,4.558 20.417,5.709C20.417,6.859 19.484,7.792 18.333,7.792L6.667,7.792Z" clip-rule="evenodd" fill-rule="evenodd" fill="#006FFD"/>
<path d="M21.824,22.877L33.738,10.964L28.079,5.305L16.166,17.218C16.002,17.382 15.886,17.588 15.829,17.813L14.508,24.534L21.228,23.214C21.454,23.157 21.66,23.041 21.824,22.877ZM37.583,7.118C38.064,6.637 38.334,5.985 38.334,5.305C38.334,4.626 38.064,3.974 37.583,3.493L35.55,1.46C35.069,0.979 34.417,0.709 33.738,0.709C33.058,0.709 32.406,0.979 31.925,1.46L29.892,3.493L35.55,9.151L37.583,7.118Z" fill="#006FFD"/>
</mask>
<rect  x="0" y="-0.958" width="40" height="39.999" fill="#006FFD"/>
</svg>
