<svg width="40" height="42" viewBox="0 0 40 42" fill="none" xmlns="http://www.w3.org/2000/svg" xmlns:xlink="http://www.w3.org/1999/xlink">
<mask id="mask_0_i_269_8381;126_660;269_8037" style="mask-type:alpha" maskUnits="userSpaceOnUse" x="1.249817" y="1.896912" width="18.542" height="18.54137">
<path d="M6.666,8.98C5.976,8.98 5.416,9.54 5.416,10.23L5.416,33.563C5.416,34.254 5.976,34.813 6.666,34.813L30,34.813C30.69,34.813 31.25,34.254 31.25,33.563L31.25,21.897C31.25,20.746 32.183,19.813 33.333,19.813C34.484,19.813 35.416,20.746 35.416,21.897L35.416,33.563C35.416,36.555 32.991,38.98 30,38.98L6.666,38.98C3.675,38.98 1.25,36.555 1.25,33.563L1.25,10.23C1.25,7.239 3.675,4.814 6.666,4.814L18.333,4.814C19.484,4.814 20.416,5.746 20.416,6.897C20.416,8.047 19.484,8.98 18.333,8.98L6.666,8.98Z" clip-rule="evenodd" fill-rule="evenodd" fill="#006FFD"/>
<path d="M21.824,24.065L33.737,12.152L28.079,6.493L16.166,18.406C16.002,18.57 15.885,18.776 15.829,19.001L14.508,25.722L21.228,24.402C21.454,24.345 21.66,24.229 21.824,24.065ZM37.583,8.306C38.064,7.825 38.334,7.173 38.334,6.493C38.334,5.813 38.064,5.161 37.583,4.681L35.55,2.648C35.069,2.167 34.417,1.897 33.737,1.897C33.057,1.897 32.405,2.167 31.925,2.648L29.892,4.681L35.55,10.339L37.583,8.306Z" fill="#006FFD"/>
</mask>
<rect  x="0" y="0.23" width="40" height="39.999" fill="#006FFD"/>
</svg>
