<svg width="40" height="40" viewBox="0 0 40 40" fill="none" xmlns="http://www.w3.org/2000/svg" xmlns:xlink="http://www.w3.org/1999/xlink">
<mask id="mask_0_i_290_8146;126_660;269_8037" style="mask-type:alpha" maskUnits="userSpaceOnUse" x="1.249756" y="1.039551" width="18.542" height="18.54137">
<path d="M6.666,8.123C5.976,8.123 5.416,8.682 5.416,9.373L5.416,32.706C5.416,33.396 5.976,33.956 6.666,33.956L30,33.956C30.69,33.956 31.25,33.396 31.25,32.706L31.25,21.039C31.25,19.889 32.183,18.956 33.333,18.956C34.484,18.956 35.416,19.889 35.416,21.039L35.416,32.706C35.416,35.697 32.991,38.122 30,38.122L6.666,38.122C3.675,38.122 1.25,35.697 1.25,32.706L1.25,9.373C1.25,6.381 3.675,3.956 6.666,3.956L18.333,3.956C19.484,3.956 20.416,4.889 20.416,6.039C20.416,7.19 19.484,8.123 18.333,8.123L6.666,8.123Z" clip-rule="evenodd" fill-rule="evenodd" fill="#006FFD"/>
<path d="M21.824,23.207L33.737,11.294L28.079,5.636L16.166,17.549C16.002,17.713 15.885,17.919 15.829,18.144L14.508,24.865L21.228,23.544C21.454,23.488 21.66,23.371 21.824,23.207ZM37.583,7.449C38.064,6.968 38.334,6.316 38.334,5.636C38.334,4.956 38.064,4.304 37.583,3.823L35.55,1.79C35.069,1.31 34.417,1.04 33.737,1.04C33.057,1.04 32.405,1.31 31.925,1.79L29.892,3.823L35.55,9.482L37.583,7.449Z" fill="#006FFD"/>
</mask>
<rect  x="0" y="-0.627" width="40" height="39.999" fill="#006FFD"/>
</svg>
