<svg width="42" height="40" viewBox="0 0 42 40" fill="none" xmlns="http://www.w3.org/2000/svg" xmlns:xlink="http://www.w3.org/1999/xlink">
<mask id="mask_0_i_251_5597;109_1987;126_522" style="mask-type:alpha" maskUnits="userSpaceOnUse" x="1.101318" y="2.3125" width="19.583332" height="17.687387">
<path d="M1.101,13.058C1.101,7.103 5.972,2.313 11.935,2.313C15.076,2.313 17.733,3.993 19.451,5.417C19.911,5.798 20.325,6.178 20.685,6.532C21.045,6.178 21.458,5.798 21.918,5.417C23.636,3.993 26.294,2.313 29.435,2.313C35.397,2.313 40.268,7.103 40.268,13.058C40.268,15.291 39.818,18.92 37.34,23.22C34.868,27.507 30.444,32.349 22.672,37.128L22.664,37.133C22.067,37.495 21.383,37.687 20.685,37.687C19.987,37.687 19.302,37.495 18.706,37.133L18.698,37.128C10.925,32.349 6.501,27.507 4.029,23.22C1.551,18.92 1.101,15.291 1.101,13.058ZM22.354,10.893C21.96,11.419 21.342,11.729 20.685,11.729C20.028,11.729 19.41,11.42 19.017,10.895C19.017,10.894 19.016,10.893 19.016,10.893L19.016,10.893L19.017,10.895L19.017,10.895L19.018,10.896C19.018,10.896 19.017,10.895 19.016,10.892L18.994,10.865C18.973,10.838 18.938,10.793 18.89,10.733C18.793,10.614 18.644,10.436 18.448,10.219C18.055,9.782 17.487,9.201 16.792,8.625C15.343,7.423 13.625,6.479 11.935,6.479C8.234,6.479 5.268,9.444 5.268,13.058C5.268,14.687 5.584,17.573 7.639,21.139C9.683,24.684 13.51,29.012 20.685,33.458C27.859,29.012 31.686,24.684 33.73,21.139C35.785,17.573 36.101,14.687 36.101,13.058C36.101,9.444 33.136,6.479 29.435,6.479C27.744,6.479 26.027,7.423 24.577,8.625C23.882,9.201 23.314,9.782 22.921,10.219C22.726,10.436 22.577,10.614 22.48,10.733C22.431,10.793 22.396,10.838 22.375,10.865L22.354,10.892C22.353,10.894 22.352,10.895 22.352,10.895L22.352,10.895L22.353,10.893L22.354,10.893Z" clip-rule="evenodd" fill-rule="evenodd" fill="#006FFD"/>
</mask>
<rect  x="0.685" y="0" width="40" height="39.999" fill="#006FFD"/>
</svg>
