<svg width="24" height="26" viewBox="0 0 24 26" fill="none" xmlns="http://www.w3.org/2000/svg" xmlns:xlink="http://www.w3.org/1999/xlink">
<mask id="mask_0_i_283_6220;126_1367;156_1552" style="mask-type:alpha" maskUnits="userSpaceOnUse" x="1" y="1.230133" width="11" height="10.999825">
<path d="M23,12.23C23,18.305 18.075,23.23 12,23.23C5.925,23.23 1,18.305 1,12.23C1,6.155 5.925,1.23 12,1.23C18.075,1.23 23,6.155 23,12.23Z" fill="#D9D9D9"/>
</mask>
<g mask="url(#mask_0_i_283_6220;126_1367;156_1552)">
<rect  x="0" y="0.23" width="24" height="24" fill="#8F9098"/>
</g>
<path d="M9.335,8.051C8.917,7.633 8.239,7.633 7.821,8.051C7.403,8.469 7.403,9.147 7.821,9.565L10.486,12.23L7.821,14.895C7.403,15.313 7.403,15.991 7.821,16.409C8.239,16.827 8.917,16.827 9.335,16.409L12,13.744L14.665,16.409C15.083,16.827 15.761,16.827 16.179,16.409C16.597,15.991 16.597,15.313 16.179,14.895L13.514,12.23L16.179,9.565C16.597,9.147 16.597,8.469 16.179,8.051C15.761,7.633 15.083,7.633 14.665,8.051L12,10.716L9.335,8.051Z" fill="#FFFFFF"/>
</svg>
