<svg width="40" height="42" viewBox="0 0 40 42" fill="none" xmlns="http://www.w3.org/2000/svg" xmlns:xlink="http://www.w3.org/1999/xlink">
<mask id="mask_0_i_281_6044;126_764;216_4539" style="mask-type:alpha" maskUnits="userSpaceOnUse" x="0.833252" y="1.063599" width="19.166668" height="19.166359">
<path d="M16.067,1.064C7.66,1.064 0.833,7.824 0.833,16.179C0.833,24.533 7.66,31.294 16.067,31.294C19.202,31.294 22.117,30.354 24.541,28.742L34.479,38.599C35.551,39.662 37.287,39.662 38.359,38.599C39.436,37.531 39.436,35.798 38.359,34.731L28.485,24.938C30.258,22.467 31.302,19.443 31.302,16.179C31.302,7.824 24.474,1.064 16.067,1.064ZM6.328,16.179C6.328,10.855 10.682,6.527 16.067,6.527C21.453,6.527 25.807,10.855 25.807,16.179C25.807,21.503 21.453,25.831 16.067,25.831C10.682,25.831 6.328,21.503 6.328,16.179Z" clip-rule="evenodd" fill-rule="evenodd" fill="#006FFD"/>
</mask>
<rect  x="0" y="0.23" width="40" height="39.999" fill="#006FFD"/>
</svg>
