<svg width="32" height="34" viewBox="0 0 32 34" fill="none" xmlns="http://www.w3.org/2000/svg" xmlns:xlink="http://www.w3.org/1999/xlink">
<mask id="mask_0_i_283_6007;283_6044;216_4539" style="mask-type:alpha" maskUnits="userSpaceOnUse" x="0.666748" y="0.896667" width="15.333334" height="15.333332">
<path d="M12.854,0.897C6.128,0.897 0.667,6.305 0.667,12.989C0.667,19.673 6.128,25.081 12.854,25.081C15.362,25.081 17.694,24.329 19.633,23.04L27.583,30.925C28.441,31.776 29.83,31.776 30.688,30.925C31.549,30.071 31.549,28.685 30.688,27.831L22.788,19.996C24.206,18.02 25.041,15.601 25.041,12.989C25.041,6.305 19.58,0.897 12.854,0.897ZM5.062,12.989C5.062,8.73 8.546,5.267 12.854,5.267C17.163,5.267 20.646,8.73 20.646,12.989C20.646,17.249 17.163,20.711 12.854,20.711C8.546,20.711 5.062,17.249 5.062,12.989Z" clip-rule="evenodd" fill-rule="evenodd" fill="#006FFD"/>
</mask>
<rect  x="0" y="0.23" width="32" height="32" fill="#2F3036"/>
</svg>
