<svg width="32" height="32" viewBox="0 0 32 32" fill="none" xmlns="http://www.w3.org/2000/svg" xmlns:xlink="http://www.w3.org/1999/xlink">
<mask id="mask_0_i_290_8134;136_9995;216_4539" style="mask-type:alpha" maskUnits="userSpaceOnUse" x="0.666504" y="0.039063" width="15.333334" height="15.333332">
<path d="M12.854,0.039C6.128,0.039 0.667,5.448 0.667,12.132C0.667,18.815 6.128,24.224 12.854,24.224C15.361,24.224 17.694,23.472 19.632,22.182L27.583,30.068C28.441,30.918 29.83,30.918 30.688,30.068C31.548,29.214 31.548,27.827 30.688,26.973L22.788,19.139C24.206,17.162 25.041,14.743 25.041,12.132C25.041,5.448 19.58,0.039 12.854,0.039ZM5.062,12.132C5.062,7.872 8.545,4.41 12.854,4.41C17.162,4.41 20.646,7.872 20.646,12.132C20.646,16.391 17.162,19.854 12.854,19.854C8.545,19.854 5.062,16.391 5.062,12.132Z" clip-rule="evenodd" fill-rule="evenodd" fill="#006FFD"/>
</mask>
<rect  x="0" y="-0.627" width="32" height="32" fill="#2F3036"/>
</svg>
