<svg width="32" height="32" viewBox="0 0 32 32" fill="none" xmlns="http://www.w3.org/2000/svg" xmlns:xlink="http://www.w3.org/1999/xlink">
<mask id="mask_0_i_136_9995;216_4539" style="mask-type:alpha" maskUnits="userSpaceOnUse" x="0.666687" y="0.666626" width="15.333334" height="15.333332">
<path d="M12.854,0.667C6.128,0.667 0.667,6.075 0.667,12.759C0.667,19.443 6.128,24.851 12.854,24.851C15.362,24.851 17.694,24.099 19.633,22.81L27.583,30.695C28.441,31.546 29.83,31.546 30.688,30.695C31.548,29.841 31.548,28.455 30.688,27.601L22.788,19.766C24.206,17.79 25.041,15.371 25.041,12.759C25.041,6.075 19.58,0.667 12.854,0.667ZM5.062,12.759C5.062,8.5 8.546,5.037 12.854,5.037C17.162,5.037 20.646,8.5 20.646,12.759C20.646,17.019 17.162,20.481 12.854,20.481C8.546,20.481 5.062,17.019 5.062,12.759Z" clip-rule="evenodd" fill-rule="evenodd" fill="#006FFD"/>
</mask>
<rect  x="0" y="0" width="32" height="32" fill="#2F3036"/>
</svg>
