<svg width="40" height="40" viewBox="0 0 40 40" fill="none" xmlns="http://www.w3.org/2000/svg" xmlns:xlink="http://www.w3.org/1999/xlink">
<mask id="mask_0_i_240_6095;216_4539" style="mask-type:alpha" maskUnits="userSpaceOnUse" x="0.762085" y="-0.110229" width="19.166668" height="19.166666">
<path d="M15.996,-0.11C7.589,-0.11 0.762,6.651 0.762,15.005C0.762,23.36 7.589,30.121 15.996,30.121C19.131,30.121 22.046,29.181 24.469,27.569L34.408,37.426C35.48,38.489 37.216,38.489 38.288,37.426C39.364,36.358 39.364,34.625 38.288,33.558L28.413,23.764C30.187,21.294 31.23,18.27 31.23,15.005C31.23,6.651 24.403,-0.11 15.996,-0.11ZM6.257,15.005C6.257,9.681 10.611,5.353 15.996,5.353C21.382,5.353 25.736,9.681 25.736,15.005C25.736,20.33 21.382,24.658 15.996,24.658C10.611,24.658 6.257,20.33 6.257,15.005Z" clip-rule="evenodd" fill-rule="evenodd" fill="#006FFD"/>
</mask>
<rect  x="-0.071" y="-0.944" width="40" height="40" fill="#2F3036"/>
</svg>
