<svg width="40" height="42" viewBox="0 0 40 42" fill="none" xmlns="http://www.w3.org/2000/svg" xmlns:xlink="http://www.w3.org/1999/xlink">
<mask id="mask_0_i_294_10201;216_4539" style="mask-type:alpha" maskUnits="userSpaceOnUse" x="0.443726" y="1.023682" width="19.166668" height="19.166666">
<path d="M15.678,1.024C7.271,1.024 0.444,7.785 0.444,16.139C0.444,24.494 7.271,31.255 15.678,31.255C18.812,31.255 21.728,30.315 24.151,28.703L34.09,38.559C35.162,39.623 36.898,39.623 37.97,38.559C39.046,37.492 39.046,35.759 37.97,34.691L28.095,24.898C29.868,22.427 30.912,19.404 30.912,16.139C30.912,7.785 24.085,1.024 15.678,1.024ZM5.938,16.139C5.938,10.815 10.292,6.487 15.678,6.487C21.064,6.487 25.418,10.815 25.418,16.139C25.418,21.464 21.064,25.792 15.678,25.792C10.292,25.792 5.938,21.464 5.938,16.139Z" clip-rule="evenodd" fill-rule="evenodd" fill="#006FFD"/>
</mask>
<rect  x="-0.39" y="0.19" width="40" height="40" fill="#2F3036"/>
</svg>
