<svg width="32" height="32" viewBox="0 0 32 32" fill="none" xmlns="http://www.w3.org/2000/svg" xmlns:xlink="http://www.w3.org/1999/xlink">
<mask id="mask_0_i_294_7038;136_9995;216_4539" style="mask-type:alpha" maskUnits="userSpaceOnUse" x="0.666626" y="-0.291016" width="15.333334" height="15.333332">
<path d="M12.854,-0.291C6.128,-0.291 0.667,5.118 0.667,11.801C0.667,18.485 6.128,23.894 12.854,23.894C15.361,23.894 17.694,23.142 19.633,21.852L27.583,29.738C28.441,30.588 29.83,30.588 30.688,29.738C31.548,28.884 31.548,27.497 30.688,26.643L22.788,18.809C24.206,16.832 25.041,14.413 25.041,11.801C25.041,5.118 19.58,-0.291 12.854,-0.291ZM5.062,11.801C5.062,7.542 8.546,4.079 12.854,4.079C17.162,4.079 20.646,7.542 20.646,11.801C20.646,16.061 17.162,19.523 12.854,19.523C8.546,19.523 5.062,16.061 5.062,11.801Z" clip-rule="evenodd" fill-rule="evenodd" fill="#006FFD"/>
</mask>
<rect  x="0" y="-0.958" width="32" height="32" fill="#2F3036"/>
</svg>
