<svg width="32" height="34" viewBox="0 0 32 34" fill="none" xmlns="http://www.w3.org/2000/svg" xmlns:xlink="http://www.w3.org/1999/xlink">
<mask id="mask_0_i_283_6096;283_6049;216_4539" style="mask-type:alpha" maskUnits="userSpaceOnUse" x="0.666687" y="1.228882" width="15.333334" height="15.333332">
<path d="M12.854,1.229C6.128,1.229 0.667,6.638 0.667,13.321C0.667,20.005 6.128,25.414 12.854,25.414C15.362,25.414 17.694,24.662 19.633,23.372L27.583,31.257C28.441,32.108 29.83,32.108 30.688,31.257C31.548,30.404 31.548,29.017 30.688,28.163L22.788,20.328C24.206,18.352 25.041,15.933 25.041,13.321C25.041,6.638 19.58,1.229 12.854,1.229ZM5.062,13.321C5.062,9.062 8.546,5.599 12.854,5.599C17.162,5.599 20.646,9.062 20.646,13.321C20.646,17.581 17.162,21.043 12.854,21.043C8.546,21.043 5.062,17.581 5.062,13.321Z" clip-rule="evenodd" fill-rule="evenodd" fill="#006FFD"/>
</mask>
<rect  x="0" y="0.562" width="32" height="32" fill="#2F3036"/>
</svg>
