<svg width="48" height="48" viewBox="0 0 48 48" fill="none" xmlns="http://www.w3.org/2000/svg" xmlns:xlink="http://www.w3.org/1999/xlink">
<mask id="mask_0_216_4539" style="mask-type:alpha" maskUnits="userSpaceOnUse" x="0.275391" y="0.997559" width="23" height="22.999998">
<path d="M18.556,0.998C8.468,0.998 0.275,9.111 0.275,19.136C0.275,29.162 8.468,37.275 18.556,37.275C22.318,37.275 25.816,36.147 28.724,34.213L40.65,46.04C41.937,47.317 44.02,47.317 45.307,46.04C46.598,44.76 46.598,42.68 45.307,41.399L33.457,29.647C35.585,26.682 36.837,23.054 36.837,19.136C36.837,9.111 28.645,0.998 18.556,0.998ZM6.869,19.136C6.869,12.747 12.094,7.553 18.556,7.553C25.019,7.553 30.244,12.747 30.244,19.136C30.244,25.526 25.019,30.719 18.556,30.719C12.094,30.719 6.869,25.526 6.869,19.136Z" clip-rule="evenodd" fill-rule="evenodd" fill="#006FFD"/>
</mask>
<rect  x="-0.725" y="-0.002" width="48" height="48" fill="#006FFD"/>
</svg>
