<svg width="40" height="40" viewBox="0 0 40 40" fill="none" xmlns="http://www.w3.org/2000/svg" xmlns:xlink="http://www.w3.org/1999/xlink">
<mask id="mask_0_i_294_6554;216_4539" style="mask-type:alpha" maskUnits="userSpaceOnUse" x="0.762177" y="0.452148" width="19.166668" height="19.166666">
<path d="M15.996,0.452C7.589,0.452 0.762,7.213 0.762,15.568C0.762,23.922 7.589,30.683 15.996,30.683C19.131,30.683 22.046,29.743 24.47,28.131L34.408,37.988C35.48,39.051 37.216,39.051 38.288,37.988C39.365,36.921 39.365,35.187 38.288,34.12L28.414,24.327C30.187,21.856 31.231,18.832 31.231,15.568C31.231,7.213 24.403,0.452 15.996,0.452ZM6.257,15.568C6.257,10.243 10.611,5.915 15.996,5.915C21.382,5.915 25.736,10.243 25.736,15.568C25.736,20.892 21.382,25.22 15.996,25.22C10.611,25.22 6.257,20.892 6.257,15.568Z" clip-rule="evenodd" fill-rule="evenodd" fill="#006FFD"/>
</mask>
<rect  x="-0.071" y="-0.381" width="40" height="40" fill="#2F3036"/>
</svg>
