<svg width="32" height="34" viewBox="0 0 32 34" fill="none" xmlns="http://www.w3.org/2000/svg" xmlns:xlink="http://www.w3.org/1999/xlink">
<mask id="mask_0_i_294_10220;216_4539" style="mask-type:alpha" maskUnits="userSpaceOnUse" x="0.666626" y="0.88208" width="15.333334" height="15.333332">
<path d="M12.854,0.882C6.128,0.882 0.667,6.291 0.667,12.975C0.667,19.658 6.128,25.067 12.854,25.067C15.361,25.067 17.694,24.315 19.633,23.025L27.583,30.911C28.441,31.761 29.83,31.761 30.688,30.911C31.548,30.057 31.548,28.67 30.688,27.816L22.788,19.982C24.206,18.005 25.041,15.586 25.041,12.975C25.041,6.291 19.58,0.882 12.854,0.882ZM5.062,12.975C5.062,8.715 8.546,5.253 12.854,5.253C17.162,5.253 20.646,8.715 20.646,12.975C20.646,17.234 17.162,20.697 12.854,20.697C8.546,20.697 5.062,17.234 5.062,12.975Z" clip-rule="evenodd" fill-rule="evenodd" fill="#006FFD"/>
</mask>
<rect  x="0" y="0.215" width="32" height="32" fill="#2F3036"/>
</svg>
