<svg width="48" height="48" viewBox="0 0 48 48" fill="none" xmlns="http://www.w3.org/2000/svg" xmlns:xlink="http://www.w3.org/1999/xlink">
<mask id="mask_0_213_3658" style="mask-type:alpha" maskUnits="userSpaceOnUse" x="-0.107422" y="3.013245" width="22.18228" height="22.18228">
<path d="M0.918,16.878C0.652,16.967 0.416,17.129 0.237,17.345C0.058,17.561 -0.057,17.824 -0.094,18.102C-0.131,18.38 -0.09,18.663 0.026,18.919C0.141,19.175 0.326,19.393 0.56,19.549L13.825,26.861C14.072,26.997 14.352,27.061 14.634,27.045C14.916,27.029 15.188,26.934 15.418,26.77L29.51,16.721C30.191,16.265 31.005,17.08 30.549,17.761L20.5,31.853C20.337,32.083 20.241,32.354 20.225,32.636C20.209,32.918 20.273,33.199 20.409,33.446L27.721,46.71C27.877,46.944 28.095,47.129 28.351,47.245C28.607,47.36 28.89,47.402 29.169,47.364C29.447,47.327 29.709,47.212 29.925,47.033C30.142,46.854 30.303,46.618 30.392,46.352L44.181,4.986C44.268,4.722 44.281,4.439 44.217,4.168C44.153,3.897 44.015,3.649 43.818,3.453C43.621,3.256 43.373,3.118 43.102,3.054C42.832,2.989 42.548,3.002 42.284,3.09L0.918,16.878Z" fill="#006FFD"/>
</mask>
<rect  x="-0.729" y="-0.001" width="48" height="48" fill="#006FFD"/>
</svg>
