<svg width="48" height="48" viewBox="0 0 48 48" fill="none" xmlns="http://www.w3.org/2000/svg" xmlns:xlink="http://www.w3.org/1999/xlink">
<mask id="mask_0_269_8089" style="mask-type:alpha" maskUnits="userSpaceOnUse" x="-0.724609" y="-0.002502" width="24" height="24">
<path d="M46.682,20.35L41.316,18.75C40.946,17.456 40.435,16.206 39.795,15.022L42.422,10.11C42.52,9.924 42.556,9.712 42.524,9.505C42.493,9.297 42.395,9.105 42.245,8.958L38.418,5.118C38.27,4.968 38.078,4.871 37.87,4.839C37.663,4.807 37.45,4.843 37.265,4.942L32.38,7.55C31.183,6.879 29.915,6.342 28.6,5.95L26.998,0.654C26.931,0.459 26.803,0.29 26.633,0.172C26.463,0.054 26.26,-0.007 26.054,-0.002L20.64,-0.002C20.432,-0.001 20.23,0.066 20.063,0.19C19.896,0.313 19.773,0.487 19.711,0.686L18.11,5.966C16.784,6.356 15.505,6.893 14.298,7.566L9.493,4.974C9.308,4.875 9.095,4.839 8.888,4.871C8.68,4.903 8.488,5 8.34,5.15L4.448,8.942C4.299,9.089 4.201,9.281 4.169,9.489C4.138,9.696 4.174,9.908 4.272,10.094L6.867,14.894C6.194,16.095 5.657,17.366 5.265,18.686L-0.036,20.286C-0.235,20.347 -0.409,20.47 -0.532,20.637C-0.656,20.804 -0.724,21.006 -0.725,21.214L-0.725,26.622C-0.724,26.829 -0.656,27.031 -0.532,27.198C-0.409,27.365 -0.235,27.488 -0.036,27.55L5.297,29.149C5.693,30.447 6.23,31.697 6.899,32.877L4.272,37.901C4.174,38.087 4.138,38.299 4.169,38.507C4.201,38.714 4.299,38.906 4.448,39.053L8.276,42.877C8.424,43.027 8.616,43.125 8.824,43.156C9.031,43.188 9.244,43.152 9.429,43.053L14.378,40.413C15.549,41.045 16.784,41.549 18.062,41.917L19.663,47.309C19.725,47.508 19.848,47.682 20.015,47.805C20.182,47.929 20.384,47.996 20.592,47.997L26.006,47.997C26.213,47.996 26.416,47.929 26.583,47.805C26.75,47.682 26.873,47.508 26.934,47.309L28.536,41.901C29.803,41.531 31.027,41.027 32.188,40.397L37.168,43.053C37.354,43.152 37.566,43.188 37.774,43.156C37.982,43.125 38.174,43.027 38.322,42.877L42.149,39.053C42.299,38.906 42.397,38.714 42.428,38.507C42.46,38.299 42.424,38.087 42.325,37.901L39.667,32.941C40.303,31.778 40.813,30.549 41.188,29.277L46.586,27.678C46.784,27.616 46.958,27.493 47.082,27.326C47.206,27.159 47.273,26.957 47.274,26.75L47.274,21.294C47.284,21.095 47.232,20.897 47.126,20.729C47.02,20.56 46.865,20.428 46.682,20.35ZM23.347,32.797C21.605,32.797 19.902,32.281 18.453,31.314C17.005,30.347 15.876,28.973 15.209,27.365C14.542,25.757 14.368,23.988 14.708,22.281C15.047,20.574 15.886,19.006 17.118,17.775C18.35,16.544 19.92,15.706 21.628,15.367C23.337,15.027 25.108,15.201 26.718,15.868C28.327,16.534 29.703,17.661 30.671,19.109C31.639,20.556 32.156,22.257 32.156,23.998C32.156,26.331 31.227,28.57 29.576,30.22C27.924,31.87 25.683,32.797 23.347,32.797Z" fill="#006FFD"/>
</mask>
<rect  x="-0.725" y="-0.002" width="48" height="48" fill="#006FFD"/>
</svg>
