<svg width="20" height="18" viewBox="0 0 20 18" fill="none" xmlns="http://www.w3.org/2000/svg" xmlns:xlink="http://www.w3.org/1999/xlink">
<path d="M3.941,-0.358C3.105,-1.194 1.75,-1.194 0.914,-0.358C0.078,0.478 0.078,1.833 0.914,2.669L6.244,7.999L0.914,13.329C0.078,14.165 0.078,15.521 0.914,16.357C1.75,17.193 3.105,17.193 3.941,16.357L9.272,11.027L14.602,16.357C15.438,17.193 16.793,17.193 17.629,16.357C18.465,15.521 18.465,14.165 17.629,13.329L12.299,7.999L17.629,2.669C18.465,1.833 18.465,0.478 17.629,-0.358C16.793,-1.194 15.438,-1.194 14.602,-0.358L9.272,4.972L3.941,-0.358Z" fill="#FFFFFF"/>
</svg>
