<svg width="14" height="22" viewBox="0 0 14 22" fill="none" xmlns="http://www.w3.org/2000/svg" xmlns:xlink="http://www.w3.org/1999/xlink">
<path d="M2.538,7.626C2.538,6.521 3.433,5.626 4.538,5.626L7.271,5.626C8.376,5.626 9.271,6.521 9.271,7.626L9.271,16.939L11.683,16.939C12.787,16.939 13.683,17.835 13.683,18.939C13.683,20.044 12.787,20.939 11.683,20.939L2.859,20.939C1.755,20.939 0.859,20.044 0.859,18.939C0.859,17.835 1.755,16.939 2.859,16.939L5.271,16.939L5.271,9.626L4.538,9.626C3.433,9.626 2.538,8.73 2.538,7.626Z" clip-rule="evenodd" fill-rule="evenodd" fill="#FFFFFF"/>
<path d="M9.736,1.676C9.736,3.121 8.565,4.293 7.119,4.293C5.674,4.293 4.502,3.121 4.502,1.676C4.502,0.231 5.674,-0.941 7.119,-0.941C8.565,-0.941 9.736,0.231 9.736,1.676Z" fill="#FFFFFF"/>
</svg>
