<svg width="8" height="26" viewBox="0 0 8 26" fill="none" xmlns="http://www.w3.org/2000/svg" xmlns:xlink="http://www.w3.org/1999/xlink">
<path d="M2.166,0.119C2.515,-0.034 2.892,-0.113 3.273,-0.113C3.653,-0.113 4.03,-0.034 4.378,0.12C4.726,0.274 5.038,0.498 5.295,0.78C5.552,1.061 5.747,1.392 5.868,1.753C5.989,2.114 6.034,2.496 6,2.875L4.908,14.893C4.865,15.297 4.675,15.671 4.373,15.943C4.071,16.215 3.679,16.365 3.273,16.365C2.866,16.365 2.474,16.215 2.173,15.943C1.871,15.671 1.68,15.297 1.638,14.893L0.543,2.875C0.508,2.496 0.553,2.113 0.674,1.752C0.796,1.391 0.991,1.06 1.248,0.778C1.505,0.497 1.818,0.273 2.166,0.119Z" fill="#FFFFFF"/>
<path d="M5.89,21.495C5.89,22.94 4.718,24.111 3.273,24.111C1.827,24.111 0.656,22.94 0.656,21.495C0.656,20.049 1.827,18.877 3.273,18.877C4.718,18.877 5.89,20.049 5.89,21.495Z" fill="#FFFFFF"/>
</svg>
