<svg width="48" height="48" viewBox="0 0 48 48" fill="none" xmlns="http://www.w3.org/2000/svg" xmlns:xlink="http://www.w3.org/1999/xlink">
<mask id="mask_0_i_240_6098;216_6032" style="mask-type:alpha" maskUnits="userSpaceOnUse" x="4.225281" y="-0.943604" width="19.703547" height="23.697174">
<path d="M17.266,1.664C19.058,-0.021 21.457,-0.944 23.929,-0.944C26.401,-0.944 28.8,-0.021 30.592,1.664C32.388,3.355 33.429,5.681 33.429,8.142L33.429,21.659C33.429,23.039 32.31,24.159 30.929,24.159C29.548,24.159 28.429,23.039 28.429,21.659L28.429,8.142C28.429,7.109 27.994,6.086 27.166,5.306C26.332,4.522 25.17,4.056 23.929,4.056C22.688,4.056 21.526,4.522 20.692,5.306C19.864,6.086 19.429,7.109 19.429,8.142L19.429,21.659C19.429,23.039 18.31,24.159 16.929,24.159C15.548,24.159 14.429,23.039 14.429,21.659L14.429,8.142C14.429,5.681 15.469,3.355 17.266,1.664Z" clip-rule="evenodd" fill-rule="evenodd" fill="#006FFD"/>
<path d="M5.675,19.486C5.919,16.085 8.749,13.451 12.158,13.451L35.699,13.451C39.109,13.451 41.939,16.085 42.183,19.486L43.615,39.486C43.885,43.249 40.905,46.451 37.132,46.451L10.726,46.451C6.953,46.451 3.973,43.249 4.242,39.486L5.675,19.486ZM12.158,18.451C11.371,18.451 10.718,19.059 10.662,19.844L9.229,39.844C9.167,40.712 9.855,41.451 10.726,41.451L37.132,41.451C38.003,41.451 38.69,40.712 38.628,39.844L37.195,19.844C37.139,19.059 36.486,18.451 35.699,18.451L12.158,18.451Z" clip-rule="evenodd" fill-rule="evenodd" fill="#006FFD"/>
</mask>
<rect  x="-0.071" y="-0.944" width="48" height="48" fill="#1F2024"/>
</svg>
