<svg width="48" height="48" viewBox="0 0 48 48" fill="none" xmlns="http://www.w3.org/2000/svg" xmlns:xlink="http://www.w3.org/1999/xlink">
<mask id="mask_0_216_6032" style="mask-type:alpha" maskUnits="userSpaceOnUse" x="3.568359" y="-0.001099" width="19.703547" height="23.697174">
<path d="M16.609,2.607C18.401,0.921 20.8,-0.001 23.272,-0.001C25.744,-0.001 28.143,0.921 29.935,2.607C31.732,4.297 32.772,6.624 32.772,9.084L32.772,22.601C32.772,23.982 31.653,25.101 30.272,25.101C28.891,25.101 27.772,23.982 27.772,22.601L27.772,9.084C27.772,8.052 27.337,7.028 26.509,6.249C25.675,5.464 24.513,4.999 23.272,4.999C22.031,4.999 20.869,5.464 20.035,6.249C19.207,7.028 18.772,8.052 18.772,9.084L18.772,22.601C18.772,23.982 17.653,25.101 16.272,25.101C14.891,25.101 13.772,23.982 13.772,22.601L13.772,9.084C13.772,6.624 14.812,4.297 16.609,2.607Z" clip-rule="evenodd" fill-rule="evenodd" fill="#006FFD"/>
<path d="M5.018,20.429C5.262,17.028 8.092,14.393 11.501,14.393L35.042,14.393C38.452,14.393 41.282,17.028 41.526,20.429L42.959,40.429C43.228,44.192 40.248,47.393 36.475,47.393L10.069,47.393C6.296,47.393 3.316,44.192 3.585,40.429L5.018,20.429ZM11.501,19.393C10.715,19.393 10.061,20.001 10.005,20.786L8.573,40.786C8.51,41.655 9.198,42.393 10.069,42.393L36.475,42.393C37.346,42.393 38.034,41.655 37.971,40.786L36.539,20.786C36.482,20.001 35.829,19.393 35.042,19.393L11.501,19.393Z" clip-rule="evenodd" fill-rule="evenodd" fill="#006FFD"/>
</mask>
<rect  x="-0.729" y="-0.001" width="48" height="48" fill="#006FFD"/>
</svg>
