<svg width="48" height="48" viewBox="0 0 48 48" fill="none" xmlns="http://www.w3.org/2000/svg" xmlns:xlink="http://www.w3.org/1999/xlink">
<mask id="mask_0_216_6030" style="mask-type:alpha" maskUnits="userSpaceOnUse" x="3.568359" y="0.065735" width="19.703547" height="23.697182">
<path d="M16.609,2.674C18.401,0.988 20.8,0.066 23.272,0.066C25.744,0.066 28.143,0.988 29.935,2.674C31.732,4.364 32.772,6.69 32.772,9.151L32.772,20.629C32.772,22.01 31.653,23.129 30.272,23.129C28.891,23.129 27.772,22.01 27.772,20.629L27.772,9.151C27.772,8.118 27.337,7.095 26.509,6.315C25.675,5.531 24.513,5.066 23.272,5.066C22.031,5.066 20.869,5.531 20.035,6.315C19.206,7.095 18.772,8.118 18.772,9.151L18.772,20.629C18.772,22.01 17.653,23.129 16.272,23.129C14.891,23.129 13.772,22.01 13.772,20.629L13.772,9.151C13.772,6.69 14.812,4.364 16.609,2.674Z" clip-rule="evenodd" fill-rule="evenodd" fill="#006FFD"/>
<path d="M11.501,14.46C8.092,14.46 5.262,17.095 5.018,20.496L3.585,40.496C3.316,44.259 6.296,47.46 10.069,47.46L36.475,47.46C40.248,47.46 43.228,44.259 42.959,40.496L41.526,20.496C41.282,17.095 38.452,14.46 35.042,14.46L11.501,14.46Z" fill="#006FFD"/>
</mask>
<rect  x="-0.729" y="-0.001" width="48" height="48" fill="#006FFD"/>
</svg>
