<svg width="36" height="22" viewBox="0 0 36 22" fill="none" xmlns="http://www.w3.org/2000/svg" xmlns:xlink="http://www.w3.org/1999/xlink">
<path d="M28.928,2.496C28.882,2.728 28.882,3.006 28.882,3.564L28.882,18.964C28.882,19.522 28.882,19.8 28.928,20.032C29.117,20.984 29.861,21.729 30.813,21.918C31.045,21.964 31.324,21.964 31.882,21.964C32.439,21.964 32.718,21.964 32.95,21.918C33.902,21.729 34.646,20.984 34.835,20.032C34.882,19.8 34.882,19.522 34.882,18.964L34.882,3.564C34.882,3.006 34.882,2.728 34.835,2.496C34.646,1.544 33.902,0.799 32.95,0.61C32.718,0.564 32.439,0.564 31.882,0.564C31.324,0.564 31.045,0.564 30.813,0.61C29.861,0.799 29.117,1.544 28.928,2.496ZM19.482,8.364C19.482,7.806 19.482,7.528 19.528,7.296C19.717,6.344 20.461,5.599 21.413,5.41C21.645,5.364 21.924,5.364 22.482,5.364C23.039,5.364 23.318,5.364 23.55,5.41C24.502,5.599 25.246,6.344 25.435,7.296C25.482,7.528 25.482,7.806 25.482,8.364L25.482,18.964C25.482,19.522 25.482,19.8 25.435,20.032C25.246,20.984 24.502,21.729 23.55,21.918C23.318,21.964 23.039,21.964 22.482,21.964C21.924,21.964 21.645,21.964 21.413,21.918C20.461,21.729 19.717,20.984 19.528,20.032C19.482,19.8 19.482,19.522 19.482,18.964L19.482,8.364ZM10.328,11.896C10.282,12.128 10.282,12.406 10.282,12.964L10.282,18.964C10.282,19.522 10.282,19.8 10.328,20.032C10.517,20.984 11.261,21.729 12.213,21.918C12.445,21.964 12.724,21.964 13.282,21.964C13.839,21.964 14.118,21.964 14.35,21.918C15.302,21.729 16.046,20.984 16.236,20.032C16.282,19.8 16.282,19.522 16.282,18.964L16.282,12.964C16.282,12.406 16.282,12.128 16.236,11.896C16.046,10.944 15.302,10.199 14.35,10.01C14.118,9.964 13.839,9.964 13.282,9.964C12.724,9.964 12.445,9.964 12.213,10.01C11.261,10.199 10.517,10.944 10.328,11.896ZM0.728,15.896C0.682,16.128 0.682,16.406 0.682,16.964L0.682,18.964C0.682,19.522 0.682,19.8 0.728,20.032C0.917,20.984 1.661,21.729 2.613,21.918C2.845,21.964 3.124,21.964 3.682,21.964C4.239,21.964 4.518,21.964 4.75,21.918C5.702,21.729 6.446,20.984 6.636,20.032C6.682,19.8 6.682,19.522 6.682,18.964L6.682,16.964C6.682,16.406 6.682,16.128 6.636,15.896C6.446,14.944 5.702,14.199 4.75,14.01C4.518,13.964 4.239,13.964 3.682,13.964C3.124,13.964 2.845,13.964 2.613,14.01C1.661,14.199 0.917,14.944 0.728,15.896Z" clip-rule="evenodd" fill-rule="evenodd" fill="#1F2024"/>
</svg>
