<svg width="34" height="22" viewBox="0 0 34 22" fill="none" xmlns="http://www.w3.org/2000/svg" xmlns:xlink="http://www.w3.org/1999/xlink">
<path d="M27.246,1.132C27.2,1.364 27.2,1.642 27.2,2.2L27.2,17.6C27.2,18.158 27.2,18.436 27.246,18.668C27.435,19.62 28.18,20.365 29.132,20.554C29.364,20.6 29.642,20.6 30.2,20.6C30.758,20.6 31.036,20.6 31.268,20.554C32.22,20.365 32.964,19.62 33.154,18.668C33.2,18.436 33.2,18.158 33.2,17.6L33.2,2.2C33.2,1.642 33.2,1.364 33.154,1.132C32.964,0.18 32.22,-0.565 31.268,-0.754C31.036,-0.8 30.758,-0.8 30.2,-0.8C29.642,-0.8 29.364,-0.8 29.132,-0.754C28.18,-0.565 27.435,0.18 27.246,1.132ZM17.8,7C17.8,6.442 17.8,6.164 17.846,5.932C18.035,4.98 18.78,4.235 19.732,4.046C19.964,4 20.242,4 20.8,4C21.358,4 21.636,4 21.868,4.046C22.82,4.235 23.564,4.98 23.754,5.932C23.8,6.164 23.8,6.442 23.8,7L23.8,17.6C23.8,18.158 23.8,18.436 23.754,18.668C23.564,19.62 22.82,20.365 21.868,20.554C21.636,20.6 21.358,20.6 20.8,20.6C20.242,20.6 19.964,20.6 19.732,20.554C18.78,20.365 18.035,19.62 17.846,18.668C17.8,18.436 17.8,18.158 17.8,17.6L17.8,7ZM8.646,10.532C8.6,10.764 8.6,11.042 8.6,11.6L8.6,17.6C8.6,18.158 8.6,18.436 8.646,18.668C8.835,19.62 9.58,20.365 10.532,20.554C10.764,20.6 11.042,20.6 11.6,20.6C12.158,20.6 12.436,20.6 12.668,20.554C13.62,20.365 14.364,19.62 14.554,18.668C14.6,18.436 14.6,18.158 14.6,17.6L14.6,11.6C14.6,11.042 14.6,10.764 14.554,10.532C14.364,9.58 13.62,8.835 12.668,8.646C12.436,8.6 12.158,8.6 11.6,8.6C11.042,8.6 10.764,8.6 10.532,8.646C9.58,8.835 8.835,9.58 8.646,10.532ZM-0.954,14.532C-1,14.764 -1,15.042 -1,15.6L-1,17.6C-1,18.158 -1,18.436 -0.954,18.668C-0.765,19.62 -0.02,20.365 0.932,20.554C1.164,20.6 1.442,20.6 2,20.6C2.558,20.6 2.836,20.6 3.068,20.554C4.02,20.365 4.765,19.62 4.954,18.668C5,18.436 5,18.158 5,17.6L5,15.6C5,15.042 5,14.764 4.954,14.532C4.765,13.58 4.02,12.835 3.068,12.646C2.836,12.6 2.558,12.6 2,12.6C1.442,12.6 1.164,12.6 0.932,12.646C-0.02,12.835 -0.765,13.58 -0.954,14.532Z" clip-rule="evenodd" fill-rule="evenodd" fill="#1F2024"/>
</svg>
