<svg width="34" height="24" viewBox="0 0 34 24" fill="none" xmlns="http://www.w3.org/2000/svg" xmlns:xlink="http://www.w3.org/1999/xlink">
<path d="M27.246,2.632C27.2,2.864 27.2,3.142 27.2,3.7L27.2,19.1C27.2,19.658 27.2,19.936 27.246,20.168C27.435,21.12 28.18,21.865 29.132,22.054C29.364,22.1 29.642,22.1 30.2,22.1C30.758,22.1 31.036,22.1 31.268,22.054C32.22,21.865 32.964,21.12 33.154,20.168C33.2,19.936 33.2,19.658 33.2,19.1L33.2,3.7C33.2,3.142 33.2,2.864 33.154,2.632C32.964,1.68 32.22,0.935 31.268,0.746C31.036,0.7 30.758,0.7 30.2,0.7C29.642,0.7 29.364,0.7 29.132,0.746C28.18,0.935 27.435,1.68 27.246,2.632ZM17.8,8.5C17.8,7.942 17.8,7.664 17.846,7.432C18.035,6.48 18.78,5.735 19.732,5.546C19.964,5.5 20.242,5.5 20.8,5.5C21.358,5.5 21.636,5.5 21.868,5.546C22.82,5.735 23.564,6.48 23.754,7.432C23.8,7.664 23.8,7.942 23.8,8.5L23.8,19.1C23.8,19.658 23.8,19.936 23.754,20.168C23.564,21.12 22.82,21.865 21.868,22.054C21.636,22.1 21.358,22.1 20.8,22.1C20.242,22.1 19.964,22.1 19.732,22.054C18.78,21.865 18.035,21.12 17.846,20.168C17.8,19.936 17.8,19.658 17.8,19.1L17.8,8.5ZM8.646,12.032C8.6,12.264 8.6,12.542 8.6,13.1L8.6,19.1C8.6,19.658 8.6,19.936 8.646,20.168C8.835,21.12 9.58,21.865 10.532,22.054C10.764,22.1 11.042,22.1 11.6,22.1C12.158,22.1 12.436,22.1 12.668,22.054C13.62,21.865 14.364,21.12 14.554,20.168C14.6,19.936 14.6,19.658 14.6,19.1L14.6,13.1C14.6,12.542 14.6,12.264 14.554,12.032C14.364,11.08 13.62,10.335 12.668,10.146C12.436,10.1 12.158,10.1 11.6,10.1C11.042,10.1 10.764,10.1 10.532,10.146C9.58,10.335 8.835,11.08 8.646,12.032ZM-0.954,16.032C-1,16.264 -1,16.542 -1,17.1L-1,19.1C-1,19.658 -1,19.936 -0.954,20.168C-0.765,21.12 -0.02,21.865 0.932,22.054C1.164,22.1 1.442,22.1 2,22.1C2.558,22.1 2.836,22.1 3.068,22.054C4.02,21.865 4.764,21.12 4.954,20.168C5,19.936 5,19.658 5,19.1L5,17.1C5,16.542 5,16.264 4.954,16.032C4.764,15.08 4.02,14.335 3.068,14.146C2.836,14.1 2.558,14.1 2,14.1C1.442,14.1 1.164,14.1 0.932,14.146C-0.02,14.335 -0.765,15.08 -0.954,16.032Z" clip-rule="evenodd" fill-rule="evenodd" fill="#1F2024"/>
</svg>
