<svg width="34" height="22" viewBox="0 0 34 22" fill="none" xmlns="http://www.w3.org/2000/svg" xmlns:xlink="http://www.w3.org/1999/xlink">
<path d="M27.246,2.174C27.2,2.406 27.2,2.685 27.2,3.242L27.2,18.642C27.2,19.2 27.2,19.479 27.246,19.71C27.436,20.662 28.18,21.407 29.132,21.596C29.364,21.642 29.643,21.642 30.2,21.642C30.758,21.642 31.037,21.642 31.268,21.596C32.22,21.407 32.965,20.662 33.154,19.71C33.2,19.479 33.2,19.2 33.2,18.642L33.2,3.242C33.2,2.685 33.2,2.406 33.154,2.174C32.965,1.222 32.22,0.478 31.268,0.288C31.037,0.242 30.758,0.242 30.2,0.242C29.643,0.242 29.364,0.242 29.132,0.288C28.18,0.478 27.436,1.222 27.246,2.174ZM17.8,8.042C17.8,7.485 17.8,7.206 17.846,6.974C18.036,6.022 18.78,5.278 19.732,5.088C19.964,5.042 20.243,5.042 20.8,5.042C21.358,5.042 21.637,5.042 21.868,5.088C22.82,5.278 23.565,6.022 23.754,6.974C23.8,7.206 23.8,7.485 23.8,8.042L23.8,18.642C23.8,19.2 23.8,19.479 23.754,19.71C23.565,20.662 22.82,21.407 21.868,21.596C21.637,21.642 21.358,21.642 20.8,21.642C20.243,21.642 19.964,21.642 19.732,21.596C18.78,21.407 18.036,20.662 17.846,19.71C17.8,19.479 17.8,19.2 17.8,18.642L17.8,8.042ZM8.646,11.574C8.6,11.806 8.6,12.085 8.6,12.642L8.6,18.642C8.6,19.2 8.6,19.479 8.646,19.71C8.836,20.662 9.58,21.407 10.532,21.596C10.764,21.642 11.043,21.642 11.6,21.642C12.158,21.642 12.436,21.642 12.668,21.596C13.62,21.407 14.365,20.662 14.554,19.71C14.6,19.479 14.6,19.2 14.6,18.642L14.6,12.642C14.6,12.085 14.6,11.806 14.554,11.574C14.365,10.622 13.62,9.878 12.668,9.688C12.436,9.642 12.158,9.642 11.6,9.642C11.043,9.642 10.764,9.642 10.532,9.688C9.58,9.878 8.836,10.622 8.646,11.574ZM-0.954,15.574C-1,15.806 -1,16.085 -1,16.642L-1,18.642C-1,19.2 -1,19.479 -0.954,19.71C-0.764,20.662 -0.02,21.407 0.932,21.596C1.164,21.642 1.443,21.642 2,21.642C2.558,21.642 2.837,21.642 3.068,21.596C4.02,21.407 4.765,20.662 4.954,19.71C5,19.479 5,19.2 5,18.642L5,16.642C5,16.085 5,15.806 4.954,15.574C4.765,14.622 4.02,13.878 3.068,13.688C2.837,13.642 2.558,13.642 2,13.642C1.443,13.642 1.164,13.642 0.932,13.688C-0.02,13.878 -0.764,14.622 -0.954,15.574Z" clip-rule="evenodd" fill-rule="evenodd" fill="#1F2024"/>
</svg>
