<svg width="36" height="22" viewBox="0 0 36 22" fill="none" xmlns="http://www.w3.org/2000/svg" xmlns:xlink="http://www.w3.org/1999/xlink">
<path d="M28.996,1.133C28.95,1.365 28.95,1.643 28.95,2.201L28.95,17.601C28.95,18.159 28.95,18.437 28.996,18.669C29.186,19.621 29.93,20.366 30.882,20.555C31.114,20.601 31.393,20.601 31.95,20.601C32.508,20.601 32.787,20.601 33.019,20.555C33.971,20.366 34.715,19.621 34.904,18.669C34.95,18.437 34.95,18.159 34.95,17.601L34.95,2.201C34.95,1.643 34.95,1.365 34.904,1.133C34.715,0.181 33.971,-0.564 33.019,-0.753C32.787,-0.799 32.508,-0.799 31.95,-0.799C31.393,-0.799 31.114,-0.799 30.882,-0.753C29.93,-0.564 29.186,0.181 28.996,1.133ZM19.55,7.001C19.55,6.443 19.55,6.165 19.597,5.933C19.786,4.981 20.53,4.236 21.482,4.047C21.714,4.001 21.993,4.001 22.55,4.001C23.108,4.001 23.387,4.001 23.619,4.047C24.571,4.236 25.315,4.981 25.504,5.933C25.55,6.165 25.55,6.443 25.55,7.001L25.55,17.601C25.55,18.159 25.55,18.437 25.504,18.669C25.315,19.621 24.571,20.366 23.619,20.555C23.387,20.601 23.108,20.601 22.55,20.601C21.993,20.601 21.714,20.601 21.482,20.555C20.53,20.366 19.786,19.621 19.597,18.669C19.55,18.437 19.55,18.159 19.55,17.601L19.55,7.001ZM10.397,10.533C10.35,10.765 10.35,11.043 10.35,11.601L10.35,17.601C10.35,18.159 10.35,18.437 10.397,18.669C10.586,19.621 11.33,20.366 12.282,20.555C12.514,20.601 12.793,20.601 13.35,20.601C13.908,20.601 14.187,20.601 14.419,20.555C15.371,20.366 16.115,19.621 16.304,18.669C16.35,18.437 16.35,18.159 16.35,17.601L16.35,11.601C16.35,11.043 16.35,10.765 16.304,10.533C16.115,9.581 15.371,8.836 14.419,8.647C14.187,8.601 13.908,8.601 13.35,8.601C12.793,8.601 12.514,8.601 12.282,8.647C11.33,8.836 10.586,9.581 10.397,10.533ZM0.797,14.533C0.75,14.765 0.75,15.043 0.75,15.601L0.75,17.601C0.75,18.159 0.75,18.437 0.797,18.669C0.986,19.621 1.73,20.366 2.682,20.555C2.914,20.601 3.193,20.601 3.75,20.601C4.308,20.601 4.587,20.601 4.819,20.555C5.771,20.366 6.515,19.621 6.704,18.669C6.75,18.437 6.75,18.159 6.75,17.601L6.75,15.601C6.75,15.043 6.75,14.765 6.704,14.533C6.515,13.581 5.771,12.836 4.819,12.647C4.587,12.601 4.308,12.601 3.75,12.601C3.193,12.601 2.914,12.601 2.682,12.647C1.73,12.836 0.986,13.581 0.797,14.533Z" clip-rule="evenodd" fill-rule="evenodd" fill="#1F2024"/>
</svg>
