<svg width="36" height="22" viewBox="0 0 36 22" fill="none" xmlns="http://www.w3.org/2000/svg" xmlns:xlink="http://www.w3.org/1999/xlink">
<path d="M28.774,1.404C28.728,1.636 28.728,1.915 28.728,2.472L28.728,17.872C28.728,18.43 28.728,18.709 28.774,18.94C28.964,19.892 29.708,20.637 30.66,20.826C30.892,20.872 31.171,20.872 31.728,20.872C32.286,20.872 32.565,20.872 32.797,20.826C33.749,20.637 34.493,19.892 34.682,18.94C34.728,18.709 34.728,18.43 34.728,17.872L34.728,2.472C34.728,1.915 34.728,1.636 34.682,1.404C34.493,0.452 33.749,-0.292 32.797,-0.482C32.565,-0.528 32.286,-0.528 31.728,-0.528C31.171,-0.528 30.892,-0.528 30.66,-0.482C29.708,-0.292 28.964,0.452 28.774,1.404ZM19.328,7.272C19.328,6.715 19.328,6.436 19.374,6.204C19.564,5.252 20.308,4.508 21.26,4.318C21.492,4.272 21.771,4.272 22.328,4.272C22.886,4.272 23.165,4.272 23.397,4.318C24.349,4.508 25.093,5.252 25.282,6.204C25.328,6.436 25.328,6.715 25.328,7.272L25.328,17.872C25.328,18.43 25.328,18.709 25.282,18.94C25.093,19.892 24.349,20.637 23.397,20.826C23.165,20.872 22.886,20.872 22.328,20.872C21.771,20.872 21.492,20.872 21.26,20.826C20.308,20.637 19.564,19.892 19.374,18.94C19.328,18.709 19.328,18.43 19.328,17.872L19.328,7.272ZM10.174,10.804C10.128,11.036 10.128,11.315 10.128,11.872L10.128,17.872C10.128,18.43 10.128,18.709 10.174,18.94C10.364,19.892 11.108,20.637 12.06,20.826C12.292,20.872 12.571,20.872 13.128,20.872C13.686,20.872 13.965,20.872 14.197,20.826C15.149,20.637 15.893,19.892 16.082,18.94C16.128,18.709 16.128,18.43 16.128,17.872L16.128,11.872C16.128,11.315 16.128,11.036 16.082,10.804C15.893,9.852 15.149,9.108 14.197,8.918C13.965,8.872 13.686,8.872 13.128,8.872C12.571,8.872 12.292,8.872 12.06,8.918C11.108,9.108 10.364,9.852 10.174,10.804ZM0.574,14.804C0.528,15.036 0.528,15.315 0.528,15.872L0.528,17.872C0.528,18.43 0.528,18.709 0.574,18.94C0.764,19.892 1.508,20.637 2.46,20.826C2.692,20.872 2.971,20.872 3.528,20.872C4.086,20.872 4.365,20.872 4.597,20.826C5.549,20.637 6.293,19.892 6.482,18.94C6.528,18.709 6.528,18.43 6.528,17.872L6.528,15.872C6.528,15.315 6.528,15.036 6.482,14.804C6.293,13.852 5.549,13.108 4.597,12.918C4.365,12.872 4.086,12.872 3.528,12.872C2.971,12.872 2.692,12.872 2.46,12.918C1.508,13.108 0.764,13.852 0.574,14.804Z" clip-rule="evenodd" fill-rule="evenodd" fill="#1F2024"/>
</svg>
