<svg width="36" height="22" viewBox="0 0 36 22" fill="none" xmlns="http://www.w3.org/2000/svg" xmlns:xlink="http://www.w3.org/1999/xlink">
<path d="M29.246,1.362C29.2,1.594 29.2,1.872 29.2,2.43L29.2,17.83C29.2,18.388 29.2,18.666 29.246,18.898C29.435,19.85 30.18,20.595 31.132,20.784C31.364,20.83 31.642,20.83 32.2,20.83C32.758,20.83 33.036,20.83 33.268,20.784C34.22,20.595 34.964,19.85 35.154,18.898C35.2,18.666 35.2,18.388 35.2,17.83L35.2,2.43C35.2,1.872 35.2,1.594 35.154,1.362C34.964,0.41 34.22,-0.335 33.268,-0.524C33.036,-0.57 32.758,-0.57 32.2,-0.57C31.642,-0.57 31.364,-0.57 31.132,-0.524C30.18,-0.335 29.435,0.41 29.246,1.362ZM19.8,7.23C19.8,6.672 19.8,6.394 19.846,6.162C20.035,5.21 20.78,4.465 21.732,4.276C21.964,4.23 22.242,4.23 22.8,4.23C23.358,4.23 23.636,4.23 23.868,4.276C24.82,4.465 25.564,5.21 25.754,6.162C25.8,6.394 25.8,6.672 25.8,7.23L25.8,17.83C25.8,18.388 25.8,18.666 25.754,18.898C25.564,19.85 24.82,20.595 23.868,20.784C23.636,20.83 23.358,20.83 22.8,20.83C22.242,20.83 21.964,20.83 21.732,20.784C20.78,20.595 20.035,19.85 19.846,18.898C19.8,18.666 19.8,18.388 19.8,17.83L19.8,7.23ZM10.646,10.762C10.6,10.994 10.6,11.272 10.6,11.83L10.6,17.83C10.6,18.388 10.6,18.666 10.646,18.898C10.835,19.85 11.58,20.595 12.532,20.784C12.764,20.83 13.042,20.83 13.6,20.83C14.158,20.83 14.436,20.83 14.668,20.784C15.62,20.595 16.364,19.85 16.554,18.898C16.6,18.666 16.6,18.388 16.6,17.83L16.6,11.83C16.6,11.272 16.6,10.994 16.554,10.762C16.364,9.81 15.62,9.065 14.668,8.876C14.436,8.83 14.158,8.83 13.6,8.83C13.042,8.83 12.764,8.83 12.532,8.876C11.58,9.065 10.835,9.81 10.646,10.762ZM1.046,14.762C1,14.994 1,15.272 1,15.83L1,17.83C1,18.388 1,18.666 1.046,18.898C1.235,19.85 1.98,20.595 2.932,20.784C3.164,20.83 3.442,20.83 4,20.83C4.558,20.83 4.836,20.83 5.068,20.784C6.02,20.595 6.764,19.85 6.954,18.898C7,18.666 7,18.388 7,17.83L7,15.83C7,15.272 7,14.994 6.954,14.762C6.764,13.81 6.02,13.065 5.068,12.876C4.836,12.83 4.558,12.83 4,12.83C3.442,12.83 3.164,12.83 2.932,12.876C1.98,13.065 1.235,13.81 1.046,14.762Z" clip-rule="evenodd" fill-rule="evenodd" fill="#1F2024"/>
</svg>
