<svg width="36" height="22" viewBox="0 0 36 22" fill="none" xmlns="http://www.w3.org/2000/svg" xmlns:xlink="http://www.w3.org/1999/xlink">
<path d="M28.791,1.633C28.745,1.865 28.745,2.144 28.745,2.701L28.745,18.101C28.745,18.659 28.745,18.938 28.791,19.17C28.98,20.122 29.725,20.866 30.677,21.055C30.909,21.101 31.187,21.101 31.745,21.101C32.303,21.101 32.581,21.101 32.813,21.055C33.765,20.866 34.509,20.122 34.699,19.17C34.745,18.938 34.745,18.659 34.745,18.101L34.745,2.701C34.745,2.144 34.745,1.865 34.699,1.633C34.509,0.681 33.765,-0.063 32.813,-0.252C32.581,-0.299 32.303,-0.299 31.745,-0.299C31.187,-0.299 30.909,-0.299 30.677,-0.252C29.725,-0.063 28.98,0.681 28.791,1.633ZM19.345,7.501C19.345,6.944 19.345,6.665 19.391,6.433C19.58,5.481 20.325,4.737 21.277,4.548C21.509,4.501 21.787,4.501 22.345,4.501C22.903,4.501 23.181,4.501 23.413,4.548C24.365,4.737 25.109,5.481 25.299,6.433C25.345,6.665 25.345,6.944 25.345,7.501L25.345,18.101C25.345,18.659 25.345,18.938 25.299,19.17C25.109,20.122 24.365,20.866 23.413,21.055C23.181,21.101 22.903,21.101 22.345,21.101C21.787,21.101 21.509,21.101 21.277,21.055C20.325,20.866 19.58,20.122 19.391,19.17C19.345,18.938 19.345,18.659 19.345,18.101L19.345,7.501ZM10.191,11.033C10.145,11.265 10.145,11.544 10.145,12.101L10.145,18.101C10.145,18.659 10.145,18.938 10.191,19.17C10.38,20.122 11.125,20.866 12.077,21.055C12.309,21.101 12.587,21.101 13.145,21.101C13.702,21.101 13.981,21.101 14.213,21.055C15.165,20.866 15.909,20.122 16.099,19.17C16.145,18.938 16.145,18.659 16.145,18.101L16.145,12.101C16.145,11.544 16.145,11.265 16.099,11.033C15.909,10.081 15.165,9.337 14.213,9.148C13.981,9.101 13.702,9.101 13.145,9.101C12.587,9.101 12.309,9.101 12.077,9.148C11.125,9.337 10.38,10.081 10.191,11.033ZM0.591,15.033C0.545,15.265 0.545,15.544 0.545,16.101L0.545,18.101C0.545,18.659 0.545,18.938 0.591,19.17C0.78,20.122 1.525,20.866 2.477,21.055C2.709,21.101 2.987,21.101 3.545,21.101C4.103,21.101 4.381,21.101 4.613,21.055C5.565,20.866 6.309,20.122 6.499,19.17C6.545,18.938 6.545,18.659 6.545,18.101L6.545,16.101C6.545,15.544 6.545,15.265 6.499,15.033C6.309,14.081 5.565,13.337 4.613,13.148C4.381,13.101 4.103,13.101 3.545,13.101C2.987,13.101 2.709,13.101 2.477,13.148C1.525,13.337 0.78,14.081 0.591,15.033Z" clip-rule="evenodd" fill-rule="evenodd" fill="#1F2024"/>
</svg>
