<svg width="34" height="22" viewBox="0 0 34 22" fill="none" xmlns="http://www.w3.org/2000/svg" xmlns:xlink="http://www.w3.org/1999/xlink">
<path d="M27.246,1.362C27.2,1.594 27.2,1.872 27.2,2.43L27.2,17.83C27.2,18.388 27.2,18.666 27.246,18.898C27.435,19.85 28.18,20.595 29.132,20.784C29.364,20.83 29.642,20.83 30.2,20.83C30.758,20.83 31.036,20.83 31.268,20.784C32.22,20.595 32.964,19.85 33.154,18.898C33.2,18.666 33.2,18.388 33.2,17.83L33.2,2.43C33.2,1.872 33.2,1.594 33.154,1.362C32.964,0.41 32.22,-0.335 31.268,-0.524C31.036,-0.57 30.758,-0.57 30.2,-0.57C29.642,-0.57 29.364,-0.57 29.132,-0.524C28.18,-0.335 27.435,0.41 27.246,1.362ZM17.8,7.23C17.8,6.672 17.8,6.394 17.846,6.162C18.035,5.21 18.78,4.465 19.732,4.276C19.964,4.23 20.242,4.23 20.8,4.23C21.358,4.23 21.636,4.23 21.868,4.276C22.82,4.465 23.564,5.21 23.754,6.162C23.8,6.394 23.8,6.672 23.8,7.23L23.8,17.83C23.8,18.388 23.8,18.666 23.754,18.898C23.564,19.85 22.82,20.595 21.868,20.784C21.636,20.83 21.358,20.83 20.8,20.83C20.242,20.83 19.964,20.83 19.732,20.784C18.78,20.595 18.035,19.85 17.846,18.898C17.8,18.666 17.8,18.388 17.8,17.83L17.8,7.23ZM8.646,10.762C8.6,10.994 8.6,11.272 8.6,11.83L8.6,17.83C8.6,18.388 8.6,18.666 8.646,18.898C8.835,19.85 9.58,20.595 10.532,20.784C10.764,20.83 11.042,20.83 11.6,20.83C12.158,20.83 12.436,20.83 12.668,20.784C13.62,20.595 14.364,19.85 14.554,18.898C14.6,18.666 14.6,18.388 14.6,17.83L14.6,11.83C14.6,11.272 14.6,10.994 14.554,10.762C14.364,9.81 13.62,9.065 12.668,8.876C12.436,8.83 12.158,8.83 11.6,8.83C11.042,8.83 10.764,8.83 10.532,8.876C9.58,9.065 8.835,9.81 8.646,10.762ZM-0.954,14.762C-1,14.994 -1,15.272 -1,15.83L-1,17.83C-1,18.388 -1,18.666 -0.954,18.898C-0.765,19.85 -0.02,20.595 0.932,20.784C1.164,20.83 1.442,20.83 2,20.83C2.558,20.83 2.836,20.83 3.068,20.784C4.02,20.595 4.764,19.85 4.954,18.898C5,18.666 5,18.388 5,17.83L5,15.83C5,15.272 5,14.994 4.954,14.762C4.764,13.81 4.02,13.065 3.068,12.876C2.836,12.83 2.558,12.83 2,12.83C1.442,12.83 1.164,12.83 0.932,12.876C-0.02,13.065 -0.765,13.81 -0.954,14.762Z" clip-rule="evenodd" fill-rule="evenodd" fill="#1F2024"/>
</svg>
