<svg width="34" height="22" viewBox="0 0 34 22" fill="none" xmlns="http://www.w3.org/2000/svg" xmlns:xlink="http://www.w3.org/1999/xlink">
<path d="M27.246,2.505C27.2,2.736 27.2,3.015 27.2,3.573L27.2,18.973C27.2,19.53 27.2,19.809 27.246,20.041C27.435,20.993 28.18,21.737 29.132,21.927C29.364,21.973 29.642,21.973 30.2,21.973C30.758,21.973 31.036,21.973 31.268,21.927C32.22,21.737 32.964,20.993 33.154,20.041C33.2,19.809 33.2,19.53 33.2,18.973L33.2,3.573C33.2,3.015 33.2,2.736 33.154,2.505C32.964,1.552 32.22,0.808 31.268,0.619C31.036,0.573 30.758,0.573 30.2,0.573C29.642,0.573 29.364,0.573 29.132,0.619C28.18,0.808 27.435,1.552 27.246,2.505ZM17.8,8.373C17.8,7.815 17.8,7.536 17.846,7.305C18.035,6.352 18.78,5.608 19.732,5.419C19.964,5.373 20.242,5.373 20.8,5.373C21.358,5.373 21.636,5.373 21.868,5.419C22.82,5.608 23.564,6.352 23.754,7.305C23.8,7.536 23.8,7.815 23.8,8.373L23.8,18.973C23.8,19.53 23.8,19.809 23.754,20.041C23.564,20.993 22.82,21.737 21.868,21.927C21.636,21.973 21.358,21.973 20.8,21.973C20.242,21.973 19.964,21.973 19.732,21.927C18.78,21.737 18.035,20.993 17.846,20.041C17.8,19.809 17.8,19.53 17.8,18.973L17.8,8.373ZM8.646,11.905C8.6,12.136 8.6,12.415 8.6,12.973L8.6,18.973C8.6,19.53 8.6,19.809 8.646,20.041C8.835,20.993 9.58,21.737 10.532,21.927C10.764,21.973 11.042,21.973 11.6,21.973C12.158,21.973 12.436,21.973 12.668,21.927C13.62,21.737 14.364,20.993 14.554,20.041C14.6,19.809 14.6,19.53 14.6,18.973L14.6,12.973C14.6,12.415 14.6,12.136 14.554,11.905C14.364,10.952 13.62,10.208 12.668,10.019C12.436,9.973 12.158,9.973 11.6,9.973C11.042,9.973 10.764,9.973 10.532,10.019C9.58,10.208 8.835,10.952 8.646,11.905ZM-0.954,15.905C-1,16.136 -1,16.415 -1,16.973L-1,18.973C-1,19.53 -1,19.809 -0.954,20.041C-0.765,20.993 -0.02,21.737 0.932,21.927C1.164,21.973 1.442,21.973 2,21.973C2.558,21.973 2.836,21.973 3.068,21.927C4.02,21.737 4.764,20.993 4.954,20.041C5,19.809 5,19.53 5,18.973L5,16.973C5,16.415 5,16.136 4.954,15.905C4.764,14.952 4.02,14.208 3.068,14.019C2.836,13.973 2.558,13.973 2,13.973C1.442,13.973 1.164,13.973 0.932,14.019C-0.02,14.208 -0.765,14.952 -0.954,15.905Z" clip-rule="evenodd" fill-rule="evenodd" fill="#1F2024"/>
</svg>
