<svg width="36" height="24" viewBox="0 0 36 24" fill="none" xmlns="http://www.w3.org/2000/svg" xmlns:xlink="http://www.w3.org/1999/xlink">
<path d="M29.178,2.632C29.132,2.864 29.132,3.142 29.132,3.7L29.132,19.1C29.132,19.658 29.132,19.936 29.178,20.168C29.367,21.12 30.111,21.865 31.063,22.054C31.295,22.1 31.574,22.1 32.132,22.1C32.689,22.1 32.968,22.1 33.2,22.054C34.152,21.865 34.896,21.12 35.085,20.168C35.132,19.936 35.132,19.658 35.132,19.1L35.132,3.7C35.132,3.142 35.132,2.864 35.085,2.632C34.896,1.68 34.152,0.936 33.2,0.746C32.968,0.7 32.689,0.7 32.132,0.7C31.574,0.7 31.295,0.7 31.063,0.746C30.111,0.936 29.367,1.68 29.178,2.632ZM19.732,8.5C19.732,7.942 19.732,7.664 19.778,7.432C19.967,6.48 20.711,5.736 21.663,5.546C21.895,5.5 22.174,5.5 22.732,5.5C23.289,5.5 23.568,5.5 23.8,5.546C24.752,5.736 25.496,6.48 25.685,7.432C25.732,7.664 25.732,7.942 25.732,8.5L25.732,19.1C25.732,19.658 25.732,19.936 25.685,20.168C25.496,21.12 24.752,21.865 23.8,22.054C23.568,22.1 23.289,22.1 22.732,22.1C22.174,22.1 21.895,22.1 21.663,22.054C20.711,21.865 19.967,21.12 19.778,20.168C19.732,19.936 19.732,19.658 19.732,19.1L19.732,8.5ZM10.578,12.032C10.532,12.264 10.532,12.542 10.532,13.1L10.532,19.1C10.532,19.658 10.532,19.936 10.578,20.168C10.767,21.12 11.511,21.865 12.463,22.054C12.695,22.1 12.974,22.1 13.532,22.1C14.089,22.1 14.368,22.1 14.6,22.054C15.552,21.865 16.296,21.12 16.486,20.168C16.532,19.936 16.532,19.658 16.532,19.1L16.532,13.1C16.532,12.542 16.532,12.264 16.486,12.032C16.296,11.08 15.552,10.336 14.6,10.146C14.368,10.1 14.089,10.1 13.532,10.1C12.974,10.1 12.695,10.1 12.463,10.146C11.511,10.336 10.767,11.08 10.578,12.032ZM0.978,16.032C0.932,16.264 0.932,16.542 0.932,17.1L0.932,19.1C0.932,19.658 0.932,19.936 0.978,20.168C1.167,21.12 1.911,21.865 2.863,22.054C3.095,22.1 3.374,22.1 3.932,22.1C4.489,22.1 4.768,22.1 5,22.054C5.952,21.865 6.696,21.12 6.886,20.168C6.932,19.936 6.932,19.658 6.932,19.1L6.932,17.1C6.932,16.542 6.932,16.264 6.886,16.032C6.696,15.08 5.952,14.336 5,14.146C4.768,14.1 4.489,14.1 3.932,14.1C3.374,14.1 3.095,14.1 2.863,14.146C1.911,14.336 1.167,15.08 0.978,16.032Z" clip-rule="evenodd" fill-rule="evenodd" fill="#1F2024"/>
</svg>
