<svg width="34" height="22" viewBox="0 0 34 22" fill="none" xmlns="http://www.w3.org/2000/svg" xmlns:xlink="http://www.w3.org/1999/xlink">
<path d="M27.246,1.925C27.2,2.157 27.2,2.436 27.2,2.993L27.2,18.393C27.2,18.951 27.2,19.23 27.246,19.461C27.436,20.413 28.18,21.158 29.132,21.347C29.364,21.393 29.643,21.393 30.2,21.393C30.758,21.393 31.037,21.393 31.268,21.347C32.22,21.158 32.965,20.413 33.154,19.461C33.2,19.23 33.2,18.951 33.2,18.393L33.2,2.993C33.2,2.436 33.2,2.157 33.154,1.925C32.965,0.973 32.22,0.229 31.268,0.039C31.037,-0.007 30.758,-0.007 30.2,-0.007C29.643,-0.007 29.364,-0.007 29.132,0.039C28.18,0.229 27.436,0.973 27.246,1.925ZM17.8,7.793C17.8,7.236 17.8,6.957 17.846,6.725C18.036,5.773 18.78,5.029 19.732,4.839C19.964,4.793 20.243,4.793 20.8,4.793C21.358,4.793 21.637,4.793 21.868,4.839C22.82,5.029 23.565,5.773 23.754,6.725C23.8,6.957 23.8,7.236 23.8,7.793L23.8,18.393C23.8,18.951 23.8,19.23 23.754,19.461C23.565,20.413 22.82,21.158 21.868,21.347C21.637,21.393 21.358,21.393 20.8,21.393C20.243,21.393 19.964,21.393 19.732,21.347C18.78,21.158 18.036,20.413 17.846,19.461C17.8,19.23 17.8,18.951 17.8,18.393L17.8,7.793ZM8.646,11.325C8.6,11.557 8.6,11.836 8.6,12.393L8.6,18.393C8.6,18.951 8.6,19.23 8.646,19.461C8.836,20.413 9.58,21.158 10.532,21.347C10.764,21.393 11.043,21.393 11.6,21.393C12.158,21.393 12.436,21.393 12.668,21.347C13.62,21.158 14.365,20.413 14.554,19.461C14.6,19.23 14.6,18.951 14.6,18.393L14.6,12.393C14.6,11.836 14.6,11.557 14.554,11.325C14.365,10.373 13.62,9.629 12.668,9.439C12.436,9.393 12.158,9.393 11.6,9.393C11.043,9.393 10.764,9.393 10.532,9.439C9.58,9.629 8.836,10.373 8.646,11.325ZM-0.954,15.325C-1,15.557 -1,15.836 -1,16.393L-1,18.393C-1,18.951 -1,19.23 -0.954,19.461C-0.764,20.413 -0.02,21.158 0.932,21.347C1.164,21.393 1.443,21.393 2,21.393C2.558,21.393 2.837,21.393 3.068,21.347C4.02,21.158 4.765,20.413 4.954,19.461C5,19.23 5,18.951 5,18.393L5,16.393C5,15.836 5,15.557 4.954,15.325C4.765,14.373 4.02,13.629 3.068,13.439C2.837,13.393 2.558,13.393 2,13.393C1.443,13.393 1.164,13.393 0.932,13.439C-0.02,13.629 -0.764,14.373 -0.954,15.325Z" clip-rule="evenodd" fill-rule="evenodd" fill="#1F2024"/>
</svg>
