<svg width="34" height="22" viewBox="0 0 34 22" fill="none" xmlns="http://www.w3.org/2000/svg" xmlns:xlink="http://www.w3.org/1999/xlink">
<path d="M27.246,1.591C27.2,1.823 27.2,2.101 27.2,2.659L27.2,18.059C27.2,18.617 27.2,18.895 27.246,19.127C27.435,20.079 28.18,20.824 29.132,21.013C29.364,21.059 29.642,21.059 30.2,21.059C30.758,21.059 31.036,21.059 31.268,21.013C32.22,20.824 32.964,20.079 33.154,19.127C33.2,18.895 33.2,18.617 33.2,18.059L33.2,2.659C33.2,2.101 33.2,1.823 33.154,1.591C32.964,0.639 32.22,-0.106 31.268,-0.295C31.036,-0.341 30.758,-0.341 30.2,-0.341C29.642,-0.341 29.364,-0.341 29.132,-0.295C28.18,-0.106 27.435,0.639 27.246,1.591ZM17.8,7.459C17.8,6.901 17.8,6.623 17.846,6.391C18.035,5.439 18.78,4.694 19.732,4.505C19.964,4.459 20.242,4.459 20.8,4.459C21.358,4.459 21.636,4.459 21.868,4.505C22.82,4.694 23.564,5.439 23.754,6.391C23.8,6.623 23.8,6.901 23.8,7.459L23.8,18.059C23.8,18.617 23.8,18.895 23.754,19.127C23.564,20.079 22.82,20.824 21.868,21.013C21.636,21.059 21.358,21.059 20.8,21.059C20.242,21.059 19.964,21.059 19.732,21.013C18.78,20.824 18.035,20.079 17.846,19.127C17.8,18.895 17.8,18.617 17.8,18.059L17.8,7.459ZM8.646,10.991C8.6,11.223 8.6,11.501 8.6,12.059L8.6,18.059C8.6,18.617 8.6,18.895 8.646,19.127C8.835,20.079 9.58,20.824 10.532,21.013C10.764,21.059 11.042,21.059 11.6,21.059C12.158,21.059 12.436,21.059 12.668,21.013C13.62,20.824 14.364,20.079 14.554,19.127C14.6,18.895 14.6,18.617 14.6,18.059L14.6,12.059C14.6,11.501 14.6,11.223 14.554,10.991C14.364,10.039 13.62,9.294 12.668,9.105C12.436,9.059 12.158,9.059 11.6,9.059C11.042,9.059 10.764,9.059 10.532,9.105C9.58,9.294 8.835,10.039 8.646,10.991ZM-0.954,14.991C-1,15.223 -1,15.501 -1,16.059L-1,18.059C-1,18.617 -1,18.895 -0.954,19.127C-0.765,20.079 -0.02,20.824 0.932,21.013C1.164,21.059 1.442,21.059 2,21.059C2.558,21.059 2.836,21.059 3.068,21.013C4.02,20.824 4.764,20.079 4.954,19.127C5,18.895 5,18.617 5,18.059L5,16.059C5,15.501 5,15.223 4.954,14.991C4.764,14.039 4.02,13.294 3.068,13.105C2.836,13.059 2.558,13.059 2,13.059C1.442,13.059 1.164,13.059 0.932,13.105C-0.02,13.294 -0.765,14.039 -0.954,14.991Z" clip-rule="evenodd" fill-rule="evenodd" fill="#1F2024"/>
</svg>
