<svg width="48" height="48" viewBox="0 0 48 48" fill="none" xmlns="http://www.w3.org/2000/svg" xmlns:xlink="http://www.w3.org/1999/xlink">
<mask id="mask_0_283_6022" style="mask-type:alpha" maskUnits="userSpaceOnUse" x="0.166016" y="3.499023" width="23.105486" height="20.5">
<path d="M9.784,4.149C10.738,3.282 12.194,3.282 13.148,4.149L21.948,12.149C22.969,13.078 23.045,14.659 22.116,15.681C21.187,16.702 19.606,16.778 18.584,15.849L13.966,11.65L13.966,41.999C13.966,43.38 12.847,44.499 11.466,44.499C10.085,44.499 8.966,43.38 8.966,41.999L8.966,11.65L4.348,15.849C3.326,16.778 1.745,16.702 0.816,15.681C-0.113,14.659 -0.037,13.078 0.984,12.149L9.784,4.149ZM35.077,3.499C36.458,3.499 37.577,4.618 37.577,5.999L37.577,36.348L42.195,32.149C43.217,31.22 44.798,31.296 45.727,32.317C46.656,33.339 46.58,34.92 45.559,35.849L36.759,43.849C35.805,44.716 34.349,44.716 33.395,43.849L24.595,35.849C23.574,34.92 23.498,33.339 24.427,32.317C25.356,31.296 26.937,31.22 27.959,32.149L32.577,36.348L32.577,5.999C32.577,4.618 33.696,3.499 35.077,3.499Z" clip-rule="evenodd" fill-rule="evenodd" fill="#006FFD"/>
</mask>
<rect  x="-0.721" y="-0.001" width="48" height="48" fill="#006FFD"/>
</svg>
