<svg width="48" height="48" viewBox="0 0 48 48" fill="none" xmlns="http://www.w3.org/2000/svg" xmlns:xlink="http://www.w3.org/1999/xlink">
<mask id="mask_0_211_5910" style="mask-type:alpha" maskUnits="userSpaceOnUse" x="-0.728516" y="-0.001099" width="23.999872" height="22.918653">
<path d="M30.611,18.996C28.982,18.76 27.574,17.736 26.846,16.26L23.271,9.013L19.697,16.26C18.969,17.736 17.56,18.76 15.932,18.996L7.931,20.159L13.721,25.804C14.9,26.953 15.437,28.608 15.159,30.23L13.792,38.195L20.945,34.434C22.401,33.669 24.142,33.669 25.598,34.434L32.751,38.195L31.384,30.23C31.106,28.608 31.643,26.953 32.822,25.804L38.612,20.159L30.611,18.996ZM45.72,16.14C46.712,16.287 47.403,17.205 47.25,18.197C47.193,18.593 47.006,18.956 46.723,19.234L36.312,29.384L38.772,43.717C38.942,44.703 38.279,45.638 37.292,45.808C36.901,45.876 36.493,45.814 36.142,45.627L23.271,38.86L10.401,45.627C10.102,45.785 9.764,45.856 9.427,45.832C9.089,45.808 8.765,45.69 8.491,45.491C8.218,45.292 8.005,45.02 7.878,44.707C7.751,44.393 7.714,44.05 7.771,43.717L10.231,29.384L-0.18,19.234C-0.525,18.898 -0.722,18.439 -0.728,17.957C-0.735,17.476 -0.55,17.012 -0.214,16.667C0.064,16.383 0.426,16.196 0.823,16.14L15.213,14.048L21.645,1.008C22.093,0.112 23.181,-0.256 24.076,0.186C24.433,0.362 24.722,0.651 24.898,1.008L31.33,14.048L45.72,16.14Z" clip-rule="evenodd" fill-rule="evenodd" fill="#006FFD"/>
</mask>
<rect  x="-0.729" y="-0.001" width="48" height="48" fill="#006FFD"/>
</svg>
