<svg width="24" height="26" viewBox="0 0 24 26" fill="none" xmlns="http://www.w3.org/2000/svg" xmlns:xlink="http://www.w3.org/1999/xlink">
<mask id="mask_0_i_272_8860;211_5818" style="mask-type:alpha" maskUnits="userSpaceOnUse" x="-0.000244" y="0.22998" width="12.000065" height="11.459451">
<path d="M23.224,8.3L16.029,7.255L12.813,0.734C12.725,0.556 12.581,0.411 12.402,0.324C11.955,0.102 11.41,0.287 11.187,0.734L7.97,7.255L0.776,8.3C0.577,8.329 0.396,8.422 0.257,8.564C0.089,8.736 -0.003,8.969 0,9.209C0.003,9.45 0.102,9.68 0.274,9.848L5.48,14.923L4.25,22.089C4.221,22.256 4.239,22.427 4.303,22.584C4.367,22.741 4.473,22.877 4.61,22.976C4.747,23.075 4.909,23.135 5.077,23.147C5.246,23.159 5.415,23.123 5.565,23.044L12,19.661L18.435,23.044C18.611,23.138 18.815,23.169 19.01,23.135C19.504,23.05 19.835,22.582 19.75,22.089L18.52,14.923L23.726,9.848C23.867,9.709 23.961,9.527 23.989,9.329C24.066,8.833 23.72,8.374 23.224,8.3L23.224,8.3Z" fill="#006FFD"/>
</mask>
<rect  x="0" y="0.23" width="24" height="24" fill="#006FFD"/>
</svg>
