<svg width="40" height="40" viewBox="0 0 40 40" fill="none" xmlns="http://www.w3.org/2000/svg" xmlns:xlink="http://www.w3.org/1999/xlink">
<mask id="mask_0_i_281_7386;259_6572;211_5818" style="mask-type:alpha" maskUnits="userSpaceOnUse" x="-0.000244" y="0" width="20.000107" height="19.099085">
<path d="M38.707,13.451L26.716,11.708L21.355,0.841C21.209,0.543 20.968,0.302 20.671,0.156C19.924,-0.213 19.018,0.094 18.644,0.841L13.284,11.708L1.293,13.451C0.962,13.498 0.66,13.654 0.429,13.89C0.149,14.177 -0.005,14.564 0,14.965C0.005,15.367 0.17,15.749 0.457,16.029L9.133,24.488L7.083,36.432C7.035,36.71 7.066,36.996 7.172,37.257C7.278,37.518 7.455,37.744 7.683,37.91C7.911,38.076 8.181,38.174 8.463,38.194C8.744,38.214 9.025,38.155 9.274,38.024L20,32.385L30.726,38.024C31.018,38.179 31.358,38.231 31.684,38.175C32.506,38.033 33.059,37.254 32.917,36.432L30.867,24.488L39.543,16.029C39.779,15.798 39.935,15.496 39.982,15.165C40.11,14.339 39.534,13.573 38.707,13.451Z" fill="#006FFD"/>
</mask>
<rect  x="0" y="0" width="40" height="40" fill="#006FFD"/>
</svg>
