<svg width="40" height="40" viewBox="0 0 40 40" fill="none" xmlns="http://www.w3.org/2000/svg" xmlns:xlink="http://www.w3.org/1999/xlink">
<mask id="mask_0_i_281_7386;259_6575;211_5910" style="mask-type:alpha" maskUnits="userSpaceOnUse" x="0" y="0" width="19.999893" height="19.098877">
<path d="M26.117,15.831C24.759,15.634 23.586,14.781 22.979,13.551L20,7.512L17.021,13.551C16.414,14.781 15.241,15.634 13.883,15.831L7.217,16.8L12.042,21.504C13.023,22.462 13.471,23.841 13.239,25.192L12.1,31.83L18.061,28.696C19.275,28.058 20.725,28.058 21.939,28.696L27.9,31.83L26.76,25.192C26.529,23.841 26.977,22.462 27.958,21.504L32.783,16.8L26.117,15.831ZM38.707,13.451C39.533,13.573 40.11,14.338 39.982,15.165C39.935,15.495 39.779,15.798 39.543,16.029L30.867,24.488L32.917,36.432C33.058,37.253 32.506,38.033 31.684,38.174C31.358,38.231 31.018,38.179 30.725,38.023L20,32.384L9.275,38.023C9.025,38.155 8.744,38.214 8.463,38.194C8.181,38.174 7.911,38.075 7.683,37.91C7.455,37.744 7.278,37.518 7.172,37.256C7.066,36.995 7.035,36.709 7.083,36.432L9.133,24.488L0.457,16.029C0.17,15.749 0.005,15.366 0,14.965C-0.005,14.564 0.149,14.177 0.429,13.89C0.66,13.654 0.962,13.498 1.293,13.451L13.284,11.708L18.645,0.841C19.018,0.094 19.924,-0.213 20.671,0.156C20.968,0.302 21.209,0.543 21.355,0.841L26.716,11.708L38.707,13.451Z" clip-rule="evenodd" fill-rule="evenodd" fill="#006FFD"/>
</mask>
<rect  x="0" y="0" width="40" height="40" fill="#D4D6DD"/>
</svg>
