<svg width="20" height="20" viewBox="0 0 20 20" fill="none" xmlns="http://www.w3.org/2000/svg" xmlns:xlink="http://www.w3.org/1999/xlink">
<mask id="mask_0_i_294_7118;211_5818" style="mask-type:alpha" maskUnits="userSpaceOnUse" x="-0.000122" y="-0.958008" width="10.000053" height="9.549542">
<path d="M19.354,5.767L13.358,4.896L10.678,-0.538C10.604,-0.686 10.484,-0.807 10.335,-0.88C9.962,-1.064 9.509,-0.911 9.322,-0.538L6.642,4.896L0.646,5.767C0.481,5.791 0.33,5.869 0.214,5.987C0.074,6.131 -0.003,6.324 0,6.525C0.003,6.725 0.085,6.917 0.228,7.057L4.566,11.286L3.541,17.258C3.517,17.397 3.533,17.54 3.586,17.67C3.639,17.801 3.727,17.914 3.842,17.997C3.956,18.08 4.091,18.129 4.231,18.139C4.372,18.149 4.513,18.12 4.637,18.054L10,15.234L15.363,18.054C15.509,18.132 15.679,18.158 15.842,18.129C16.253,18.059 16.529,17.669 16.458,17.258L15.434,11.286L19.772,7.057C19.89,6.941 19.968,6.79 19.991,6.625C20.055,6.211 19.767,5.829 19.354,5.767L19.354,5.767Z" fill="#006FFD"/>
</mask>
<rect  x="0" y="-0.958" width="20" height="20" fill="#006FFD"/>
</svg>
