<svg width="32" height="32" viewBox="0 0 32 32" fill="none" xmlns="http://www.w3.org/2000/svg" xmlns:xlink="http://www.w3.org/1999/xlink">
<mask id="mask_0_i_261_8174;211_5818" style="mask-type:alpha" maskUnits="userSpaceOnUse" x="-0.000244" y="-0.77002" width="16.000088" height="15.279267">
<path d="M30.966,9.991L21.373,8.596L17.084,-0.097C16.967,-0.336 16.774,-0.528 16.536,-0.645C15.939,-0.94 15.214,-0.694 14.916,-0.097L10.627,8.596L1.034,9.991C0.77,10.028 0.528,10.153 0.343,10.342C0.119,10.572 -0.004,10.881 0,11.202C0.004,11.523 0.136,11.829 0.365,12.053L7.306,18.82L5.666,28.376C5.628,28.598 5.652,28.826 5.737,29.035C5.822,29.244 5.964,29.426 6.146,29.558C6.329,29.691 6.545,29.769 6.77,29.785C6.995,29.802 7.22,29.754 7.419,29.649L16,25.138L24.58,29.649C24.815,29.774 25.087,29.815 25.347,29.77C26.005,29.656 26.447,29.033 26.334,28.376L24.694,18.82L31.634,12.053C31.823,11.868 31.948,11.627 31.986,11.362C32.088,10.701 31.627,10.089 30.966,9.991L30.966,9.991Z" fill="#006FFD"/>
</mask>
<rect  x="0" y="-0.77" width="32" height="32" fill="#1F2024"/>
</svg>
