<svg width="20" height="20" viewBox="0 0 20 20" fill="none" xmlns="http://www.w3.org/2000/svg" xmlns:xlink="http://www.w3.org/1999/xlink">
<mask id="mask_0_i_290_8201;211_5818" style="mask-type:alpha" maskUnits="userSpaceOnUse" x="-0.000244" y="-0.627441" width="10.000053" height="9.549542">
<path d="M19.353,6.098L13.358,5.227L10.678,-0.207C10.604,-0.356 10.484,-0.476 10.335,-0.55C9.962,-0.734 9.509,-0.58 9.322,-0.207L6.642,5.227L0.646,6.098C0.481,6.121 0.33,6.199 0.214,6.317C0.074,6.461 -0.003,6.655 0,6.855C0.002,7.056 0.085,7.247 0.228,7.387L4.566,11.617L3.541,17.589C3.517,17.727 3.533,17.87 3.586,18.001C3.639,18.132 3.727,18.245 3.841,18.328C3.956,18.41 4.091,18.46 4.231,18.47C4.372,18.48 4.512,18.45 4.637,18.384L10,15.565L15.363,18.384C15.509,18.462 15.679,18.488 15.842,18.46C16.253,18.389 16.529,17.999 16.458,17.589L15.433,11.617L19.771,7.387C19.889,7.272 19.967,7.12 19.991,6.955C20.055,6.542 19.767,6.159 19.353,6.098L19.353,6.098Z" fill="#006FFD"/>
</mask>
<rect  x="0" y="-0.627" width="20" height="20" fill="#006FFD"/>
</svg>
