<svg width="40" height="40" viewBox="0 0 40 40" fill="none" xmlns="http://www.w3.org/2000/svg" xmlns:xlink="http://www.w3.org/1999/xlink">
<mask id="mask_0_i_259_6590;211_5818" style="mask-type:alpha" maskUnits="userSpaceOnUse" x="-0.157227" y="0" width="20.000107" height="19.099085">
<path d="M38.55,13.451L26.559,11.708L21.198,0.841C21.052,0.543 20.811,0.302 20.514,0.156C19.767,-0.213 18.861,0.094 18.488,0.841L13.127,11.708L1.136,13.451C0.805,13.498 0.503,13.654 0.272,13.89C-0.008,14.177 -0.162,14.564 -0.157,14.965C-0.152,15.367 0.013,15.749 0.3,16.029L8.976,24.488L6.926,36.432C6.878,36.71 6.909,36.996 7.015,37.257C7.121,37.518 7.298,37.744 7.526,37.91C7.754,38.076 8.024,38.174 8.306,38.194C8.587,38.214 8.868,38.155 9.117,38.024L19.843,32.385L30.569,38.024C30.861,38.179 31.201,38.231 31.527,38.175C32.349,38.033 32.902,37.254 32.76,36.432L30.71,24.488L39.386,16.029C39.622,15.798 39.778,15.496 39.825,15.165C39.953,14.339 39.377,13.573 38.55,13.451L38.55,13.451Z" fill="#006FFD"/>
</mask>
<rect  x="-0.157" y="0" width="40" height="40" fill="#006FFD"/>
</svg>
