<svg width="80" height="80" viewBox="0 0 80 80" fill="none" xmlns="http://www.w3.org/2000/svg" xmlns:xlink="http://www.w3.org/1999/xlink">
<mask id="mask_0_i_290_7607;211_5818" style="mask-type:alpha" maskUnits="userSpaceOnUse" x="-0.000244" y="-0.001953" width="40.000214" height="38.19817">
<path d="M77.415,26.899L53.432,23.414L42.711,1.679C42.418,1.084 41.937,0.603 41.341,0.31C39.849,-0.427 38.036,0.187 37.289,1.679L26.568,23.414L2.586,26.899C1.925,26.994 1.32,27.305 0.857,27.778C0.298,28.353 -0.011,29.127 0,29.929C0.011,30.731 0.339,31.497 0.914,32.057L18.266,48.974L14.166,72.862C14.07,73.418 14.132,73.989 14.344,74.512C14.556,75.034 14.91,75.487 15.366,75.818C15.823,76.15 16.363,76.347 16.925,76.387C17.488,76.427 18.05,76.309 18.549,76.045L40,64.767L61.451,76.045C62.037,76.357 62.717,76.461 63.369,76.347C65.012,76.064 66.118,74.506 65.834,72.862L61.735,48.974L79.086,32.057C79.559,31.594 79.87,30.989 79.965,30.328C80.22,28.675 79.068,27.145 77.415,26.899L77.415,26.899Z" fill="#006FFD"/>
</mask>
<rect  x="0" y="-0.002" width="80" height="80" fill="#1F2024"/>
</svg>
