<svg width="24" height="26" viewBox="0 0 24 26" fill="none" xmlns="http://www.w3.org/2000/svg" xmlns:xlink="http://www.w3.org/1999/xlink">
<mask id="mask_0_i_269_8572;211_5818" style="mask-type:alpha" maskUnits="userSpaceOnUse" x="0" y="0.001221" width="12.000065" height="11.459451">
<path d="M23.224,8.072L16.03,7.026L12.813,0.506C12.726,0.327 12.581,0.183 12.403,0.095C11.955,-0.126 11.411,0.058 11.187,0.506L7.971,7.026L0.776,8.072C0.577,8.1 0.396,8.193 0.257,8.335C0.089,8.508 -0.003,8.74 0,8.981C0.003,9.221 0.102,9.451 0.274,9.619L5.48,14.694L4.25,21.86C4.221,22.027 4.24,22.199 4.303,22.355C4.367,22.512 4.473,22.648 4.61,22.747C4.747,22.847 4.909,22.906 5.078,22.918C5.246,22.93 5.415,22.894 5.565,22.815L12,19.432L18.435,22.815C18.611,22.909 18.815,22.94 19.011,22.906C19.504,22.821 19.835,22.353 19.75,21.86L18.52,14.694L23.726,9.619C23.868,9.48 23.961,9.299 23.99,9.1C24.066,8.604 23.72,8.145 23.224,8.072L23.224,8.072Z" fill="#006FFD"/>
</mask>
<rect  x="0" y="0.001" width="24" height="24" fill="#006FFD"/>
</svg>
