<svg width="40" height="40" viewBox="0 0 40 40" fill="none" xmlns="http://www.w3.org/2000/svg" xmlns:xlink="http://www.w3.org/1999/xlink">
<mask id="mask_0_i_261_6739;211_6109;211_5910" style="mask-type:alpha" maskUnits="userSpaceOnUse" x="-0.157227" y="0" width="19.999893" height="19.098877">
<path d="M25.959,15.831C24.602,15.634 23.429,14.781 22.822,13.551L19.843,7.512L16.864,13.551C16.257,14.781 15.084,15.634 13.726,15.831L7.059,16.8L11.884,21.504C12.866,22.462 13.314,23.841 13.082,25.192L11.943,31.83L17.904,28.696C19.118,28.058 20.568,28.058 21.782,28.696L27.742,31.83L26.603,25.192C26.371,23.841 26.819,22.462 27.801,21.504L32.626,16.8L25.959,15.831ZM38.55,13.451C39.376,13.573 39.952,14.338 39.825,15.165C39.778,15.495 39.622,15.798 39.386,16.029L30.71,24.488L32.76,36.432C32.901,37.253 32.349,38.033 31.527,38.174C31.201,38.231 30.861,38.179 30.568,38.023L19.843,32.384L9.117,38.023C8.868,38.155 8.587,38.214 8.305,38.194C8.024,38.174 7.754,38.075 7.526,37.91C7.298,37.744 7.121,37.518 7.015,37.256C6.909,36.995 6.878,36.709 6.926,36.432L8.976,24.488L0.3,16.029C0.013,15.749 -0.152,15.366 -0.157,14.965C-0.162,14.564 -0.008,14.177 0.272,13.89C0.503,13.654 0.805,13.498 1.136,13.451L13.127,11.708L18.487,0.841C18.86,0.094 19.767,-0.213 20.513,0.156C20.811,0.302 21.052,0.543 21.198,0.841L26.559,11.708L38.55,13.451Z" clip-rule="evenodd" fill-rule="evenodd" fill="#006FFD"/>
</mask>
<rect  x="-0.157" y="0" width="40" height="40" fill="#D4D6DD"/>
</svg>
