<svg width="20" height="22" viewBox="0 0 20 22" fill="none" xmlns="http://www.w3.org/2000/svg" xmlns:xlink="http://www.w3.org/1999/xlink">
<mask id="mask_0_i_240_6325;211_5818" style="mask-type:alpha" maskUnits="userSpaceOnUse" x="-0.000244" y="0.22998" width="10.000053" height="9.549542">
<path d="M19.353,6.955L13.358,6.084L10.678,0.65C10.604,0.502 10.484,0.381 10.335,0.308C9.962,0.124 9.509,0.277 9.322,0.65L6.642,6.084L0.646,6.955C0.481,6.979 0.33,7.057 0.214,7.175C0.074,7.319 -0.003,7.512 0,7.713C0.002,7.913 0.085,8.105 0.228,8.245L4.566,12.474L3.541,18.446C3.517,18.585 3.533,18.728 3.586,18.858C3.639,18.989 3.727,19.102 3.841,19.185C3.956,19.268 4.091,19.317 4.231,19.327C4.372,19.337 4.512,19.308 4.637,19.242L10,16.422L15.363,19.242C15.509,19.32 15.679,19.346 15.842,19.317C16.253,19.247 16.529,18.857 16.458,18.446L15.433,12.474L19.771,8.245C19.889,8.129 19.967,7.978 19.991,7.813C20.055,7.399 19.767,7.017 19.353,6.955L19.353,6.955Z" fill="#006FFD"/>
</mask>
<rect  x="0" y="0.23" width="20" height="20" fill="#006FFD"/>
</svg>
