<svg width="48" height="48" viewBox="0 0 48 48" fill="none" xmlns="http://www.w3.org/2000/svg" xmlns:xlink="http://www.w3.org/1999/xlink">
<mask id="mask_0_267_7082" style="mask-type:alpha" maskUnits="userSpaceOnUse" x="-0.728516" y="3.081299" width="24" height="20.917803">
<path d="M4.968,8.311L41.574,8.311C43.013,8.311 44.189,7.134 44.189,5.696C44.189,4.258 43.013,3.081 41.574,3.081L4.968,3.081C3.53,3.081 2.354,4.258 2.354,5.696C2.354,7.134 3.53,8.311 4.968,8.311ZM44.608,13.017C44.372,11.814 43.3,10.925 42.045,10.925L4.498,10.925C3.243,10.925 2.171,11.814 1.935,13.017L-0.679,26.091C-0.993,27.712 0.236,29.228 1.883,29.228L2.354,29.228L2.354,42.302C2.354,43.74 3.53,44.917 4.968,44.917L25.886,44.917C27.324,44.917 28.501,43.74 28.501,42.302L28.501,29.228L38.96,29.228L38.96,42.302C38.96,43.74 40.136,44.917 41.574,44.917C43.013,44.917 44.189,43.74 44.189,42.302L44.189,29.228L44.66,29.228C46.307,29.228 47.536,27.712 47.222,26.091L44.608,13.017ZM23.271,39.687L7.583,39.687L7.583,29.228L23.271,29.228L23.271,39.687Z" fill="#000000"/>
</mask>
<rect  x="-0.729" y="-0.003" width="48" height="48" fill="#006FFD"/>
</svg>
