<svg width="134" height="128" viewBox="0 0 134 128" fill="none" xmlns="http://www.w3.org/2000/svg" xmlns:xlink="http://www.w3.org/1999/xlink">
<mask id="mask_0_i_294_7010;1_2722" style="mask-type:alpha" maskUnits="userSpaceOnUse" x="60.178131" y="83.067383" width="11.815441" height="12.977526">
<path d="M83.809,96.045C83.809,103.212 78.519,109.022 71.994,109.022C65.468,109.022 60.178,103.212 60.178,96.045C60.178,88.878 65.468,83.067 71.994,83.067C78.519,83.067 83.809,88.878 83.809,96.045Z" transform="rotate(0 71.994 96.045)" fill="url(#pf_0_i_294_7010;1_2722)"/>
</mask>
<circle cx="64.728" cy="63.88" r="63.888" fill="url(#pf_0_i_294_7010;1_2712)"/>
<path d="M28.85,30.326C26.13,31.239 24.129,33.163 23.18,34.558C22.296,35.86 20.566,36.168 19.317,35.247C18.067,34.325 17.771,32.523 18.656,31.221C20.188,28.966 23.123,26.18 27.151,24.829C31.304,23.435 36.416,23.642 41.951,27.134C43.26,27.96 43.679,29.735 42.886,31.1C42.094,32.464 40.389,32.9 39.08,32.074C34.891,29.432 31.444,29.456 28.85,30.326Z" clip-rule="evenodd" fill-rule="evenodd" transform="rotate(300 30.717 29.901)" fill="#FE9213"/>
<path d="M109.513,30.88C106.604,31.856 104.464,33.913 103.449,35.406C102.503,36.799 100.653,37.128 99.317,36.143C97.98,35.157 97.664,33.23 98.61,31.837C100.249,29.425 103.388,26.446 107.696,25C112.138,23.51 117.605,23.731 123.525,27.465C124.925,28.349 125.373,30.248 124.525,31.707C123.677,33.166 121.855,33.633 120.454,32.75C115.974,29.924 112.287,29.95 109.513,30.88Z" clip-rule="evenodd" fill-rule="evenodd" transform="rotate(60 111.51 30.425)" fill="#FE9213"/>
<g opacity="0.3">
<path d="M132.807,80.972C132.807,90.561 123.48,98.335 111.975,98.335C100.47,98.335 91.144,90.561 91.144,80.972C91.144,71.383 100.47,63.61 111.975,63.61C123.48,63.61 132.807,71.383 132.807,80.972Z" transform="rotate(-7.507 111.975 80.972)" fill="url(#pf_0_i_294_7010;1_2717)"/>
</g>
<g opacity="0.3">
<path d="M56.557,79.859C56.557,89.448 47.231,97.222 35.726,97.222C24.221,97.222 14.895,89.448 14.895,79.859C14.895,70.27 24.221,62.497 35.726,62.497C47.231,62.497 56.557,70.27 56.557,79.859Z" transform="rotate(-7.507 35.726 79.859)" fill="url(#pf_0_i_294_7010;1_2718)"/>
</g>
<g filter="url(#filterI294_7010;1_2720)">
<path d="M83.809,96.046C83.809,103.213 78.519,109.023 71.993,109.023C65.468,109.023 60.178,103.213 60.178,96.046C60.178,88.879 65.468,83.068 71.993,83.068C78.519,83.068 83.809,88.879 83.809,96.046Z" fill="url(#pf_0_i_294_7010;1_2720)"/>
</g>
<g mask="url(#mask_0_i_294_7010;1_2722)">
<g filter="url(#filterI294_7010;1_2723)">
<path d="M69.541,100.548C62.096,100.548 58.082,103.167 57.005,104.477C58.145,106.506 62.247,110.566 69.541,110.566C76.834,110.566 80.493,108.471 81.411,107.423C80.557,105.131 76.986,100.548 69.541,100.548Z" transform="rotate(0 69.208 105.557)" fill="url(#pf_0_i_294_7010;1_2723)"/>
</g>
</g>
<g filter="url(#filterI294_7010;1_2726)">
<circle cx="44.275" cy="58.14" r="18.77" fill="#F8F8F8"/>
</g>
<circle cx="50.006" cy="58.14" r="13.039" fill="#1F1F1F"/>
<path d="M46.203,50.181C46.203,52.987 43.899,55.262 41.056,55.262C38.213,55.262 35.909,52.987 35.909,50.181C35.909,47.375 38.213,45.101 41.056,45.101C43.899,45.101 46.203,47.375 46.203,50.181Z" fill="#FFFFFF"/>
<g filter="url(#filterI294_7010;1_2730)">
<circle cx="98.113" cy="58.14" r="18.354" transform="rotate(360 98.113 58.14)" fill="#F8F8F8"/>
</g>
<circle cx="92.509" cy="58.139" r="12.751" transform="rotate(360 92.509 58.139)" fill="#1F1F1F"/>
<path d="M106.294,50.357C106.294,53.101 104.041,55.325 101.261,55.325C98.481,55.325 96.228,53.101 96.228,50.357C96.228,47.613 98.481,45.389 101.261,45.389C104.041,45.389 106.294,47.613 106.294,50.357Z" transform="rotate(360 101.261 50.357)" fill="#FFFFFF"/>
<defs>
<radialGradient id="pf_0_i_294_7010;1_2712" cx="0" cy="0" r="1" gradientUnits="userSpaceOnUse" gradientTransform="matrix(27.053199 49.877135 -49.877135 27.053199 25.246 11.447)">
<stop stop-color="#FFDC81"/>
<stop offset="0.385" stop-color="#FFCA42"/>
<stop offset="0.656" stop-color="#FFC737"/>
<stop offset="1" stop-color="#FD9902"/>
</radialGradient>
<radialGradient id="pf_0_i_294_7010;1_2717" cx="0" cy="0" r="1" gradientUnits="userSpaceOnUse" gradientTransform="matrix(0.568282 8.662616 -10.393352 0.681821 55.988 40.486)">
<stop stop-color="#FF444F"/>
<stop offset="1" stop-color="#FF444F" stop-opacity="0"/>
</radialGradient>
<radialGradient id="pf_0_i_294_7010;1_2718" cx="0" cy="0" r="1" gradientUnits="userSpaceOnUse" gradientTransform="matrix(0.568282 8.662616 -10.393352 0.681821 17.863 39.93)">
<stop stop-color="#FF444F"/>
<stop offset="1" stop-color="#FF444F" stop-opacity="0"/>
</radialGradient>
<filter id="filterI294_7010;1_2720" x="59.17778" y="82.068359" width="13.815439" height="14.977521" filterUnits="userSpaceOnUse" color-interpolation-filters="sRGB">
<feFlood flood-opacity="0" result="BackgroundImageFix"/>
<feColorMatrix in="SourceAlpha" type="matrix" values="0 0 0 0 0 0 0 0 0 0 0 0 0 0 0 0 0 0 127 0" result="hardAlpha"/>
<feMorphology radius="0" operator="dilate" in="SourceAlpha" result="0dropshadow"/>
<feOffset dx="0" dy="0.5"/>
<feGaussianBlur stdDeviation="0.5"/>
<feComposite in2="hardAlpha" operator="out"/>
<feColorMatrix type="matrix" values="0 0 0 0 1 0 0 0 0 1 0 0 0 0 1 0 0 0 0.3 0"/>
<feBlend mode="normal" in2="BackgroundImageFix" result="0dropshadow"/>
<feBlend mode="normal" in="SourceGraphic" in2="0dropshadow" result="shape"/>
<feColorMatrix in="SourceAlpha" type="matrix" values="0 0 0 0 0 0 0 0 0 0 0 0 0 0 0 0 0 0 127 0" result="hardAlpha"/>
<feMorphology radius="0" operator="erode" in="SourceAlpha" result="1innershadow"/>
<feOffset dx="0" dy="1"/>
<feGaussianBlur stdDeviation="0.5"/>
<feComposite in2="hardAlpha" operator="arithmetic" k2="-1" k3="1"/>
<feColorMatrix type="matrix" values="0 0 0 0 0 0 0 0 0 0 0 0 0 0 0 0 0 0 0.25 0"/>
<feBlend mode="normal" in2="shape" result="1innershadow"/>
</filter>
<linearGradient id="pf_0_i_294_7010;1_2720" x1="72.121" y1="83.068" x2="72.121" y2="109.023" gradientUnits="userSpaceOnUse">
<stop stop-color="#791037"/>
<stop offset="1" stop-color="#46081F"/>
</linearGradient>
<filter id="filterI294_7010;1_2723" x="56.005432" y="99.547852" width="14.20292" height="7.009133" filterUnits="userSpaceOnUse" color-interpolation-filters="sRGB">
<feFlood flood-opacity="0" result="BackgroundImageFix"/>
<feColorMatrix in="SourceAlpha" type="matrix" values="0 0 0 0 0 0 0 0 0 0 0 0 0 0 0 0 0 0 127 0" result="hardAlpha"/>
<feMorphology radius="0" operator="dilate" in="SourceAlpha" result="0dropshadow"/>
<feOffset dx="0" dy="-1"/>
<feGaussianBlur stdDeviation="0.5"/>
<feComposite in2="hardAlpha" operator="out"/>
<feColorMatrix type="matrix" values="0 0 0 0 0 0 0 0 0 0 0 0 0 0 0 0 0 0 0.15 0"/>
<feBlend mode="normal" in2="BackgroundImageFix" result="0dropshadow"/>
<feBlend mode="normal" in="SourceGraphic" in2="0dropshadow" result="shape"/>
<feColorMatrix in="SourceAlpha" type="matrix" values="0 0 0 0 0 0 0 0 0 0 0 0 0 0 0 0 0 0 127 0" result="hardAlpha"/>
<feMorphology radius="0" operator="erode" in="SourceAlpha" result="1innershadow"/>
<feOffset dx="0.5" dy="0.5"/>
<feGaussianBlur stdDeviation="0.25"/>
<feComposite in2="hardAlpha" operator="arithmetic" k2="-1" k3="1"/>
<feColorMatrix type="matrix" values="0 0 0 0 1 0 0 0 0 1 0 0 0 0 1 0 0 0 0.12 0"/>
<feBlend mode="normal" in2="shape" result="1innershadow"/>
</filter>
<radialGradient id="pf_0_i_294_7010;1_2723" cx="0" cy="0" r="1" gradientUnits="userSpaceOnUse" gradientTransform="matrix(2.474572 4.923684 -4.273595 2.031909 33.203 49.989)">
<stop offset="0.56" stop-color="#FF7C7C"/>
<stop offset="1" stop-color="#FF5963"/>
</radialGradient>
<filter id="filterI294_7010;1_2726" x="24.505737" y="38.370117" width="20.769735" height="20.769735" filterUnits="userSpaceOnUse" color-interpolation-filters="sRGB">
<feFlood flood-opacity="0" result="BackgroundImageFix"/>
<feColorMatrix in="SourceAlpha" type="matrix" values="0 0 0 0 0 0 0 0 0 0 0 0 0 0 0 0 0 0 127 0" result="hardAlpha"/>
<feMorphology radius="0" operator="dilate" in="SourceAlpha" result="0dropshadow"/>
<feOffset dx="0" dy="0"/>
<feGaussianBlur stdDeviation="0.5"/>
<feComposite in2="hardAlpha" operator="out"/>
<feColorMatrix type="matrix" values="0 0 0 0 1 0 0 0 0 1 0 0 0 0 1 0 0 0 0.4 0"/>
<feBlend mode="normal" in2="BackgroundImageFix" result="0dropshadow"/>
<feBlend mode="normal" in="SourceGraphic" in2="0dropshadow" result="shape"/>
<feColorMatrix in="SourceAlpha" type="matrix" values="0 0 0 0 0 0 0 0 0 0 0 0 0 0 0 0 0 0 127 0" result="hardAlpha"/>
<feMorphology radius="0" operator="erode" in="SourceAlpha" result="1innershadow"/>
<feOffset dx="1" dy="0.5"/>
<feGaussianBlur stdDeviation="1"/>
<feComposite in2="hardAlpha" operator="arithmetic" k2="-1" k3="1"/>
<feColorMatrix type="matrix" values="0 0 0 0 0 0 0 0 0 0 0 0 0 0 0 0 0 0 0.08 0"/>
<feBlend mode="normal" in2="shape" result="1innershadow"/>
</filter>
<filter id="filterI294_7010;1_2730" x="78.758118" y="38.785156" width="20.354385" height="20.354385" filterUnits="userSpaceOnUse" color-interpolation-filters="sRGB">
<feFlood flood-opacity="0" result="BackgroundImageFix"/>
<feColorMatrix in="SourceAlpha" type="matrix" values="0 0 0 0 0 0 0 0 0 0 0 0 0 0 0 0 0 0 127 0" result="hardAlpha"/>
<feMorphology radius="0" operator="dilate" in="SourceAlpha" result="0dropshadow"/>
<feOffset dx="0" dy="0"/>
<feGaussianBlur stdDeviation="0.5"/>
<feComposite in2="hardAlpha" operator="out"/>
<feColorMatrix type="matrix" values="0 0 0 0 1 0 0 0 0 1 0 0 0 0 1 0 0 0 0.4 0"/>
<feBlend mode="normal" in2="BackgroundImageFix" result="0dropshadow"/>
<feBlend mode="normal" in="SourceGraphic" in2="0dropshadow" result="shape"/>
<feColorMatrix in="SourceAlpha" type="matrix" values="0 0 0 0 0 0 0 0 0 0 0 0 0 0 0 0 0 0 127 0" result="hardAlpha"/>
<feMorphology radius="0" operator="erode" in="SourceAlpha" result="1innershadow"/>
<feOffset dx="1" dy="0.5"/>
<feGaussianBlur stdDeviation="1"/>
<feComposite in2="hardAlpha" operator="arithmetic" k2="-1" k3="1"/>
<feColorMatrix type="matrix" values="0 0 0 0 0 0 0 0 0 0 0 0 0 0 0 0 0 0 0.08 0"/>
<feBlend mode="normal" in2="shape" result="1innershadow"/>
</filter>
</defs>
</svg>
