<svg width="32" height="34" viewBox="0 0 32 34" fill="none" xmlns="http://www.w3.org/2000/svg" xmlns:xlink="http://www.w3.org/1999/xlink">
<mask id="mask_0_i_249_4990;38_1823;36_1808" style="mask-type:alpha" maskUnits="userSpaceOnUse" x="0.802734" y="3.424561" width="14.666666" height="13.333334">
<path d="M28.507,3.425L2.432,3.425C2,3.425 1.586,3.59 1.28,3.884C0.974,4.178 0.803,4.577 0.803,4.993L0.803,9.699C0.803,10.115 0.974,10.514 1.28,10.808C1.586,11.102 2,11.268 2.432,11.268C2.865,11.268 3.279,11.102 3.585,10.808C3.89,10.514 4.062,10.115 4.062,9.699L4.062,6.562L13.84,6.562L13.84,26.954L10.581,26.954C10.148,26.954 9.734,27.119 9.428,27.413C9.123,27.708 8.951,28.107 8.951,28.523C8.951,28.939 9.123,29.338 9.428,29.632C9.734,29.926 10.148,30.091 10.581,30.091L20.358,30.091C20.79,30.091 21.205,29.926 21.511,29.632C21.816,29.338 21.988,28.939 21.988,28.523C21.988,28.107 21.816,27.708 21.511,27.413C21.205,27.119 20.79,26.954 20.358,26.954L17.099,26.954L17.099,6.562L26.877,6.562L26.877,9.699C26.877,10.115 27.049,10.514 27.354,10.808C27.66,11.102 28.074,11.268 28.507,11.268C28.939,11.268 29.353,11.102 29.659,10.808C29.964,10.514 30.136,10.115 30.136,9.699L30.136,4.993C30.136,4.577 29.964,4.178 29.659,3.884C29.353,3.59 28.939,3.425 28.507,3.425Z" fill="#000000"/>
</mask>
<rect  x="-0.531" y="0.758" width="32" height="32" fill="#8F9098"/>
</svg>
