<svg width="32" height="32" viewBox="0 0 32 32" fill="none" xmlns="http://www.w3.org/2000/svg" xmlns:xlink="http://www.w3.org/1999/xlink">
<mask id="mask_0_i_248_3985;38_1823;36_1808" style="mask-type:alpha" maskUnits="userSpaceOnUse" x="0.777344" y="2.666626" width="14.666666" height="13.333334">
<path d="M28.481,2.667L2.407,2.667C1.975,2.667 1.56,2.832 1.255,3.126C0.949,3.42 0.777,3.819 0.777,4.235L0.777,8.941C0.777,9.357 0.949,9.756 1.255,10.05C1.56,10.345 1.975,10.51 2.407,10.51C2.839,10.51 3.254,10.345 3.559,10.05C3.865,9.756 4.037,9.357 4.037,8.941L4.037,5.804L13.814,5.804L13.814,26.196L10.555,26.196C10.123,26.196 9.708,26.361 9.403,26.655C9.097,26.95 8.925,27.349 8.925,27.765C8.925,28.181 9.097,28.58 9.403,28.874C9.708,29.168 10.123,29.333 10.555,29.333L20.333,29.333C20.765,29.333 21.18,29.168 21.485,28.874C21.791,28.58 21.963,28.181 21.963,27.765C21.963,27.349 21.791,26.95 21.485,26.655C21.18,26.361 20.765,26.196 20.333,26.196L17.074,26.196L17.074,5.804L26.851,5.804L26.851,8.941C26.851,9.357 27.023,9.756 27.329,10.05C27.634,10.345 28.049,10.51 28.481,10.51C28.913,10.51 29.328,10.345 29.633,10.05C29.939,9.756 30.111,9.357 30.111,8.941L30.111,4.235C30.111,3.819 29.939,3.42 29.633,3.126C29.328,2.832 28.913,2.667 28.481,2.667Z" fill="#000000"/>
</mask>
<rect  x="-0.557" y="0" width="32" height="32" fill="#8F9098"/>
</svg>
