<svg width="32" height="34" viewBox="0 0 32 34" fill="none" xmlns="http://www.w3.org/2000/svg" xmlns:xlink="http://www.w3.org/1999/xlink">
<mask id="mask_0_i_251_6262;38_1823;36_1808" style="mask-type:alpha" maskUnits="userSpaceOnUse" x="0.966797" y="3.161865" width="14.666666" height="13.333334">
<path d="M28.671,3.162L2.596,3.162C2.164,3.162 1.75,3.327 1.444,3.621C1.138,3.915 0.967,4.314 0.967,4.73L0.967,9.436C0.967,9.852 1.138,10.251 1.444,10.546C1.75,10.84 2.164,11.005 2.596,11.005C3.029,11.005 3.443,10.84 3.749,10.546C4.054,10.251 4.226,9.852 4.226,9.436L4.226,6.299L14.004,6.299L14.004,26.691L10.745,26.691C10.312,26.691 9.898,26.856 9.592,27.151C9.287,27.445 9.115,27.844 9.115,28.26C9.115,28.676 9.287,29.075 9.592,29.369C9.898,29.663 10.312,29.828 10.745,29.828L20.522,29.828C20.955,29.828 21.369,29.663 21.675,29.369C21.98,29.075 22.152,28.676 22.152,28.26C22.152,27.844 21.98,27.445 21.675,27.151C21.369,26.856 20.955,26.691 20.522,26.691L17.263,26.691L17.263,6.299L27.041,6.299L27.041,9.436C27.041,9.852 27.213,10.251 27.518,10.546C27.824,10.84 28.238,11.005 28.671,11.005C29.103,11.005 29.517,10.84 29.823,10.546C30.128,10.251 30.3,9.852 30.3,9.436L30.3,4.73C30.3,4.314 30.128,3.915 29.823,3.621C29.517,3.327 29.103,3.162 28.671,3.162Z" fill="#000000"/>
</mask>
<rect  x="-0.367" y="0.495" width="32" height="32" fill="#8F9098"/>
</svg>
