<svg width="32" height="32" viewBox="0 0 32 32" fill="none" xmlns="http://www.w3.org/2000/svg" xmlns:xlink="http://www.w3.org/1999/xlink">
<mask id="mask_0_i_252_6720;38_1823;36_1808" style="mask-type:alpha" maskUnits="userSpaceOnUse" x="1.011719" y="2.129517" width="14.666666" height="13.333334">
<path d="M28.716,2.13L2.641,2.13C2.209,2.13 1.795,2.295 1.489,2.589C1.183,2.883 1.012,3.282 1.012,3.698L1.012,8.404C1.012,8.82 1.183,9.219 1.489,9.513C1.795,9.807 2.209,9.973 2.641,9.973C3.074,9.973 3.488,9.807 3.794,9.513C4.099,9.219 4.271,8.82 4.271,8.404L4.271,5.267L14.049,5.267L14.049,25.659L10.789,25.659C10.357,25.659 9.943,25.824 9.637,26.118C9.332,26.413 9.16,26.812 9.16,27.228C9.16,27.644 9.332,28.043 9.637,28.337C9.943,28.631 10.357,28.796 10.789,28.796L20.567,28.796C20.999,28.796 21.414,28.631 21.72,28.337C22.025,28.043 22.197,27.644 22.197,27.228C22.197,26.812 22.025,26.413 21.72,26.118C21.414,25.824 20.999,25.659 20.567,25.659L17.308,25.659L17.308,5.267L27.086,5.267L27.086,8.404C27.086,8.82 27.258,9.219 27.563,9.513C27.869,9.807 28.283,9.973 28.716,9.973C29.148,9.973 29.562,9.807 29.868,9.513C30.173,9.219 30.345,8.82 30.345,8.404L30.345,3.698C30.345,3.282 30.173,2.883 29.868,2.589C29.562,2.295 29.148,2.13 28.716,2.13Z" fill="#000000"/>
</mask>
<rect  x="-0.321" y="-0.537" width="32" height="32" fill="#8F9098"/>
</svg>
