<svg width="32" height="32" viewBox="0 0 32 32" fill="none" xmlns="http://www.w3.org/2000/svg" xmlns:xlink="http://www.w3.org/1999/xlink">
<mask id="mask_0_i_251_5836;38_1823;36_1808" style="mask-type:alpha" maskUnits="userSpaceOnUse" x="0.859863" y="2.136963" width="14.666666" height="13.333334">
<path d="M28.564,2.137L2.489,2.137C2.057,2.137 1.643,2.302 1.337,2.596C1.032,2.891 0.86,3.29 0.86,3.706L0.86,8.411C0.86,8.828 1.032,9.226 1.337,9.521C1.643,9.815 2.057,9.98 2.489,9.98C2.922,9.98 3.336,9.815 3.642,9.521C3.947,9.226 4.119,8.828 4.119,8.411L4.119,5.274L13.897,5.274L13.897,25.666L10.638,25.666C10.205,25.666 9.791,25.832 9.485,26.126C9.18,26.42 9.008,26.819 9.008,27.235C9.008,27.651 9.18,28.05 9.485,28.344C9.791,28.638 10.205,28.804 10.638,28.804L20.415,28.804C20.848,28.804 21.262,28.638 21.568,28.344C21.873,28.05 22.045,27.651 22.045,27.235C22.045,26.819 21.873,26.42 21.568,26.126C21.262,25.832 20.848,25.666 20.415,25.666L17.156,25.666L17.156,5.274L26.934,5.274L26.934,8.411C26.934,8.828 27.106,9.226 27.411,9.521C27.717,9.815 28.131,9.98 28.564,9.98C28.996,9.98 29.41,9.815 29.716,9.521C30.021,9.226 30.193,8.828 30.193,8.411L30.193,3.706C30.193,3.29 30.021,2.891 29.716,2.596C29.41,2.302 28.996,2.137 28.564,2.137Z" fill="#000000"/>
</mask>
<rect  x="-0.474" y="-0.53" width="32" height="32" fill="#8F9098"/>
</svg>
