<svg width="34" height="34" viewBox="0 0 34 34" fill="none" xmlns="http://www.w3.org/2000/svg" xmlns:xlink="http://www.w3.org/1999/xlink">
<mask id="mask_0_i_259_6342;38_1823;36_1808" style="mask-type:alpha" maskUnits="userSpaceOnUse" x="2.185547" y="3.402832" width="14.666666" height="13.333334">
<path d="M29.889,3.403L3.815,3.403C3.383,3.403 2.968,3.568 2.663,3.862C2.357,4.156 2.186,4.555 2.186,4.971L2.186,9.677C2.186,10.093 2.357,10.492 2.663,10.787C2.968,11.081 3.383,11.246 3.815,11.246C4.247,11.246 4.662,11.081 4.968,10.787C5.273,10.492 5.445,10.093 5.445,9.677L5.445,6.54L15.223,6.54L15.223,26.932L11.963,26.932C11.531,26.932 11.117,27.097 10.811,27.392C10.505,27.686 10.334,28.085 10.334,28.501C10.334,28.917 10.505,29.316 10.811,29.61C11.117,29.904 11.531,30.069 11.963,30.069L21.741,30.069C22.173,30.069 22.588,29.904 22.893,29.61C23.199,29.316 23.371,28.917 23.371,28.501C23.371,28.085 23.199,27.686 22.893,27.392C22.588,27.097 22.173,26.932 21.741,26.932L18.482,26.932L18.482,6.54L28.26,6.54L28.26,9.677C28.26,10.093 28.431,10.492 28.737,10.787C29.043,11.081 29.457,11.246 29.889,11.246C30.322,11.246 30.736,11.081 31.042,10.787C31.347,10.492 31.519,10.093 31.519,9.677L31.519,4.971C31.519,4.555 31.347,4.156 31.042,3.862C30.736,3.568 30.322,3.403 29.889,3.403Z" fill="#000000"/>
</mask>
<rect  x="0.853" y="0.736" width="32" height="32" fill="#8F9098"/>
</svg>
