<svg width="34" height="34" viewBox="0 0 34 34" fill="none" xmlns="http://www.w3.org/2000/svg" xmlns:xlink="http://www.w3.org/1999/xlink">
<mask id="mask_0_i_256_4872;38_1823;36_1808" style="mask-type:alpha" maskUnits="userSpaceOnUse" x="2.202148" y="3.427002" width="14.666666" height="13.333334">
<path d="M29.906,3.427L3.832,3.427C3.4,3.427 2.985,3.592 2.679,3.886C2.374,4.181 2.202,4.58 2.202,4.996L2.202,9.702C2.202,10.118 2.374,10.517 2.679,10.811C2.985,11.105 3.4,11.27 3.832,11.27C4.264,11.27 4.678,11.105 4.984,10.811C5.29,10.517 5.461,10.118 5.461,9.702L5.461,6.564L15.239,6.564L15.239,26.956L11.98,26.956C11.548,26.956 11.133,27.122 10.828,27.416C10.522,27.71 10.35,28.109 10.35,28.525C10.35,28.941 10.522,29.34 10.828,29.634C11.133,29.928 11.548,30.094 11.98,30.094L21.758,30.094C22.19,30.094 22.604,29.928 22.91,29.634C23.216,29.34 23.387,28.941 23.387,28.525C23.387,28.109 23.216,27.71 22.91,27.416C22.604,27.122 22.19,26.956 21.758,26.956L18.498,26.956L18.498,6.564L28.276,6.564L28.276,9.702C28.276,10.118 28.448,10.517 28.754,10.811C29.059,11.105 29.474,11.27 29.906,11.27C30.338,11.27 30.753,11.105 31.058,10.811C31.364,10.517 31.536,10.118 31.536,9.702L31.536,4.996C31.536,4.58 31.364,4.181 31.058,3.886C30.753,3.592 30.338,3.427 29.906,3.427Z" fill="#000000"/>
</mask>
<rect  x="0.869" y="0.76" width="32" height="32" fill="#8F9098"/>
</svg>
