<svg width="34" height="32" viewBox="0 0 34 32" fill="none" xmlns="http://www.w3.org/2000/svg" xmlns:xlink="http://www.w3.org/1999/xlink">
<mask id="mask_0_i_259_6096;38_1823;36_1808" style="mask-type:alpha" maskUnits="userSpaceOnUse" x="2.105957" y="2.133789" width="14.666666" height="13.333334">
<path d="M29.81,2.134L3.736,2.134C3.303,2.134 2.889,2.299 2.583,2.593C2.278,2.887 2.106,3.286 2.106,3.702L2.106,8.408C2.106,8.824 2.278,9.223 2.583,9.517C2.889,9.812 3.303,9.977 3.736,9.977C4.168,9.977 4.582,9.812 4.888,9.517C5.194,9.223 5.365,8.824 5.365,8.408L5.365,5.271L15.143,5.271L15.143,25.663L11.884,25.663C11.452,25.663 11.037,25.828 10.731,26.123C10.426,26.417 10.254,26.816 10.254,27.232C10.254,27.648 10.426,28.047 10.731,28.341C11.037,28.635 11.452,28.8 11.884,28.8L21.662,28.8C22.094,28.8 22.508,28.635 22.814,28.341C23.119,28.047 23.291,27.648 23.291,27.232C23.291,26.816 23.119,26.417 22.814,26.123C22.508,25.828 22.094,25.663 21.662,25.663L18.402,25.663L18.402,5.271L28.18,5.271L28.18,8.408C28.18,8.824 28.352,9.223 28.657,9.517C28.963,9.812 29.377,9.977 29.81,9.977C30.242,9.977 30.656,9.812 30.962,9.517C31.268,9.223 31.439,8.824 31.439,8.408L31.439,3.702C31.439,3.286 31.268,2.887 30.962,2.593C30.656,2.299 30.242,2.134 29.81,2.134Z" fill="#000000"/>
</mask>
<rect  x="0.772" y="-0.533" width="32" height="32" fill="#8F9098"/>
</svg>
