<svg width="34" height="32" viewBox="0 0 34 32" fill="none" xmlns="http://www.w3.org/2000/svg" xmlns:xlink="http://www.w3.org/1999/xlink">
<mask id="mask_0_i_258_5786;38_1823;36_1808" style="mask-type:alpha" maskUnits="userSpaceOnUse" x="2.279297" y="2.666626" width="14.666666" height="13.333334">
<path d="M29.983,2.667L3.909,2.667C3.477,2.667 3.062,2.832 2.757,3.126C2.451,3.42 2.279,3.819 2.279,4.235L2.279,8.941C2.279,9.357 2.451,9.756 2.757,10.05C3.062,10.345 3.477,10.51 3.909,10.51C4.341,10.51 4.756,10.345 5.061,10.05C5.367,9.756 5.539,9.357 5.539,8.941L5.539,5.804L15.316,5.804L15.316,26.196L12.057,26.196C11.625,26.196 11.21,26.361 10.905,26.655C10.599,26.95 10.427,27.349 10.427,27.765C10.427,28.181 10.599,28.58 10.905,28.874C11.21,29.168 11.625,29.333 12.057,29.333L21.835,29.333C22.267,29.333 22.681,29.168 22.987,28.874C23.293,28.58 23.464,28.181 23.464,27.765C23.464,27.349 23.293,26.95 22.987,26.655C22.681,26.361 22.267,26.196 21.835,26.196L18.576,26.196L18.576,5.804L28.353,5.804L28.353,8.941C28.353,9.357 28.525,9.756 28.831,10.05C29.136,10.345 29.551,10.51 29.983,10.51C30.415,10.51 30.83,10.345 31.135,10.05C31.441,9.756 31.613,9.357 31.613,8.941L31.613,4.235C31.613,3.819 31.441,3.42 31.135,3.126C30.83,2.832 30.415,2.667 29.983,2.667Z" fill="#000000"/>
</mask>
<rect  x="0.945" y="0" width="32" height="32" fill="#8F9098"/>
</svg>
