<svg width="32" height="32" viewBox="0 0 32 32" fill="none" xmlns="http://www.w3.org/2000/svg" xmlns:xlink="http://www.w3.org/1999/xlink">
<mask id="mask_0_i_252_7816;38_1823;36_1808" style="mask-type:alpha" maskUnits="userSpaceOnUse" x="1.333252" y="2.154541" width="14.666666" height="13.333334">
<path d="M29.037,2.155L2.963,2.155C2.531,2.155 2.116,2.32 1.811,2.614C1.505,2.908 1.333,3.307 1.333,3.723L1.333,8.429C1.333,8.845 1.505,9.244 1.811,9.538C2.116,9.832 2.531,9.998 2.963,9.998C3.395,9.998 3.81,9.832 4.115,9.538C4.421,9.244 4.593,8.845 4.593,8.429L4.593,5.292L14.37,5.292L14.37,25.684L11.111,25.684C10.679,25.684 10.264,25.849 9.959,26.143C9.653,26.438 9.481,26.837 9.481,27.253C9.481,27.669 9.653,28.068 9.959,28.362C10.264,28.656 10.679,28.821 11.111,28.821L20.889,28.821C21.321,28.821 21.735,28.656 22.041,28.362C22.347,28.068 22.518,27.669 22.518,27.253C22.518,26.837 22.347,26.438 22.041,26.143C21.735,25.849 21.321,25.684 20.889,25.684L17.63,25.684L17.63,5.292L27.407,5.292L27.407,8.429C27.407,8.845 27.579,9.244 27.885,9.538C28.19,9.832 28.605,9.998 29.037,9.998C29.469,9.998 29.884,9.832 30.189,9.538C30.495,9.244 30.667,8.845 30.667,8.429L30.667,3.723C30.667,3.307 30.495,2.908 30.189,2.614C29.884,2.32 29.469,2.155 29.037,2.155Z" fill="#000000"/>
</mask>
<rect  x="0" y="-0.512" width="32" height="32" fill="#8F9098"/>
</svg>
