<svg width="34" height="32" viewBox="0 0 34 32" fill="none" xmlns="http://www.w3.org/2000/svg" xmlns:xlink="http://www.w3.org/1999/xlink">
<mask id="mask_0_i_252_7185;38_1823;36_1808" style="mask-type:alpha" maskUnits="userSpaceOnUse" x="1.602539" y="2.467529" width="14.666666" height="13.333334">
<path d="M29.306,2.468L3.232,2.468C2.8,2.468 2.385,2.633 2.08,2.927C1.774,3.221 1.603,3.62 1.603,4.036L1.603,8.742C1.603,9.158 1.774,9.557 2.08,9.851C2.385,10.145 2.8,10.311 3.232,10.311C3.664,10.311 4.079,10.145 4.384,9.851C4.69,9.557 4.862,9.158 4.862,8.742L4.862,5.605L14.64,5.605L14.64,25.997L11.38,25.997C10.948,25.997 10.534,26.162 10.228,26.456C9.922,26.751 9.751,27.15 9.751,27.566C9.751,27.982 9.922,28.381 10.228,28.675C10.534,28.969 10.948,29.134 11.38,29.134L21.158,29.134C21.59,29.134 22.005,28.969 22.31,28.675C22.616,28.381 22.788,27.982 22.788,27.566C22.788,27.15 22.616,26.751 22.31,26.456C22.005,26.162 21.59,25.997 21.158,25.997L17.899,25.997L17.899,5.605L27.677,5.605L27.677,8.742C27.677,9.158 27.848,9.557 28.154,9.851C28.46,10.145 28.874,10.311 29.306,10.311C29.739,10.311 30.153,10.145 30.459,9.851C30.764,9.557 30.936,9.158 30.936,8.742L30.936,4.036C30.936,3.62 30.764,3.221 30.459,2.927C30.153,2.633 29.739,2.468 29.306,2.468Z" fill="#000000"/>
</mask>
<rect  x="0.269" y="-0.199" width="32" height="32" fill="#8F9098"/>
</svg>
