<svg width="32" height="34" viewBox="0 0 32 34" fill="none" xmlns="http://www.w3.org/2000/svg" xmlns:xlink="http://www.w3.org/1999/xlink">
<mask id="mask_0_i_259_6354;38_1823;36_1808" style="mask-type:alpha" maskUnits="userSpaceOnUse" x="0.859375" y="2.875" width="14.666666" height="13.333334">
<path d="M28.563,2.875L2.489,2.875C2.057,2.875 1.642,3.04 1.337,3.334C1.031,3.629 0.859,4.028 0.859,4.444L0.859,9.149C0.859,9.566 1.031,9.965 1.337,10.259C1.642,10.553 2.057,10.718 2.489,10.718C2.921,10.718 3.336,10.553 3.641,10.259C3.947,9.965 4.119,9.566 4.119,9.149L4.119,6.012L13.896,6.012L13.896,26.404L10.637,26.404C10.205,26.404 9.79,26.57 9.485,26.864C9.179,27.158 9.008,27.557 9.008,27.973C9.008,28.389 9.179,28.788 9.485,29.082C9.79,29.376 10.205,29.542 10.637,29.542L20.415,29.542C20.847,29.542 21.262,29.376 21.567,29.082C21.873,28.788 22.045,28.389 22.045,27.973C22.045,27.557 21.873,27.158 21.567,26.864C21.262,26.57 20.847,26.404 20.415,26.404L17.156,26.404L17.156,6.012L26.933,6.012L26.933,9.149C26.933,9.566 27.105,9.965 27.411,10.259C27.716,10.553 28.131,10.718 28.563,10.718C28.995,10.718 29.41,10.553 29.715,10.259C30.021,9.965 30.193,9.566 30.193,9.149L30.193,4.444C30.193,4.028 30.021,3.629 29.715,3.334C29.41,3.04 28.995,2.875 28.563,2.875Z" fill="#000000"/>
</mask>
<rect  x="-0.474" y="0.208" width="32" height="32" fill="#8F9098"/>
</svg>
