<svg width="32" height="34" viewBox="0 0 32 34" fill="none" xmlns="http://www.w3.org/2000/svg" xmlns:xlink="http://www.w3.org/1999/xlink">
<mask id="mask_0_i_258_5341;38_1823;36_1808" style="mask-type:alpha" maskUnits="userSpaceOnUse" x="0.443359" y="2.894653" width="14.666666" height="13.333334">
<path d="M28.147,2.895L2.073,2.895C1.641,2.895 1.226,3.06 0.921,3.354C0.615,3.648 0.443,4.047 0.443,4.463L0.443,9.169C0.443,9.585 0.615,9.984 0.921,10.278C1.226,10.573 1.641,10.738 2.073,10.738C2.505,10.738 2.92,10.573 3.225,10.278C3.531,9.984 3.703,9.585 3.703,9.169L3.703,6.032L13.48,6.032L13.48,26.424L10.221,26.424C9.789,26.424 9.374,26.589 9.069,26.883C8.763,27.178 8.591,27.577 8.591,27.993C8.591,28.409 8.763,28.808 9.069,29.102C9.374,29.396 9.789,29.561 10.221,29.561L19.999,29.561C20.431,29.561 20.846,29.396 21.151,29.102C21.457,28.808 21.629,28.409 21.629,27.993C21.629,27.577 21.457,27.178 21.151,26.883C20.846,26.589 20.431,26.424 19.999,26.424L16.74,26.424L16.74,6.032L26.517,6.032L26.517,9.169C26.517,9.585 26.689,9.984 26.995,10.278C27.3,10.573 27.715,10.738 28.147,10.738C28.579,10.738 28.994,10.573 29.299,10.278C29.605,9.984 29.777,9.585 29.777,9.169L29.777,4.463C29.777,4.047 29.605,3.648 29.299,3.354C28.994,3.06 28.579,2.895 28.147,2.895Z" fill="#000000"/>
</mask>
<rect  x="-0.891" y="0.228" width="32" height="32" fill="#8F9098"/>
</svg>
