<svg width="32" height="34" viewBox="0 0 32 34" fill="none" xmlns="http://www.w3.org/2000/svg" xmlns:xlink="http://www.w3.org/1999/xlink">
<mask id="mask_0_i_251_5973;38_1823;36_1808" style="mask-type:alpha" maskUnits="userSpaceOnUse" x="0.710815" y="3.228882" width="14.666666" height="13.333334">
<path d="M28.415,3.229L2.34,3.229C1.908,3.229 1.494,3.394 1.188,3.688C0.883,3.982 0.711,4.381 0.711,4.798L0.711,9.503C0.711,9.919 0.883,10.318 1.188,10.613C1.494,10.907 1.908,11.072 2.34,11.072C2.773,11.072 3.187,10.907 3.493,10.613C3.798,10.318 3.97,9.919 3.97,9.503L3.97,6.366L13.748,6.366L13.748,26.758L10.489,26.758C10.056,26.758 9.642,26.923 9.336,27.218C9.031,27.512 8.859,27.911 8.859,28.327C8.859,28.743 9.031,29.142 9.336,29.436C9.642,29.73 10.056,29.895 10.489,29.895L20.266,29.895C20.699,29.895 21.113,29.73 21.419,29.436C21.724,29.142 21.896,28.743 21.896,28.327C21.896,27.911 21.724,27.512 21.419,27.218C21.113,26.923 20.699,26.758 20.266,26.758L17.007,26.758L17.007,6.366L26.785,6.366L26.785,9.503C26.785,9.919 26.957,10.318 27.262,10.613C27.568,10.907 27.982,11.072 28.415,11.072C28.847,11.072 29.261,10.907 29.567,10.613C29.872,10.318 30.044,9.919 30.044,9.503L30.044,4.798C30.044,4.381 29.872,3.982 29.567,3.688C29.261,3.394 28.847,3.229 28.415,3.229Z" fill="#000000"/>
</mask>
<rect  x="-0.622" y="0.562" width="32" height="32" fill="#8F9098"/>
</svg>
