<svg width="32" height="32" viewBox="0 0 32 32" fill="none" xmlns="http://www.w3.org/2000/svg" xmlns:xlink="http://www.w3.org/1999/xlink">
<mask id="mask_0_i_251_5825;38_1823;36_1808" style="mask-type:alpha" maskUnits="userSpaceOnUse" x="0.859863" y="2.607056" width="14.666666" height="13.333334">
<path d="M28.564,2.607L2.489,2.607C2.057,2.607 1.643,2.772 1.337,3.066C1.032,3.361 0.86,3.76 0.86,4.176L0.86,8.882C0.86,9.298 1.032,9.697 1.337,9.991C1.643,10.285 2.057,10.45 2.489,10.45C2.922,10.45 3.336,10.285 3.642,9.991C3.947,9.697 4.119,9.298 4.119,8.882L4.119,5.744L13.897,5.744L13.897,26.136L10.638,26.136C10.205,26.136 9.791,26.302 9.485,26.596C9.18,26.89 9.008,27.289 9.008,27.705C9.008,28.121 9.18,28.52 9.485,28.814C9.791,29.108 10.205,29.274 10.638,29.274L20.415,29.274C20.848,29.274 21.262,29.108 21.568,28.814C21.873,28.52 22.045,28.121 22.045,27.705C22.045,27.289 21.873,26.89 21.568,26.596C21.262,26.302 20.848,26.136 20.415,26.136L17.156,26.136L17.156,5.744L26.934,5.744L26.934,8.882C26.934,9.298 27.106,9.697 27.411,9.991C27.717,10.285 28.131,10.45 28.564,10.45C28.996,10.45 29.41,10.285 29.716,9.991C30.021,9.697 30.193,9.298 30.193,8.882L30.193,4.176C30.193,3.76 30.021,3.361 29.716,3.066C29.41,2.772 28.996,2.607 28.564,2.607Z" fill="#000000"/>
</mask>
<rect  x="-0.474" y="-0.06" width="32" height="32" fill="#8F9098"/>
</svg>
