<svg width="34" height="32" viewBox="0 0 34 32" fill="none" xmlns="http://www.w3.org/2000/svg" xmlns:xlink="http://www.w3.org/1999/xlink">
<mask id="mask_0_i_281_5625;38_1823;36_1808" style="mask-type:alpha" maskUnits="userSpaceOnUse" x="1.828125" y="2.666748" width="14.666666" height="13.333334">
<path d="M29.532,2.667L3.458,2.667C3.026,2.667 2.611,2.832 2.305,3.126C2,3.42 1.828,3.819 1.828,4.235L1.828,8.941C1.828,9.357 2,9.756 2.305,10.05C2.611,10.345 3.026,10.51 3.458,10.51C3.89,10.51 4.304,10.345 4.61,10.05C4.916,9.756 5.087,9.357 5.087,8.941L5.087,5.804L14.865,5.804L14.865,26.196L11.606,26.196C11.174,26.196 10.759,26.361 10.454,26.656C10.148,26.95 9.976,27.349 9.976,27.765C9.976,28.181 10.148,28.58 10.454,28.874C10.759,29.168 11.174,29.333 11.606,29.333L21.384,29.333C21.816,29.333 22.23,29.168 22.536,28.874C22.842,28.58 23.013,28.181 23.013,27.765C23.013,27.349 22.842,26.95 22.536,26.656C22.23,26.361 21.816,26.196 21.384,26.196L18.124,26.196L18.124,5.804L27.902,5.804L27.902,8.941C27.902,9.357 28.074,9.756 28.38,10.05C28.685,10.345 29.1,10.51 29.532,10.51C29.964,10.51 30.379,10.345 30.684,10.05C30.99,9.756 31.162,9.357 31.162,8.941L31.162,4.235C31.162,3.819 30.99,3.42 30.684,3.126C30.379,2.832 29.964,2.667 29.532,2.667Z" fill="#000000"/>
</mask>
<rect  x="0.495" y="0" width="32" height="32" fill="#8F9098"/>
</svg>
