<svg width="32" height="32" viewBox="0 0 32 32" fill="none" xmlns="http://www.w3.org/2000/svg" xmlns:xlink="http://www.w3.org/1999/xlink">
<mask id="mask_0_i_252_7196;38_1823;36_1808" style="mask-type:alpha" maskUnits="userSpaceOnUse" x="1.175781" y="2.666748" width="14.666666" height="13.333334">
<path d="M28.88,2.667L2.805,2.667C2.373,2.667 1.959,2.832 1.653,3.126C1.347,3.42 1.176,3.819 1.176,4.235L1.176,8.941C1.176,9.357 1.347,9.756 1.653,10.05C1.959,10.345 2.373,10.51 2.805,10.51C3.238,10.51 3.652,10.345 3.958,10.05C4.263,9.756 4.435,9.357 4.435,8.941L4.435,5.804L14.213,5.804L14.213,26.196L10.954,26.196C10.521,26.196 10.107,26.361 9.801,26.656C9.496,26.95 9.324,27.349 9.324,27.765C9.324,28.181 9.496,28.58 9.801,28.874C10.107,29.168 10.521,29.333 10.954,29.333L20.731,29.333C21.164,29.333 21.578,29.168 21.884,28.874C22.189,28.58 22.361,28.181 22.361,27.765C22.361,27.349 22.189,26.95 21.884,26.656C21.578,26.361 21.164,26.196 20.731,26.196L17.472,26.196L17.472,5.804L27.25,5.804L27.25,8.941C27.25,9.357 27.422,9.756 27.727,10.05C28.033,10.345 28.447,10.51 28.88,10.51C29.312,10.51 29.726,10.345 30.032,10.05C30.337,9.756 30.509,9.357 30.509,8.941L30.509,4.235C30.509,3.819 30.337,3.42 30.032,3.126C29.726,2.832 29.312,2.667 28.88,2.667Z" fill="#000000"/>
</mask>
<rect  x="-0.157" y="0" width="32" height="32" fill="#8F9098"/>
</svg>
