<svg width="32" height="32" viewBox="0 0 32 32" fill="none" xmlns="http://www.w3.org/2000/svg" xmlns:xlink="http://www.w3.org/1999/xlink">
<mask id="mask_0_i_258_5329;38_1823;36_1808" style="mask-type:alpha" maskUnits="userSpaceOnUse" x="0.544922" y="2.666626" width="14.666666" height="13.333334">
<path d="M28.249,2.667L2.175,2.667C1.742,2.667 1.328,2.832 1.022,3.126C0.717,3.42 0.545,3.819 0.545,4.235L0.545,8.941C0.545,9.357 0.717,9.756 1.022,10.05C1.328,10.345 1.742,10.51 2.175,10.51C2.607,10.51 3.021,10.345 3.327,10.05C3.632,9.756 3.804,9.357 3.804,8.941L3.804,5.804L13.582,5.804L13.582,26.196L10.323,26.196C9.891,26.196 9.476,26.361 9.17,26.655C8.865,26.95 8.693,27.349 8.693,27.765C8.693,28.181 8.865,28.58 9.17,28.874C9.476,29.168 9.891,29.333 10.323,29.333L20.1,29.333C20.533,29.333 20.947,29.168 21.253,28.874C21.558,28.58 21.73,28.181 21.73,27.765C21.73,27.349 21.558,26.95 21.253,26.655C20.947,26.361 20.533,26.196 20.1,26.196L16.841,26.196L16.841,5.804L26.619,5.804L26.619,8.941C26.619,9.357 26.791,9.756 27.096,10.05C27.402,10.345 27.816,10.51 28.249,10.51C28.681,10.51 29.095,10.345 29.401,10.05C29.707,9.756 29.878,9.357 29.878,8.941L29.878,4.235C29.878,3.819 29.707,3.42 29.401,3.126C29.095,2.832 28.681,2.667 28.249,2.667Z" fill="#000000"/>
</mask>
<rect  x="-0.789" y="0" width="32" height="32" fill="#8F9098"/>
</svg>
