<svg width="32" height="32" viewBox="0 0 32 32" fill="none" xmlns="http://www.w3.org/2000/svg" xmlns:xlink="http://www.w3.org/1999/xlink">
<mask id="mask_0_i_248_4137;38_1823;36_1808" style="mask-type:alpha" maskUnits="userSpaceOnUse" x="1.201172" y="2.666748" width="14.666666" height="13.333334">
<path d="M28.905,2.667L2.831,2.667C2.399,2.667 1.984,2.832 1.678,3.126C1.373,3.42 1.201,3.819 1.201,4.235L1.201,8.941C1.201,9.357 1.373,9.756 1.678,10.05C1.984,10.345 2.399,10.51 2.831,10.51C3.263,10.51 3.678,10.345 3.983,10.05C4.289,9.756 4.46,9.357 4.46,8.941L4.46,5.804L14.238,5.804L14.238,26.196L10.979,26.196C10.547,26.196 10.132,26.361 9.827,26.656C9.521,26.95 9.349,27.349 9.349,27.765C9.349,28.181 9.521,28.58 9.827,28.874C10.132,29.168 10.547,29.333 10.979,29.333L20.757,29.333C21.189,29.333 21.603,29.168 21.909,28.874C22.215,28.58 22.386,28.181 22.386,27.765C22.386,27.349 22.215,26.95 21.909,26.656C21.603,26.361 21.189,26.196 20.757,26.196L17.497,26.196L17.497,5.804L27.275,5.804L27.275,8.941C27.275,9.357 27.447,9.756 27.753,10.05C28.058,10.345 28.473,10.51 28.905,10.51C29.337,10.51 29.752,10.345 30.057,10.05C30.363,9.756 30.535,9.357 30.535,8.941L30.535,4.235C30.535,3.819 30.363,3.42 30.057,3.126C29.752,2.832 29.337,2.667 28.905,2.667Z" fill="#000000"/>
</mask>
<rect  x="-0.132" y="0" width="32" height="32" fill="#8F9098"/>
</svg>
