<svg width="34" height="32" viewBox="0 0 34 32" fill="none" xmlns="http://www.w3.org/2000/svg" xmlns:xlink="http://www.w3.org/1999/xlink">
<mask id="mask_0_i_263_4238;38_1823;36_1808" style="mask-type:alpha" maskUnits="userSpaceOnUse" x="2.202148" y="2.666748" width="14.666666" height="13.333334">
<path d="M29.906,2.667L3.832,2.667C3.4,2.667 2.985,2.832 2.679,3.126C2.374,3.42 2.202,3.819 2.202,4.235L2.202,8.941C2.202,9.357 2.374,9.756 2.679,10.05C2.985,10.345 3.4,10.51 3.832,10.51C4.264,10.51 4.678,10.345 4.984,10.05C5.29,9.756 5.461,9.357 5.461,8.941L5.461,5.804L15.239,5.804L15.239,26.196L11.98,26.196C11.548,26.196 11.133,26.361 10.828,26.656C10.522,26.95 10.35,27.349 10.35,27.765C10.35,28.181 10.522,28.58 10.828,28.874C11.133,29.168 11.548,29.333 11.98,29.333L21.758,29.333C22.19,29.333 22.604,29.168 22.91,28.874C23.216,28.58 23.387,28.181 23.387,27.765C23.387,27.349 23.216,26.95 22.91,26.656C22.604,26.361 22.19,26.196 21.758,26.196L18.498,26.196L18.498,5.804L28.276,5.804L28.276,8.941C28.276,9.357 28.448,9.756 28.754,10.05C29.059,10.345 29.474,10.51 29.906,10.51C30.338,10.51 30.753,10.345 31.058,10.05C31.364,9.756 31.536,9.357 31.536,8.941L31.536,4.235C31.536,3.819 31.364,3.42 31.058,3.126C30.753,2.832 30.338,2.667 29.906,2.667Z" fill="#000000"/>
</mask>
<rect  x="0.869" y="0" width="32" height="32" fill="#8F9098"/>
</svg>
