<svg width="32" height="32" viewBox="0 0 32 32" fill="none" xmlns="http://www.w3.org/2000/svg" xmlns:xlink="http://www.w3.org/1999/xlink">
<mask id="mask_0_i_252_7501;38_1823;36_1808" style="mask-type:alpha" maskUnits="userSpaceOnUse" x="0.742676" y="1.826904" width="14.666666" height="13.333334">
<path d="M28.446,1.827L2.372,1.827C1.94,1.827 1.526,1.992 1.22,2.286C0.914,2.581 0.743,2.98 0.743,3.396L0.743,8.101C0.743,8.517 0.914,8.916 1.22,9.211C1.526,9.505 1.94,9.67 2.372,9.67C2.805,9.67 3.219,9.505 3.525,9.211C3.83,8.916 4.002,8.517 4.002,8.101L4.002,4.964L13.78,4.964L13.78,25.356L10.52,25.356C10.088,25.356 9.674,25.522 9.368,25.816C9.063,26.11 8.891,26.509 8.891,26.925C8.891,27.341 9.063,27.74 9.368,28.034C9.674,28.328 10.088,28.494 10.52,28.494L20.298,28.494C20.73,28.494 21.145,28.328 21.45,28.034C21.756,27.74 21.928,27.341 21.928,26.925C21.928,26.509 21.756,26.11 21.45,25.816C21.145,25.522 20.73,25.356 20.298,25.356L17.039,25.356L17.039,4.964L26.817,4.964L26.817,8.101C26.817,8.517 26.988,8.916 27.294,9.211C27.6,9.505 28.014,9.67 28.446,9.67C28.879,9.67 29.293,9.505 29.599,9.211C29.904,8.916 30.076,8.517 30.076,8.101L30.076,3.396C30.076,2.98 29.904,2.581 29.599,2.286C29.293,1.992 28.879,1.827 28.446,1.827Z" fill="#000000"/>
</mask>
<rect  x="-0.591" y="-0.84" width="32" height="32" fill="#8F9098"/>
</svg>
