<svg width="34" height="32" viewBox="0 0 34 32" fill="none" xmlns="http://www.w3.org/2000/svg" xmlns:xlink="http://www.w3.org/1999/xlink">
<mask id="mask_0_i_251_5606;38_1823;36_1808" style="mask-type:alpha" maskUnits="userSpaceOnUse" x="2.069092" y="2.666748" width="14.666666" height="13.333334">
<path d="M29.773,2.667L3.699,2.667C3.267,2.667 2.852,2.832 2.546,3.126C2.241,3.42 2.069,3.819 2.069,4.235L2.069,8.941C2.069,9.357 2.241,9.756 2.546,10.05C2.852,10.345 3.267,10.51 3.699,10.51C4.131,10.51 4.545,10.345 4.851,10.05C5.157,9.756 5.328,9.357 5.328,8.941L5.328,5.804L15.106,5.804L15.106,26.196L11.847,26.196C11.415,26.196 11,26.361 10.695,26.656C10.389,26.95 10.217,27.349 10.217,27.765C10.217,28.181 10.389,28.58 10.695,28.874C11,29.168 11.415,29.333 11.847,29.333L21.625,29.333C22.057,29.333 22.471,29.168 22.777,28.874C23.082,28.58 23.254,28.181 23.254,27.765C23.254,27.349 23.082,26.95 22.777,26.656C22.471,26.361 22.057,26.196 21.625,26.196L18.365,26.196L18.365,5.804L28.143,5.804L28.143,8.941C28.143,9.357 28.315,9.756 28.62,10.05C28.926,10.345 29.34,10.51 29.773,10.51C30.205,10.51 30.619,10.345 30.925,10.05C31.231,9.756 31.402,9.357 31.402,8.941L31.402,4.235C31.402,3.819 31.231,3.42 30.925,3.126C30.619,2.832 30.205,2.667 29.773,2.667Z" fill="#000000"/>
</mask>
<rect  x="0.736" y="0" width="32" height="32" fill="#8F9098"/>
</svg>
