<svg width="32" height="34" viewBox="0 0 32 34" fill="none" xmlns="http://www.w3.org/2000/svg" xmlns:xlink="http://www.w3.org/1999/xlink">
<mask id="mask_0_i_256_4918;38_1823;36_1808" style="mask-type:alpha" maskUnits="userSpaceOnUse" x="0.603516" y="2.803223" width="14.666666" height="13.333334">
<path d="M28.307,2.803L2.233,2.803C1.801,2.803 1.386,2.968 1.081,3.263C0.775,3.557 0.604,3.956 0.604,4.372L0.604,9.078C0.604,9.494 0.775,9.893 1.081,10.187C1.386,10.481 1.801,10.646 2.233,10.646C2.665,10.646 3.08,10.481 3.385,10.187C3.691,9.893 3.863,9.494 3.863,9.078L3.863,5.94L13.641,5.94L13.641,26.333L10.381,26.333C9.949,26.333 9.535,26.498 9.229,26.792C8.923,27.086 8.752,27.485 8.752,27.901C8.752,28.317 8.923,28.716 9.229,29.01C9.535,29.305 9.949,29.47 10.381,29.47L20.159,29.47C20.591,29.47 21.006,29.305 21.311,29.01C21.617,28.716 21.789,28.317 21.789,27.901C21.789,27.485 21.617,27.086 21.311,26.792C21.006,26.498 20.591,26.333 20.159,26.333L16.9,26.333L16.9,5.94L26.678,5.94L26.678,9.078C26.678,9.494 26.849,9.893 27.155,10.187C27.461,10.481 27.875,10.646 28.307,10.646C28.74,10.646 29.154,10.481 29.46,10.187C29.765,9.893 29.937,9.494 29.937,9.078L29.937,4.372C29.937,3.956 29.765,3.557 29.46,3.263C29.154,2.968 28.74,2.803 28.307,2.803Z" fill="#000000"/>
</mask>
<rect  x="-0.729" y="0.136" width="32" height="32" fill="#8F9098"/>
</svg>
