<svg width="32" height="32" viewBox="0 0 32 32" fill="none" xmlns="http://www.w3.org/2000/svg" xmlns:xlink="http://www.w3.org/1999/xlink">
<mask id="mask_0_i_249_4991;38_1823;36_1808" style="mask-type:alpha" maskUnits="userSpaceOnUse" x="1.023438" y="2.508545" width="14.666666" height="13.333334">
<path d="M28.727,2.509L2.653,2.509C2.221,2.509 1.806,2.674 1.501,2.968C1.195,3.262 1.023,3.661 1.023,4.077L1.023,8.783C1.023,9.199 1.195,9.598 1.501,9.892C1.806,10.186 2.221,10.352 2.653,10.352C3.085,10.352 3.5,10.186 3.805,9.892C4.111,9.598 4.283,9.199 4.283,8.783L4.283,5.646L14.06,5.646L14.06,26.038L10.801,26.038C10.369,26.038 9.955,26.203 9.649,26.497C9.343,26.792 9.172,27.191 9.172,27.607C9.172,28.023 9.343,28.422 9.649,28.716C9.955,29.01 10.369,29.175 10.801,29.175L20.579,29.175C21.011,29.175 21.426,29.01 21.731,28.716C22.037,28.422 22.209,28.023 22.209,27.607C22.209,27.191 22.037,26.792 21.731,26.497C21.426,26.203 21.011,26.038 20.579,26.038L17.32,26.038L17.32,5.646L27.097,5.646L27.097,8.783C27.097,9.199 27.269,9.598 27.575,9.892C27.88,10.186 28.295,10.352 28.727,10.352C29.159,10.352 29.574,10.186 29.879,9.892C30.185,9.598 30.357,9.199 30.357,8.783L30.357,4.077C30.357,3.661 30.185,3.262 29.879,2.968C29.574,2.674 29.159,2.509 28.727,2.509Z" fill="#000000"/>
</mask>
<rect  x="-0.311" y="-0.158" width="32" height="32" fill="#8F9098"/>
</svg>
