<svg width="32" height="32" viewBox="0 0 32 32" fill="none" xmlns="http://www.w3.org/2000/svg" xmlns:xlink="http://www.w3.org/1999/xlink">
<mask id="mask_0_i_258_5151;38_1823;36_1808" style="mask-type:alpha" maskUnits="userSpaceOnUse" x="0.570313" y="2.666626" width="14.666666" height="13.333334">
<path d="M28.274,2.667L2.2,2.667C1.768,2.667 1.353,2.832 1.048,3.126C0.742,3.42 0.57,3.819 0.57,4.235L0.57,8.941C0.57,9.357 0.742,9.756 1.048,10.05C1.353,10.345 1.768,10.51 2.2,10.51C2.632,10.51 3.047,10.345 3.352,10.05C3.658,9.756 3.83,9.357 3.83,8.941L3.83,5.804L13.607,5.804L13.607,26.196L10.348,26.196C9.916,26.196 9.501,26.361 9.196,26.655C8.89,26.95 8.718,27.349 8.718,27.765C8.718,28.181 8.89,28.58 9.196,28.874C9.501,29.168 9.916,29.333 10.348,29.333L20.126,29.333C20.558,29.333 20.973,29.168 21.278,28.874C21.584,28.58 21.756,28.181 21.756,27.765C21.756,27.349 21.584,26.95 21.278,26.655C20.973,26.361 20.558,26.196 20.126,26.196L16.867,26.196L16.867,5.804L26.644,5.804L26.644,8.941C26.644,9.357 26.816,9.756 27.122,10.05C27.427,10.345 27.842,10.51 28.274,10.51C28.706,10.51 29.121,10.345 29.426,10.05C29.732,9.756 29.904,9.357 29.904,8.941L29.904,4.235C29.904,3.819 29.732,3.42 29.426,3.126C29.121,2.832 28.706,2.667 28.274,2.667Z" fill="#000000"/>
</mask>
<rect  x="-0.764" y="0" width="32" height="32" fill="#8F9098"/>
</svg>
