<svg width="34" height="32" viewBox="0 0 34 32" fill="none" xmlns="http://www.w3.org/2000/svg" xmlns:xlink="http://www.w3.org/1999/xlink">
<mask id="mask_0_i_256_4906;38_1823;36_1808" style="mask-type:alpha" maskUnits="userSpaceOnUse" x="1.335449" y="2.328857" width="14.666666" height="13.333334">
<path d="M29.039,2.329L2.965,2.329C2.533,2.329 2.118,2.494 1.813,2.788C1.507,3.082 1.335,3.481 1.335,3.897L1.335,8.603C1.335,9.019 1.507,9.418 1.813,9.713C2.118,10.007 2.533,10.172 2.965,10.172C3.397,10.172 3.812,10.007 4.117,9.713C4.423,9.418 4.595,9.019 4.595,8.603L4.595,5.466L14.372,5.466L14.372,25.858L11.113,25.858C10.681,25.858 10.267,26.023 9.961,26.318C9.655,26.612 9.484,27.011 9.484,27.427C9.484,27.843 9.655,28.242 9.961,28.536C10.267,28.83 10.681,28.995 11.113,28.995L20.891,28.995C21.323,28.995 21.738,28.83 22.043,28.536C22.349,28.242 22.521,27.843 22.521,27.427C22.521,27.011 22.349,26.612 22.043,26.318C21.738,26.023 21.323,25.858 20.891,25.858L17.632,25.858L17.632,5.466L27.409,5.466L27.409,8.603C27.409,9.019 27.581,9.418 27.887,9.713C28.192,10.007 28.607,10.172 29.039,10.172C29.471,10.172 29.886,10.007 30.191,9.713C30.497,9.418 30.669,9.019 30.669,8.603L30.669,3.897C30.669,3.481 30.497,3.082 30.191,2.788C29.886,2.494 29.471,2.329 29.039,2.329Z" fill="#000000"/>
</mask>
<rect  x="0.002" y="-0.338" width="32" height="32" fill="#8F9098"/>
</svg>
