<svg width="32" height="32" viewBox="0 0 32 32" fill="none" xmlns="http://www.w3.org/2000/svg" xmlns:xlink="http://www.w3.org/1999/xlink">
<mask id="mask_0_i_256_5073;38_1823;36_1808" style="mask-type:alpha" maskUnits="userSpaceOnUse" x="0.603516" y="2.666748" width="14.666666" height="13.333334">
<path d="M28.307,2.667L2.233,2.667C1.801,2.667 1.386,2.832 1.081,3.126C0.775,3.42 0.604,3.819 0.604,4.235L0.604,8.941C0.604,9.357 0.775,9.756 1.081,10.05C1.386,10.345 1.801,10.51 2.233,10.51C2.665,10.51 3.08,10.345 3.385,10.05C3.691,9.756 3.863,9.357 3.863,8.941L3.863,5.804L13.641,5.804L13.641,26.196L10.381,26.196C9.949,26.196 9.535,26.361 9.229,26.656C8.923,26.95 8.752,27.349 8.752,27.765C8.752,28.181 8.923,28.58 9.229,28.874C9.535,29.168 9.949,29.333 10.381,29.333L20.159,29.333C20.591,29.333 21.006,29.168 21.311,28.874C21.617,28.58 21.789,28.181 21.789,27.765C21.789,27.349 21.617,26.95 21.311,26.656C21.006,26.361 20.591,26.196 20.159,26.196L16.9,26.196L16.9,5.804L26.678,5.804L26.678,8.941C26.678,9.357 26.849,9.756 27.155,10.05C27.461,10.345 27.875,10.51 28.307,10.51C28.74,10.51 29.154,10.345 29.46,10.05C29.765,9.756 29.937,9.357 29.937,8.941L29.937,4.235C29.937,3.819 29.765,3.42 29.46,3.126C29.154,2.832 28.74,2.667 28.307,2.667Z" fill="#000000"/>
</mask>
<rect  x="-0.729" y="0" width="32" height="32" fill="#8F9098"/>
</svg>
