<svg width="34" height="34" viewBox="0 0 34 34" fill="none" xmlns="http://www.w3.org/2000/svg" xmlns:xlink="http://www.w3.org/1999/xlink">
<mask id="mask_0_i_251_6282;38_1823;36_1808" style="mask-type:alpha" maskUnits="userSpaceOnUse" x="1.911133" y="3.422363" width="14.666666" height="13.333334">
<path d="M29.615,3.422L3.541,3.422C3.109,3.422 2.694,3.588 2.388,3.882C2.083,4.176 1.911,4.575 1.911,4.991L1.911,9.697C1.911,10.113 2.083,10.512 2.388,10.806C2.694,11.1 3.109,11.266 3.541,11.266C3.973,11.266 4.387,11.1 4.693,10.806C4.999,10.512 5.17,10.113 5.17,9.697L5.17,6.56L14.948,6.56L14.948,26.952L11.689,26.952C11.257,26.952 10.842,27.117 10.537,27.411C10.231,27.705 10.059,28.104 10.059,28.52C10.059,28.936 10.231,29.335 10.537,29.63C10.842,29.924 11.257,30.089 11.689,30.089L21.467,30.089C21.899,30.089 22.313,29.924 22.619,29.63C22.925,29.335 23.096,28.936 23.096,28.52C23.096,28.104 22.925,27.705 22.619,27.411C22.313,27.117 21.899,26.952 21.467,26.952L18.207,26.952L18.207,6.56L27.985,6.56L27.985,9.697C27.985,10.113 28.157,10.512 28.463,10.806C28.768,11.1 29.183,11.266 29.615,11.266C30.047,11.266 30.462,11.1 30.767,10.806C31.073,10.512 31.245,10.113 31.245,9.697L31.245,4.991C31.245,4.575 31.073,4.176 30.767,3.882C30.462,3.588 30.047,3.422 29.615,3.422Z" fill="#000000"/>
</mask>
<rect  x="0.578" y="0.756" width="32" height="32" fill="#8F9098"/>
</svg>
