<svg width="34" height="32" viewBox="0 0 34 32" fill="none" xmlns="http://www.w3.org/2000/svg" xmlns:xlink="http://www.w3.org/1999/xlink">
<mask id="mask_0_i_258_5152;38_1823;36_1808" style="mask-type:alpha" maskUnits="userSpaceOnUse" x="1.927734" y="2.666626" width="14.666666" height="13.333334">
<path d="M29.632,2.667L3.557,2.667C3.125,2.667 2.711,2.832 2.405,3.126C2.099,3.42 1.928,3.819 1.928,4.235L1.928,8.941C1.928,9.357 2.099,9.756 2.405,10.05C2.711,10.345 3.125,10.51 3.557,10.51C3.99,10.51 4.404,10.345 4.71,10.05C5.015,9.756 5.187,9.357 5.187,8.941L5.187,5.804L14.965,5.804L14.965,26.196L11.706,26.196C11.273,26.196 10.859,26.361 10.553,26.655C10.248,26.95 10.076,27.349 10.076,27.765C10.076,28.181 10.248,28.58 10.553,28.874C10.859,29.168 11.273,29.333 11.706,29.333L21.483,29.333C21.915,29.333 22.33,29.168 22.636,28.874C22.941,28.58 23.113,28.181 23.113,27.765C23.113,27.349 22.941,26.95 22.636,26.655C22.33,26.361 21.915,26.196 21.483,26.196L18.224,26.196L18.224,5.804L28.002,5.804L28.002,8.941C28.002,9.357 28.174,9.756 28.479,10.05C28.785,10.345 29.199,10.51 29.632,10.51C30.064,10.51 30.478,10.345 30.784,10.05C31.089,9.756 31.261,9.357 31.261,8.941L31.261,4.235C31.261,3.819 31.089,3.42 30.784,3.126C30.478,2.832 30.064,2.667 29.632,2.667Z" fill="#000000"/>
</mask>
<rect  x="0.594" y="0" width="32" height="32" fill="#8F9098"/>
</svg>
