<svg width="32" height="32" viewBox="0 0 32 32" fill="none" xmlns="http://www.w3.org/2000/svg" xmlns:xlink="http://www.w3.org/1999/xlink">
<mask id="mask_0_i_245_3189;38_1823;36_1808" style="mask-type:alpha" maskUnits="userSpaceOnUse" x="0.802734" y="2.666748" width="14.666666" height="13.333334">
<path d="M28.507,2.667L2.432,2.667C2,2.667 1.586,2.832 1.28,3.126C0.974,3.42 0.803,3.819 0.803,4.235L0.803,8.941C0.803,9.357 0.974,9.756 1.28,10.05C1.586,10.345 2,10.51 2.432,10.51C2.865,10.51 3.279,10.345 3.585,10.05C3.89,9.756 4.062,9.357 4.062,8.941L4.062,5.804L13.84,5.804L13.84,26.196L10.581,26.196C10.148,26.196 9.734,26.361 9.428,26.656C9.123,26.95 8.951,27.349 8.951,27.765C8.951,28.181 9.123,28.58 9.428,28.874C9.734,29.168 10.148,29.333 10.581,29.333L20.358,29.333C20.79,29.333 21.205,29.168 21.511,28.874C21.816,28.58 21.988,28.181 21.988,27.765C21.988,27.349 21.816,26.95 21.511,26.656C21.205,26.361 20.79,26.196 20.358,26.196L17.099,26.196L17.099,5.804L26.877,5.804L26.877,8.941C26.877,9.357 27.049,9.756 27.354,10.05C27.66,10.345 28.074,10.51 28.507,10.51C28.939,10.51 29.353,10.345 29.659,10.05C29.964,9.756 30.136,9.357 30.136,8.941L30.136,4.235C30.136,3.819 29.964,3.42 29.659,3.126C29.353,2.832 28.939,2.667 28.507,2.667Z" fill="#000000"/>
</mask>
<rect  x="-0.531" y="0" width="32" height="32" fill="#8F9098"/>
</svg>
