<svg width="34" height="32" viewBox="0 0 34 32" fill="none" xmlns="http://www.w3.org/2000/svg" xmlns:xlink="http://www.w3.org/1999/xlink">
<mask id="mask_0_i_257_4754;38_1823;36_1808" style="mask-type:alpha" maskUnits="userSpaceOnUse" x="1.779297" y="2.666748" width="14.666666" height="13.333334">
<path d="M29.483,2.667L3.409,2.667C2.977,2.667 2.562,2.832 2.257,3.126C1.951,3.42 1.779,3.819 1.779,4.235L1.779,8.941C1.779,9.357 1.951,9.756 2.257,10.05C2.562,10.345 2.977,10.51 3.409,10.51C3.841,10.51 4.256,10.345 4.561,10.05C4.867,9.756 5.039,9.357 5.039,8.941L5.039,5.804L14.816,5.804L14.816,26.196L11.557,26.196C11.125,26.196 10.71,26.361 10.405,26.656C10.099,26.95 9.927,27.349 9.927,27.765C9.927,28.181 10.099,28.58 10.405,28.874C10.71,29.168 11.125,29.333 11.557,29.333L21.335,29.333C21.767,29.333 22.181,29.168 22.487,28.874C22.793,28.58 22.964,28.181 22.964,27.765C22.964,27.349 22.793,26.95 22.487,26.656C22.181,26.361 21.767,26.196 21.335,26.196L18.076,26.196L18.076,5.804L27.853,5.804L27.853,8.941C27.853,9.357 28.025,9.756 28.331,10.05C28.636,10.345 29.051,10.51 29.483,10.51C29.915,10.51 30.33,10.345 30.635,10.05C30.941,9.756 31.113,9.357 31.113,8.941L31.113,4.235C31.113,3.819 30.941,3.42 30.635,3.126C30.33,2.832 29.915,2.667 29.483,2.667Z" fill="#000000"/>
</mask>
<rect  x="0.445" y="0" width="32" height="32" fill="#8F9098"/>
</svg>
