<svg width="32" height="34" viewBox="0 0 32 34" fill="none" xmlns="http://www.w3.org/2000/svg" xmlns:xlink="http://www.w3.org/1999/xlink">
<mask id="mask_0_i_252_7206;38_1823;36_1808" style="mask-type:alpha" maskUnits="userSpaceOnUse" x="0.742676" y="3.138916" width="14.666666" height="13.333334">
<path d="M28.446,3.139L2.372,3.139C1.94,3.139 1.526,3.304 1.22,3.598C0.914,3.893 0.743,4.292 0.743,4.708L0.743,9.413C0.743,9.829 0.914,10.228 1.22,10.523C1.526,10.817 1.94,10.982 2.372,10.982C2.805,10.982 3.219,10.817 3.525,10.523C3.83,10.228 4.002,9.829 4.002,9.413L4.002,6.276L13.78,6.276L13.78,26.668L10.52,26.668C10.088,26.668 9.674,26.834 9.368,27.128C9.063,27.422 8.891,27.821 8.891,28.237C8.891,28.653 9.063,29.052 9.368,29.346C9.674,29.64 10.088,29.806 10.52,29.806L20.298,29.806C20.73,29.806 21.145,29.64 21.45,29.346C21.756,29.052 21.928,28.653 21.928,28.237C21.928,27.821 21.756,27.422 21.45,27.128C21.145,26.834 20.73,26.668 20.298,26.668L17.039,26.668L17.039,6.276L26.817,6.276L26.817,9.413C26.817,9.829 26.988,10.228 27.294,10.523C27.6,10.817 28.014,10.982 28.446,10.982C28.879,10.982 29.293,10.817 29.599,10.523C29.904,10.228 30.076,9.829 30.076,9.413L30.076,4.708C30.076,4.292 29.904,3.893 29.599,3.598C29.293,3.304 28.879,3.139 28.446,3.139Z" fill="#000000"/>
</mask>
<rect  x="-0.591" y="0.472" width="32" height="32" fill="#8F9098"/>
</svg>
