<svg width="32" height="32" viewBox="0 0 32 32" fill="none" xmlns="http://www.w3.org/2000/svg" xmlns:xlink="http://www.w3.org/1999/xlink">
<mask id="mask_0_i_252_7217;38_1823;36_1808" style="mask-type:alpha" maskUnits="userSpaceOnUse" x="0.742676" y="2.661377" width="14.666666" height="13.333334">
<path d="M28.446,2.661L2.372,2.661C1.94,2.661 1.526,2.827 1.22,3.121C0.914,3.415 0.743,3.814 0.743,4.23L0.743,8.936C0.743,9.352 0.914,9.751 1.22,10.045C1.526,10.339 1.94,10.505 2.372,10.505C2.805,10.505 3.219,10.339 3.525,10.045C3.83,9.751 4.002,9.352 4.002,8.936L4.002,5.799L13.78,5.799L13.78,26.191L10.52,26.191C10.088,26.191 9.674,26.356 9.368,26.65C9.063,26.944 8.891,27.343 8.891,27.759C8.891,28.175 9.063,28.574 9.368,28.869C9.674,29.163 10.088,29.328 10.52,29.328L20.298,29.328C20.73,29.328 21.145,29.163 21.45,28.869C21.756,28.574 21.928,28.175 21.928,27.759C21.928,27.343 21.756,26.944 21.45,26.65C21.145,26.356 20.73,26.191 20.298,26.191L17.039,26.191L17.039,5.799L26.817,5.799L26.817,8.936C26.817,9.352 26.988,9.751 27.294,10.045C27.6,10.339 28.014,10.505 28.446,10.505C28.879,10.505 29.293,10.339 29.599,10.045C29.904,9.751 30.076,9.352 30.076,8.936L30.076,4.23C30.076,3.814 29.904,3.415 29.599,3.121C29.293,2.827 28.879,2.661 28.446,2.661Z" fill="#000000"/>
</mask>
<rect  x="-0.591" y="-0.005" width="32" height="32" fill="#8F9098"/>
</svg>
