<svg width="32" height="32" viewBox="0 0 32 32" fill="none" xmlns="http://www.w3.org/2000/svg" xmlns:xlink="http://www.w3.org/1999/xlink">
<mask id="mask_0_i_248_3986;38_1823;36_1808" style="mask-type:alpha" maskUnits="userSpaceOnUse" x="0.751953" y="2.260254" width="14.666666" height="13.333334">
<path d="M28.456,2.26L2.382,2.26C1.949,2.26 1.535,2.426 1.229,2.72C0.924,3.014 0.752,3.413 0.752,3.829L0.752,8.535C0.752,8.951 0.924,9.35 1.229,9.644C1.535,9.938 1.949,10.103 2.382,10.103C2.814,10.103 3.228,9.938 3.534,9.644C3.84,9.35 4.011,8.951 4.011,8.535L4.011,5.398L13.789,5.398L13.789,25.79L10.53,25.79C10.098,25.79 9.683,25.955 9.377,26.249C9.072,26.543 8.9,26.942 8.9,27.358C8.9,27.774 9.072,28.173 9.377,28.467C9.683,28.762 10.098,28.927 10.53,28.927L20.308,28.927C20.74,28.927 21.154,28.762 21.46,28.467C21.765,28.173 21.937,27.774 21.937,27.358C21.937,26.942 21.765,26.543 21.46,26.249C21.154,25.955 20.74,25.79 20.308,25.79L17.048,25.79L17.048,5.398L26.826,5.398L26.826,8.535C26.826,8.951 26.998,9.35 27.303,9.644C27.609,9.938 28.023,10.103 28.456,10.103C28.888,10.103 29.302,9.938 29.608,9.644C29.914,9.35 30.085,8.951 30.085,8.535L30.085,3.829C30.085,3.413 29.914,3.014 29.608,2.72C29.302,2.426 28.888,2.26 28.456,2.26Z" fill="#000000"/>
</mask>
<rect  x="-0.582" y="-0.406" width="32" height="32" fill="#8F9098"/>
</svg>
