<svg width="32" height="32" viewBox="0 0 32 32" fill="none" xmlns="http://www.w3.org/2000/svg" xmlns:xlink="http://www.w3.org/1999/xlink">
<mask id="mask_0_i_252_7490;38_1823;36_1808" style="mask-type:alpha" maskUnits="userSpaceOnUse" x="0.602539" y="2.120117" width="14.666666" height="13.333334">
<path d="M28.306,2.12L2.232,2.12C1.8,2.12 1.385,2.285 1.08,2.58C0.774,2.874 0.603,3.273 0.603,3.689L0.603,8.395C0.603,8.811 0.774,9.21 1.08,9.504C1.385,9.798 1.8,9.963 2.232,9.963C2.664,9.963 3.079,9.798 3.384,9.504C3.69,9.21 3.862,8.811 3.862,8.395L3.862,5.257L13.64,5.257L13.64,25.65L10.38,25.65C9.948,25.65 9.534,25.815 9.228,26.109C8.922,26.403 8.751,26.802 8.751,27.218C8.751,27.634 8.922,28.033 9.228,28.327C9.534,28.622 9.948,28.787 10.38,28.787L20.158,28.787C20.59,28.787 21.005,28.622 21.31,28.327C21.616,28.033 21.788,27.634 21.788,27.218C21.788,26.802 21.616,26.403 21.31,26.109C21.005,25.815 20.59,25.65 20.158,25.65L16.899,25.65L16.899,5.257L26.677,5.257L26.677,8.395C26.677,8.811 26.848,9.21 27.154,9.504C27.46,9.798 27.874,9.963 28.306,9.963C28.739,9.963 29.153,9.798 29.459,9.504C29.764,9.21 29.936,8.811 29.936,8.395L29.936,3.689C29.936,3.273 29.764,2.874 29.459,2.58C29.153,2.285 28.739,2.12 28.306,2.12Z" fill="#000000"/>
</mask>
<rect  x="-0.731" y="-0.547" width="32" height="32" fill="#8F9098"/>
</svg>
