<svg width="34" height="32" viewBox="0 0 34 32" fill="none" xmlns="http://www.w3.org/2000/svg" xmlns:xlink="http://www.w3.org/1999/xlink">
<mask id="mask_0_i_249_4772;38_1823;36_1808" style="mask-type:alpha" maskUnits="userSpaceOnUse" x="2.227539" y="2.666992" width="14.666666" height="13.333334">
<path d="M29.931,2.667L3.857,2.667C3.425,2.667 3.01,2.832 2.705,3.126C2.399,3.421 2.228,3.82 2.228,4.236L2.228,8.941C2.228,9.358 2.399,9.757 2.705,10.051C3.01,10.345 3.425,10.51 3.857,10.51C4.289,10.51 4.704,10.345 5.009,10.051C5.315,9.757 5.487,9.358 5.487,8.941L5.487,5.804L15.265,5.804L15.265,26.196L12.005,26.196C11.573,26.196 11.159,26.362 10.853,26.656C10.547,26.95 10.376,27.349 10.376,27.765C10.376,28.181 10.547,28.58 10.853,28.874C11.159,29.168 11.573,29.334 12.005,29.334L21.783,29.334C22.215,29.334 22.63,29.168 22.935,28.874C23.241,28.58 23.413,28.181 23.413,27.765C23.413,27.349 23.241,26.95 22.935,26.656C22.63,26.362 22.215,26.196 21.783,26.196L18.524,26.196L18.524,5.804L28.302,5.804L28.302,8.941C28.302,9.358 28.473,9.757 28.779,10.051C29.085,10.345 29.499,10.51 29.931,10.51C30.364,10.51 30.778,10.345 31.084,10.051C31.389,9.757 31.561,9.358 31.561,8.941L31.561,4.236C31.561,3.82 31.389,3.421 31.084,3.126C30.778,2.832 30.364,2.667 29.931,2.667Z" fill="#000000"/>
</mask>
<rect  x="0.895" y="0" width="32" height="32" fill="#8F9098"/>
</svg>
