<svg width="32" height="34" viewBox="0 0 32 34" fill="none" xmlns="http://www.w3.org/2000/svg" xmlns:xlink="http://www.w3.org/1999/xlink">
<mask id="mask_0_i_259_6348;38_1823;36_1808" style="mask-type:alpha" maskUnits="userSpaceOnUse" x="0.859375" y="3.402832" width="14.666666" height="13.333334">
<path d="M28.563,3.403L2.489,3.403C2.057,3.403 1.642,3.568 1.337,3.862C1.031,4.156 0.859,4.555 0.859,4.971L0.859,9.677C0.859,10.093 1.031,10.492 1.337,10.787C1.642,11.081 2.057,11.246 2.489,11.246C2.921,11.246 3.336,11.081 3.641,10.787C3.947,10.492 4.119,10.093 4.119,9.677L4.119,6.54L13.896,6.54L13.896,26.932L10.637,26.932C10.205,26.932 9.79,27.097 9.485,27.392C9.179,27.686 9.008,28.085 9.008,28.501C9.008,28.917 9.179,29.316 9.485,29.61C9.79,29.904 10.205,30.069 10.637,30.069L20.415,30.069C20.847,30.069 21.262,29.904 21.567,29.61C21.873,29.316 22.045,28.917 22.045,28.501C22.045,28.085 21.873,27.686 21.567,27.392C21.262,27.097 20.847,26.932 20.415,26.932L17.156,26.932L17.156,6.54L26.933,6.54L26.933,9.677C26.933,10.093 27.105,10.492 27.411,10.787C27.716,11.081 28.131,11.246 28.563,11.246C28.995,11.246 29.41,11.081 29.715,10.787C30.021,10.492 30.193,10.093 30.193,9.677L30.193,4.971C30.193,4.555 30.021,4.156 29.715,3.862C29.41,3.568 28.995,3.403 28.563,3.403Z" fill="#000000"/>
</mask>
<rect  x="-0.474" y="0.736" width="32" height="32" fill="#8F9098"/>
</svg>
