<svg width="34" height="32" viewBox="0 0 34 32" fill="none" xmlns="http://www.w3.org/2000/svg" xmlns:xlink="http://www.w3.org/1999/xlink">
<mask id="mask_0_i_252_6422;38_1823;36_1808" style="mask-type:alpha" maskUnits="userSpaceOnUse" x="1.887695" y="2.666504" width="14.666666" height="13.333334">
<path d="M29.591,2.667L3.517,2.667C3.085,2.667 2.671,2.832 2.365,3.126C2.059,3.42 1.888,3.819 1.888,4.235L1.888,8.941C1.888,9.357 2.059,9.756 2.365,10.05C2.671,10.344 3.085,10.51 3.517,10.51C3.95,10.51 4.364,10.344 4.67,10.05C4.975,9.756 5.147,9.357 5.147,8.941L5.147,5.804L14.925,5.804L14.925,26.196L11.665,26.196C11.233,26.196 10.819,26.361 10.513,26.655C10.208,26.95 10.036,27.349 10.036,27.765C10.036,28.181 10.208,28.58 10.513,28.874C10.819,29.168 11.233,29.333 11.665,29.333L21.443,29.333C21.875,29.333 22.29,29.168 22.595,28.874C22.901,28.58 23.073,28.181 23.073,27.765C23.073,27.349 22.901,26.95 22.595,26.655C22.29,26.361 21.875,26.196 21.443,26.196L18.184,26.196L18.184,5.804L27.962,5.804L27.962,8.941C27.962,9.357 28.133,9.756 28.439,10.05C28.745,10.344 29.159,10.51 29.591,10.51C30.024,10.51 30.438,10.344 30.744,10.05C31.049,9.756 31.221,9.357 31.221,8.941L31.221,4.235C31.221,3.819 31.049,3.42 30.744,3.126C30.438,2.832 30.024,2.667 29.591,2.667Z" fill="#000000"/>
</mask>
<rect  x="0.555" y="0" width="32" height="32" fill="#8F9098"/>
</svg>
