<svg width="34" height="34" viewBox="0 0 34 34" fill="none" xmlns="http://www.w3.org/2000/svg" xmlns:xlink="http://www.w3.org/1999/xlink">
<mask id="mask_0_i_258_5781;38_1823;36_1808" style="mask-type:alpha" maskUnits="userSpaceOnUse" x="2.279297" y="3.018066" width="14.666666" height="13.333334">
<path d="M29.983,3.018L3.909,3.018C3.477,3.018 3.062,3.183 2.757,3.478C2.451,3.772 2.279,4.171 2.279,4.587L2.279,9.293C2.279,9.709 2.451,10.108 2.757,10.402C3.062,10.696 3.477,10.861 3.909,10.861C4.341,10.861 4.756,10.696 5.061,10.402C5.367,10.108 5.539,9.709 5.539,9.293L5.539,6.155L15.316,6.155L15.316,26.547L12.057,26.547C11.625,26.547 11.21,26.713 10.905,27.007C10.599,27.301 10.427,27.7 10.427,28.116C10.427,28.532 10.599,28.931 10.905,29.225C11.21,29.519 11.625,29.685 12.057,29.685L21.835,29.685C22.267,29.685 22.681,29.519 22.987,29.225C23.293,28.931 23.464,28.532 23.464,28.116C23.464,27.7 23.293,27.301 22.987,27.007C22.681,26.713 22.267,26.547 21.835,26.547L18.576,26.547L18.576,6.155L28.353,6.155L28.353,9.293C28.353,9.709 28.525,10.108 28.831,10.402C29.136,10.696 29.551,10.861 29.983,10.861C30.415,10.861 30.83,10.696 31.135,10.402C31.441,10.108 31.613,9.709 31.613,9.293L31.613,4.587C31.613,4.171 31.441,3.772 31.135,3.478C30.83,3.183 30.415,3.018 29.983,3.018Z" fill="#000000"/>
</mask>
<rect  x="0.945" y="0.351" width="32" height="32" fill="#8F9098"/>
</svg>
