<svg width="32" height="34" viewBox="0 0 32 34" fill="none" xmlns="http://www.w3.org/2000/svg" xmlns:xlink="http://www.w3.org/1999/xlink">
<mask id="mask_0_i_252_7526;38_1823;36_1808" style="mask-type:alpha" maskUnits="userSpaceOnUse" x="0.742676" y="2.739502" width="14.666666" height="13.333334">
<path d="M28.446,2.74L2.372,2.74C1.94,2.74 1.526,2.905 1.22,3.199C0.914,3.493 0.743,3.892 0.743,4.308L0.743,9.014C0.743,9.43 0.914,9.829 1.22,10.123C1.526,10.417 1.94,10.583 2.372,10.583C2.805,10.583 3.219,10.417 3.525,10.123C3.83,9.829 4.002,9.43 4.002,9.014L4.002,5.877L13.78,5.877L13.78,26.269L10.52,26.269C10.088,26.269 9.674,26.434 9.368,26.728C9.063,27.023 8.891,27.422 8.891,27.838C8.891,28.254 9.063,28.653 9.368,28.947C9.674,29.241 10.088,29.406 10.52,29.406L20.298,29.406C20.73,29.406 21.145,29.241 21.45,28.947C21.756,28.653 21.928,28.254 21.928,27.838C21.928,27.422 21.756,27.023 21.45,26.728C21.145,26.434 20.73,26.269 20.298,26.269L17.039,26.269L17.039,5.877L26.817,5.877L26.817,9.014C26.817,9.43 26.988,9.829 27.294,10.123C27.6,10.417 28.014,10.583 28.446,10.583C28.879,10.583 29.293,10.417 29.599,10.123C29.904,9.829 30.076,9.43 30.076,9.014L30.076,4.308C30.076,3.892 29.904,3.493 29.599,3.199C29.293,2.905 28.879,2.74 28.446,2.74Z" fill="#000000"/>
</mask>
<rect  x="-0.591" y="0.073" width="32" height="32" fill="#8F9098"/>
</svg>
