<svg width="32" height="34" viewBox="0 0 32 34" fill="none" xmlns="http://www.w3.org/2000/svg" xmlns:xlink="http://www.w3.org/1999/xlink">
<mask id="mask_0_i_249_4973;38_1823;36_1808" style="mask-type:alpha" maskUnits="userSpaceOnUse" x="0.501953" y="2.724609" width="14.666666" height="13.333334">
<path d="M28.206,2.725L2.132,2.725C1.699,2.725 1.285,2.89 0.979,3.184C0.674,3.478 0.502,3.877 0.502,4.293L0.502,8.999C0.502,9.415 0.674,9.814 0.979,10.108C1.285,10.402 1.699,10.568 2.132,10.568C2.564,10.568 2.978,10.402 3.284,10.108C3.59,9.814 3.761,9.415 3.761,8.999L3.761,5.862L13.539,5.862L13.539,26.254L10.28,26.254C9.848,26.254 9.433,26.419 9.127,26.713C8.822,27.008 8.65,27.407 8.65,27.823C8.65,28.239 8.822,28.638 9.127,28.932C9.433,29.226 9.848,29.391 10.28,29.391L20.058,29.391C20.49,29.391 20.904,29.226 21.21,28.932C21.515,28.638 21.687,28.239 21.687,27.823C21.687,27.407 21.515,27.008 21.21,26.713C20.904,26.419 20.49,26.254 20.058,26.254L16.798,26.254L16.798,5.862L26.576,5.862L26.576,8.999C26.576,9.415 26.748,9.814 27.053,10.108C27.359,10.402 27.773,10.568 28.206,10.568C28.638,10.568 29.052,10.402 29.358,10.108C29.664,9.814 29.835,9.415 29.835,8.999L29.835,4.293C29.835,3.877 29.664,3.478 29.358,3.184C29.052,2.89 28.638,2.725 28.206,2.725Z" fill="#000000"/>
</mask>
<rect  x="-0.831" y="0.058" width="32" height="32" fill="#8F9098"/>
</svg>
