<svg width="34" height="34" viewBox="0 0 34 34" fill="none" xmlns="http://www.w3.org/2000/svg" xmlns:xlink="http://www.w3.org/1999/xlink">
<mask id="mask_0_i_256_4884;38_1823;36_1808" style="mask-type:alpha" maskUnits="userSpaceOnUse" x="1.335449" y="2.704834" width="14.666666" height="13.333334">
<path d="M29.039,2.705L2.965,2.705C2.533,2.705 2.118,2.87 1.813,3.164C1.507,3.458 1.335,3.857 1.335,4.273L1.335,8.979C1.335,9.395 1.507,9.794 1.813,10.089C2.118,10.383 2.533,10.548 2.965,10.548C3.397,10.548 3.812,10.383 4.117,10.089C4.423,9.794 4.595,9.395 4.595,8.979L4.595,5.842L14.372,5.842L14.372,26.234L11.113,26.234C10.681,26.234 10.267,26.399 9.961,26.694C9.655,26.988 9.484,27.387 9.484,27.803C9.484,28.219 9.655,28.618 9.961,28.912C10.267,29.206 10.681,29.371 11.113,29.371L20.891,29.371C21.323,29.371 21.738,29.206 22.043,28.912C22.349,28.618 22.521,28.219 22.521,27.803C22.521,27.387 22.349,26.988 22.043,26.694C21.738,26.399 21.323,26.234 20.891,26.234L17.632,26.234L17.632,5.842L27.409,5.842L27.409,8.979C27.409,9.395 27.581,9.794 27.887,10.089C28.192,10.383 28.607,10.548 29.039,10.548C29.471,10.548 29.886,10.383 30.191,10.089C30.497,9.794 30.669,9.395 30.669,8.979L30.669,4.273C30.669,3.857 30.497,3.458 30.191,3.164C29.886,2.87 29.471,2.705 29.039,2.705Z" fill="#000000"/>
</mask>
<rect  x="0.002" y="0.038" width="32" height="32" fill="#8F9098"/>
</svg>
