<svg width="32" height="34" viewBox="0 0 32 34" fill="none" xmlns="http://www.w3.org/2000/svg" xmlns:xlink="http://www.w3.org/1999/xlink">
<mask id="mask_0_i_252_7167;38_1823;36_1808" style="mask-type:alpha" maskUnits="userSpaceOnUse" x="1.114502" y="3.138916" width="14.666666" height="13.333334">
<path d="M28.818,3.139L2.744,3.139C2.312,3.139 1.897,3.304 1.592,3.598C1.286,3.893 1.115,4.292 1.115,4.708L1.115,9.413C1.115,9.829 1.286,10.228 1.592,10.523C1.897,10.817 2.312,10.982 2.744,10.982C3.176,10.982 3.591,10.817 3.896,10.523C4.202,10.228 4.374,9.829 4.374,9.413L4.374,6.276L14.152,6.276L14.152,26.668L10.892,26.668C10.46,26.668 10.046,26.834 9.74,27.128C9.434,27.422 9.263,27.821 9.263,28.237C9.263,28.653 9.434,29.052 9.74,29.346C10.046,29.64 10.46,29.806 10.892,29.806L20.67,29.806C21.102,29.806 21.517,29.64 21.822,29.346C22.128,29.052 22.3,28.653 22.3,28.237C22.3,27.821 22.128,27.422 21.822,27.128C21.517,26.834 21.102,26.668 20.67,26.668L17.411,26.668L17.411,6.276L27.189,6.276L27.189,9.413C27.189,9.829 27.36,10.228 27.666,10.523C27.972,10.817 28.386,10.982 28.818,10.982C29.251,10.982 29.665,10.817 29.971,10.523C30.276,10.228 30.448,9.829 30.448,9.413L30.448,4.708C30.448,4.292 30.276,3.893 29.971,3.598C29.665,3.304 29.251,3.139 28.818,3.139Z" fill="#000000"/>
</mask>
<rect  x="-0.219" y="0.472" width="32" height="32" fill="#8F9098"/>
</svg>
