<svg width="32" height="32" viewBox="0 0 32 32" fill="none" xmlns="http://www.w3.org/2000/svg" xmlns:xlink="http://www.w3.org/1999/xlink">
<mask id="mask_0_i_283_7001;38_1823;36_1808" style="mask-type:alpha" maskUnits="userSpaceOnUse" x="0.704102" y="1.666626" width="14.666666" height="13.333334">
<path d="M28.408,1.667L2.334,1.667C1.902,1.667 1.487,1.832 1.181,2.126C0.876,2.42 0.704,2.819 0.704,3.235L0.704,7.941C0.704,8.357 0.876,8.756 1.181,9.05C1.487,9.345 1.902,9.51 2.334,9.51C2.766,9.51 3.18,9.345 3.486,9.05C3.792,8.756 3.963,8.357 3.963,7.941L3.963,4.804L13.741,4.804L13.741,25.196L10.482,25.196C10.05,25.196 9.635,25.361 9.33,25.655C9.024,25.95 8.852,26.349 8.852,26.765C8.852,27.181 9.024,27.58 9.33,27.874C9.635,28.168 10.05,28.333 10.482,28.333L20.26,28.333C20.692,28.333 21.106,28.168 21.412,27.874C21.718,27.58 21.889,27.181 21.889,26.765C21.889,26.349 21.718,25.95 21.412,25.655C21.106,25.361 20.692,25.196 20.26,25.196L17,25.196L17,4.804L26.778,4.804L26.778,7.941C26.778,8.357 26.95,8.756 27.256,9.05C27.561,9.345 27.976,9.51 28.408,9.51C28.84,9.51 29.255,9.345 29.56,9.05C29.866,8.756 30.038,8.357 30.038,7.941L30.038,3.235C30.038,2.819 29.866,2.42 29.56,2.126C29.255,1.832 28.84,1.667 28.408,1.667Z" fill="#000000"/>
</mask>
<rect  x="-0.629" y="-1" width="32" height="32" fill="#8F9098"/>
</svg>
