<svg width="32" height="32" viewBox="0 0 32 32" fill="none" xmlns="http://www.w3.org/2000/svg" xmlns:xlink="http://www.w3.org/1999/xlink">
<mask id="mask_0_i_252_6726;38_1823;36_1808" style="mask-type:alpha" maskUnits="userSpaceOnUse" x="0.495117" y="2.666626" width="14.666666" height="13.333334">
<path d="M28.199,2.667L2.125,2.667C1.693,2.667 1.278,2.832 0.972,3.126C0.667,3.42 0.495,3.819 0.495,4.235L0.495,8.941C0.495,9.357 0.667,9.756 0.972,10.05C1.278,10.345 1.693,10.51 2.125,10.51C2.557,10.51 2.971,10.345 3.277,10.05C3.583,9.756 3.754,9.357 3.754,8.941L3.754,5.804L13.532,5.804L13.532,26.196L10.273,26.196C9.841,26.196 9.426,26.361 9.121,26.655C8.815,26.95 8.643,27.349 8.643,27.765C8.643,28.181 8.815,28.58 9.121,28.874C9.426,29.168 9.841,29.333 10.273,29.333L20.051,29.333C20.483,29.333 20.897,29.168 21.203,28.874C21.509,28.58 21.68,28.181 21.68,27.765C21.68,27.349 21.509,26.95 21.203,26.655C20.897,26.361 20.483,26.196 20.051,26.196L16.791,26.196L16.791,5.804L26.569,5.804L26.569,8.941C26.569,9.357 26.741,9.756 27.047,10.05C27.352,10.345 27.767,10.51 28.199,10.51C28.631,10.51 29.046,10.345 29.351,10.05C29.657,9.756 29.829,9.357 29.829,8.941L29.829,4.235C29.829,3.819 29.657,3.42 29.351,3.126C29.046,2.832 28.631,2.667 28.199,2.667Z" fill="#000000"/>
</mask>
<rect  x="-0.838" y="0" width="32" height="32" fill="#8F9098"/>
</svg>
