<svg width="34" height="32" viewBox="0 0 34 32" fill="none" xmlns="http://www.w3.org/2000/svg" xmlns:xlink="http://www.w3.org/1999/xlink">
<mask id="mask_0_i_252_7479;38_1823;36_1808" style="mask-type:alpha" maskUnits="userSpaceOnUse" x="2.029297" y="2.666748" width="14.666666" height="13.333334">
<path d="M29.733,2.667L3.659,2.667C3.227,2.667 2.812,2.832 2.507,3.126C2.201,3.42 2.029,3.819 2.029,4.235L2.029,8.941C2.029,9.357 2.201,9.756 2.507,10.05C2.812,10.345 3.227,10.51 3.659,10.51C4.091,10.51 4.506,10.345 4.811,10.05C5.117,9.756 5.289,9.357 5.289,8.941L5.289,5.804L15.066,5.804L15.066,26.196L11.807,26.196C11.375,26.196 10.96,26.361 10.655,26.656C10.349,26.95 10.177,27.349 10.177,27.765C10.177,28.181 10.349,28.58 10.655,28.874C10.96,29.168 11.375,29.333 11.807,29.333L21.585,29.333C22.017,29.333 22.431,29.168 22.737,28.874C23.043,28.58 23.214,28.181 23.214,27.765C23.214,27.349 23.043,26.95 22.737,26.656C22.431,26.361 22.017,26.196 21.585,26.196L18.326,26.196L18.326,5.804L28.103,5.804L28.103,8.941C28.103,9.357 28.275,9.756 28.581,10.05C28.886,10.345 29.301,10.51 29.733,10.51C30.165,10.51 30.58,10.345 30.885,10.05C31.191,9.756 31.363,9.357 31.363,8.941L31.363,4.235C31.363,3.819 31.191,3.42 30.885,3.126C30.58,2.832 30.165,2.667 29.733,2.667Z" fill="#000000"/>
</mask>
<rect  x="0.696" y="0" width="32" height="32" fill="#8F9098"/>
</svg>
