<svg width="32" height="32" viewBox="0 0 32 32" fill="none" xmlns="http://www.w3.org/2000/svg" xmlns:xlink="http://www.w3.org/1999/xlink">
<mask id="mask_0_i_263_4237;38_1823;36_1808" style="mask-type:alpha" maskUnits="userSpaceOnUse" x="1.17627" y="2.231201" width="14.666666" height="13.333334">
<path d="M28.88,2.231L2.806,2.231C2.374,2.231 1.959,2.396 1.654,2.691C1.348,2.985 1.176,3.384 1.176,3.8L1.176,8.506C1.176,8.922 1.348,9.321 1.654,9.615C1.959,9.909 2.374,10.074 2.806,10.074C3.238,10.074 3.653,9.909 3.958,9.615C4.264,9.321 4.436,8.922 4.436,8.506L4.436,5.368L14.213,5.368L14.213,25.761L10.954,25.761C10.522,25.761 10.107,25.926 9.802,26.22C9.496,26.514 9.324,26.913 9.324,27.329C9.324,27.745 9.496,28.144 9.802,28.438C10.107,28.733 10.522,28.898 10.954,28.898L20.732,28.898C21.164,28.898 21.578,28.733 21.884,28.438C22.19,28.144 22.361,27.745 22.361,27.329C22.361,26.913 22.19,26.514 21.884,26.22C21.578,25.926 21.164,25.761 20.732,25.761L17.473,25.761L17.473,5.368L27.25,5.368L27.25,8.506C27.25,8.922 27.422,9.321 27.728,9.615C28.033,9.909 28.448,10.074 28.88,10.074C29.312,10.074 29.727,9.909 30.032,9.615C30.338,9.321 30.51,8.922 30.51,8.506L30.51,3.8C30.51,3.384 30.338,2.985 30.032,2.691C29.727,2.396 29.312,2.231 28.88,2.231Z" fill="#000000"/>
</mask>
<rect  x="-0.157" y="-0.436" width="32" height="32" fill="#8F9098"/>
</svg>
