<svg width="32" height="32" viewBox="0 0 32 32" fill="none" xmlns="http://www.w3.org/2000/svg" xmlns:xlink="http://www.w3.org/1999/xlink">
<mask id="mask_0_i_263_4239;38_1823;36_1808" style="mask-type:alpha" maskUnits="userSpaceOnUse" x="1.17627" y="1.795166" width="14.666666" height="13.333334">
<path d="M28.88,1.795L2.806,1.795C2.374,1.795 1.959,1.96 1.654,2.255C1.348,2.549 1.176,2.948 1.176,3.364L1.176,8.07C1.176,8.486 1.348,8.885 1.654,9.179C1.959,9.473 2.374,9.638 2.806,9.638C3.238,9.638 3.653,9.473 3.958,9.179C4.264,8.885 4.436,8.486 4.436,8.07L4.436,4.932L14.213,4.932L14.213,25.325L10.954,25.325C10.522,25.325 10.107,25.49 9.802,25.784C9.496,26.078 9.324,26.477 9.324,26.893C9.324,27.309 9.496,27.708 9.802,28.002C10.107,28.297 10.522,28.462 10.954,28.462L20.732,28.462C21.164,28.462 21.578,28.297 21.884,28.002C22.19,27.708 22.361,27.309 22.361,26.893C22.361,26.477 22.19,26.078 21.884,25.784C21.578,25.49 21.164,25.325 20.732,25.325L17.473,25.325L17.473,4.932L27.25,4.932L27.25,8.07C27.25,8.486 27.422,8.885 27.728,9.179C28.033,9.473 28.448,9.638 28.88,9.638C29.312,9.638 29.727,9.473 30.032,9.179C30.338,8.885 30.51,8.486 30.51,8.07L30.51,3.364C30.51,2.948 30.338,2.549 30.032,2.255C29.727,1.96 29.312,1.795 28.88,1.795Z" fill="#000000"/>
</mask>
<rect  x="-0.157" y="-0.872" width="32" height="32" fill="#8F9098"/>
</svg>
