<svg width="34" height="32" viewBox="0 0 34 32" fill="none" xmlns="http://www.w3.org/2000/svg" xmlns:xlink="http://www.w3.org/1999/xlink">
<mask id="mask_0_i_261_6884;38_1823;36_1808" style="mask-type:alpha" maskUnits="userSpaceOnUse" x="1.75" y="2.078857" width="14.666666" height="13.333334">
<path d="M29.454,2.079L3.38,2.079C2.947,2.079 2.533,2.244 2.227,2.538C1.922,2.832 1.75,3.231 1.75,3.647L1.75,8.353C1.75,8.769 1.922,9.168 2.227,9.463C2.533,9.757 2.947,9.922 3.38,9.922C3.812,9.922 4.226,9.757 4.532,9.463C4.838,9.168 5.009,8.769 5.009,8.353L5.009,5.216L14.787,5.216L14.787,25.608L11.528,25.608C11.096,25.608 10.681,25.773 10.375,26.068C10.07,26.362 9.898,26.761 9.898,27.177C9.898,27.593 10.07,27.992 10.375,28.286C10.681,28.58 11.096,28.745 11.528,28.745L21.306,28.745C21.738,28.745 22.152,28.58 22.458,28.286C22.763,27.992 22.935,27.593 22.935,27.177C22.935,26.761 22.763,26.362 22.458,26.068C22.152,25.773 21.738,25.608 21.306,25.608L18.046,25.608L18.046,5.216L27.824,5.216L27.824,8.353C27.824,8.769 27.996,9.168 28.301,9.463C28.607,9.757 29.021,9.922 29.454,9.922C29.886,9.922 30.3,9.757 30.606,9.463C30.912,9.168 31.083,8.769 31.083,8.353L31.083,3.647C31.083,3.231 30.912,2.832 30.606,2.538C30.3,2.244 29.886,2.079 29.454,2.079Z" fill="#000000"/>
</mask>
<rect  x="0.417" y="-0.588" width="32" height="32" fill="#8F9098"/>
</svg>
