<svg width="32" height="32" viewBox="0 0 32 32" fill="none" xmlns="http://www.w3.org/2000/svg" xmlns:xlink="http://www.w3.org/1999/xlink">
<mask id="mask_0_i_252_6385;38_1823;36_1808" style="mask-type:alpha" maskUnits="userSpaceOnUse" x="0.885742" y="2.666504" width="14.666666" height="13.333334">
<path d="M28.59,2.667L2.515,2.667C2.083,2.667 1.669,2.832 1.363,3.126C1.057,3.42 0.886,3.819 0.886,4.235L0.886,8.941C0.886,9.357 1.057,9.756 1.363,10.05C1.669,10.344 2.083,10.51 2.515,10.51C2.948,10.51 3.362,10.344 3.668,10.05C3.973,9.756 4.145,9.357 4.145,8.941L4.145,5.804L13.923,5.804L13.923,26.196L10.664,26.196C10.231,26.196 9.817,26.361 9.511,26.655C9.206,26.95 9.034,27.349 9.034,27.765C9.034,28.181 9.206,28.58 9.511,28.874C9.817,29.168 10.231,29.333 10.664,29.333L20.441,29.333C20.874,29.333 21.288,29.168 21.594,28.874C21.899,28.58 22.071,28.181 22.071,27.765C22.071,27.349 21.899,26.95 21.594,26.655C21.288,26.361 20.874,26.196 20.441,26.196L17.182,26.196L17.182,5.804L26.96,5.804L26.96,8.941C26.96,9.357 27.132,9.756 27.437,10.05C27.743,10.344 28.157,10.51 28.59,10.51C29.022,10.51 29.436,10.344 29.742,10.05C30.047,9.756 30.219,9.357 30.219,8.941L30.219,4.235C30.219,3.819 30.047,3.42 29.742,3.126C29.436,2.832 29.022,2.667 28.59,2.667Z" fill="#000000"/>
</mask>
<rect  x="-0.448" y="0" width="32" height="32" fill="#8F9098"/>
</svg>
