<svg width="32" height="34" viewBox="0 0 32 34" fill="none" xmlns="http://www.w3.org/2000/svg" xmlns:xlink="http://www.w3.org/1999/xlink">
<mask id="mask_0_i_283_6102;38_1823;36_1808" style="mask-type:alpha" maskUnits="userSpaceOnUse" x="0.985596" y="3.229004" width="14.666666" height="13.333334">
<path d="M28.689,3.229L2.615,3.229C2.183,3.229 1.769,3.394 1.463,3.688C1.157,3.983 0.986,4.382 0.986,4.798L0.986,9.504C0.986,9.92 1.157,10.319 1.463,10.613C1.769,10.907 2.183,11.072 2.615,11.072C3.047,11.072 3.462,10.907 3.768,10.613C4.073,10.319 4.245,9.92 4.245,9.504L4.245,6.366L14.023,6.366L14.023,26.758L10.763,26.758C10.331,26.758 9.917,26.924 9.611,27.218C9.305,27.512 9.134,27.911 9.134,28.327C9.134,28.743 9.305,29.142 9.611,29.436C9.917,29.73 10.331,29.896 10.763,29.896L20.541,29.896C20.973,29.896 21.388,29.73 21.693,29.436C21.999,29.142 22.171,28.743 22.171,28.327C22.171,27.911 21.999,27.512 21.693,27.218C21.388,26.924 20.973,26.758 20.541,26.758L17.282,26.758L17.282,6.366L27.06,6.366L27.06,9.504C27.06,9.92 27.231,10.319 27.537,10.613C27.843,10.907 28.257,11.072 28.689,11.072C29.122,11.072 29.536,10.907 29.842,10.613C30.147,10.319 30.319,9.92 30.319,9.504L30.319,4.798C30.319,4.382 30.147,3.983 29.842,3.688C29.536,3.394 29.122,3.229 28.689,3.229Z" fill="#000000"/>
</mask>
<rect  x="-0.348" y="0.562" width="32" height="32" fill="#8F9098"/>
</svg>
