<svg width="34" height="34" viewBox="0 0 34 34" fill="none" xmlns="http://www.w3.org/2000/svg" xmlns:xlink="http://www.w3.org/1999/xlink">
<mask id="mask_0_i_258_5773;38_1823;36_1808" style="mask-type:alpha" maskUnits="userSpaceOnUse" x="2.279297" y="2.671143" width="14.666666" height="13.333334">
<path d="M29.983,2.671L3.909,2.671C3.477,2.671 3.062,2.836 2.757,3.131C2.451,3.425 2.279,3.824 2.279,4.24L2.279,8.946C2.279,9.362 2.451,9.761 2.757,10.055C3.062,10.349 3.477,10.514 3.909,10.514C4.341,10.514 4.756,10.349 5.061,10.055C5.367,9.761 5.539,9.362 5.539,8.946L5.539,5.808L15.316,5.808L15.316,26.201L12.057,26.201C11.625,26.201 11.21,26.366 10.905,26.66C10.599,26.954 10.427,27.353 10.427,27.769C10.427,28.185 10.599,28.584 10.905,28.878C11.21,29.173 11.625,29.338 12.057,29.338L21.835,29.338C22.267,29.338 22.681,29.173 22.987,28.878C23.293,28.584 23.464,28.185 23.464,27.769C23.464,27.353 23.293,26.954 22.987,26.66C22.681,26.366 22.267,26.201 21.835,26.201L18.576,26.201L18.576,5.808L28.353,5.808L28.353,8.946C28.353,9.362 28.525,9.761 28.831,10.055C29.136,10.349 29.551,10.514 29.983,10.514C30.415,10.514 30.83,10.349 31.135,10.055C31.441,9.761 31.613,9.362 31.613,8.946L31.613,4.24C31.613,3.824 31.441,3.425 31.135,3.131C30.83,2.836 30.415,2.671 29.983,2.671Z" fill="#000000"/>
</mask>
<rect  x="0.945" y="0.004" width="32" height="32" fill="#8F9098"/>
</svg>
