<svg width="32" height="32" viewBox="0 0 32 32" fill="none" xmlns="http://www.w3.org/2000/svg" xmlns:xlink="http://www.w3.org/1999/xlink">
<mask id="mask_0_i_259_6012;38_1823;36_1808" style="mask-type:alpha" maskUnits="userSpaceOnUse" x="0.859863" y="1.979004" width="14.666666" height="13.333334">
<path d="M28.564,1.979L2.489,1.979C2.057,1.979 1.643,2.144 1.337,2.438C1.032,2.733 0.86,3.132 0.86,3.548L0.86,8.254C0.86,8.67 1.032,9.069 1.337,9.363C1.643,9.657 2.057,9.822 2.489,9.822C2.922,9.822 3.336,9.657 3.642,9.363C3.947,9.069 4.119,8.67 4.119,8.254L4.119,5.116L13.897,5.116L13.897,25.508L10.638,25.508C10.205,25.508 9.791,25.674 9.485,25.968C9.18,26.262 9.008,26.661 9.008,27.077C9.008,27.493 9.18,27.892 9.485,28.186C9.791,28.48 10.205,28.646 10.638,28.646L20.415,28.646C20.848,28.646 21.262,28.48 21.568,28.186C21.873,27.892 22.045,27.493 22.045,27.077C22.045,26.661 21.873,26.262 21.568,25.968C21.262,25.674 20.848,25.508 20.415,25.508L17.156,25.508L17.156,5.116L26.934,5.116L26.934,8.254C26.934,8.67 27.106,9.069 27.411,9.363C27.717,9.657 28.131,9.822 28.564,9.822C28.996,9.822 29.41,9.657 29.716,9.363C30.021,9.069 30.193,8.67 30.193,8.254L30.193,3.548C30.193,3.132 30.021,2.733 29.716,2.438C29.41,2.144 28.996,1.979 28.564,1.979Z" fill="#000000"/>
</mask>
<rect  x="-0.474" y="-0.688" width="32" height="32" fill="#8F9098"/>
</svg>
