<svg width="34" height="32" viewBox="0 0 34 32" fill="none" xmlns="http://www.w3.org/2000/svg" xmlns:xlink="http://www.w3.org/1999/xlink">
<mask id="mask_0_i_251_5677;38_1823;36_1808" style="mask-type:alpha" maskUnits="userSpaceOnUse" x="1.402344" y="2.666748" width="14.666666" height="13.333334">
<path d="M29.106,2.667L3.032,2.667C2.6,2.667 2.185,2.832 1.88,3.126C1.574,3.42 1.402,3.819 1.402,4.235L1.402,8.941C1.402,9.357 1.574,9.756 1.88,10.05C2.185,10.345 2.6,10.51 3.032,10.51C3.464,10.51 3.879,10.345 4.184,10.05C4.49,9.756 4.662,9.357 4.662,8.941L4.662,5.804L14.439,5.804L14.439,26.196L11.18,26.196C10.748,26.196 10.333,26.361 10.028,26.656C9.722,26.95 9.55,27.349 9.55,27.765C9.55,28.181 9.722,28.58 10.028,28.874C10.333,29.168 10.748,29.333 11.18,29.333L20.958,29.333C21.39,29.333 21.805,29.168 22.11,28.874C22.416,28.58 22.588,28.181 22.588,27.765C22.588,27.349 22.416,26.95 22.11,26.656C21.805,26.361 21.39,26.196 20.958,26.196L17.699,26.196L17.699,5.804L27.476,5.804L27.476,8.941C27.476,9.357 27.648,9.756 27.954,10.05C28.259,10.345 28.674,10.51 29.106,10.51C29.538,10.51 29.953,10.345 30.258,10.05C30.564,9.756 30.736,9.357 30.736,8.941L30.736,4.235C30.736,3.819 30.564,3.42 30.258,3.126C29.953,2.832 29.538,2.667 29.106,2.667Z" fill="#000000"/>
</mask>
<rect  x="0.069" y="0" width="32" height="32" fill="#8F9098"/>
</svg>
