<svg width="34" height="32" viewBox="0 0 34 32" fill="none" xmlns="http://www.w3.org/2000/svg" xmlns:xlink="http://www.w3.org/1999/xlink">
<mask id="mask_0_i_251_5629;38_1823;36_1808" style="mask-type:alpha" maskUnits="userSpaceOnUse" x="2.193359" y="2.666748" width="14.666666" height="13.333334">
<path d="M29.897,2.667L3.823,2.667C3.391,2.667 2.976,2.832 2.671,3.126C2.365,3.42 2.193,3.819 2.193,4.235L2.193,8.941C2.193,9.357 2.365,9.756 2.671,10.05C2.976,10.345 3.391,10.51 3.823,10.51C4.255,10.51 4.67,10.345 4.975,10.05C5.281,9.756 5.453,9.357 5.453,8.941L5.453,5.804L15.23,5.804L15.23,26.196L11.971,26.196C11.539,26.196 11.124,26.361 10.819,26.656C10.513,26.95 10.341,27.349 10.341,27.765C10.341,28.181 10.513,28.58 10.819,28.874C11.124,29.168 11.539,29.333 11.971,29.333L21.749,29.333C22.181,29.333 22.596,29.168 22.901,28.874C23.207,28.58 23.379,28.181 23.379,27.765C23.379,27.349 23.207,26.95 22.901,26.656C22.596,26.361 22.181,26.196 21.749,26.196L18.49,26.196L18.49,5.804L28.267,5.804L28.267,8.941C28.267,9.357 28.439,9.756 28.745,10.05C29.05,10.345 29.465,10.51 29.897,10.51C30.329,10.51 30.744,10.345 31.049,10.05C31.355,9.756 31.527,9.357 31.527,8.941L31.527,4.235C31.527,3.819 31.355,3.42 31.049,3.126C30.744,2.832 30.329,2.667 29.897,2.667Z" fill="#000000"/>
</mask>
<rect  x="0.86" y="0" width="32" height="32" fill="#8F9098"/>
</svg>
