<svg width="48" height="34" viewBox="0 0 48 34" fill="none" xmlns="http://www.w3.org/2000/svg" xmlns:xlink="http://www.w3.org/1999/xlink">
<path d="M21.957,11.323C21.371,10.737 21.371,9.787 21.957,9.201C22.543,8.615 23.493,8.615 24.078,9.201L29.028,14.151L33.978,9.201C34.564,8.615 35.514,8.615 36.099,9.201C36.685,9.787 36.685,10.737 36.099,11.323L31.149,16.272L36.099,21.222C36.685,21.808 36.685,22.758 36.099,23.343C35.514,23.929 34.564,23.929 33.978,23.343L29.028,18.394L24.078,23.343C23.493,23.929 22.543,23.929 21.957,23.343C21.371,22.757 21.371,21.808 21.957,21.222L26.907,16.272L21.957,11.323Z" fill="#1F2024"/>
<path d="M15.771,1.03L0.528,16.272L15.771,31.515C16.896,32.64 18.422,33.272 20.014,33.272L40.528,33.272C43.842,33.272 46.528,30.586 46.528,27.272L46.528,5.272C46.528,1.958 43.842,-0.728 40.528,-0.728L20.014,-0.728C18.422,-0.728 16.896,-0.096 15.771,1.03ZM40.528,30.672L20.014,30.672C19.112,30.672 18.247,30.314 17.609,29.676L4.205,16.272L17.609,2.868C18.247,2.23 19.112,1.872 20.014,1.872L40.528,1.872C42.406,1.872 43.928,3.394 43.928,5.272L43.928,27.272C43.928,29.15 42.406,30.672 40.528,30.672Z" clip-rule="evenodd" fill-rule="evenodd" fill="#1F2024"/>
</svg>
