<svg width="32" height="50" viewBox="0 0 32 50" fill="none" xmlns="http://www.w3.org/2000/svg" xmlns:xlink="http://www.w3.org/1999/xlink">
<path d="M15.732,-0.125C11.09,-0.125 7.31,3.644 7.31,8.293L7.31,27.786C7.31,32.435 11.081,36.203 15.732,36.203C20.374,36.203 24.154,32.435 24.154,27.786L24.154,8.293C24.154,3.643 20.383,-0.125 15.732,-0.125ZM10.92,8.281L10.92,27.797C10.92,30.425 13.074,32.592 15.732,32.592C18.408,32.592 20.544,30.445 20.544,27.797L20.544,8.281C20.544,5.653 18.39,3.486 15.732,3.486C13.056,3.486 10.92,5.633 10.92,8.281Z" clip-rule="evenodd" fill-rule="evenodd" fill="#494A50"/>
<path d="M17.705,46.139L17.705,41.106C26.893,40.58 30.83,33.044 30.83,25.68L30.83,22.285C30.832,22.258 30.831,22.232 30.831,22.205L30.83,22.164C30.83,21.167 30.016,20.359 29.019,20.359C28.022,20.359 27.234,21.167 27.234,22.164L27.234,25.678C27.234,33.043 24.268,38.086 15.868,38.086C8.518,38.086 4.252,33.043 4.252,25.678L4.252,22.285C4.252,21.288 3.444,20.479 2.447,20.479C1.451,20.479 0.643,21.288 0.643,22.285L0.643,25.68C0.643,33.053 5.893,40.58 14.03,41.106L14.03,46.139L7.266,46.139C6.282,46.139 5.455,46.947 5.455,47.945C5.455,48.949 6.266,49.75 7.266,49.75L24.268,49.75C25.251,49.75 26.105,48.942 26.105,47.945C26.105,46.94 25.268,46.139 24.268,46.139L17.705,46.139Z" fill="#494A50"/>
</svg>
