<svg width="32" height="50" viewBox="0 0 32 50" fill="none" xmlns="http://www.w3.org/2000/svg" xmlns:xlink="http://www.w3.org/1999/xlink">
<path d="M15.996,-0.75C11.354,-0.75 7.574,3.019 7.574,7.668L7.574,27.161C7.574,31.81 11.344,35.578 15.996,35.578C20.638,35.578 24.417,31.81 24.417,27.161L24.417,7.668C24.417,3.018 20.647,-0.75 15.996,-0.75ZM11.183,7.656L11.183,27.172C11.183,29.8 13.338,31.967 15.996,31.967C18.672,31.967 20.808,29.82 20.808,27.172L20.808,7.656C20.808,5.028 18.654,2.861 15.996,2.861C13.319,2.861 11.183,5.008 11.183,7.656Z" clip-rule="evenodd" fill-rule="evenodd" fill="#494A50"/>
<path d="M17.969,45.514L17.969,40.481C27.156,39.955 31.094,32.419 31.094,25.055L31.094,21.66C31.095,21.633 31.095,21.607 31.094,21.58L31.094,21.539C31.094,20.542 30.279,19.734 29.283,19.734C28.286,19.734 27.497,20.542 27.497,21.539L27.497,25.053C27.497,32.418 24.531,37.461 16.131,37.461C8.781,37.461 4.516,32.418 4.516,25.053L4.516,21.66C4.516,20.663 3.707,19.854 2.711,19.854C1.714,19.854 0.906,20.663 0.906,21.66L0.906,25.055C0.906,32.428 6.156,39.955 14.294,40.481L14.294,45.514L7.53,45.514C6.546,45.514 5.719,46.322 5.719,47.32C5.719,48.324 6.53,49.125 7.53,49.125L24.531,49.125C25.515,49.125 26.369,48.317 26.369,47.32C26.369,46.315 25.531,45.514 24.531,45.514L17.969,45.514Z" fill="#494A50"/>
</svg>
