<svg width="32" height="50" viewBox="0 0 32 50" fill="none" xmlns="http://www.w3.org/2000/svg" xmlns:xlink="http://www.w3.org/1999/xlink">
<path d="M15.996,-0.019C11.354,-0.019 7.574,3.749 7.574,8.398L7.574,27.892C7.574,32.541 11.344,36.309 15.996,36.309C20.638,36.309 24.417,32.54 24.417,27.892L24.417,8.398C24.417,3.749 20.647,-0.019 15.996,-0.019ZM11.183,8.387L11.183,27.903C11.183,30.531 13.338,32.698 15.996,32.698C18.672,32.698 20.808,30.551 20.808,27.903L20.808,8.387C20.808,5.759 18.654,3.592 15.996,3.592C13.319,3.592 11.183,5.739 11.183,8.387Z" clip-rule="evenodd" fill-rule="evenodd" fill="#494A50"/>
<path d="M17.969,46.245L17.969,41.211C27.156,40.686 31.094,33.15 31.094,25.786L31.094,22.391C31.095,22.364 31.095,22.338 31.094,22.311L31.094,22.27C31.094,21.273 30.279,20.465 29.283,20.465C28.286,20.465 27.497,21.273 27.497,22.27L27.497,25.784C27.497,33.149 24.531,38.191 16.131,38.191C8.781,38.191 4.516,33.149 4.516,25.784L4.516,22.391C4.516,21.394 3.707,20.585 2.711,20.585C1.714,20.585 0.906,21.394 0.906,22.391L0.906,25.786C0.906,33.158 6.156,40.686 14.294,41.211L14.294,46.245L7.53,46.245C6.546,46.245 5.719,47.053 5.719,48.05C5.719,49.054 6.53,49.856 7.53,49.856L24.531,49.856C25.515,49.856 26.369,49.048 26.369,48.05C26.369,47.046 25.531,46.245 24.531,46.245L17.969,46.245Z" fill="#494A50"/>
</svg>
