<svg width="46" height="36" viewBox="0 0 46 36" fill="none" xmlns="http://www.w3.org/2000/svg" xmlns:xlink="http://www.w3.org/1999/xlink">
<path d="M20.429,12.55C19.843,11.964 19.843,11.015 20.429,10.429C21.015,9.843 21.964,9.843 22.55,10.429L27.5,15.379L32.45,10.429C33.035,9.843 33.985,9.843 34.571,10.429C35.157,11.015 35.157,11.964 34.571,12.55L29.621,17.5L34.571,22.45C35.157,23.036 35.157,23.985 34.571,24.571C33.985,25.157 33.035,25.157 32.45,24.571L27.5,19.621L22.55,24.571C21.964,25.157 21.015,25.157 20.429,24.571C19.843,23.985 19.843,23.036 20.429,22.45L25.379,17.5L20.429,12.55Z" fill="#1F2024"/>
<path d="M14.243,2.257L-1,17.5L14.243,32.743C15.368,33.868 16.894,34.5 18.485,34.5L39,34.5C42.314,34.5 45,31.814 45,28.5L45,6.5C45,3.186 42.314,0.5 39,0.5L18.485,0.5C16.894,0.5 15.368,1.132 14.243,2.257ZM39,31.9L18.485,31.9C17.583,31.9 16.719,31.542 16.081,30.904L2.677,17.5L16.081,4.096C16.719,3.458 17.583,3.1 18.485,3.1L39,3.1C40.878,3.1 42.4,4.622 42.4,6.5L42.4,28.5C42.4,30.378 40.878,31.9 39,31.9Z" clip-rule="evenodd" fill-rule="evenodd" fill="#1F2024"/>
</svg>
