<svg width="32" height="50" viewBox="0 0 32 50" fill="none" xmlns="http://www.w3.org/2000/svg" xmlns:xlink="http://www.w3.org/1999/xlink">
<path d="M15.996,-0.02C11.354,-0.02 7.574,3.749 7.574,8.397L7.574,27.891C7.574,32.54 11.344,36.308 15.996,36.308C20.638,36.308 24.417,32.54 24.417,27.891L24.417,8.397C24.417,3.748 20.647,-0.02 15.996,-0.02ZM11.183,8.386L11.183,27.902C11.183,30.53 13.338,32.697 15.996,32.697C18.672,32.697 20.808,30.55 20.808,27.902L20.808,8.386C20.808,5.758 18.654,3.591 15.996,3.591C13.319,3.591 11.183,5.738 11.183,8.386Z" clip-rule="evenodd" fill-rule="evenodd" fill="#494A50"/>
<path d="M17.969,46.244L17.969,41.211C27.156,40.685 31.094,33.149 31.094,25.785L31.094,22.39C31.095,22.363 31.095,22.337 31.094,22.31L31.094,22.269C31.094,21.272 30.279,20.464 29.283,20.464C28.286,20.464 27.497,21.272 27.497,22.269L27.497,25.783C27.497,33.148 24.531,38.191 16.131,38.191C8.781,38.191 4.516,33.148 4.516,25.783L4.516,22.39C4.516,21.393 3.707,20.584 2.711,20.584C1.714,20.584 0.906,21.393 0.906,22.39L0.906,25.785C0.906,33.158 6.156,40.685 14.294,41.211L14.294,46.244L7.53,46.244C6.546,46.244 5.719,47.052 5.719,48.05C5.719,49.054 6.53,49.855 7.53,49.855L24.531,49.855C25.515,49.855 26.369,49.047 26.369,48.05C26.369,47.045 25.531,46.244 24.531,46.244L17.969,46.244Z" fill="#494A50"/>
</svg>
