<svg width="46" height="34" viewBox="0 0 46 34" fill="none" xmlns="http://www.w3.org/2000/svg" xmlns:xlink="http://www.w3.org/1999/xlink">
<path d="M20.429,11.281C19.843,10.695 19.843,9.745 20.429,9.16C21.015,8.574 21.964,8.574 22.55,9.16L27.5,14.109L32.45,9.16C33.035,8.574 33.985,8.574 34.571,9.16C35.157,9.745 35.157,10.695 34.571,11.281L29.621,16.231L34.571,21.181C35.157,21.766 35.157,22.716 34.571,23.302C33.985,23.888 33.035,23.888 32.45,23.302L27.5,18.352L22.55,23.302C21.964,23.888 21.015,23.888 20.429,23.302C19.843,22.716 19.843,21.766 20.429,21.181L25.379,16.231L20.429,11.281Z" fill="#1F2024"/>
<path d="M14.243,0.988L-1,16.231L14.243,31.473C15.368,32.599 16.894,33.231 18.485,33.231L39,33.231C42.314,33.231 45,30.545 45,27.231L45,5.231C45,1.917 42.314,-0.769 39,-0.769L18.485,-0.769C16.894,-0.769 15.368,-0.137 14.243,0.988ZM39,30.631L18.485,30.631C17.583,30.631 16.719,30.273 16.081,29.635L2.677,16.231L16.081,2.827C16.719,2.189 17.583,1.831 18.485,1.831L39,1.831C40.878,1.831 42.4,3.353 42.4,5.231L42.4,27.231C42.4,29.109 40.878,30.631 39,30.631Z" clip-rule="evenodd" fill-rule="evenodd" fill="#1F2024"/>
</svg>
