<svg width="48" height="34" viewBox="0 0 48 34" fill="none" xmlns="http://www.w3.org/2000/svg" xmlns:xlink="http://www.w3.org/1999/xlink">
<path d="M22.165,11.175C21.579,10.589 21.579,9.64 22.165,9.054C22.751,8.468 23.701,8.468 24.286,9.054L29.236,14.004L34.186,9.054C34.772,8.468 35.722,8.468 36.307,9.054C36.893,9.64 36.893,10.589 36.307,11.175L31.357,16.125L36.307,21.075C36.893,21.661 36.893,22.61 36.307,23.196C35.722,23.782 34.772,23.782 34.186,23.196L29.236,18.246L24.286,23.196C23.701,23.782 22.751,23.782 22.165,23.196C21.579,22.61 21.579,21.661 22.165,21.075L27.115,16.125L22.165,11.175Z" fill="#1F2024"/>
<path d="M15.979,0.882L0.736,16.125L15.979,31.368C17.104,32.493 18.63,33.125 20.222,33.125L40.736,33.125C44.05,33.125 46.736,30.439 46.736,27.125L46.736,5.125C46.736,1.811 44.05,-0.875 40.736,-0.875L20.222,-0.875C18.63,-0.875 17.104,-0.243 15.979,0.882ZM40.736,30.525L20.222,30.525C19.32,30.525 18.455,30.167 17.817,29.529L4.413,16.125L17.817,2.721C18.455,2.083 19.32,1.725 20.222,1.725L40.736,1.725C42.614,1.725 44.136,3.247 44.136,5.125L44.136,27.125C44.136,29.003 42.614,30.525 40.736,30.525Z" clip-rule="evenodd" fill-rule="evenodd" fill="#1F2024"/>
</svg>
