<svg width="46" height="34" viewBox="0 0 46 34" fill="none" xmlns="http://www.w3.org/2000/svg" xmlns:xlink="http://www.w3.org/1999/xlink">
<path d="M20.429,11.28C19.843,10.694 19.843,9.745 20.429,9.159C21.015,8.573 21.964,8.573 22.55,9.159L27.5,14.109L32.45,9.159C33.035,8.573 33.985,8.573 34.571,9.159C35.157,9.745 35.157,10.694 34.571,11.28L29.621,16.23L34.571,21.18C35.157,21.766 35.157,22.715 34.571,23.301C33.985,23.887 33.035,23.887 32.45,23.301L27.5,18.351L22.55,23.301C21.964,23.887 21.015,23.887 20.429,23.301C19.843,22.715 19.843,21.766 20.429,21.18L25.379,16.23L20.429,11.28Z" fill="#1F2024"/>
<path d="M14.243,0.987L-1,16.23L14.243,31.473C15.368,32.598 16.894,33.23 18.485,33.23L39,33.23C42.314,33.23 45,30.544 45,27.23L45,5.23C45,1.916 42.314,-0.77 39,-0.77L18.485,-0.77C16.894,-0.77 15.368,-0.138 14.243,0.987ZM39,30.63L18.485,30.63C17.584,30.63 16.719,30.272 16.081,29.634L2.677,16.23L16.081,2.826C16.719,2.188 17.584,1.83 18.485,1.83L39,1.83C40.878,1.83 42.4,3.352 42.4,5.23L42.4,27.23C42.4,29.108 40.878,30.63 39,30.63Z" clip-rule="evenodd" fill-rule="evenodd" fill="#1F2024"/>
</svg>
