<svg width="32" height="50" viewBox="0 0 32 50" fill="none" xmlns="http://www.w3.org/2000/svg" xmlns:xlink="http://www.w3.org/1999/xlink">
<path d="M15.524,0.022C10.882,0.022 7.102,3.791 7.102,8.44L7.102,27.933C7.102,32.583 10.873,36.351 15.524,36.351C20.166,36.351 23.946,32.582 23.946,27.933L23.946,8.44C23.946,3.79 20.175,0.022 15.524,0.022ZM10.712,8.428L10.712,27.944C10.712,30.573 12.866,32.74 15.524,32.74C18.2,32.74 20.336,30.593 20.336,27.944L20.336,8.428C20.336,5.8 18.182,3.633 15.524,3.633C12.848,3.633 10.712,5.78 10.712,8.428Z" clip-rule="evenodd" fill-rule="evenodd" fill="#494A50"/>
<path d="M17.497,46.286L17.497,41.253C26.685,40.727 30.622,33.192 30.622,25.827L30.622,22.432C30.624,22.406 30.623,22.379 30.623,22.352L30.622,22.312C30.622,21.314 29.808,20.506 28.811,20.506C27.814,20.506 27.026,21.314 27.026,22.312L27.026,25.826C27.026,33.191 24.06,38.233 15.66,38.233C8.31,38.233 4.044,33.191 4.044,25.826L4.044,22.432C4.044,21.435 3.236,20.627 2.239,20.627C1.243,20.627 0.435,21.435 0.435,22.432L0.435,25.827C0.435,33.2 5.685,40.727 13.822,41.253L13.822,46.286L7.058,46.286C6.074,46.286 5.247,47.095 5.247,48.092C5.247,49.096 6.058,49.897 7.058,49.897L24.06,49.897C25.043,49.897 25.897,49.089 25.897,48.092C25.897,47.088 25.06,46.286 24.06,46.286L17.497,46.286Z" fill="#494A50"/>
</svg>
