<svg width="62" height="104" viewBox="0 0 62 104" fill="none" xmlns="http://www.w3.org/2000/svg" xmlns:xlink="http://www.w3.org/1999/xlink">
<path d="M17.951,1.861L60.331,1.861L60.331,-0.139L17.951,-0.139L17.951,1.861ZM2.951,102.76L2.951,43.533L0.951,43.533L0.951,102.76L2.951,102.76ZM2.951,43.533L2.951,16.861L0.951,16.861L0.951,43.533L2.951,43.533ZM1.951,44.533L60.331,44.533L60.331,42.533L1.951,42.533L1.951,44.533ZM17.951,-0.139C8.562,-0.139 0.951,7.472 0.951,16.861L2.951,16.861C2.951,8.577 9.666,1.861 17.951,1.861L17.951,-0.139Z" fill="#8F9098"/>
</svg>
