<svg width="16" height="66" viewBox="0 0 16 66" fill="none" xmlns="http://www.w3.org/2000/svg" xmlns:xlink="http://www.w3.org/1999/xlink">
<path d="M7.55,1.165C7.159,0.774 6.526,0.774 6.136,1.165L-0.228,7.529C-0.619,7.919 -0.619,8.552 -0.228,8.943C0.162,9.333 0.795,9.333 1.186,8.943L6.843,3.286L12.5,8.943C12.89,9.333 13.523,9.333 13.914,8.943C14.304,8.552 14.304,7.919 13.914,7.529L7.55,1.165ZM6.136,64.649C6.526,65.04 7.159,65.04 7.55,64.649L13.914,58.285C14.304,57.895 14.304,57.261 13.914,56.871C13.523,56.48 12.89,56.48 12.5,56.871L6.843,62.528L1.186,56.871C0.795,56.48 0.162,56.48 -0.228,56.871C-0.619,57.261 -0.619,57.895 -0.228,58.285L6.136,64.649ZM5.843,1.872L5.843,63.942L7.843,63.942L7.843,1.872L5.843,1.872Z" fill="#8F9098"/>
</svg>
