<svg width="654" height="28" viewBox="0 0 654 28" fill="none" xmlns="http://www.w3.org/2000/svg" xmlns:xlink="http://www.w3.org/1999/xlink">
<path d="M-0.632,-0.793L-0.632,9.763L1.368,9.763L1.368,-0.793L-0.632,-0.793ZM16.368,26.763L635.07,26.763L635.07,24.763L16.368,24.763L16.368,26.763ZM652.07,9.763L652.07,-0.793L650.07,-0.793L650.07,9.763L652.07,9.763ZM635.07,26.763C644.46,26.763 652.07,19.152 652.07,9.763L650.07,9.763C650.07,18.047 643.354,24.763 635.07,24.763L635.07,26.763ZM-0.632,9.763C-0.632,19.152 6.979,26.763 16.368,26.763L16.368,24.763C8.084,24.763 1.368,18.047 1.368,9.763L-0.632,9.763Z" fill="#8F9098"/>
</svg>
