<svg width="32" height="36" viewBox="0 0 32 36" fill="none" xmlns="http://www.w3.org/2000/svg" xmlns:xlink="http://www.w3.org/1999/xlink">
<path d="M3.5,8.566C3.5,7.738 2.828,7.066 2,7.066C1.172,7.066 0.5,7.738 0.5,8.566L3.5,8.566ZM0.5,34C0.5,34.828 1.172,35.5 2,35.5C2.828,35.5 3.5,34.828 3.5,34L0.5,34ZM14.5,33.999C14.5,34.828 15.172,35.499 16,35.499C16.828,35.499 17.5,34.828 17.5,33.999L14.5,33.999ZM17.5,2C17.5,1.172 16.828,0.5 16,0.5C15.172,0.5 14.5,1.172 14.5,2L17.5,2ZM28.5,34C28.5,34.828 29.172,35.5 30,35.5C30.828,35.5 31.5,34.828 31.5,34L28.5,34ZM31.5,19.944C31.5,19.115 30.828,18.444 30,18.444C29.172,18.444 28.5,19.115 28.5,19.944L31.5,19.944ZM0.5,8.566L0.5,34L3.5,34L3.5,8.566L0.5,8.566ZM17.5,33.999L17.5,2L14.5,2L14.5,33.999L17.5,33.999ZM31.5,34L31.5,19.944L28.5,19.944L28.5,34L31.5,34Z" transform="rotate(-180 16 18)" fill="#F1F5F9"/>
</svg>
