<svg width="60" height="104" viewBox="0 0 60 104" fill="none" xmlns="http://www.w3.org/2000/svg" xmlns:xlink="http://www.w3.org/1999/xlink">
<path d="M17.5,1.823L59.881,1.823L59.881,-0.177L17.5,-0.177L17.5,1.823ZM2.5,102.723L2.5,43.495L0.5,43.495L0.5,102.723L2.5,102.723ZM2.5,43.495L2.5,16.823L0.5,16.823L0.5,43.495L2.5,43.495ZM1.5,44.495L59.881,44.495L59.881,42.495L1.5,42.495L1.5,44.495ZM17.5,-0.177C8.112,-0.177 0.5,7.434 0.5,16.823L2.5,16.823C2.5,8.539 9.216,1.823 17.5,1.823L17.5,-0.177Z" fill="#8F9098"/>
</svg>
