<svg width="76" height="306" viewBox="0 0 76 306" fill="none" xmlns="http://www.w3.org/2000/svg" xmlns:xlink="http://www.w3.org/1999/xlink">
<path d="M17.526,1.361L59.907,1.361L59.907,-0.639L17.526,-0.639L17.526,1.361ZM2.526,287.313L2.526,43.033L0.526,43.033L0.526,287.313L2.526,287.313ZM2.526,43.033L2.526,16.361L0.526,16.361L0.526,43.033L2.526,43.033ZM1.526,44.033L59.907,44.033L59.907,42.033L1.526,42.033L1.526,44.033ZM17.526,304.313L74.403,304.313L74.403,302.313L17.526,302.313L17.526,304.313ZM17.526,-0.639C8.138,-0.639 0.526,6.972 0.526,16.361L2.526,16.361C2.526,8.076 9.242,1.361 17.526,1.361L17.526,-0.639ZM0.526,287.313C0.526,296.701 8.138,304.313 17.526,304.313L17.526,302.313C9.242,302.313 2.526,295.597 2.526,287.313L0.526,287.313Z" fill="#8F9098"/>
</svg>
