<svg width="60" height="138" viewBox="0 0 60 138" fill="none" xmlns="http://www.w3.org/2000/svg" xmlns:xlink="http://www.w3.org/1999/xlink">
<path d="M17.526,1.671L59.907,1.671L59.907,-0.329L17.526,-0.329L17.526,1.671ZM2.526,136.264L2.526,43.343L0.526,43.343L0.526,136.264L2.526,136.264ZM2.526,43.343L2.526,16.671L0.526,16.671L0.526,43.343L2.526,43.343ZM1.526,44.343L59.907,44.343L59.907,42.343L1.526,42.343L1.526,44.343ZM17.526,-0.329C8.138,-0.329 0.526,7.282 0.526,16.671L2.526,16.671C2.526,8.386 9.242,1.671 17.526,1.671L17.526,-0.329Z" fill="#8F9098"/>
</svg>
