<svg width="60" height="104" viewBox="0 0 60 104" fill="none" xmlns="http://www.w3.org/2000/svg" xmlns:xlink="http://www.w3.org/1999/xlink">
<path d="M17.186,1.823L59.566,1.823L59.566,-0.177L17.186,-0.177L17.186,1.823ZM2.186,102.723L2.186,43.495L0.186,43.495L0.186,102.723L2.186,102.723ZM2.186,43.495L2.186,16.823L0.186,16.823L0.186,43.495L2.186,43.495ZM1.186,44.495L59.566,44.495L59.566,42.495L1.186,42.495L1.186,44.495ZM17.186,-0.177C7.797,-0.177 0.186,7.434 0.186,16.823L2.186,16.823C2.186,8.539 8.901,1.823 17.186,1.823L17.186,-0.177Z" fill="#8F9098"/>
</svg>
