<svg width="60" height="102" viewBox="0 0 60 102" fill="none" xmlns="http://www.w3.org/2000/svg" xmlns:xlink="http://www.w3.org/1999/xlink">
<path d="M16.364,1.1L58.744,1.1L58.744,-0.9L16.364,-0.9L16.364,1.1ZM1.364,102L1.364,42.772L-0.636,42.772L-0.636,102L1.364,102ZM1.364,42.772L1.364,16.1L-0.636,16.1L-0.636,42.772L1.364,42.772ZM0.364,43.772L58.744,43.772L58.744,41.772L0.364,41.772L0.364,43.772ZM16.364,-0.9C6.975,-0.9 -0.636,6.711 -0.636,16.1L1.364,16.1C1.364,7.816 8.079,1.1 16.364,1.1L16.364,-0.9Z" fill="#8F9098"/>
</svg>
