<svg width="30" height="22" viewBox="0 0 30 22" fill="none" xmlns="http://www.w3.org/2000/svg" xmlns:xlink="http://www.w3.org/1999/xlink">
<path d="M4.32,5.12L3.491,3.87L3.486,3.874L4.32,5.12ZM4.32,16.86L5.154,15.613L5.151,15.611L4.32,16.86ZM24.34,16.86L25.174,18.107L25.174,18.106L24.34,16.86ZM24.34,5.12L23.507,6.367L23.509,6.369L24.34,5.12ZM3.486,3.874C0.755,5.702 -0.81,8.255 -0.81,10.998C-0.81,13.741 0.756,16.291 3.489,18.109L5.151,15.611C3.044,14.209 2.19,12.509 2.19,10.998C2.19,9.485 3.045,7.779 5.154,6.366L3.486,3.874ZM3.486,18.107C6.534,20.146 10.472,21.12 14.33,21.12C18.188,21.12 22.126,20.146 25.174,18.107L23.506,15.613C21.054,17.254 17.732,18.12 14.33,18.12C10.928,18.12 7.606,17.254 5.154,15.613L3.486,18.107ZM25.174,18.106C27.905,16.279 29.47,13.725 29.47,10.983C29.47,8.239 27.904,5.689 25.171,3.871L23.509,6.369C25.616,7.771 26.47,9.471 26.47,10.983C26.47,12.495 25.615,14.202 23.506,15.614L25.174,18.106ZM25.173,3.873C22.134,1.843 18.201,0.875 14.345,0.875C10.488,0.875 6.548,1.843 3.491,3.87L5.149,6.37C7.612,4.737 10.942,3.875 14.345,3.875C17.749,3.875 21.066,4.737 23.507,6.367L25.173,3.873Z" fill="#424242"/>
</svg>
