<svg width="664" height="26" viewBox="0 0 664 26" fill="none" xmlns="http://www.w3.org/2000/svg" xmlns:xlink="http://www.w3.org/1999/xlink">
<path d="M0.11,-0.5L0.11,8.791L2.11,8.791L2.11,-0.5L0.11,-0.5ZM17.11,25.791L646.094,25.791L646.094,23.791L17.11,23.791L17.11,25.791ZM663.094,8.791L663.094,-0.5L661.094,-0.5L661.094,8.791L663.094,8.791ZM646.094,25.791C655.482,25.791 663.094,18.18 663.094,8.791L661.094,8.791C661.094,17.076 654.378,23.791 646.094,23.791L646.094,25.791ZM0.11,8.791C0.11,18.18 7.722,25.791 17.11,25.791L17.11,23.791C8.826,23.791 2.11,17.076 2.11,8.791L0.11,8.791Z" fill="#8F9098"/>
</svg>
