<svg width="52" height="50" viewBox="0 0 52 50" fill="none" xmlns="http://www.w3.org/2000/svg" xmlns:xlink="http://www.w3.org/1999/xlink">
<path d="M50.127,17.77L45.46,15.437C44.597,15.017 43.523,15.343 43.103,16.207C42.66,17.093 43.01,18.143 43.873,18.563L47.583,20.407L47.583,31.583L38.833,31.607L38.833,7.667C38.833,3 35.707,0.667 31.833,0.667L13.167,0.667C9.293,0.667 6.167,3 6.167,7.667L6.167,45.583L2.667,45.583C1.71,45.583 0.917,46.377 0.917,47.333C0.917,48.29 1.71,49.083 2.667,49.083L42.333,49.083C43.29,49.083 44.083,48.29 44.083,47.333C44.083,46.377 43.29,45.583 42.333,45.583L38.833,45.583L38.833,35.107L49.333,35.083C50.313,35.083 51.083,34.29 51.083,33.333L51.083,19.333C51.083,18.68 50.71,18.073 50.127,17.77ZM12,12.077C12,8.833 13.983,7.667 16.41,7.667L28.613,7.667C31.017,7.667 33,8.833 33,12.077L33,14.947C33,18.167 31.017,19.333 28.59,19.333L16.41,19.333C13.983,19.333 12,18.167 12,14.923L12,12.077ZM13.167,24.583L20.167,24.583C21.123,24.583 21.917,25.377 21.917,26.333C21.917,27.29 21.123,28.083 20.167,28.083L13.167,28.083C12.21,28.083 11.417,27.29 11.417,26.333C11.417,25.377 12.21,24.583 13.167,24.583Z" transform="rotate(0 26 24.875)" fill="#FAC153"/>
</svg>
