<svg width="118" height="46" viewBox="0 0 118 46" fill="none" xmlns="http://www.w3.org/2000/svg" xmlns:xlink="http://www.w3.org/1999/xlink">
<path d="M75.06,2.842L117.44,2.842L117.44,0.842L75.06,0.842L75.06,2.842ZM75.06,45.514L117.44,45.514L117.44,43.514L75.06,43.514L75.06,45.514ZM60.06,28.514L60.06,23.178L58.06,23.178L58.06,28.514L60.06,28.514ZM60.06,23.178L60.06,17.842L58.06,17.842L58.06,23.178L60.06,23.178ZM59.06,22.178L-0.838,22.178L-0.838,24.178L59.06,24.178L59.06,22.178ZM75.06,43.514C66.775,43.514 60.06,36.798 60.06,28.514L58.06,28.514C58.06,37.903 65.671,45.514 75.06,45.514L75.06,43.514ZM75.06,0.842C65.671,0.842 58.06,8.453 58.06,17.842L60.06,17.842C60.06,9.558 66.775,2.842 75.06,2.842L75.06,0.842Z" fill="#8F9098"/>
</svg>
