<svg width="114" height="44" viewBox="0 0 114 44" fill="none" xmlns="http://www.w3.org/2000/svg" xmlns:xlink="http://www.w3.org/1999/xlink">
<path d="M96.869,1.237L112.256,1.237L112.256,-0.763L96.869,-0.763L96.869,1.237ZM96.869,43.909L112.256,43.909L112.256,41.909L96.869,41.909L96.869,43.909ZM81.869,26.909L81.869,21.573L79.869,21.573L79.869,26.909L81.869,26.909ZM81.869,21.573L81.869,16.237L79.869,16.237L79.869,21.573L81.869,21.573ZM80.869,20.573L0.689,20.573L0.689,22.573L80.869,22.573L80.869,20.573ZM96.869,41.909C88.585,41.909 81.869,35.193 81.869,26.909L79.869,26.909C79.869,36.298 87.48,43.909 96.869,43.909L96.869,41.909ZM96.869,-0.763C87.48,-0.763 79.869,6.848 79.869,16.237L81.869,16.237C81.869,7.953 88.585,1.237 96.869,1.237L96.869,-0.763Z" fill="#8F9098"/>
</svg>
