<svg width="60" height="240" viewBox="0 0 60 240" fill="none" xmlns="http://www.w3.org/2000/svg" xmlns:xlink="http://www.w3.org/1999/xlink">
<path d="M17.418,2.744L59.799,2.744L59.799,0.744L17.418,0.744L17.418,2.744ZM2.418,239.594L2.418,44.416L0.418,44.416L0.418,239.594L2.418,239.594ZM2.418,44.416L2.418,17.744L0.418,17.744L0.418,44.416L2.418,44.416ZM1.418,45.416L59.799,45.416L59.799,43.416L1.418,43.416L1.418,45.416ZM17.418,0.744C8.029,0.744 0.418,8.355 0.418,17.744L2.418,17.744C2.418,9.46 9.134,2.744 17.418,2.744L17.418,0.744Z" fill="#8F9098"/>
</svg>
