<svg width="60" height="138" viewBox="0 0 60 138" fill="none" xmlns="http://www.w3.org/2000/svg" xmlns:xlink="http://www.w3.org/1999/xlink">
<path d="M17.526,2.468L59.907,2.468L59.907,0.468L17.526,0.468L17.526,2.468ZM2.526,137.061L2.526,44.14L0.526,44.14L0.526,137.061L2.526,137.061ZM2.526,44.14L2.526,17.468L0.526,17.468L0.526,44.14L2.526,44.14ZM1.526,45.14L59.907,45.14L59.907,43.14L1.526,43.14L1.526,45.14ZM17.526,0.468C8.138,0.468 0.526,8.079 0.526,17.468L2.526,17.468C2.526,9.183 9.242,2.468 17.526,2.468L17.526,0.468Z" fill="#8F9098"/>
</svg>
