<svg width="60" height="104" viewBox="0 0 60 104" fill="none" xmlns="http://www.w3.org/2000/svg" xmlns:xlink="http://www.w3.org/1999/xlink">
<path d="M16.72,1.291L59.1,1.291L59.1,-0.709L16.72,-0.709L16.72,1.291ZM1.72,102.19L1.72,42.963L-0.28,42.963L-0.28,102.19L1.72,102.19ZM1.72,42.963L1.72,16.291L-0.28,16.291L-0.28,42.963L1.72,42.963ZM0.72,43.963L59.1,43.963L59.1,41.963L0.72,41.963L0.72,43.963ZM16.72,-0.709C7.331,-0.709 -0.28,6.902 -0.28,16.291L1.72,16.291C1.72,8.006 8.435,1.291 16.72,1.291L16.72,-0.709Z" fill="#8F9098"/>
</svg>
