<svg width="38" height="82" viewBox="0 0 38 82" fill="none" xmlns="http://www.w3.org/2000/svg" xmlns:xlink="http://www.w3.org/1999/xlink">
<path d="M0.284,42.672L-0.716,42.672L-0.716,42.672L0.284,42.672ZM16.284,1L36.797,1L36.797,-1L16.284,-1L16.284,1ZM1.284,81.412L1.284,42.672L-0.716,42.672L-0.716,81.412L1.284,81.412ZM1.284,42.672L1.284,16L-0.716,16L-0.716,42.672L1.284,42.672ZM0.284,43.672L36.797,43.672L36.797,41.672L0.284,41.672L0.284,43.672ZM16.284,-1C6.895,-1 -0.716,6.611 -0.716,16L1.284,16C1.284,7.716 8,1 16.284,1L16.284,-1Z" fill="#8F9098"/>
</svg>
