<svg width="60" height="104" viewBox="0 0 60 104" fill="none" xmlns="http://www.w3.org/2000/svg" xmlns:xlink="http://www.w3.org/1999/xlink">
<path d="M17.418,2.581L59.799,2.581L59.799,0.581L17.418,0.581L17.418,2.581ZM2.418,103.48L2.418,44.253L0.418,44.253L0.418,103.48L2.418,103.48ZM2.418,44.253L2.418,17.581L0.418,17.581L0.418,44.253L2.418,44.253ZM1.418,45.253L59.799,45.253L59.799,43.253L1.418,43.253L1.418,45.253ZM17.418,0.581C8.029,0.581 0.418,8.192 0.418,17.581L2.418,17.581C2.418,9.296 9.134,2.581 17.418,2.581L17.418,0.581Z" fill="#8F9098"/>
</svg>
