<svg width="60" height="240" viewBox="0 0 60 240" fill="none" xmlns="http://www.w3.org/2000/svg" xmlns:xlink="http://www.w3.org/1999/xlink">
<path d="M17.443,2.669L59.824,2.669L59.824,0.669L17.443,0.669L17.443,2.669ZM2.443,239.519L2.443,44.341L0.443,44.341L0.443,239.519L2.443,239.519ZM2.443,44.341L2.443,17.669L0.443,17.669L0.443,44.341L2.443,44.341ZM1.443,45.341L59.824,45.341L59.824,43.341L1.443,43.341L1.443,45.341ZM17.443,0.669C8.055,0.669 0.443,8.28 0.443,17.669L2.443,17.669C2.443,9.384 9.159,2.669 17.443,2.669L17.443,0.669Z" fill="#8F9098"/>
</svg>
