<svg width="62" height="104" viewBox="0 0 62 104" fill="none" xmlns="http://www.w3.org/2000/svg" xmlns:xlink="http://www.w3.org/1999/xlink">
<path d="M17.817,1.823L60.198,1.823L60.198,-0.177L17.817,-0.177L17.817,1.823ZM2.817,102.723L2.817,43.495L0.817,43.495L0.817,102.723L2.817,102.723ZM2.817,43.495L2.817,16.823L0.817,16.823L0.817,43.495L2.817,43.495ZM1.817,44.495L60.198,44.495L60.198,42.495L1.817,42.495L1.817,44.495ZM17.817,-0.177C8.429,-0.177 0.817,7.434 0.817,16.823L2.817,16.823C2.817,8.539 9.533,1.823 17.817,1.823L17.817,-0.177Z" fill="#8F9098"/>
</svg>
