<svg width="54" height="144" viewBox="0 0 54 144" fill="none" xmlns="http://www.w3.org/2000/svg" xmlns:xlink="http://www.w3.org/1999/xlink">
<path d="M17.843,1.652L53.692,1.652L53.692,-0.348L17.843,-0.348L17.843,1.652ZM2.843,143.779L2.843,45.695L0.843,45.695L0.843,143.779L2.843,143.779ZM2.843,45.695L2.843,16.652L0.843,16.652L0.843,45.695L2.843,45.695ZM1.843,46.695L53.692,46.695L53.692,44.695L1.843,44.695L1.843,46.695ZM17.843,-0.348C8.454,-0.348 0.843,7.263 0.843,16.652L2.843,16.652C2.843,8.368 9.558,1.652 17.843,1.652L17.843,-0.348Z" fill="#8F9098"/>
</svg>
