<svg width="54" height="172" viewBox="0 0 54 172" fill="none" xmlns="http://www.w3.org/2000/svg" xmlns:xlink="http://www.w3.org/1999/xlink">
<path d="M17.843,1.293L53.692,1.293L53.692,-0.707L17.843,-0.707L17.843,1.293ZM2.843,171.453L2.843,46.262L0.843,46.262L0.843,171.453L2.843,171.453ZM2.843,46.262L2.843,16.293L0.843,16.293L0.843,46.262L2.843,46.262ZM1.843,47.262L53.692,47.262L53.692,45.262L1.843,45.262L1.843,47.262ZM17.843,-0.707C8.454,-0.707 0.843,6.904 0.843,16.293L2.843,16.293C2.843,8.009 9.558,1.293 17.843,1.293L17.843,-0.707Z" fill="#8F9098"/>
</svg>
