<svg width="60" height="136" viewBox="0 0 60 136" fill="none" xmlns="http://www.w3.org/2000/svg" xmlns:xlink="http://www.w3.org/1999/xlink">
<path d="M17.469,1.406L59.849,1.406L59.849,-0.594L17.469,-0.594L17.469,1.406ZM2.469,136L2.469,43.078L0.469,43.078L0.469,136L2.469,136ZM2.469,43.078L2.469,16.407L0.469,16.407L0.469,43.078L2.469,43.078ZM1.469,44.078L59.849,44.078L59.849,42.078L1.469,42.078L1.469,44.078ZM17.469,-0.594C8.08,-0.594 0.469,7.018 0.469,16.407L2.469,16.407C2.469,8.122 9.184,1.406 17.469,1.406L17.469,-0.594Z" fill="#8F9098"/>
</svg>
