<svg width="60" height="132" viewBox="0 0 60 132" fill="none" xmlns="http://www.w3.org/2000/svg" xmlns:xlink="http://www.w3.org/1999/xlink">
<path d="M0.843,44.305L-0.157,44.305L0.843,44.305ZM16.843,2.633L59.223,2.633L59.223,0.633L16.843,0.633L16.843,2.633ZM1.843,131.04L1.843,44.305L-0.157,44.305L-0.157,131.04L1.843,131.04ZM1.843,44.305L1.843,17.633L-0.157,17.633L-0.157,44.305L1.843,44.305ZM0.843,45.305L59.223,45.305L59.223,43.305L0.843,43.305L0.843,45.305ZM16.843,0.633C7.454,0.633 -0.157,8.244 -0.157,17.633L1.843,17.633C1.843,9.349 8.558,2.633 16.843,2.633L16.843,0.633Z" fill="#8F9098"/>
</svg>
