<svg width="54" height="222" viewBox="0 0 54 222" fill="none" xmlns="http://www.w3.org/2000/svg" xmlns:xlink="http://www.w3.org/1999/xlink">
<path d="M17.843,1.746L53.692,1.746L53.692,-0.254L17.843,-0.254L17.843,1.746ZM2.843,221.856L2.843,45.789L0.843,45.789L0.843,221.856L2.843,221.856ZM2.843,45.789L2.843,16.746L0.843,16.746L0.843,45.789L2.843,45.789ZM1.843,46.789L53.692,46.789L53.692,44.789L1.843,44.789L1.843,46.789ZM17.843,-0.254C8.454,-0.254 0.843,7.358 0.843,16.746L2.843,16.746C2.843,8.462 9.558,1.746 17.843,1.746L17.843,-0.254Z" fill="#8F9098"/>
</svg>
