<svg width="60" height="88" viewBox="0 0 60 88" fill="none" xmlns="http://www.w3.org/2000/svg" xmlns:xlink="http://www.w3.org/1999/xlink">
<path d="M17.526,1.193L59.907,1.193L59.907,-0.807L17.526,-0.807L17.526,1.193ZM2.526,87.94L2.526,42.865L0.526,42.865L0.526,87.94L2.526,87.94ZM2.526,42.865L2.526,16.193L0.526,16.193L0.526,42.865L2.526,42.865ZM1.526,43.865L59.907,43.865L59.907,41.865L1.526,41.865L1.526,43.865ZM17.526,-0.807C8.138,-0.807 0.526,6.804 0.526,16.193L2.526,16.193C2.526,7.909 9.242,1.193 17.526,1.193L17.526,-0.807Z" fill="#8F9098"/>
</svg>
