<svg width="54" height="146" viewBox="0 0 54 146" fill="none" xmlns="http://www.w3.org/2000/svg" xmlns:xlink="http://www.w3.org/1999/xlink">
<path d="M16.214,2.13L52.064,2.13L52.064,0.13L16.214,0.13L16.214,2.13ZM1.214,144.256L1.214,46.172L-0.786,46.172L-0.786,144.256L1.214,144.256ZM1.214,46.172L1.214,17.13L-0.786,17.13L-0.786,46.172L1.214,46.172ZM0.214,47.172L52.064,47.172L52.064,45.172L0.214,45.172L0.214,47.172ZM16.214,0.13C6.826,0.13 -0.786,7.741 -0.786,17.13L1.214,17.13C1.214,8.845 7.93,2.13 16.214,2.13L16.214,0.13Z" fill="#8F9098"/>
</svg>
