<svg width="44" height="140" viewBox="0 0 44 140" fill="none" xmlns="http://www.w3.org/2000/svg" xmlns:xlink="http://www.w3.org/1999/xlink">
<path d="M0.843,0.84L0.843,78.5L2.843,78.5L2.843,0.84L0.843,0.84ZM1.843,79.5L42.787,79.5L42.787,77.5L1.843,77.5L1.843,79.5ZM0.843,78.5L0.843,122.175L2.843,122.175L2.843,78.5L0.843,78.5ZM17.843,139.175L42.787,139.175L42.787,137.175L17.843,137.175L17.843,139.175ZM0.843,122.175C0.843,131.564 8.454,139.175 17.843,139.175L17.843,137.175C9.558,137.175 2.843,130.459 2.843,122.175L0.843,122.175Z" fill="#8F9098"/>
</svg>
