<svg width="60" height="104" viewBox="0 0 60 104" fill="none" xmlns="http://www.w3.org/2000/svg" xmlns:xlink="http://www.w3.org/1999/xlink">
<path d="M17.418,1.823L59.799,1.823L59.799,-0.177L17.418,-0.177L17.418,1.823ZM2.418,102.723L2.418,43.495L0.418,43.495L0.418,102.723L2.418,102.723ZM2.418,43.495L2.418,16.823L0.418,16.823L0.418,43.495L2.418,43.495ZM1.418,44.495L59.799,44.495L59.799,42.495L1.418,42.495L1.418,44.495ZM17.418,-0.177C8.029,-0.177 0.418,7.434 0.418,16.823L2.418,16.823C2.418,8.539 9.134,1.823 17.418,1.823L17.418,-0.177Z" fill="#8F9098"/>
</svg>
