<svg width="100" height="76" viewBox="0 0 100 76" fill="none" xmlns="http://www.w3.org/2000/svg" xmlns:xlink="http://www.w3.org/1999/xlink">
<path d="M69.856,2.093L98.193,2.093L98.193,0.093L69.856,0.093L69.856,2.093ZM69.856,44.765L98.193,44.765L98.193,42.765L69.856,42.765L69.856,44.765ZM54.856,27.765L54.856,22.429L52.856,22.429L52.856,27.765L54.856,27.765ZM54.856,22.429L54.856,17.093L52.856,17.093L52.856,22.429L54.856,22.429ZM53.856,21.429L16.249,21.429L16.249,23.429L53.856,23.429L53.856,21.429ZM-0.751,38.429L-0.751,74.806L1.249,74.806L1.249,38.429L-0.751,38.429ZM69.856,42.765C61.572,42.765 54.856,36.049 54.856,27.765L52.856,27.765C52.856,37.154 60.467,44.765 69.856,44.765L69.856,42.765ZM16.249,21.429C6.86,21.429 -0.751,29.04 -0.751,38.429L1.249,38.429C1.249,30.145 7.964,23.429 16.249,23.429L16.249,21.429ZM69.856,0.093C60.467,0.093 52.856,7.704 52.856,17.093L54.856,17.093C54.856,8.809 61.572,2.093 69.856,2.093L69.856,0.093Z" fill="#8F9098"/>
</svg>
