<svg width="14" height="84" viewBox="0 0 14 84" fill="none" xmlns="http://www.w3.org/2000/svg" xmlns:xlink="http://www.w3.org/1999/xlink">
<path d="M7.203,1.293C6.813,0.902 6.18,0.902 5.789,1.293L-0.575,7.657C-0.966,8.047 -0.966,8.681 -0.575,9.071C-0.184,9.462 0.449,9.462 0.839,9.071L6.496,3.414L12.153,9.071C12.543,9.462 13.177,9.462 13.567,9.071C13.958,8.681 13.958,8.047 13.567,7.657L7.203,1.293ZM5.789,82.707C6.18,83.098 6.813,83.098 7.203,82.707L13.567,76.343C13.958,75.953 13.958,75.319 13.567,74.929C13.177,74.538 12.543,74.538 12.153,74.929L6.496,80.586L0.839,74.929C0.449,74.538 -0.184,74.538 -0.575,74.929C-0.966,75.319 -0.966,75.953 -0.575,76.343L5.789,82.707ZM5.496,2L5.496,82L7.496,82L7.496,2L5.496,2Z" transform="rotate(0 6.496 42)" fill="#8F9098"/>
</svg>
