<svg width="60" height="136" viewBox="0 0 60 136" fill="none" xmlns="http://www.w3.org/2000/svg" xmlns:xlink="http://www.w3.org/1999/xlink">
<path d="M17.418,1L59.799,1L59.799,-1L17.418,-1L17.418,1ZM2.418,135.594L2.418,42.672L0.418,42.672L0.418,135.594L2.418,135.594ZM2.418,42.672L2.418,16L0.418,16L0.418,42.672L2.418,42.672ZM1.418,43.672L59.799,43.672L59.799,41.672L1.418,41.672L1.418,43.672ZM17.418,-1C8.029,-1 0.418,6.611 0.418,16L2.418,16C2.418,7.716 9.134,1 17.418,1L17.418,-1Z" fill="#8F9098"/>
</svg>
