<svg width="60" height="104" viewBox="0 0 60 104" fill="none" xmlns="http://www.w3.org/2000/svg" xmlns:xlink="http://www.w3.org/1999/xlink">
<path d="M16.817,1.823L59.197,1.823L59.197,-0.177L16.817,-0.177L16.817,1.823ZM1.817,102.722L1.817,43.495L-0.183,43.495L-0.183,102.722L1.817,102.722ZM1.817,43.495L1.817,16.823L-0.183,16.823L-0.183,43.495L1.817,43.495ZM0.817,44.495L59.197,44.495L59.197,42.495L0.817,42.495L0.817,44.495ZM16.817,-0.177C7.428,-0.177 -0.183,7.434 -0.183,16.823L1.817,16.823C1.817,8.538 8.533,1.823 16.817,1.823L16.817,-0.177Z" fill="#8F9098"/>
</svg>
