<svg width="100" height="76" viewBox="0 0 100 76" fill="none" xmlns="http://www.w3.org/2000/svg" xmlns:xlink="http://www.w3.org/1999/xlink">
<path d="M71.065,2.093L99.402,2.093L99.402,0.093L71.065,0.093L71.065,2.093ZM71.065,44.765L99.402,44.765L99.402,42.765L71.065,42.765L71.065,44.765ZM56.065,27.765L56.065,22.429L54.065,22.429L54.065,27.765L56.065,27.765ZM56.065,22.429L56.065,17.093L54.065,17.093L54.065,22.429L56.065,22.429ZM55.065,21.429L17.458,21.429L17.458,23.429L55.065,23.429L55.065,21.429ZM0.458,38.429L0.458,74.806L2.458,74.806L2.458,38.429L0.458,38.429ZM71.065,42.765C62.781,42.765 56.065,36.049 56.065,27.765L54.065,27.765C54.065,37.154 61.676,44.765 71.065,44.765L71.065,42.765ZM17.458,21.429C8.069,21.429 0.458,29.04 0.458,38.429L2.458,38.429C2.458,30.145 9.173,23.429 17.458,23.429L17.458,21.429ZM71.065,0.093C61.676,0.093 54.065,7.704 54.065,17.093L56.065,17.093C56.065,8.809 62.781,2.093 71.065,2.093L71.065,0.093Z" fill="#8F9098"/>
</svg>
