<svg width="38" height="38" viewBox="0 0 38 38" fill="none" xmlns="http://www.w3.org/2000/svg" xmlns:xlink="http://www.w3.org/1999/xlink">
<path d="M26.53,-0.08L8.47,5.92C-3.67,9.98 -3.67,16.6 8.47,20.64L13.83,22.42L15.61,27.78C19.65,39.92 26.29,39.92 30.33,27.78L36.35,9.74C39.03,1.64 34.63,-2.78 26.53,-0.08ZM27.17,10.68L19.57,18.32C19.27,18.62 18.89,18.76 18.51,18.76C18.13,18.76 17.75,18.62 17.45,18.32C16.87,17.74 16.87,16.78 17.45,16.2L25.05,8.56C25.63,7.98 26.59,7.98 27.17,8.56C27.75,9.14 27.75,10.1 27.17,10.68Z" fill="#F1F5F9"/>
</svg>
