<svg width="16" height="66" viewBox="0 0 16 66" fill="none" xmlns="http://www.w3.org/2000/svg" xmlns:xlink="http://www.w3.org/1999/xlink">
<path d="M8.758,1.223C8.367,0.832 7.734,0.832 7.344,1.223L0.98,7.587C0.589,7.977 0.589,8.61 0.98,9.001C1.37,9.391 2.003,9.391 2.394,9.001L8.051,3.344L13.708,9.001C14.098,9.391 14.731,9.391 15.122,9.001C15.512,8.61 15.512,7.977 15.122,7.587L8.758,1.223ZM7.344,64.707C7.734,65.098 8.367,65.098 8.758,64.707L15.122,58.343C15.512,57.953 15.512,57.319 15.122,56.929C14.731,56.538 14.098,56.538 13.708,56.929L8.051,62.586L2.394,56.929C2.003,56.538 1.37,56.538 0.98,56.929C0.589,57.319 0.589,57.953 0.98,58.343L7.344,64.707ZM7.051,1.93L7.051,64L9.051,64L9.051,1.93L7.051,1.93Z" fill="#8F9098"/>
</svg>
