<svg width="54" height="146" viewBox="0 0 54 146" fill="none" xmlns="http://www.w3.org/2000/svg" xmlns:xlink="http://www.w3.org/1999/xlink">
<path d="M17.843,2.818L53.692,2.818L53.692,0.818L17.843,0.818L17.843,2.818ZM2.843,144.944L2.843,46.86L0.843,46.86L0.843,144.944L2.843,144.944ZM2.843,46.86L2.843,17.818L0.843,17.818L0.843,46.86L2.843,46.86ZM1.843,47.86L53.692,47.86L53.692,45.86L1.843,45.86L1.843,47.86ZM17.843,0.818C8.454,0.818 0.843,8.429 0.843,17.818L2.843,17.818C2.843,9.533 9.558,2.818 17.843,2.818L17.843,0.818Z" fill="#8F9098"/>
</svg>
