<svg width="54" height="148" viewBox="0 0 54 148" fill="none" xmlns="http://www.w3.org/2000/svg" xmlns:xlink="http://www.w3.org/1999/xlink">
<path d="M17.416,1.094L53.266,1.094L53.266,-0.906L17.416,-0.906L17.416,1.094ZM2.416,146.165L2.416,46.063L0.416,46.063L0.416,146.165L2.416,146.165ZM2.416,46.063L2.416,16.094L0.416,16.094L0.416,46.063L2.416,46.063ZM1.416,47.063L53.266,47.063L53.266,45.063L1.416,45.063L1.416,47.063ZM17.416,-0.906C8.027,-0.906 0.416,6.705 0.416,16.094L2.416,16.094C2.416,7.81 9.131,1.094 17.416,1.094L17.416,-0.906Z" fill="#8F9098"/>
</svg>
