<svg width="54" height="148" viewBox="0 0 54 148" fill="none" xmlns="http://www.w3.org/2000/svg" xmlns:xlink="http://www.w3.org/1999/xlink">
<path d="M16.416,2.747L52.266,2.747L52.266,0.747L16.416,0.747L16.416,2.747ZM1.416,147.818L1.416,47.716L-0.584,47.716L-0.584,147.818L1.416,147.818ZM1.416,47.716L1.416,17.747L-0.584,17.747L-0.584,47.716L1.416,47.716ZM0.416,48.716L52.266,48.716L52.266,46.716L0.416,46.716L0.416,48.716ZM16.416,0.747C7.027,0.747 -0.584,8.358 -0.584,17.747L1.416,17.747C1.416,9.463 8.131,2.747 16.416,2.747L16.416,0.747Z" fill="#8F9098"/>
</svg>
