<svg width="62" height="168" viewBox="0 0 62 168" fill="none" xmlns="http://www.w3.org/2000/svg" xmlns:xlink="http://www.w3.org/1999/xlink">
<path d="M17.843,1.432L60.223,1.432L60.223,-0.568L17.843,-0.568L17.843,1.432ZM2.843,167.128L2.843,43.104L0.843,43.104L0.843,167.128L2.843,167.128ZM2.843,43.104L2.843,16.432L0.843,16.432L0.843,43.104L2.843,43.104ZM1.843,44.104L60.223,44.104L60.223,42.104L1.843,42.104L1.843,44.104ZM17.843,-0.568C8.454,-0.568 0.843,7.043 0.843,16.432L2.843,16.432C2.843,8.148 9.558,1.432 17.843,1.432L17.843,-0.568Z" fill="#8F9098"/>
</svg>
