<svg width="100" height="76" viewBox="0 0 100 76" fill="none" xmlns="http://www.w3.org/2000/svg" xmlns:xlink="http://www.w3.org/1999/xlink">
<path d="M70.19,2.589L98.527,2.589L98.527,0.589L70.19,0.589L70.19,2.589ZM70.19,45.261L98.527,45.261L98.527,43.261L70.19,43.261L70.19,45.261ZM55.19,28.261L55.19,22.925L53.19,22.925L53.19,28.261L55.19,28.261ZM55.19,22.925L55.19,17.589L53.19,17.589L53.19,22.925L55.19,22.925ZM54.19,21.925L16.582,21.925L16.582,23.925L54.19,23.925L54.19,21.925ZM-0.418,38.925L-0.418,75.302L1.582,75.302L1.582,38.925L-0.418,38.925ZM70.19,43.261C61.905,43.261 55.19,36.545 55.19,28.261L53.19,28.261C53.19,37.649 60.801,45.261 70.19,45.261L70.19,43.261ZM16.582,21.925C7.193,21.925 -0.418,29.536 -0.418,38.925L1.582,38.925C1.582,30.64 8.298,23.925 16.582,23.925L16.582,21.925ZM70.19,0.589C60.801,0.589 53.19,8.2 53.19,17.589L55.19,17.589C55.19,9.304 61.905,2.589 70.19,2.589L70.19,0.589Z" transform="rotate(360 49.554 38.445)" fill="#8F9098"/>
</svg>
