<svg width="54" height="138" viewBox="0 0 54 138" fill="none" xmlns="http://www.w3.org/2000/svg" xmlns:xlink="http://www.w3.org/1999/xlink">
<path d="M17.802,2.333L53.652,2.333L53.652,0.333L17.802,0.333L17.802,2.333ZM2.802,136.926L2.802,44.005L0.802,44.005L0.802,136.926L2.802,136.926ZM2.802,44.005L2.802,17.333L0.802,17.333L0.802,44.005L2.802,44.005ZM1.802,45.005L53.652,45.005L53.652,43.005L1.802,43.005L1.802,45.005ZM17.802,0.333C8.413,0.333 0.802,7.944 0.802,17.333L2.802,17.333C2.802,9.049 9.518,2.333 17.802,2.333L17.802,0.333Z" transform="rotate(360 27.727 69.13)" fill="#8F9098"/>
</svg>
