<svg width="60" height="200" viewBox="0 0 60 200" fill="none" xmlns="http://www.w3.org/2000/svg" xmlns:xlink="http://www.w3.org/1999/xlink">
<path d="M17.526,1.562L59.907,1.562L59.907,-0.438L17.526,-0.438L17.526,1.562ZM2.526,199.94L2.526,43.234L0.526,43.234L0.526,199.94L2.526,199.94ZM2.526,43.234L2.526,16.562L0.526,16.562L0.526,43.234L2.526,43.234ZM1.526,44.234L59.907,44.234L59.907,42.234L1.526,42.234L1.526,44.234ZM17.526,-0.438C8.138,-0.438 0.526,7.173 0.526,16.562L2.526,16.562C2.526,8.277 9.242,1.562 17.526,1.562L17.526,-0.438Z" fill="#8F9098"/>
</svg>
