<svg width="60" height="104" viewBox="0 0 60 104" fill="none" xmlns="http://www.w3.org/2000/svg" xmlns:xlink="http://www.w3.org/1999/xlink">
<path d="M17.393,1.823L59.773,1.823L59.773,-0.177L17.393,-0.177L17.393,1.823ZM2.393,102.723L2.393,43.495L0.393,43.495L0.393,102.723L2.393,102.723ZM2.393,43.495L2.393,16.823L0.393,16.823L0.393,43.495L2.393,43.495ZM1.393,44.495L59.773,44.495L59.773,42.495L1.393,42.495L1.393,44.495ZM17.393,-0.177C8.004,-0.177 0.393,7.434 0.393,16.823L2.393,16.823C2.393,8.539 9.108,1.823 17.393,1.823L17.393,-0.177Z" fill="#8F9098"/>
</svg>
