<svg width="60" height="104" viewBox="0 0 60 104" fill="none" xmlns="http://www.w3.org/2000/svg" xmlns:xlink="http://www.w3.org/1999/xlink">
<path d="M17.475,1.293L59.856,1.293L59.856,-0.707L17.475,-0.707L17.475,1.293ZM2.475,102.193L2.475,42.965L0.475,42.965L0.475,102.193L2.475,102.193ZM2.475,42.965L2.475,16.293L0.475,16.293L0.475,42.965L2.475,42.965ZM1.475,43.965L59.856,43.965L59.856,41.965L1.475,41.965L1.475,43.965ZM17.475,-0.707C8.086,-0.707 0.475,6.905 0.475,16.293L2.475,16.293C2.475,8.009 9.191,1.293 17.475,1.293L17.475,-0.707Z" fill="#8F9098"/>
</svg>
