<svg width="60" height="104" viewBox="0 0 60 104" fill="none" xmlns="http://www.w3.org/2000/svg" xmlns:xlink="http://www.w3.org/1999/xlink">
<path d="M16.395,1.823L58.775,1.823L58.775,-0.177L16.395,-0.177L16.395,1.823ZM1.395,102.723L1.395,43.495L-0.605,43.495L-0.605,102.723L1.395,102.723ZM1.395,43.495L1.395,16.823L-0.605,16.823L-0.605,43.495L1.395,43.495ZM0.395,44.495L58.775,44.495L58.775,42.495L0.395,42.495L0.395,44.495ZM16.395,-0.177C7.006,-0.177 -0.605,7.434 -0.605,16.823L1.395,16.823C1.395,8.539 8.11,1.823 16.395,1.823L16.395,-0.177Z" fill="#8F9098"/>
</svg>
