<svg width="16" height="66" viewBox="0 0 16 66" fill="none" xmlns="http://www.w3.org/2000/svg" xmlns:xlink="http://www.w3.org/1999/xlink">
<path d="M7.55,1.293C7.159,0.902 6.526,0.902 6.136,1.293L-0.228,7.657C-0.619,8.047 -0.619,8.681 -0.228,9.071C0.162,9.462 0.795,9.462 1.186,9.071L6.843,3.414L12.5,9.071C12.89,9.462 13.523,9.462 13.914,9.071C14.304,8.681 14.304,8.047 13.914,7.657L7.55,1.293ZM6.136,64.777C6.526,65.168 7.159,65.168 7.55,64.777L13.914,58.413C14.304,58.023 14.304,57.39 13.914,56.999C13.523,56.609 12.89,56.609 12.5,56.999L6.843,62.656L1.186,56.999C0.795,56.609 0.162,56.609 -0.228,56.999C-0.619,57.39 -0.619,58.023 -0.228,58.413L6.136,64.777ZM5.843,2L5.843,64.07L7.843,64.07L7.843,2L5.843,2Z" fill="#8F9098"/>
</svg>
