<svg width="54" height="172" viewBox="0 0 54 172" fill="none" xmlns="http://www.w3.org/2000/svg" xmlns:xlink="http://www.w3.org/1999/xlink">
<path d="M16.989,1.293L52.839,1.293L52.839,-0.707L16.989,-0.707L16.989,1.293ZM1.989,171.453L1.989,46.262L-0.011,46.262L-0.011,171.453L1.989,171.453ZM1.989,46.262L1.989,16.293L-0.011,16.293L-0.011,46.262L1.989,46.262ZM0.989,47.262L52.839,47.262L52.839,45.262L0.989,45.262L0.989,47.262ZM16.989,-0.707C7.6,-0.707 -0.011,6.904 -0.011,16.293L1.989,16.293C1.989,8.009 8.704,1.293 16.989,1.293L16.989,-0.707Z" fill="#8F9098"/>
</svg>
