<svg width="22" height="22" viewBox="0 0 22 22" fill="none" xmlns="http://www.w3.org/2000/svg" xmlns:xlink="http://www.w3.org/1999/xlink">
<path d="M10.32,19.74L10.171,21.233C10.237,21.239 10.304,21.241 10.371,21.239L10.32,19.74ZM9.66,19.74L9.61,21.239C9.672,21.241 9.734,21.239 9.796,21.234L9.66,19.74ZM18.88,10.88L20.38,10.886L20.38,10.88L18.88,10.88ZM10.469,18.247C10.166,18.217 9.83,18.218 9.524,18.246L9.796,21.234C9.93,21.222 10.074,21.223 10.171,21.233L10.469,18.247ZM9.711,18.241C5.761,18.108 2.62,14.873 2.62,10.88L-0.38,10.88C-0.38,16.487 4.039,21.052 9.61,21.239L9.711,18.241ZM2.62,10.88C2.62,6.806 5.911,3.5 10,3.5L10,0.5C4.249,0.5 -0.38,5.154 -0.38,10.88L2.62,10.88ZM10,3.5C14.072,3.5 17.38,6.808 17.38,10.88L20.38,10.88C20.38,5.152 15.729,0.5 10,0.5L10,3.5ZM17.38,10.874C17.363,14.873 14.218,18.108 10.27,18.241L10.371,21.239C15.942,21.052 20.357,16.487 20.38,10.886L17.38,10.874Z" fill="#424242"/>
</svg>
