<svg width="48" height="48" viewBox="0 0 48 48" fill="none" xmlns="http://www.w3.org/2000/svg" xmlns:xlink="http://www.w3.org/1999/xlink">
<line x1="14" y1="20.8" x2="26" y2="20.8" fill="#FFFFFF" stroke="#FFFFFF" stroke-width="1.5" stroke-miterlimit="3.999327" stroke-linecap="round" stroke-linejoin="round"/>
<path d="M2.5,22.3C2.5,23.129 3.172,23.8 4,23.8C4.828,23.8 5.5,23.129 5.5,22.3L2.5,22.3ZM28.5,12.3C28.5,13.129 29.172,13.8 30,13.8C30.828,13.8 31.5,13.129 31.5,12.3L28.5,12.3ZM5.5,22.3L5.5,13.06L2.5,13.06L2.5,22.3L5.5,22.3ZM5.5,13.06C5.5,9.809 8.128,7.18 11.38,7.18L11.38,4.18C6.472,4.18 2.5,8.152 2.5,13.06L5.5,13.06ZM11.38,7.18L22.62,7.18L22.62,4.18L11.38,4.18L11.38,7.18ZM22.62,7.18C24.357,7.18 25.84,7.721 26.863,8.599C27.866,9.459 28.5,10.698 28.5,12.3L31.5,12.3C31.5,9.823 30.484,7.752 28.817,6.322C27.17,4.91 24.963,4.18 22.62,4.18L22.62,7.18Z" fill="#FFFFFF"/>
<path d="M34.96,24.4L35.999,25.482C36.011,25.47 36.023,25.458 36.035,25.446L34.96,24.4ZM33.88,28.36L32.429,28.741L32.431,28.749L33.88,28.36ZM40,31.4L41.5,31.4C41.5,30.571 40.828,29.9 40,29.9L40,31.4ZM40,23.2L40,24.7C40.828,24.7 41.5,24.028 41.5,23.2L40,23.2ZM37.84,23.2L37.84,24.7L37.84,23.2ZM33.921,23.318C32.537,24.647 31.888,26.684 32.429,28.741L35.331,27.978C35.072,26.996 35.383,26.073 35.999,25.482L33.921,23.318ZM32.431,28.749C33.139,31.379 35.669,32.9 38.14,32.9L38.14,29.9C36.771,29.9 35.622,29.06 35.329,27.97L32.431,28.749ZM38.14,32.9L40,32.9L40,29.9L38.14,29.9L38.14,32.9ZM38.5,31.4L38.5,34.3L41.5,34.3L41.5,31.4L38.5,31.4ZM38.5,34.3C38.5,37.891 35.592,40.8 32,40.8L32,43.8C37.248,43.8 41.5,39.548 41.5,34.3L38.5,34.3ZM32,40.8L12,40.8L12,43.8L32,43.8L32,40.8ZM12,40.8C8.408,40.8 5.5,37.891 5.5,34.3L2.5,34.3C2.5,39.548 6.752,43.8 12,43.8L12,40.8ZM5.5,34.3L5.5,20.3L2.5,20.3L2.5,34.3L5.5,34.3ZM5.5,20.3C5.5,16.708 8.408,13.8 12,13.8L12,10.8C6.752,10.8 2.5,15.051 2.5,20.3L5.5,20.3ZM12,13.8L32,13.8L32,10.8L12,10.8L12,13.8ZM32,13.8C35.572,13.8 38.5,16.728 38.5,20.3L41.5,20.3C41.5,15.071 37.228,10.8 32,10.8L32,13.8ZM38.5,20.3L38.5,23.2L41.5,23.2L41.5,20.3L38.5,20.3ZM40,21.7L37.84,21.7L37.84,24.7L40,24.7L40,21.7ZM37.84,21.7C36.318,21.7 34.91,22.301 33.885,23.353L36.035,25.446C36.49,24.978 37.122,24.7 37.84,24.7L37.84,21.7Z" fill="#FFFFFF"/>
<path d="M33.76,27.66L35.255,27.536L35.253,27.518L33.76,27.66ZM34.96,24.4L36.008,25.474C36.017,25.465 36.026,25.456 36.035,25.447L34.96,24.4ZM41.94,23.2L41.94,21.7L41.94,23.2ZM42.5,25.24L42.5,29.36L45.5,29.36L45.5,25.24L42.5,25.24ZM42.5,29.36C42.5,29.642 42.261,29.9 41.94,29.9L41.94,32.9C43.899,32.9 45.5,31.318 45.5,29.36L42.5,29.36ZM41.94,29.9L38.08,29.9L38.08,32.9L41.94,32.9L41.94,29.9ZM38.08,29.9C36.582,29.9 35.361,28.806 35.255,27.536L32.265,27.785C32.519,30.835 35.258,32.9 38.08,32.9L38.08,29.9ZM35.253,27.518C35.178,26.733 35.476,25.993 36.008,25.474L33.912,23.327C32.764,24.447 32.102,26.068 32.267,27.802L35.253,27.518ZM36.035,25.447C36.49,24.979 37.122,24.7 37.84,24.7L37.84,21.7C36.318,21.7 34.909,22.302 33.885,23.354L36.035,25.447ZM37.84,24.7L41.94,24.7L41.94,21.7L37.84,21.7L37.84,24.7ZM41.94,24.7C42.261,24.7 42.5,24.958 42.5,25.24L45.5,25.24C45.5,23.282 43.899,21.7 41.94,21.7L41.94,24.7Z" fill="#FFFFFF"/>
</svg>
