<svg width="48" height="48" viewBox="0 0 48 48" fill="none" xmlns="http://www.w3.org/2000/svg" xmlns:xlink="http://www.w3.org/1999/xlink">
<line x1="4" y1="23.72" x2="38" y2="23.72" stroke="#424242" stroke-width="1.5" stroke-miterlimit="10" stroke-linecap="round" stroke-linejoin="round"/>
<path d="M38,34.86L39.5,34.876L39.5,34.86L38,34.86ZM10,13.14L9.938,11.641L9.912,11.643L10,13.14ZM36.5,20.56L36.5,34.86L39.5,34.86L39.5,20.56L36.5,20.56ZM36.5,34.844C36.47,37.682 36.04,38.87 35.397,39.475C34.728,40.104 33.42,40.5 30.44,40.5L30.44,43.5C33.4,43.5 35.842,43.176 37.453,41.66C39.09,40.12 39.47,37.738 39.5,34.876L36.5,34.844ZM30.44,40.5L11.56,40.5L11.56,43.5L30.44,43.5L30.44,40.5ZM11.56,40.5C8.529,40.5 7.228,40.088 6.569,39.437C5.917,38.794 5.5,37.526 5.5,34.54L2.5,34.54C2.5,37.514 2.843,39.976 4.461,41.573C6.073,43.162 8.551,43.5 11.56,43.5L11.56,40.5ZM5.5,34.54L5.5,20.56L2.5,20.56L2.5,34.54L5.5,34.54ZM5.5,20.56C5.5,17.871 5.84,16.566 6.398,15.862C6.89,15.241 7.822,14.771 10.088,14.637L9.912,11.643C7.438,11.789 5.37,12.329 4.047,13.998C2.79,15.584 2.5,17.85 2.5,20.56L5.5,20.56ZM10.062,14.639C10.541,14.619 11.034,14.6 11.56,14.6L11.56,11.6C10.966,11.6 10.419,11.621 9.938,11.641L10.062,14.639ZM11.56,14.6L30.44,14.6L30.44,11.6L11.56,11.6L11.56,14.6ZM30.44,14.6C33.471,14.6 34.772,15.013 35.431,15.663C36.083,16.306 36.5,17.574 36.5,20.56L39.5,20.56C39.5,17.586 39.157,15.124 37.539,13.527C35.927,11.938 33.449,11.6 30.44,11.6L30.44,14.6Z" fill="#424242"/>
<path d="M38,34.86L36.5,34.86C36.5,35.273 36.67,35.668 36.971,35.951C37.272,36.235 37.676,36.382 38.088,36.357L38,34.86ZM10,13.14L8.5,13.124C8.496,13.536 8.661,13.931 8.956,14.217C9.251,14.503 9.651,14.656 10.062,14.639L10,13.14ZM36.44,6L36.44,7.5L36.44,6ZM42.5,13.46L42.5,27.44L45.5,27.44L45.5,13.46L42.5,13.46ZM42.5,27.44C42.5,30.129 42.16,31.434 41.602,32.138C41.11,32.759 40.178,33.229 37.912,33.363L38.088,36.357C40.562,36.211 42.63,35.671 43.953,34.002C45.21,32.416 45.5,30.151 45.5,27.44L42.5,27.44ZM39.5,34.86L39.5,20.56L36.5,20.56L36.5,34.86L39.5,34.86ZM39.5,20.56C39.5,17.586 39.157,15.124 37.539,13.527C35.927,11.938 33.449,11.6 30.44,11.6L30.44,14.6C33.471,14.6 34.772,15.012 35.431,15.663C36.083,16.306 36.5,17.574 36.5,20.56L39.5,20.56ZM30.44,11.6L11.56,11.6L11.56,14.6L30.44,14.6L30.44,11.6ZM11.56,11.6C10.966,11.6 10.419,11.621 9.938,11.641L10.062,14.639C10.541,14.619 11.034,14.6 11.56,14.6L11.56,11.6ZM11.5,13.156C11.53,10.318 11.96,9.13 12.603,8.525C13.272,7.896 14.58,7.5 17.56,7.5L17.56,4.5C14.6,4.5 12.158,4.824 10.547,6.34C8.91,7.88 8.53,10.262 8.5,13.124L11.5,13.156ZM17.56,7.5L36.44,7.5L36.44,4.5L17.56,4.5L17.56,7.5ZM36.44,7.5C39.471,7.5 40.772,7.912 41.431,8.563C42.083,9.206 42.5,10.474 42.5,13.46L45.5,13.46C45.5,10.486 45.157,8.024 43.539,6.427C41.927,4.838 39.449,4.5 36.44,4.5L36.44,7.5Z" fill="#424242"/>
<line x1="10.5" y1="34.12" x2="13.94" y2="34.12" stroke="#424242" stroke-width="1.5" stroke-miterlimit="10" stroke-linecap="round" stroke-linejoin="round"/>
<line x1="18.22" y1="34.12" x2="25.1" y2="34.12" stroke="#424242" stroke-width="1.5" stroke-miterlimit="10" stroke-linecap="round" stroke-linejoin="round"/>
</svg>
